<?xml version="1.0" encoding="UTF-8" standalone="no"?>
<!-- Generator: Adobe Illustrator 15.0.2, SVG Export Plug-In . SVG Version: 6.00 Build 0)  -->

<svg
   xmlns:dc="http://purl.org/dc/elements/1.1/"
   xmlns:cc="http://creativecommons.org/ns#"
   xmlns:rdf="http://www.w3.org/1999/02/22-rdf-syntax-ns#"
   xmlns:svg="http://www.w3.org/2000/svg"
   xmlns="http://www.w3.org/2000/svg"
   xmlns:sodipodi="http://sodipodi.sourceforge.net/DTD/sodipodi-0.dtd"
   xmlns:inkscape="http://www.inkscape.org/namespaces/inkscape"
   version="1.1"
   id="Layer_1"
   x="0px"
   y="0px"
   width="210mm"
   height="297mm"
   viewBox="0 0 210 296.99999"
   enable-background="new 0 0 1130 1152"
   xml:space="preserve"
   sodipodi:docname="Abstract-016-B-W.svg"
   inkscape:version="0.92.2 5c3e80d, 2017-08-06"><defs
     id="defs347" /><sodipodi:namedview
     pagecolor="#ffffff"
     bordercolor="#666666"
     borderopacity="1"
     objecttolerance="10"
     gridtolerance="10"
     guidetolerance="10"
     inkscape:pageopacity="0"
     inkscape:pageshadow="2"
     inkscape:window-width="1360"
     inkscape:window-height="690"
     id="namedview345"
     showgrid="false"
     units="mm"
     inkscape:document-units="mm"
     inkscape:zoom="0.28971736"
     inkscape:cx="372.38472"
     inkscape:cy="459.38015"
     inkscape:window-x="0"
     inkscape:window-y="1"
     inkscape:window-maximized="1"
     inkscape:current-layer="Layer_1" /><path
     stroke-miterlimit="10"
     d="m 85.253947,64.292457 h 1.08475 c 6.646491,0.11309 13.299607,2.148698 18.712863,6.043537 0.21201,0.126797 0.48823,0.409417 0.73154,0.171347 5.37371,-3.863996 11.92585,-6.014284 18.53305,-6.214884 h 2.21542 c 2.39408,0.11995 4.77537,0.474747 7.10068,1.058934 1.94629,0.455777 3.59832,1.975518 4.13475,3.911739 0.60315,2.268645 0.96618,4.598973 1.12222,6.939578 1.7754,-1.593531 3.72535,-2.993322 5.81054,-4.155296 1.62416,-0.906314 3.70981,-0.841194 5.32391,0.0601 8.46119,4.859413 14.69119,13.560472 16.27445,23.219445 0.0464,0.26889 0.0925,0.659797 0.45921,0.642667 9.76915,1.596951 18.68064,7.810036 23.50216,16.461306 0.87913,1.6655 0.81402,3.75595 -0.13183,5.37851 -1.17202,1.98079 -2.5291,3.85534 -4.04907,5.58414 2.08131,0.11651 4.15531,0.42151 6.17699,0.93739 0.88599,0.20721 1.78385,0.47497 2.5138,1.04385 1.12062,0.81859 1.89694,2.06783 2.19166,3.42012 0.69568,2.66275 0.9527,5.41278 1.11194,8.1491 -0.14211,3.24351 -0.50719,6.50278 -1.43796,9.62452 -0.93031,3.20262 -2.34245,6.27159 -4.21152,9.03533 -0.27986,0.39707 -0.56408,0.79117 -0.79391,1.22183 3.66572,5.01868 5.83659,11.09469 6.27707,17.28722 0.0493,0.66827 0.15398,1.3315 0.20356,2.00136 v 0.80236 c -0.2175,1.8709 -0.29632,3.76121 -0.68014,5.60789 -0.27462,1.35023 -0.46127,2.76237 -1.16859,3.97255 -0.74001,1.28511 -2.03562,2.20468 -3.46307,2.56794 -2.20332,0.56042 -4.45849,0.91523 -6.72554,1.06236 1.24924,1.39821 2.38676,2.89762 3.38424,4.4859 0.44048,0.72835 0.93397,1.44299 1.18253,2.26706 0.44528,1.45806 0.2753,3.09958 -0.49165,4.42078 -4.86287,8.458 -13.57446,14.67269 -23.23165,16.2459 -0.21933,0.0462 -0.50377,0.0834 -0.59127,0.32693 -1.54557,9.82718 -7.79978,18.78825 -16.48692,23.63261 -1.67076,0.88599 -3.79708,0.80191 -5.41279,-0.16792 -1.96707,-1.16517 -3.82837,-2.51197 -5.54369,-4.02486 -0.12154,2.15053 -0.4423,4.29056 -0.97326,6.37781 -0.38565,2.14848 -2.10278,3.98397 -4.23939,4.45689 -2.1848,0.58099 -4.42924,0.89604 -6.68259,1.05048 -1.75095,0.27941 -3.50876,-0.0137 -5.25697,-0.14758 -5.64239,-0.58076 -11.16849,-2.56635 -15.77776,-5.89257 -0.19877,-0.11308 -0.47132,-0.35297 -0.69065,-0.15947 -2.78064,2.01529 -5.890973,3.56908 -9.161902,4.61773 -3.195762,1.07767 -6.559219,1.44961 -9.90051,1.73222 h -0.873883 c -2.64562,-0.26364 -5.313631,-0.46241 -7.885678,-1.1855 -1.441161,-0.31048 -2.729697,-1.22183 -3.516076,-2.46605 -0.695671,-1.05528 -0.863597,-2.33559 -1.136157,-3.54189 -0.323734,-1.59856 -0.531179,-3.21952 -0.637414,-4.84527 -1.746157,1.56452 -3.654978,2.94879 -5.692425,4.10848 -1.63466,0.93579 -3.755957,0.93213 -5.397474,0.0139 C 52.50765,236.558 46.255036,227.74909 44.69919,218.00462 c -0.05297,-0.58921 -0.752108,-0.49669 -1.168594,-0.59607 -8.964956,-1.66025 -17.107435,-7.24096 -21.947911,-14.96032 -0.786604,-1.18916 -1.507869,-2.51722 -1.422191,-3.99264 -0.05143,-1.8147 1.072638,-3.31229 2.021913,-4.75002 0.849883,-1.25244 1.783617,-2.44525 2.777442,-3.5862 -2.177728,-0.11995 -4.343567,-0.44894 -6.456413,-0.9904 -1.987642,-0.38724 -3.711408,-1.91568 -4.275025,-3.86927 -0.722179,-2.58965 -1.090462,-5.27297 -1.174538,-7.95788 v -1.58166 c 0.152386,-6.57933 2.195088,-13.15431 6.053851,-18.51089 0.140506,-0.20722 0.35138,-0.50194 0.154213,-0.74366 -3.89966,-5.3632 -6.021182,-11.94801 -6.207839,-18.56023 v -1.92779 c 0.09938,-2.63076 0.476352,-5.25742 1.199444,-7.78949 0.544886,-1.81812 2.112838,-3.26933 3.947862,-3.72512 2.213825,-0.56751 4.480651,-0.92871 6.763011,-1.07264 -1.372386,-1.53346 -2.606094,-3.19279 -3.661603,-4.95746 -0.368284,-0.62507 -0.764213,-1.24924 -0.947441,-1.9584 -0.423344,-1.5387 -0.143934,-3.24031 0.719663,-4.58025 4.903995,-8.2743 13.490149,-14.353735 23.013699,-15.914826 0.282613,-0.0411 0.680137,-0.10943 0.649294,-0.486627 1.489132,-9.019499 6.891637,-17.328269 14.561193,-22.316321 1.010953,-0.685387 2.059612,-1.387911 3.272756,-1.653391 1.38107,-0.317107 2.866773,-0.0411 4.079691,0.675117 1.951545,1.163324 3.797086,2.503265 5.505543,4.002666 0.126799,-2.356135 0.509021,-4.698343 1.144609,-6.970408 0.488457,-1.824961 2.025334,-3.295132 3.832953,-3.797059 2.644475,-0.721037 5.38102,-1.080864 8.119175,-1.140954"
     id="path2"
     inkscape:connector-curvature="0"
     style="fill:none;stroke:#231f20;stroke-width:0.45692924;stroke-miterlimit:10" /><path
     stroke-miterlimit="10"
     d="m 77.807138,67.577309 c -1.132728,0.287857 -2.095703,1.213131 -2.376715,2.354305 -0.755536,2.729455 -1.103488,5.56537 -1.076074,8.396041 3.908577,4.177467 6.660432,9.389857 8.010659,14.943344 0.769468,-0.774484 1.54899,-1.538701 2.311608,-2.320035 -3.128822,-5.143863 -4.442952,-11.456306 -3.214499,-17.386781 6.898486,-1.276421 14.298455,0.633987 19.751223,5.039462 1.17363,0.923453 2.18482,2.02716 3.25906,3.06028 4.81147,4.814863 9.62681,9.627896 14.43987,14.442759 1.55242,-1.591701 3.22821,-3.082422 4.53229,-4.893683 -3.98763,-3.964746 -7.94714,-7.958965 -11.93111,-11.929226 -1.67442,-1.64151 -3.29674,-3.336254 -5.02257,-4.926365 -3.21084,-2.803245 -6.973894,-4.999913 -11.034392,-6.310844 -5.677347,-1.834791 -11.883584,-2.012988 -17.64935,-0.469257"
     id="path4"
     inkscape:connector-curvature="0"
     style="fill:none;stroke:#231f20;stroke-width:0.45692924;stroke-miterlimit:10" /><path
     stroke-miterlimit="10"
     d="m 107.34923,72.133322 c 1.74295,1.460111 3.29148,3.127202 4.90604,4.720733 5.12172,-3.147762 11.40496,-4.367756 17.3247,-3.289872 1.34703,6.561032 -0.36645,13.601592 -4.31295,18.976882 -1.54374,2.150518 -3.56222,3.884326 -5.39908,5.770987 2.63215,-1.209724 5.45391,-1.919101 8.28802,-2.474268 0.12862,-0.510617 0.24856,-1.023054 0.35434,-1.537101 1.1702,-5.933877 4.0854,-11.481884 8.17332,-15.926648 0.0206,-2.832271 -0.32396,-5.671606 -1.05048,-8.411571 -0.305,-1.154884 -1.26752,-2.131568 -2.44503,-2.383325 -8.72437,-2.392018 -18.43823,-0.622117 -25.83888,4.554183"
     id="path6"
     inkscape:connector-curvature="0"
     style="fill:none;stroke:#231f20;stroke-width:0.45692924;stroke-miterlimit:10" /><path
     stroke-miterlimit="10"
     d="M 61.340552,74.54246 C 53.835487,79.093465 48.499697,86.999455 46.9747,95.630347 c 2.263398,-0.19877 4.539132,-0.12337 6.809387,-0.13868 1.394545,-5.846377 4.97253,-11.158147 9.926097,-14.574822 6.689446,4.412309 10.750407,12.395284 10.635714,20.378475 -0.0137,1.32282 -0.0021,2.64722 -0.007,3.97004 1.019405,-2.70389 2.493236,-5.20055 4.108934,-7.585695 -0.680369,-1.168604 -1.4889,-2.256538 -2.129743,-3.447522 -2.561777,-4.557843 -3.954728,-9.732533 -4.199641,-14.946538 -1.994499,-2.0098 -4.237333,-3.778101 -6.689446,-5.198695 -0.699099,-0.407807 -1.547163,-0.538037 -2.340616,-0.381987 -0.649752,0.11286 -1.187788,0.519067 -1.747984,0.837537"
     id="path8"
     inkscape:connector-curvature="0"
     style="fill:none;stroke:#231f20;stroke-width:0.45692924;stroke-miterlimit:10" /><path
     stroke-miterlimit="10"
     d="m 145.69038,74.059263 c -2.48455,1.410081 -4.77559,3.169932 -6.75683,5.231142 -0.18278,5.709312 -1.93099,11.327909 -4.89349,16.202632 1.09138,-0.001 2.18298,0 3.27435,-0.001 1.42242,-5.851397 4.9554,-11.254097 10.02389,-14.573212 6.43037,4.417339 10.4984,12.071317 10.5313,19.876315 0.008,7.51534 -0.002,15.02909 0.005,22.5426 2.22274,-0.0206 4.46009,0.10807 6.66546,-0.25017 -0.008,-7.0888 0.0187,-14.17737 -0.0137,-21.26434 0.12314,-5.950796 -1.45144,-11.94978 -4.58209,-17.021673 -2.69108,-4.376222 -6.46418,-8.086029 -10.90736,-10.668127 -0.99382,-0.618444 -2.33217,-0.669614 -3.34632,-0.0736"
     id="path10"
     inkscape:connector-curvature="0"
     style="fill:none;stroke:#231f20;stroke-width:0.45692924;stroke-miterlimit:10" /><path
     stroke-miterlimit="10"
     d="m 83.3963,75.550224 c -0.546263,4.722121 0.502621,9.609193 2.906524,13.707819 3.599919,-3.572709 7.221996,-7.121201 10.80135,-10.712668 -4.091804,-2.426284 -8.9734,-3.535018 -13.707874,-2.995151"
     id="path12"
     inkscape:connector-curvature="0"
     style="fill:none;stroke:#231f20;stroke-width:0.45692924;stroke-miterlimit:10" /><path
     stroke-miterlimit="10"
     d="m 113.96487,78.475015 c 3.5693,3.605167 7.10754,7.239556 10.72459,10.798338 2.40962,-4.105486 3.44593,-8.990728 2.95428,-13.721539 -4.71529,-0.505587 -9.59209,0.509017 -13.67887,2.923201"
     id="path14"
     inkscape:connector-curvature="0"
     style="fill:none;stroke:#231f20;stroke-width:0.45692924;stroke-miterlimit:10" /><path
     stroke-miterlimit="10"
     d="m 82.928632,95.907924 c 2.525672,0.394327 4.982815,1.132724 7.364328,2.052748 4.535936,-4.559673 9.097234,-9.095126 13.63981,-13.649542 -1.57801,-1.564291 -3.0964,-3.204202 -4.876595,-4.545752 -5.382166,5.373469 -10.771189,10.741676 -16.127543,16.142546"
     id="path16"
     inkscape:connector-curvature="0"
     style="fill:none;stroke:#231f20;stroke-width:0.45692924;stroke-miterlimit:10" /><path
     stroke-miterlimit="10"
     d="m 147.29581,83.694273 c -3.71987,2.955865 -6.4306,7.143591 -7.63712,11.735704 5.07169,0.0478 10.14543,0.077 15.21734,0.0754 -1.17864,-4.609473 -3.84848,-8.846789 -7.58022,-11.811104"
     id="path18"
     inkscape:connector-curvature="0"
     style="fill:none;stroke:#231f20;stroke-width:0.45692924;stroke-miterlimit:10" /><path
     stroke-miterlimit="10"
     d="m 56.134757,95.429977 c 5.073741,0.0377 10.149084,0.0957 15.2226,0.0617 -1.199444,-4.609253 -3.923885,-8.793549 -7.614729,-11.797394 -3.689017,2.978025 -6.420315,7.140171 -7.607871,11.735704"
     id="path20"
     inkscape:connector-curvature="0"
     style="fill:none;stroke:#231f20;stroke-width:0.45692924;stroke-miterlimit:10" /><path
     stroke-miterlimit="10"
     d="m 93.768131,97.734485 c 3.920456,3.910165 7.807099,7.853005 11.766399,11.722055 3.95312,-3.88961 7.82537,-7.85804 11.74788,-11.778485 -3.88093,-3.968399 -7.87038,-7.827145 -11.80065,-11.745754 -3.92572,3.913349 -7.825617,7.852745 -11.713629,11.802184"
     id="path22"
     inkscape:connector-curvature="0"
     style="fill:none;stroke:#231f20;stroke-width:0.45692924;stroke-miterlimit:10" /><path
     stroke-miterlimit="10"
     d="m 31.940584,103.40428 c -3.70113,2.6029 -6.838635,6.0093 -9.100431,9.93159 -0.563849,0.97143 -0.594691,2.24626 -0.03429,3.22638 1.403461,2.49665 3.185252,4.77034 5.222705,6.78037 5.716179,0.18848 11.346693,1.92596 16.225094,4.90057 0,-1.09321 0.0014,-2.18642 0,-3.27962 -5.853263,-1.41876 -11.248911,-4.95539 -14.573298,-10.01703 4.117616,-6.00062 11.051975,-9.95032 18.30527,-10.47282 1.20812,-0.0994 2.417842,-0.0359 3.627332,-0.0704 6.828349,-0.004 13.656474,0.002 20.484824,-0.004 -0.01714,-2.22227 0.108061,-4.460077 -0.248342,-6.665445 -7.093827,0.005 -14.186052,-0.0137 -21.279879,0.0137 -6.595317,-0.12862 -13.241808,1.826568 -18.629004,5.656085"
     id="path24"
     inkscape:connector-curvature="0"
     style="fill:none;stroke:#231f20;stroke-width:0.45692924;stroke-miterlimit:10" /><path
     stroke-miterlimit="10"
     d="m 132.57012,97.748195 c 1.49233,2.066448 2.74318,4.302665 3.73014,6.651735 6.44293,0.004 12.88746,0.002 19.33016,0.002 -0.0108,-2.21885 0.0717,-4.448207 -0.23326,-6.651725 -7.60787,-0.0292 -15.21735,-0.0172 -22.82704,-0.002"
     id="path26"
     inkscape:connector-curvature="0"
     style="fill:none;stroke:#231f20;stroke-width:0.45692924;stroke-miterlimit:10" /><path
     stroke-miterlimit="10"
     d="m 119.17753,101.17516 c -4.6865,2.36643 -8.71136,5.9716 -11.65513,10.31174 1.42516,1.44093 2.86792,2.86495 4.29925,4.30267 3.94261,-3.94787 7.89048,-7.88888 11.83515,-11.83332 1.93441,-1.98239 3.98534,-3.85534 5.7845,-5.966338 -3.57091,0.460817 -7.05796,1.548981 -10.26377,3.185248"
     id="path28"
     inkscape:connector-curvature="0"
     style="fill:none;stroke:#231f20;stroke-width:0.45692924;stroke-miterlimit:10" /><path
     stroke-miterlimit="10"
     d="m 83.120544,98.215862 c 0.196704,2.261788 0.109664,4.533868 0.13022,6.802528 0.315283,0.0822 0.632391,0.16631 0.947674,0.25199 1.172022,-2.05275 2.655898,-3.91703 4.335115,-5.573847 -1.753007,-0.659807 -3.567706,-1.154884 -5.413009,-1.480671"
     id="path30"
     inkscape:connector-curvature="0"
     style="fill:none;stroke:#231f20;stroke-width:0.45692924;stroke-miterlimit:10" /><path
     stroke-miterlimit="10"
     d="m 75.536657,108.90982 c -1.350227,4.67096 -1.531854,9.6572 -0.608398,14.42754 2.025336,-0.001 4.052272,0 6.07944,-0.001 -0.0014,-7.11279 0.0014,-14.22695 0.0014,-21.33974 0.0087,-1.23873 -0.02375,-2.477687 -0.126799,-3.711398 -2.434745,3.159428 -4.257664,6.786998 -5.345844,10.625198"
     id="path32"
     inkscape:connector-curvature="0"
     style="fill:none;stroke:#231f20;stroke-width:0.45692924;stroke-miterlimit:10" /><path
     stroke-miterlimit="10"
     d="m 166.64767,98.210842 c 0.20425,2.265208 0.11492,4.542308 0.13731,6.812798 5.84641,1.39294 11.17717,4.9691 14.57673,9.94004 -3.70981,5.58367 -9.90074,9.35562 -16.50429,10.35105 -2.60403,0.42494 -5.25012,0.21795 -7.877,0.26067 2.71919,1.00228 5.2211,2.48799 7.61107,4.10871 1.05894,-0.59812 2.03402,-1.33126 3.09638,-1.9239 4.64035,-2.67646 9.94164,-4.1672 15.28931,-4.38835 2.01163,-1.98764 3.77332,-4.23071 5.19871,-6.67391 0.56202,-0.9543 0.63605,-2.21039 0.10144,-3.19234 -4.44661,-7.98666 -12.64597,-13.706267 -21.62966,-15.294768"
     id="path34"
     inkscape:connector-curvature="0"
     style="fill:none;stroke:#231f20;stroke-width:0.45692924;stroke-miterlimit:10" /><path
     stroke-miterlimit="10"
     d="m 126.36547,104.43237 c 0.1629,0.28101 0.3258,0.56043 0.48846,0.84303 2.27734,-0.62553 4.64538,-0.88941 7.00473,-0.8757 -0.7745,-1.7048 -1.70686,-3.33946 -2.78087,-4.873147 -1.46332,1.735877 -3.12037,3.291717 -4.71232,4.905817"
     id="path36"
     inkscape:connector-curvature="0"
     style="fill:none;stroke:#231f20;stroke-width:0.45692924;stroke-miterlimit:10" /><path
     stroke-miterlimit="10"
     d="m 90.772965,100.64055 c -1.122906,1.11034 -2.239637,2.24124 -3.16995,3.52292 4.683067,4.71551 9.396751,9.40017 14.089645,14.10541 0.67398,-1.96709 1.51839,-3.87248 2.53254,-5.68717 -3.17315,-5.19163 -7.939842,-9.37436 -13.452235,-11.94116"
     id="path38"
     inkscape:connector-curvature="0"
     style="fill:none;stroke:#231f20;stroke-width:0.45692924;stroke-miterlimit:10" /><path
     stroke-miterlimit="10"
     d="m 46.51183,106.88288 c -0.02902,7.60787 -0.01876,15.21575 0,22.82339 2.061432,-1.49941 4.302671,-2.74637 6.651746,-3.7354 0,-6.4427 0.0014,-12.8838 0,-19.3265 -2.218848,0.0105 -4.447982,-0.0667 -6.651746,0.23851"
     id="path40"
     inkscape:connector-curvature="0"
     style="fill:none;stroke:#231f20;stroke-width:0.45692924;stroke-miterlimit:10" /><path
     stroke-miterlimit="10"
     d="m 55.408469,106.70102 c -0.01714,5.54484 0.02902,11.08808 0.05824,16.63292 5.53798,-0.005 11.075968,0.0391 16.613948,-0.0274 0.05824,-5.54827 -0.01187,-11.09836 -0.02557,-16.64822 -5.548491,-0.0514 -11.098351,0.0327 -16.646617,0.0427"
     id="path42"
     inkscape:connector-curvature="0"
     style="fill:none;stroke:#231f20;stroke-width:0.45692924;stroke-miterlimit:10" /><path
     stroke-miterlimit="10"
     d="m 130.0289,106.90002 c 0,6.64672 0,13.29161 0,19.93765 1.86588,-0.92186 3.81765,-1.66162 5.8174,-2.23393 1.42379,-5.91838 1.00753,-12.23976 -1.06579,-17.95389 -1.58691,-0.0206 -3.18205,0.001 -4.75161,0.25017"
     id="path44"
     inkscape:connector-curvature="0"
     style="fill:none;stroke:#231f20;stroke-width:0.45692924;stroke-miterlimit:10" /><path
     stroke-miterlimit="10"
     d="m 138.94085,106.70628 c 0.009,5.53798 -0.0338,11.07597 0.0396,16.61258 5.54301,0.0582 11.08784,-0.0121 16.63291,-0.0259 0.0542,-5.54986 -0.0176,-11.09835 -0.0396,-16.64821 -5.54506,-0.0139 -11.0883,0.0288 -16.63291,0.0615"
     id="path46"
     inkscape:connector-curvature="0"
     style="fill:none;stroke:#231f20;stroke-width:0.45692924;stroke-miterlimit:10" /><path
     stroke-miterlimit="10"
     d="m 166.84141,107.37271 c -0.0183,5.07375 -0.096,10.14726 -0.0429,15.221 4.60265,-1.2063 8.79703,-3.92045 11.78398,-7.62341 -2.98695,-3.68056 -7.14203,-6.41688 -11.74102,-7.59759"
     id="path48"
     inkscape:connector-curvature="0"
     style="fill:none;stroke:#231f20;stroke-width:0.45692924;stroke-miterlimit:10" /><path
     stroke-miterlimit="10"
     d="m 32.454628,114.98401 c 2.960671,3.71666 7.143407,6.42922 11.737368,7.63575 0.04616,-5.07238 0.07699,-10.14384 0.0754,-15.2178 -4.611103,1.18047 -8.846841,3.85031 -11.812767,7.58205"
     id="path50"
     inkscape:connector-curvature="0"
     style="fill:none;stroke:#231f20;stroke-width:0.45692924;stroke-miterlimit:10" /><path
     stroke-miterlimit="10"
     d="m 84.056105,123.32023 c 2.534131,0.0171 5.066884,0.0445 7.601014,0.0185 1.802587,-1.77015 3.58461,-3.56016 5.36801,-5.35087 -1.12245,-2.05961 -2.657501,-3.87065 -4.335123,-5.49846 -2.105756,-1.97234 -4.633262,-3.47335 -7.335311,-4.4722 -2.170639,4.74452 -2.713699,10.26378 -1.29859,15.30302"
     id="path52"
     inkscape:connector-curvature="0"
     style="fill:none;stroke:#231f20;stroke-width:0.45692924;stroke-miterlimit:10" /><path
     stroke-miterlimit="10"
     d="m 113.99092,117.93463 c 1.77471,1.81493 3.56679,3.61043 5.36595,5.40113 2.52956,-0.005 5.05706,0.0274 7.58433,0 1.38473,-5.03581 1.04341,-10.57562 -1.22685,-15.30667 -4.87658,1.84028 -9.16189,5.34264 -11.72343,9.90554"
     id="path54"
     inkscape:connector-curvature="0"
     style="fill:none;stroke:#231f20;stroke-width:0.45692924;stroke-miterlimit:10" /><path
     stroke-miterlimit="10"
     d="m 105.52082,114.92232 c -0.82772,1.65181 -1.51997,3.3774 -2.02876,5.15417 1.10348,1.07767 2.17612,2.18481 3.28007,3.26248 0.52249,-0.005 1.04339,-0.004 1.56726,-0.004 -0.53438,-2.91955 -1.48182,-5.76233 -2.81857,-8.41321"
     id="path56"
     inkscape:connector-curvature="0"
     style="fill:none;stroke:#231f20;stroke-width:0.45692924;stroke-miterlimit:10" /><path
     stroke-miterlimit="10"
     d="m 108.29164,115.44162 c 0.78683,1.79231 1.40666,3.65887 1.88324,5.55741 0.29814,-0.8949 0.65112,-1.77015 1.04705,-2.62895 -0.97852,-0.97348 -1.9552,-1.95177 -2.93029,-2.92846"
     id="path58"
     inkscape:connector-curvature="0"
     style="fill:none;stroke:#231f20;stroke-width:0.45692924;stroke-miterlimit:10" /><path
     stroke-miterlimit="10"
     d="m 94.851055,123.33736 c 1.454867,0.004 2.911329,-0.0137 4.367791,0.0137 -0.308889,-1.10691 -0.690654,-2.19143 -1.138215,-3.24876 -1.072181,1.08109 -2.153503,2.15739 -3.229576,3.23506"
     id="path60"
     inkscape:connector-curvature="0"
     style="fill:none;stroke:#231f20;stroke-width:0.45692924;stroke-miterlimit:10" /><path
     stroke-miterlimit="10"
     d="m 111.79926,123.30652 c 1.45463,0.005 2.9111,-0.005 4.3655,0.005 -1.08452,-1.0747 -2.16242,-2.15556 -3.23803,-3.23712 -0.44573,1.05048 -0.82932,2.12838 -1.12747,3.23186"
     id="path62"
     inkscape:connector-curvature="0"
     style="fill:none;stroke:#231f20;stroke-width:0.45692924;stroke-miterlimit:10" /><path
     stroke-miterlimit="10"
     d="m 78.238709,125.57517 c 1.845534,0.68883 3.603571,1.59515 5.285985,2.61478 -0.417632,-0.85148 -0.79117,-1.72422 -1.12016,-2.61317 -1.388151,2.2e-4 -2.777673,0.004 -4.165825,-0.001"
     id="path64"
     inkscape:connector-curvature="0"
     style="fill:none;stroke:#231f20;stroke-width:0.45692924;stroke-miterlimit:10" /><path
     stroke-miterlimit="10"
     d="m 18.859839,126.55871 c -1.117187,0.34476 -2.160816,1.18414 -2.482949,2.3445 -1.036772,3.88916 -1.368957,7.97936 -0.848063,11.97544 0.579157,5.03581 2.508543,9.87629 5.361384,14.05057 1.459883,-1.7409 3.12722,-3.28989 4.720759,-4.90582 -3.142529,-5.12332 -4.37441,-11.40998 -3.283034,-17.32996 7.434696,-1.51837 15.45906,0.88577 21.0192,6.002 1.262723,1.22 2.498264,2.46742 3.728543,3.72215 -1.19761,-2.63215 -1.932814,-5.44249 -2.460565,-8.27659 -0.914997,-0.27074 -1.857415,-0.41763 -2.782697,-0.63879 -5.4747,-1.31938 -10.56375,-4.10551 -14.703525,-7.91105 -2.784299,-0.0263 -5.556717,0.36967 -8.269053,0.96755"
     id="path66"
     inkscape:connector-curvature="0"
     style="fill:none;stroke:#231f20;stroke-width:0.45692924;stroke-miterlimit:10" /><path
     stroke-miterlimit="10"
     d="m 55.406642,127.50296 c -0.01026,1.5828 0.0086,3.17337 0.250169,4.7411 6.646491,0.005 13.29504,0.001 19.941533,0.001 -0.930307,-1.86427 -1.643121,-3.82793 -2.249692,-5.819 -5.918601,-1.38952 -12.239532,-1.03654 -17.94201,1.0763"
     id="path68"
     inkscape:connector-curvature="0"
     style="fill:none;stroke:#231f20;stroke-width:0.45692924;stroke-miterlimit:10" /><path
     stroke-miterlimit="10"
     d="m 84.820318,125.5786 c 0.419915,1.06076 0.918657,2.08702 1.480448,3.07742 1.026493,-1.02969 2.069891,-2.04407 3.095014,-3.07742 -1.525461,0 -3.050458,-10e-4 -4.575462,0"
     id="path70"
     inkscape:connector-curvature="0"
     style="fill:none;stroke:#231f20;stroke-width:0.45692924;stroke-miterlimit:10" /><path
     stroke-miterlimit="10"
     d="m 102.18478,128.59776 c 0.0258,1.28671 0.009,2.57525 -0.001,3.86219 2.20994,-0.31185 4.44432,-0.1935 6.66729,-0.21429 0.0117,-1.22 -0.0245,-2.44001 -0.0121,-3.66161 -1.01598,-1.00912 -2.03722,-2.01346 -3.06714,-3.00727 -0.13867,0.001 -0.41466,0.005 -0.55311,0.007 -1.00799,1.00776 -2.02739,2.00318 -3.03332,3.01414"
     id="path72"
     inkscape:connector-curvature="0"
     style="fill:none;stroke:#231f20;stroke-width:0.45692924;stroke-miterlimit:10" /><path
     stroke-miterlimit="10"
     d="m 121.61227,125.5786 c 1.02124,1.02809 2.05778,2.04088 3.05914,3.08953 0.59972,-0.97852 1.06876,-2.03105 1.50604,-3.08953 -1.52226,-10e-4 -3.0436,0 -4.56518,0"
     id="path74"
     inkscape:connector-curvature="0"
     style="fill:none;stroke:#231f20;stroke-width:0.45692924;stroke-miterlimit:10" /><path
     stroke-miterlimit="10"
     d="m 138.93903,126.16461 c -0.004,2.02717 0,4.0541 -0.001,6.08127 6.41689,-0.001 12.83218,0.001 19.24929,0 1.93761,-0.007 3.88093,0.0429 5.81556,-0.12337 -1.84576,-1.41031 -3.83843,-2.63077 -5.94738,-3.60745 -5.91518,-2.77356 -12.704,-3.615 -19.11587,-2.35045"
     id="path76"
     inkscape:connector-curvature="0"
     style="fill:none;stroke:#231f20;stroke-width:0.45692924;stroke-miterlimit:10" /><path
     stroke-miterlimit="10"
     d="m 169.00223,133.60113 c 0.77266,0.77107 1.5403,1.54899 2.32166,2.31161 5.1473,-3.1238 11.45658,-4.44341 17.38684,-3.21495 1.27666,6.86467 -0.61,14.22557 -4.96911,19.6708 -1.05733,1.33994 -2.31091,2.50351 -3.50762,3.71666 -4.68809,4.68627 -9.37276,9.37459 -14.06085,14.05926 1.58509,1.55584 3.07925,3.2282 4.88823,4.53593 5.14045,-5.14959 10.3017,-10.27931 15.42524,-15.44581 1.9929,-1.94149 3.68011,-4.18273 5.07534,-6.58617 4.14321,-7.02894 5.2467,-15.73504 3.13866,-23.60336 -0.27234,-1.06625 -1.10692,-1.9881 -2.16037,-2.32006 -2.77744,-0.80031 -5.67323,-1.14507 -8.56057,-1.14301 -4.20146,3.89646 -9.40543,6.68076 -14.97745,8.0191"
     id="path78"
     inkscape:connector-curvature="0"
     style="fill:none;stroke:#231f20;stroke-width:0.45692924;stroke-miterlimit:10" /><path
     stroke-miterlimit="10"
     d="m 87.674986,131.20911 c 0.395697,0.34041 0.786371,0.68699 1.174994,1.03655 2.173154,-10e-4 4.347221,0.005 6.520374,-0.004 1.510841,-1.51472 3.027618,-3.02373 4.538683,-4.54074 -0.02902,-0.5241 -0.07356,-1.04659 -0.135482,-1.56726 -4.328034,0.82407 -8.474665,2.5716 -12.098569,5.07511"
     id="path80"
     inkscape:connector-curvature="0"
     style="fill:none;stroke:#231f20;stroke-width:0.45692924;stroke-miterlimit:10" /><path
     stroke-miterlimit="10"
     d="m 110.96811,126.07208 c 0.0382,0.52251 0.0704,1.04706 0.0978,1.56956 1.53208,1.53345 3.06714,3.06028 4.59373,4.59899 2.14574,0.0121 4.29285,0.005 6.43768,0.004 0.34795,-0.39068 0.68539,-0.79163 1.01279,-1.20173 -3.63967,-2.48432 -7.8103,-4.17199 -12.14198,-4.97047"
     id="path82"
     inkscape:connector-curvature="0"
     style="fill:none;stroke:#231f20;stroke-width:0.45692924;stroke-miterlimit:10" /><path
     stroke-miterlimit="10"
     d="m 75.935785,127.17397 c 0.586015,1.75255 1.314362,3.46306 2.212223,5.08014 1.531854,-0.0153 3.063251,-0.007 4.595569,-0.004 0.392269,-0.36029 0.764213,-0.74023 1.139578,-1.11742 -2.455534,-1.67031 -5.12332,-3.03584 -7.94737,-3.9593"
     id="path84"
     inkscape:connector-curvature="0"
     style="fill:none;stroke:#231f20;stroke-width:0.45692924;stroke-miterlimit:10" /><path
     stroke-miterlimit="10"
     d="m 130.02731,129.37409 c 0.001,1.54007 0,3.08061 0.001,4.62138 0.37537,0.37011 0.74365,0.74868 1.11033,1.12907 1.68927,-2.44503 3.03927,-5.12675 3.96112,-7.95011 -1.75072,0.58373 -3.4489,1.32075 -5.07305,2.19966"
     id="path86"
     inkscape:connector-curvature="0"
     style="fill:none;stroke:#231f20;stroke-width:0.45692924;stroke-miterlimit:10" /><path
     stroke-miterlimit="10"
     d="m 48.283799,131.20066 c 1.737474,1.46126 3.28829,3.12334 4.902393,4.71368 0.282613,-0.16449 0.565451,-0.32739 0.84989,-0.49006 -0.62188,-2.27551 -0.887583,-4.63851 -0.873876,-6.99444 -1.701832,0.78318 -3.331244,1.71531 -4.878407,2.77082"
     id="path88"
     inkscape:connector-curvature="0"
     style="fill:none;stroke:#231f20;stroke-width:0.45692924;stroke-miterlimit:10" /><path
     stroke-miterlimit="10"
     d="m 134.10197,134.75785 c 0.84464,-0.41466 1.71121,-0.78866 2.59536,-1.11217 0,-1.38449 -0.005,-2.76899 0.004,-4.15348 -0.71624,1.82497 -1.59172,3.58461 -2.59925,5.26565"
     id="path90"
     inkscape:connector-curvature="0"
     style="fill:none;stroke:#231f20;stroke-width:0.45692924;stroke-miterlimit:10" /><path
     stroke-miterlimit="10"
     d="m 111.0949,130.8374 c -10e-4,0.46904 -10e-4,0.93876 0,1.40985 0.4679,-0.001 0.93739,-0.001 1.40506,-0.001 -0.46949,-0.4695 -0.93899,-0.93717 -1.40506,-1.40826"
     id="path92"
     inkscape:connector-curvature="0"
     style="fill:none;stroke:#231f20;stroke-width:0.45692924;stroke-miterlimit:10" /><path
     stroke-miterlimit="10"
     d="m 98.562463,132.24748 c 0.459216,-0.001 0.917969,-0.001 1.379243,-0.001 0,-0.46424 0,-0.92871 0,-1.39135 -0.462413,0.46081 -0.911575,0.93534 -1.379243,1.39295"
     id="path94"
     inkscape:connector-curvature="0"
     style="fill:none;stroke:#231f20;stroke-width:0.45692924;stroke-miterlimit:10" /><path
     stroke-miterlimit="10"
     d="m 46.751945,132.84195 c 0.366682,2.83935 1.130902,5.62365 2.251518,8.25739 2.318232,5.51743 6.283462,10.30673 11.240458,13.65487 1.463319,-1.40688 2.854668,-2.88596 4.316153,-4.29444 -4.616126,-4.60745 -9.223801,-9.227 -13.836499,-13.83651 -1.296994,-1.28625 -2.556521,-2.61957 -3.97163,-3.78131"
     id="path96"
     inkscape:connector-curvature="0"
     style="fill:none;stroke:#231f20;stroke-width:0.45692924;stroke-miterlimit:10" /><path
     stroke-miterlimit="10"
     d="m 164.30705,141.5003 c 4.55604,4.55284 9.10592,9.11414 13.66698,13.66172 1.56613,-1.56795 3.19713,-3.08929 4.53868,-4.86492 -5.37006,-5.39062 -10.74675,-10.77439 -16.14422,-16.13577 -0.39753,2.51723 -1.10006,4.98121 -2.06144,7.33897"
     id="path98"
     inkscape:connector-curvature="0"
     style="fill:none;stroke:#231f20;stroke-width:0.45692924;stroke-miterlimit:10" /><path
     stroke-miterlimit="10"
     d="m 157.26303,134.48712 c -0.0857,0.31688 -0.17135,0.63194 -0.2552,0.94927 2.0523,1.17043 3.91863,2.65591 5.57568,4.33672 0.65455,-1.75461 1.15672,-3.56702 1.47862,-5.41461 -2.26179,0.19533 -4.53205,0.11126 -6.7991,0.12862"
     id="path100"
     inkscape:connector-curvature="0"
     style="fill:none;stroke:#231f20;stroke-width:0.45692924;stroke-miterlimit:10" /><path
     stroke-miterlimit="10"
     d="m 24.30872,134.63425 c -0.505592,4.71437 0.509021,9.59209 2.924805,13.67703 3.607,-3.56564 7.239588,-7.1073 10.796551,-10.72298 -4.107105,-2.40391 -8.988709,-3.4457 -13.721356,-2.95405"
     id="path102"
     inkscape:connector-curvature="0"
     style="fill:none;stroke:#231f20;stroke-width:0.45692924;stroke-miterlimit:10" /><path
     stroke-miterlimit="10"
     d="m 56.789539,136.53645 c 1.819715,4.89188 5.337391,9.17925 9.898683,11.74948 1.824977,-1.77403 3.624135,-3.57136 5.413015,-5.37897 -0.0137,-2.52066 0.02557,-5.04107 -0.0035,-7.55989 -5.029191,-1.43408 -10.560321,-1.00069 -15.308269,1.18938"
     id="path104"
     inkscape:connector-curvature="0"
     style="fill:none;stroke:#231f20;stroke-width:0.45692924;stroke-miterlimit:10" /><path
     stroke-miterlimit="10"
     d="m 83.67571,134.53327 c -0.140506,0.13754 -0.281468,0.27233 -0.41969,0.41124 -0.0137,1.41876 -0.0014,2.83935 -0.007,4.25995 0.90129,0.91271 1.823144,1.80761 2.715757,2.73083 1.360731,-1.77014 3.007278,-3.28097 4.573404,-4.86126 -0.856741,-0.87046 -1.708458,-1.7425 -2.589191,-2.58554 -1.425619,2.3e-4 -2.849412,0.0124 -4.27343,0.0447"
     id="path106"
     inkscape:connector-curvature="0"
     style="fill:none;stroke:#231f20;stroke-width:0.45692924;stroke-miterlimit:10" /><path
     stroke-miterlimit="10"
     d="m 91.141473,134.48872 c 0.32899,0.33265 0.660037,0.66164 0.991998,0.99039 0.328989,-0.33127 0.660262,-0.66026 0.989019,-0.99039 -0.661856,-0.001 -1.321436,-0.001 -1.981017,0"
     id="path108"
     inkscape:connector-curvature="0"
     style="fill:none;stroke:#231f20;stroke-width:0.45692924;stroke-miterlimit:10" /><path
     stroke-miterlimit="10"
     d="m 102.20009,134.74415 c 0.004,3.58072 -0.0137,7.16076 0.009,10.74012 1.00959,1.1743 2.20743,2.19531 3.2883,3.31045 1.19441,-0.99908 2.2225,-2.18138 3.34472,-3.25723 0,-3.58666 0.007,-7.17264 0.002,-10.76113 -2.20057,-0.28604 -4.44387,-0.37492 -6.64398,-0.0323"
     id="path110"
     inkscape:connector-curvature="0"
     style="fill:none;stroke:#231f20;stroke-width:0.45692924;stroke-miterlimit:10" /><path
     stroke-miterlimit="10"
     d="m 117.92645,134.50083 c 0.32579,0.32739 0.65135,0.65272 0.97852,0.98012 0.32875,-0.33425 0.65957,-0.66644 1.0041,-0.98355 -0.66118,0.008 -1.32281,0.004 -1.98262,0.004"
     id="path112"
     inkscape:connector-curvature="0"
     style="fill:none;stroke:#231f20;stroke-width:0.45692924;stroke-miterlimit:10" /><path
     stroke-miterlimit="10"
     d="m 120.33926,137.21819 c 1.79231,1.33492 3.27801,3.01459 4.87133,4.56655 0.75256,-0.77267 1.51289,-1.53688 2.27391,-2.3011 0.12656,-0.14736 0.33904,-0.27232 0.30157,-0.49874 0.0153,-1.34839 -0.0292,-2.69702 -0.0259,-4.04564 -0.1469,-0.15239 -0.29609,-0.30501 -0.44208,-0.45374 -1.41694,0.005 -2.83205,0.001 -4.24785,0.004 -0.88758,0.93191 -1.80761,1.83161 -2.73106,2.72924"
     id="path114"
     inkscape:connector-curvature="0"
     style="fill:none;stroke:#231f20;stroke-width:0.45692924;stroke-miterlimit:10" /><path
     stroke-miterlimit="10"
     d="m 138.95114,135.29931 c -0.0121,2.53596 -0.019,5.07192 -0.008,7.60742 1.78705,1.78751 3.55331,3.59306 5.35932,5.35978 1.86953,-1.03175 3.52795,-2.39888 5.05135,-3.88619 2.18618,-2.19143 3.83638,-4.89028 4.90857,-7.78607 -4.74544,-2.17224 -10.27155,-2.71896 -15.31078,-1.29494"
     id="path116"
     inkscape:connector-curvature="0"
     style="fill:none;stroke:#231f20;stroke-width:0.45692924;stroke-miterlimit:10" /><path
     stroke-miterlimit="10"
     d="m 173.02526,137.53369 c 3.56062,3.60974 7.11484,7.22749 10.71157,10.80341 2.42401,-4.0918 3.53297,-8.9718 2.98945,-13.70628 -4.72213,-0.54145 -9.59893,0.50902 -13.70102,2.90287"
     id="path118"
     inkscape:connector-curvature="0"
     style="fill:none;stroke:#231f20;stroke-width:0.45692924;stroke-miterlimit:10" /><path
     stroke-miterlimit="10"
     d="m 94.3064,137.56271 c 1.865867,1.9086 3.73996,3.80736 5.624796,5.69746 -0.0063,-2.6719 -0.01328,-5.34311 -0.05297,-8.01272 -1.942868,0.53667 -3.824275,1.30613 -5.571795,2.31526"
     id="path120"
     inkscape:connector-curvature="0"
     style="fill:none;stroke:#231f20;stroke-width:0.45692924;stroke-miterlimit:10" /><path
     stroke-miterlimit="10"
     d="m 111.16527,135.25636 c -0.0358,2.66618 -0.0466,5.33191 -0.0514,7.99992 1.88483,-1.89169 3.75893,-3.79343 5.63211,-5.69562 -1.75439,-0.9952 -3.62916,-1.78317 -5.58071,-2.3043"
     id="path122"
     inkscape:connector-curvature="0"
     style="fill:none;stroke:#231f20;stroke-width:0.45692924;stroke-miterlimit:10" /><path
     stroke-miterlimit="10"
     d="m 133.61877,137.54055 c 1.02809,1.02969 2.05618,2.05961 3.07925,3.09592 -0.002,-1.52682 0,-3.05297 -0.002,-4.57842 -1.05894,0.42174 -2.0852,0.92048 -3.07742,1.4825"
     id="path124"
     inkscape:connector-curvature="0"
     style="fill:none;stroke:#231f20;stroke-width:0.45692924;stroke-miterlimit:10" /><path
     stroke-miterlimit="10"
     d="m 74.342476,136.09437 c -0.0035,1.52157 -0.0021,3.04475 -0.0021,4.56815 1.023065,-1.02969 2.059614,-2.04773 3.086108,-3.07582 -1.005937,-0.54306 -2.02717,-1.05894 -3.084274,-1.49233"
     id="path126"
     inkscape:connector-curvature="0"
     style="fill:none;stroke:#231f20;stroke-width:0.45692924;stroke-miterlimit:10" /><path
     stroke-miterlimit="10"
     d="m 27.543784,151.26191 c -1.586689,1.61067 -3.23689,3.16309 -4.722368,4.87018 -2.280534,2.66458 -4.110759,5.71436 -5.395873,8.9782 -2.422641,6.09658 -2.767164,12.96948 -1.103488,19.30572 0.318936,1.46491 1.727427,2.48958 3.16492,2.68011 2.498264,0.51199 5.041071,0.84304 7.595991,0.83938 4.177481,-3.91199 9.389901,-6.67185 14.948445,-8.01568 -0.774498,-0.7729 -1.54899,-1.54579 -2.32006,-2.32189 -5.142051,3.13591 -11.456356,4.44478 -17.386612,3.22159 -1.130902,-6.22018 0.262049,-12.86142 3.817642,-18.09075 1.216572,-1.8284 2.745005,-3.41532 4.307702,-4.94671 4.806205,-4.79433 9.587061,-9.61311 14.408575,-14.38985 -1.562697,-1.58325 -3.077416,-3.23505 -4.880002,-4.55261 -4.155316,4.12927 -8.286639,8.28436 -12.434872,12.42231"
     id="path128"
     inkscape:connector-curvature="0"
     style="fill:none;stroke:#231f20;stroke-width:0.45692924;stroke-miterlimit:10" /><path
     stroke-miterlimit="10"
     d="m 87.608046,143.54803 c 2.431549,2.44 4.873376,4.87315 7.302867,7.31498 0.156039,0.14187 0.298147,0.36668 0.548315,0.31139 1.482282,0 2.964331,-0.004 4.445011,-0.0429 0.05824,-1.47703 0.02058,-2.95588 0.02902,-4.4329 0.04749,-0.28924 -0.23989,-0.43683 -0.399357,-0.62348 -2.40573,-2.39888 -4.79776,-4.81147 -7.208746,-7.20349 -1.759407,1.35205 -3.411202,2.87202 -4.717105,4.67644"
     id="path130"
     inkscape:connector-curvature="0"
     style="fill:none;stroke:#231f20;stroke-width:0.45692924;stroke-miterlimit:10" /><path
     stroke-miterlimit="10"
     d="m 111.1173,146.45387 c -0.0185,1.5627 0.001,3.12539 0.0258,4.68832 1.55402,0.0697 3.11169,0.0153 4.66913,0.029 2.53071,-2.53802 5.07557,-5.06347 7.59759,-7.6097 -1.35182,-1.75804 -2.87523,-3.40321 -4.67256,-4.71574 -2.54304,2.53299 -5.07031,5.08083 -7.61997,7.6081"
     id="path132"
     inkscape:connector-curvature="0"
     style="fill:none;stroke:#231f20;stroke-width:0.45692924;stroke-miterlimit:10" /><path
     stroke-miterlimit="10"
     d="m 130.03736,140.17223 c -0.0238,2.14026 0,4.28372 -0.0101,6.42557 1.50786,1.51998 3.02761,3.02602 4.53685,4.54599 0.52615,-0.0224 1.05254,-0.0704 1.5764,-0.13022 -0.80191,-4.33352 -2.56519,-8.4749 -5.07328,-12.09378 -0.32213,0.4318 -0.78478,0.78135 -1.02992,1.25244"
     id="path134"
     inkscape:connector-curvature="0"
     style="fill:none;stroke:#231f20;stroke-width:0.45692924;stroke-miterlimit:10" /><path
     stroke-miterlimit="10"
     d="m 144.00774,152.93267 c 1.97051,0.66826 3.87408,1.525 5.69562,2.53116 5.18341,-3.18708 9.3915,-7.94189 11.93111,-13.46982 -1.12062,-1.11011 -2.24146,-2.23096 -3.52338,-3.15464 -4.69838,4.70157 -9.41205,9.38624 -14.10335,14.0933"
     id="path136"
     inkscape:connector-curvature="0"
     style="fill:none;stroke:#231f20;stroke-width:0.45692924;stroke-miterlimit:10" /><path
     stroke-miterlimit="10"
     d="m 74.837558,151.31354 c 0.520894,-0.0396 1.042029,-0.072 1.564525,-0.0994 1.530027,-1.54054 3.070565,-3.07285 4.604021,-4.60928 0.007,-1.96685 -0.0035,-3.93416 0.007,-5.90078 0.153756,-0.78317 -0.786604,-1.05391 -1.210179,-1.53368 -2.478839,3.64081 -4.177018,7.80961 -4.965217,12.14312"
     id="path138"
     inkscape:connector-curvature="0"
     style="fill:none;stroke:#231f20;stroke-width:0.45692924;stroke-miterlimit:10" /><path
     stroke-miterlimit="10"
     d="m 126.80253,143.37485 c 0.32556,0.32899 0.65455,0.65798 0.98354,0.98697 0,-0.66323 -0.005,-1.32806 0.008,-1.98947 -0.33584,0.32899 -0.66803,0.66163 -0.99199,1.0025"
     id="path140"
     inkscape:connector-curvature="0"
     style="fill:none;stroke:#231f20;stroke-width:0.45692924;stroke-miterlimit:10" /><path
     stroke-miterlimit="10"
     d="m 83.262877,142.39314 c 0.0014,0.65112 0,1.30271 0.0014,1.95337 0.323734,-0.32419 0.6477,-0.64632 0.971434,-0.96983 -0.328758,-0.32396 -0.65455,-0.65112 -0.973029,-0.98354"
     id="path142"
     inkscape:connector-curvature="0"
     style="fill:none;stroke:#231f20;stroke-width:0.45692924;stroke-miterlimit:10" /><path
     stroke-miterlimit="10"
     d="m 34.688785,156.79829 c 3.908344,3.9289 7.861469,7.81691 11.800879,11.71681 3.908344,-3.92411 7.861469,-7.80664 11.727089,-11.77347 -3.894636,-3.94467 -7.852784,-7.82537 -11.781692,-11.73737 -3.975508,3.87088 -7.823993,7.87015 -11.746276,11.79403"
     id="path144"
     inkscape:connector-curvature="0"
     style="fill:none;stroke:#231f20;stroke-width:0.45692924;stroke-miterlimit:10" /><path
     stroke-miterlimit="10"
     d="m 152.88496,156.72289 c 0.15124,0.41695 0.62417,0.69066 0.9134,1.04181 3.57776,3.60357 7.20167,7.16236 10.79998,10.74742 3.97689,-3.8711 7.83223,-7.86671 11.75131,-11.79905 -3.92045,-3.91885 -7.85462,-7.82217 -11.80934,-11.70515 -3.88618,3.90491 -7.81874,7.76208 -11.65535,11.71497"
     id="path146"
     inkscape:connector-curvature="0"
     style="fill:none;stroke:#231f20;stroke-width:0.45692924;stroke-miterlimit:10" /><path
     stroke-miterlimit="10"
     d="m 84.014977,151.1198 c 2.669613,0.027 5.339219,0.0429 8.008831,0.0544 -1.895571,-1.88643 -3.793657,-3.76601 -5.702478,-5.63554 -0.997246,1.75507 -1.78385,3.63122 -2.306353,5.58116"
     id="path148"
     inkscape:connector-curvature="0"
     style="fill:none;stroke:#231f20;stroke-width:0.45692924;stroke-miterlimit:10" /><path
     stroke-miterlimit="10"
     d="m 119.01828,151.16938 c 2.67121,-0.005 5.34402,-0.0171 8.01729,-0.0491 -0.53964,-1.94355 -1.30568,-3.82633 -2.31824,-5.57248 -1.91247,1.86245 -3.80233,3.74363 -5.69905,5.6216"
     id="path150"
     inkscape:connector-curvature="0"
     style="fill:none;stroke:#231f20;stroke-width:0.45692924;stroke-miterlimit:10" /><path
     stroke-miterlimit="10"
     d="m 68.83876,149.35309 c 1.050254,0.4455 2.127922,0.82772 3.229801,1.12587 0.0049,-1.46012 -0.007,-2.91795 0.007,-4.37784 -1.067383,1.0948 -2.162419,2.16402 -3.236659,3.25197"
     id="path152"
     inkscape:connector-curvature="0"
     style="fill:none;stroke:#231f20;stroke-width:0.45692924;stroke-miterlimit:10" /><path
     stroke-miterlimit="10"
     d="m 138.93903,146.09084 c -0.001,1.45486 -0.001,2.90767 0,4.36253 1.09845,-0.3066 2.17772,-0.68539 3.2282,-1.1309 -1.07241,-1.0795 -2.15214,-2.15396 -3.2282,-3.23163"
     id="path154"
     inkscape:connector-curvature="0"
     style="fill:none;stroke:#231f20;stroke-width:0.45692924;stroke-miterlimit:10" /><path
     stroke-miterlimit="10"
     d="m 102.19849,148.73806 c 0,0.81402 0,1.62781 0,2.44183 0.33425,0 0.67008,0 1.00593,0 0.23943,-0.23989 0.47795,-0.47795 0.71761,-0.71807 -0.57368,-0.57573 -1.14964,-1.14986 -1.72354,-1.72376"
     id="path156"
     inkscape:connector-curvature="0"
     style="fill:none;stroke:#231f20;stroke-width:0.45692924;stroke-miterlimit:10" /><path
     stroke-miterlimit="10"
     d="m 107.11619,150.46525 c 0.23646,0.23646 0.47293,0.47292 0.71053,0.71281 0.33584,0 0.67533,0.001 1.01438,0.001 0,-0.81219 0,-1.62621 -10e-4,-2.4384 -0.57528,0.57276 -1.14918,1.14826 -1.72331,1.72399"
     id="path158"
     inkscape:connector-curvature="0"
     style="fill:none;stroke:#231f20;stroke-width:0.45692924;stroke-miterlimit:10" /><path
     stroke-miterlimit="10"
     d="m 79.602875,151.18148 c 0.467661,-0.001 0.935561,-0.001 1.405056,-0.001 0,-0.46949 0,-0.93716 0,-1.40506 -0.469727,0.46767 -0.937395,0.93716 -1.405056,1.40665"
     id="path160"
     inkscape:connector-curvature="0"
     style="fill:none;stroke:#231f20;stroke-width:0.45692924;stroke-miterlimit:10" /><path
     stroke-miterlimit="10"
     d="m 130.0289,149.80727 c -0.004,0.45739 -0.001,0.91501 0,1.37239 0.46265,0 0.92711,0 1.39135,10e-4 -0.46103,-0.46241 -0.91842,-0.92688 -1.39135,-1.37398"
     id="path162"
     inkscape:connector-curvature="0"
     style="fill:none;stroke:#231f20;stroke-width:0.45692924;stroke-miterlimit:10" /><path
     stroke-miterlimit="10"
     d="m 64.174424,154.00874 c 1.790706,-0.8323 3.683994,-1.42562 5.599672,-1.89694 -0.897869,-0.30614 -1.780196,-0.6541 -2.640597,-1.05506 -0.988562,0.97989 -1.966853,1.97371 -2.959075,2.952"
     id="path164"
     inkscape:connector-curvature="0"
     style="fill:none;stroke:#231f20;stroke-width:0.45692924;stroke-miterlimit:10" /><path
     stroke-miterlimit="10"
     d="m 77.346096,153.43643 c -1.009352,1.01964 -2.018486,2.04088 -3.015732,3.07217 0.0274,0.23989 -0.05663,0.54146 0.167919,0.71806 0.952697,0.96138 1.917507,1.90997 2.868377,2.8734 1.285114,0.004 2.570228,-0.0185 3.855342,-0.0103 -0.310484,-2.2104 -0.195109,-4.44295 -0.212476,-6.66728 -1.221596,0.006 -2.44343,-0.0151 -3.66343,0.0139"
     id="path166"
     inkscape:connector-curvature="0"
     style="fill:none;stroke:#231f20;stroke-width:0.45692924;stroke-miterlimit:10" /><path
     stroke-miterlimit="10"
     d="m 83.538633,153.43643 c -0.287869,2.20012 -0.374909,4.44295 -0.03225,6.64307 3.598316,0 7.195031,0 10.793355,0 1.096166,-1.10692 2.204677,-2.20171 3.264297,-3.34473 -1.090006,-1.10851 -2.162419,-2.25654 -3.313877,-3.28829 -3.571584,-0.0237 -7.142487,-0.004 -10.711563,-0.01"
     id="path168"
     inkscape:connector-curvature="0"
     style="fill:none;stroke:#231f20;stroke-width:0.45692924;stroke-miterlimit:10" /><path
     stroke-miterlimit="10"
     d="m 97.491652,153.43643 c 0.573902,0.57756 1.151458,1.15147 1.727194,1.7272 0.241029,-0.23989 0.482745,-0.4816 0.724455,-0.7231 -0.0014,-0.33584 -0.0014,-0.67008 -0.0014,-1.00432 -0.817221,2.2e-4 -1.632841,2.2e-4 -2.450055,2.2e-4"
     id="path170"
     inkscape:connector-curvature="0"
     style="fill:none;stroke:#231f20;stroke-width:0.45692924;stroke-miterlimit:10" /><path
     stroke-miterlimit="10"
     d="m 104.11942,153.43643 c -0.62873,0.65272 -1.273,1.29197 -1.92253,1.92436 -0.0274,0.92666 -0.007,1.85216 -0.0107,2.77927 0.54146,0.54832 1.0916,1.08795 1.63146,1.63924 0.15376,0.13548 0.29472,0.36326 0.53941,0.31048 0.84989,0.004 1.69818,0 2.54784,-10e-4 0.6477,-0.64929 1.29585,-1.29722 1.94537,-1.94331 -0.0224,-0.93191 0.0544,-1.87433 -0.0361,-2.79823 -0.62028,-0.65593 -1.27643,-1.28009 -1.91065,-1.92276 -0.92848,0.004 -1.85719,-0.0183 -2.78406,0.0126"
     id="path172"
     inkscape:connector-curvature="0"
     style="fill:none;stroke:#231f20;stroke-width:0.45692924;stroke-miterlimit:10" /><path
     stroke-miterlimit="10"
     d="m 111.0949,153.43643 c -10e-4,0.33265 -10e-4,0.66644 -10e-4,1.00068 0.23806,0.24331 0.47977,0.48503 0.72149,0.72652 0.57916,-0.57391 1.15283,-1.1533 1.73245,-1.7272 -0.81768,0 -1.63489,0 -2.45234,0"
     id="path174"
     inkscape:connector-curvature="0"
     style="fill:none;stroke:#231f20;stroke-width:0.45692924;stroke-miterlimit:10" /><path
     stroke-miterlimit="10"
     d="m 116.74598,153.43643 c -1.10532,1.0948 -2.19532,2.20537 -3.27322,3.32759 1.04705,1.14803 2.17956,2.21382 3.27459,3.31548 3.58461,0 7.16922,0.007 10.75543,0.004 0.28443,-2.20171 0.38084,-4.44638 0.0292,-6.64649 -3.59443,-2.3e-4 -7.19115,0.001 -10.78604,-2.3e-4"
     id="path176"
     inkscape:connector-curvature="0"
     style="fill:none;stroke:#231f20;stroke-width:0.45692924;stroke-miterlimit:10" /><path
     stroke-miterlimit="10"
     d="m 129.82169,153.42113 c 0.31688,2.20856 0.17637,4.44432 0.20721,6.66888 1.22001,0.0103 2.44024,-0.024 3.66161,-0.0137 1.00753,-1.00752 2.0082,-2.02374 2.99357,-3.05342 0,-0.14394 -0.001,-0.42998 -0.001,-0.57391 -0.99062,-1.02649 -2.00661,-2.02534 -3.01756,-3.03127 -1.28146,0.0377 -2.56337,0.0103 -3.84323,0.004"
     id="path178"
     inkscape:connector-curvature="0"
     style="fill:none;stroke:#231f20;stroke-width:0.45692924;stroke-miterlimit:10" /><path
     stroke-miterlimit="10"
     d="m 63.679341,156.76059 c 1.649977,0.82247 3.370314,1.50101 5.135201,2.03174 1.098458,-1.08475 2.181381,-2.18481 3.278011,-3.26933 0.0087,-0.52775 0.007,-1.0571 0.0049,-1.5828 -2.91612,0.55174 -5.767584,1.47542 -8.418235,2.82039"
     id="path180"
     inkscape:connector-curvature="0"
     style="fill:none;stroke:#231f20;stroke-width:0.45692924;stroke-miterlimit:10" /><path
     stroke-miterlimit="10"
     d="m 138.93903,157.99956 c -0.001,0.52615 -0.001,1.05184 0,1.578 2.92343,-0.53255 5.76941,-1.48387 8.42349,-2.8204 -1.6534,-0.82407 -3.37717,-1.50261 -5.14731,-2.03241 -1.0948,1.0884 -2.18481,2.18321 -3.27618,3.27481"
     id="path182"
     inkscape:connector-curvature="0"
     style="fill:none;stroke:#231f20;stroke-width:0.45692924;stroke-miterlimit:10" /><path
     stroke-miterlimit="10"
     d="m 49.397565,171.50684 c 1.11194,1.12747 2.248089,2.23964 3.531608,3.17497 4.699971,-4.69814 9.398571,-9.4004 14.098548,-14.09854 -1.961822,-0.66804 -3.862192,-1.51632 -5.673462,-2.52362 -5.190261,3.17839 -9.405428,7.92292 -11.956694,13.44719"
     id="path184"
     inkscape:connector-curvature="0"
     style="fill:none;stroke:#231f20;stroke-width:0.45692924;stroke-miterlimit:10" /><path
     stroke-miterlimit="10"
     d="m 33.062802,158.3507 c -1.555847,1.5803 -3.197364,3.08794 -4.535711,4.86493 5.368466,5.38857 10.735098,10.78125 16.142626,16.13189 0.399358,-2.51174 1.093202,-4.97756 2.059613,-7.33189 -4.55239,-4.55764 -9.106832,-9.11551 -13.666528,-13.66493"
     id="path186"
     inkscape:connector-curvature="0"
     style="fill:none;stroke:#231f20;stroke-width:0.45692924;stroke-miterlimit:10" /><path
     stroke-miterlimit="10"
     d="m 97.503532,160.0779 c 0.812191,0.001 1.626208,0.001 2.438399,0.001 0,-0.33904 -0.0014,-0.67465 0,-1.0105 -0.239883,-0.23988 -0.477946,-0.47817 -0.714408,-0.71441 -0.575961,0.57368 -1.151459,1.14758 -1.723991,1.72331"
     id="path188"
     inkscape:connector-curvature="0"
     style="fill:none;stroke:#231f20;stroke-width:0.45692924;stroke-miterlimit:10" /><path
     stroke-miterlimit="10"
     d="m 111.81799,158.34728 c -0.24331,0.23943 -0.48275,0.47978 -0.72309,0.72309 -10e-4,0.33584 -10e-4,0.67169 0,1.00913 0.81242,0 1.62439,0 2.43658,0 -0.57071,-0.57916 -1.14644,-1.15123 -1.71349,-1.73222"
     id="path190"
     inkscape:connector-curvature="0"
     style="fill:none;stroke:#231f20;stroke-width:0.45692924;stroke-miterlimit:10" /><path
     stroke-miterlimit="10"
     d="m 185.42929,163.49984 c 3.14253,5.12149 4.36779,11.40473 3.28304,17.32333 -6.57453,1.33995 -13.62449,-0.37697 -19.00255,-4.34014 -2.12655,-1.53369 -3.84871,-3.53161 -5.72326,-5.3479 1.14963,2.63854 1.94537,5.42284 2.45942,8.25214 1.82292,0.42175 3.65817,0.80876 5.4386,1.39158 4.4377,1.51929 8.57085,3.94581 12.01152,7.13997 2.82222,0.0272 5.64948,-0.3203 8.38077,-1.03494 0.78957,-0.20265 1.50079,-0.70276 1.9584,-1.37924 0.41444,-0.57733 0.50559,-1.30271 0.69042,-1.96868 2.04933,-8.49386 0.2175,-17.79968 -4.78062,-24.94879 -1.45486,1.74775 -3.13431,3.28486 -4.71574,4.91267"
     id="path192"
     inkscape:connector-curvature="0"
     style="fill:none;stroke:#231f20;stroke-width:0.45692924;stroke-miterlimit:10" /><path
     stroke-miterlimit="10"
     d="m 146.48681,163.06279 c 4.56815,4.55969 9.12625,9.12944 13.69257,13.69257 1.34338,1.33652 2.65979,2.70936 4.11419,3.92708 -0.54786,-4.0918 -1.86244,-8.09107 -3.94101,-11.66198 -2.34908,-4.09523 -5.66479,-7.61107 -9.5681,-10.26034 -1.43248,1.43613 -2.86861,2.86517 -4.29765,4.30267"
     id="path194"
     inkscape:connector-curvature="0"
     style="fill:none;stroke:#231f20;stroke-width:0.45692924;stroke-miterlimit:10" /><path
     stroke-miterlimit="10"
     d="m 141.28148,161.40939 c 0.8926,0.29609 1.75986,0.66483 2.61317,1.05894 0.98674,-0.98354 1.96023,-1.9808 2.96251,-2.94903 -1.79939,0.79004 -3.66869,1.41694 -5.57568,1.89009"
     id="path196"
     inkscape:connector-curvature="0"
     style="fill:none;stroke:#231f20;stroke-width:0.45692924;stroke-miterlimit:10" /><path
     stroke-miterlimit="10"
     d="m 79.611327,162.32942 c 0.461043,0.46218 0.930306,0.92002 1.398199,1.37946 -0.0014,-0.45578 -0.0014,-0.91019 0.0014,-1.36233 -0.467668,0.004 -0.933735,0 -1.399801,-0.0171"
     id="path198"
     inkscape:connector-curvature="0"
     style="fill:none;stroke:#231f20;stroke-width:0.45692924;stroke-miterlimit:10" /><path
     stroke-miterlimit="10"
     d="m 84.008127,162.38927 c 0.536435,1.94675 1.302707,3.83478 2.32006,5.58254 1.905393,-1.86587 3.802334,-3.74225 5.69905,-5.6184 -2.673041,-0.004 -5.345844,0.0274 -8.01911,0.0359"
     id="path200"
     inkscape:connector-curvature="0"
     style="fill:none;stroke:#231f20;stroke-width:0.45692924;stroke-miterlimit:10" /><path
     stroke-miterlimit="10"
     d="m 95.217743,162.35524 c -2.520423,2.53801 -5.058207,5.06163 -7.58548,7.59416 1.350221,1.76146 2.873398,3.41486 4.67621,4.72419 2.541212,-2.54122 5.082199,-5.0822 7.62318,-7.62341 0.0087,-1.5595 -0.01054,-3.11854 -0.03794,-4.67598 -1.557441,-0.0482 -3.116485,-0.0277 -4.675985,-0.019"
     id="path202"
     inkscape:connector-curvature="0"
     style="fill:none;stroke:#231f20;stroke-width:0.45692924;stroke-miterlimit:10" /><path
     stroke-miterlimit="10"
     d="m 102.19849,162.33284 c 0,0.81768 0,1.63467 0,2.45212 0.57596,-0.57025 1.13432,-1.15832 1.7272,-1.70846 -0.23121,-0.26045 -0.47636,-0.50719 -0.72835,-0.74526 -0.33402,0 -0.66621,0 -0.99885,0.001"
     id="path204"
     inkscape:connector-curvature="0"
     style="fill:none;stroke:#231f20;stroke-width:0.45692924;stroke-miterlimit:10" /><path
     stroke-miterlimit="10"
     d="m 107.11459,163.05594 c 0.57916,0.56888 1.14963,1.14803 1.72674,1.72033 0,-0.81562 0,-1.62941 0,-2.44343 -0.33744,-0.001 -0.67329,-0.001 -1.00913,0 -0.24308,0.23807 -0.48115,0.47818 -0.71761,0.7231"
     id="path206"
     inkscape:connector-curvature="0"
     style="fill:none;stroke:#231f20;stroke-width:0.45692924;stroke-miterlimit:10" /><path
     stroke-miterlimit="10"
     d="m 111.13763,162.37922 c -0.0599,1.55356 -0.0172,3.1094 -0.029,4.66411 2.52408,2.54578 5.06346,5.07534 7.60284,7.60604 1.75964,-1.34839 3.40939,-2.8718 4.71894,-4.67256 -2.53435,-2.55194 -5.08402,-5.08744 -7.62889,-7.63026 -1.55561,0.005 -3.10963,0.0103 -4.66387,0.0327"
     id="path208"
     inkscape:connector-curvature="0"
     style="fill:none;stroke:#231f20;stroke-width:0.45692924;stroke-miterlimit:10" /><path
     stroke-miterlimit="10"
     d="m 119.02834,162.35341 c 1.8782,1.88643 3.78862,3.74202 5.67209,5.62548 1.03654,-1.73405 1.79025,-3.62916 2.32348,-5.57408 -2.66481,-0.0393 -5.33099,-0.048 -7.99557,-0.0514"
     id="path210"
     inkscape:connector-curvature="0"
     style="fill:none;stroke:#231f20;stroke-width:0.45692924;stroke-miterlimit:10" /><path
     stroke-miterlimit="10"
     d="m 130.02731,162.33445 c 0,0.46446 0,0.93236 0.004,1.39819 0.47316,-0.46423 0.93557,-0.94081 1.41192,-1.40162 -0.47293,2.2e-4 -0.94402,0.002 -1.41534,0.004"
     id="path212"
     inkscape:connector-curvature="0"
     style="fill:none;stroke:#231f20;stroke-width:0.45692924;stroke-miterlimit:10" /><path
     stroke-miterlimit="10"
     d="m 134.61099,162.3365 c -1.53711,1.51929 -3.06599,3.04612 -4.58209,4.58506 -0.001,2.1334 0.004,4.26498 -0.004,6.39815 0.38885,0.358 0.79346,0.69567 1.2079,1.02466 2.50305,-3.62961 4.1793,-7.80846 4.97093,-12.14175 -0.52935,0.067 -1.07424,0.0274 -1.59331,0.13388"
     id="path214"
     inkscape:connector-curvature="0"
     style="fill:none;stroke:#231f20;stroke-width:0.45692924;stroke-miterlimit:10" /><path
     stroke-miterlimit="10"
     d="m 74.897416,162.50259 c 0.817448,4.33009 2.572057,8.4765 5.075337,12.10064 0.325568,-0.4181 0.731776,-0.77336 1.026494,-1.21155 0.01532,-2.16768 0.01714,-4.33512 -0.0021,-6.50279 -1.519749,-1.49553 -3.015737,-3.01711 -4.529999,-4.51835 -0.524098,0.0327 -1.046595,0.0754 -1.569548,0.13205"
     id="path216"
     inkscape:connector-curvature="0"
     style="fill:none;stroke:#231f20;stroke-width:0.45692924;stroke-miterlimit:10" /><path
     stroke-miterlimit="10"
     d="m 68.857497,164.19551 c 1.074465,1.0811 2.15899,2.15375 3.241913,3.22799 0.0049,-1.45259 -0.0137,-2.90767 0.01026,-4.36071 -1.100059,0.33241 -2.193261,0.68882 -3.252192,1.13272"
     id="path218"
     inkscape:connector-curvature="0"
     style="fill:none;stroke:#231f20;stroke-width:0.45692924;stroke-miterlimit:10" /><path
     stroke-miterlimit="10"
     d="m 138.98175,163.04063 c 0.004,1.4512 -0.0238,2.90264 -0.0153,4.35407 1.07608,-1.07789 2.15397,-2.15395 3.23004,-3.23185 -1.04523,-0.44551 -2.11787,-0.82247 -3.21473,-1.12222"
     id="path220"
     inkscape:connector-curvature="0"
     style="fill:none;stroke:#231f20;stroke-width:0.45692924;stroke-miterlimit:10" /><path
     stroke-miterlimit="10"
     d="m 105.50894,164.71276 c -1.13958,1.05254 -2.20697,2.18001 -3.31045,3.26933 0,3.58667 0,7.17287 0,10.76114 2.20011,0.28101 4.44295,0.3788 6.64306,0.027 0,-3.59603 0,-7.19161 0,-10.7881 -1.10508,-1.0948 -2.20514,-2.19646 -3.33261,-3.26933"
     id="path222"
     inkscape:connector-curvature="0"
     style="fill:none;stroke:#231f20;stroke-width:0.45692924;stroke-miterlimit:10" /><path
     stroke-miterlimit="10"
     d="m 24.30872,178.88511 c 4.723963,0.53963 9.616077,-0.49532 13.709476,-2.91636 -3.583008,-3.58621 -7.119639,-7.21742 -10.716129,-10.78992 -2.428121,4.09203 -3.531376,8.9718 -2.993347,13.70628"
     id="path224"
     inkscape:connector-curvature="0"
     style="fill:none;stroke:#231f20;stroke-width:0.45692924;stroke-miterlimit:10" /><path
     stroke-miterlimit="10"
     d="m 56.765546,176.91117 c 4.73767,2.20011 10.275657,2.71233 15.316729,1.3107 0.02058,-2.53435 0.02058,-5.07054 0.01208,-7.60444 -1.780421,-1.79048 -3.54691,-3.59649 -5.351323,-5.36367 -4.564727,2.54533 -8.166472,6.75685 -9.977511,11.65741"
     id="path226"
     inkscape:connector-curvature="0"
     style="fill:none;stroke:#231f20;stroke-width:0.45692924;stroke-miterlimit:10" /><path
     stroke-miterlimit="10"
     d="m 138.95959,170.57996 c -0.0341,2.53253 -0.0188,5.06552 -0.0188,7.59987 1.96572,0.56682 4.01504,0.7745 6.05363,0.82522 3.18526,0.0343 6.3552,-0.70915 9.24436,-2.03379 -0.96138,-2.61775 -2.39522,-5.07306 -4.28211,-7.13335 -1.57115,-1.86039 -3.49025,-3.41486 -5.60949,-4.60882 -1.81332,1.76603 -3.60061,3.55857 -5.38765,5.35087"
     id="path228"
     inkscape:connector-curvature="0"
     style="fill:none;stroke:#231f20;stroke-width:0.45692924;stroke-miterlimit:10" /><path
     stroke-miterlimit="10"
     d="m 173.0031,175.92603 c 4.10757,2.40894 8.991,3.44571 13.72547,2.95725 0.50514,-4.71688 -0.51062,-9.59711 -2.92663,-13.68549 -3.59695,3.57959 -7.24142,7.11096 -10.79884,10.72824"
     id="path230"
     inkscape:connector-curvature="0"
     style="fill:none;stroke:#231f20;stroke-width:0.45692924;stroke-miterlimit:10" /><path
     stroke-miterlimit="10"
     d="m 83.250764,169.15434 c 0,0.6525 -0.0035,1.30728 0.0014,1.96137 0.339267,-0.31528 0.663233,-0.64404 0.989019,-0.97326 -0.329214,-0.33219 -0.66003,-0.66095 -0.990621,-0.98811"
     id="path232"
     inkscape:connector-curvature="0"
     style="fill:none;stroke:#231f20;stroke-width:0.45692924;stroke-miterlimit:10" /><path
     stroke-miterlimit="10"
     d="m 126.80253,170.15159 c 0.32876,0.32876 0.65615,0.65798 0.98674,0.98537 -0.006,-0.6541 -0.0251,-1.30751 -0.0153,-1.95978 -0.32556,0.32329 -0.64952,0.64702 -0.97142,0.97441"
     id="path234"
     inkscape:connector-curvature="0"
     style="fill:none;stroke:#231f20;stroke-width:0.45692924;stroke-miterlimit:10" /><path
     stroke-miterlimit="10"
     d="m 94.29589,175.95505 c 1.754608,1.00067 3.632587,1.78705 5.582529,2.30818 0.0359,-2.66984 0.04293,-5.34105 0.05824,-8.01226 -1.883234,1.89854 -3.762808,3.80028 -5.640786,5.70408"
     id="path236"
     inkscape:connector-curvature="0"
     style="fill:none;stroke:#231f20;stroke-width:0.45692924;stroke-miterlimit:10" /><path
     stroke-miterlimit="10"
     d="m 111.11546,170.26285 c -0.001,2.66984 0.0259,5.34105 0.0359,8.01066 1.94994,-0.53621 3.83478,-1.30934 5.58596,-2.31983 -1.87432,-1.89718 -3.7386,-3.80417 -5.62183,-5.69083"
     id="path238"
     inkscape:connector-curvature="0"
     style="fill:none;stroke:#231f20;stroke-width:0.45692924;stroke-miterlimit:10" /><path
     stroke-miterlimit="10"
     d="m 120.50536,176.44511 c 0.86177,0.86839 1.73222,1.73039 2.61455,2.58187 1.41214,0 2.82382,-0.0103 4.23756,-0.0338 0.14393,-0.15604 0.29129,-0.30683 0.43682,-0.45967 -0.0137,-1.40506 0.019,-2.80829 0.007,-4.21197 -0.93397,-0.89421 -1.83823,-1.81607 -2.73769,-2.74318 -1.3331,1.78957 -3.01071,3.27138 -4.5581,4.86676"
     id="path240"
     inkscape:connector-curvature="0"
     style="fill:none;stroke:#231f20;stroke-width:0.45692924;stroke-miterlimit:10" /><path
     stroke-miterlimit="10"
     d="m 83.250764,174.32906 c -0.01005,1.42037 0.02403,2.83936 0.0274,4.25973 0.14234,0.14393 0.286042,0.28992 0.431803,0.43705 1.420589,-0.024 2.851695,0.0704 4.266573,-0.0208 0.916606,-0.89078 1.812872,-1.80578 2.717815,-2.71004 -1.794359,-1.32647 -3.27161,-3.00774 -4.859669,-4.5597 -0.861771,0.86314 -1.744324,1.70777 -2.583936,2.59376"
     id="path242"
     inkscape:connector-curvature="0"
     style="fill:none;stroke:#231f20;stroke-width:0.45692924;stroke-miterlimit:10" /><path
     stroke-miterlimit="10"
     d="m 133.60324,175.92421 c 0.99542,0.56545 2.03036,1.06396 3.09272,1.48867 0,-1.52158 0,-3.04292 0.002,-4.5645 -1.03129,1.0249 -2.04933,2.06487 -3.09455,3.07583"
     id="path244"
     inkscape:connector-curvature="0"
     style="fill:none;stroke:#231f20;stroke-width:0.45692924;stroke-miterlimit:10" /><path
     stroke-miterlimit="10"
     d="m 74.342476,172.87763 c -0.0035,1.52683 -0.0035,3.05343 -0.0021,4.58026 1.060765,-0.41992 2.088855,-0.92003 3.080853,-1.48388 -1.026269,-1.03334 -2.064638,-2.05276 -3.079019,-3.09638"
     id="path246"
     inkscape:connector-curvature="0"
     style="fill:none;stroke:#231f20;stroke-width:0.45692924;stroke-miterlimit:10" /><path
     stroke-miterlimit="10"
     d="m 48.465426,173.75128 c -0.649295,1.75643 -1.14803,3.5693 -1.4889,5.41141 2.261572,-0.19374 4.533878,-0.12497 6.802306,-0.13708 0.08225,-0.31848 0.167919,-0.63399 0.253597,-0.94927 -2.052755,-1.16357 -3.9152,-2.64379 -5.567003,-4.32506"
     id="path248"
     inkscape:connector-curvature="0"
     style="fill:none;stroke:#231f20;stroke-width:0.45692924;stroke-miterlimit:10" /><path
     stroke-miterlimit="10"
     d="m 157.00098,178.09347 c 0.62714,2.27734 0.90129,4.64492 0.87388,7.00633 1.7048,-0.77952 3.34495,-1.70823 4.88,-2.7859 -1.74638,-1.45303 -3.28646,-3.12722 -4.91267,-4.70865 -0.28101,0.16266 -0.56043,0.32533 -0.84121,0.48822"
     id="path250"
     inkscape:connector-curvature="0"
     style="fill:none;stroke:#231f20;stroke-width:0.45692924;stroke-miterlimit:10" /><path
     stroke-miterlimit="10"
     d="m 92.138726,178.04047 c -0.328989,0.32739 -0.657978,0.65455 -0.983539,0.98674 0.651122,-0.008 1.3027,-0.0237 1.955198,-0.0169 -0.323966,-0.32397 -0.647925,-0.64793 -0.971659,-0.96984"
     id="path252"
     inkscape:connector-curvature="0"
     style="fill:none;stroke:#231f20;stroke-width:0.45692924;stroke-miterlimit:10" /><path
     stroke-miterlimit="10"
     d="m 117.92645,179.02401 c 0.65981,-0.004 1.32121,0.019 1.98262,0.0153 -0.32557,-0.33196 -0.66004,-0.65455 -0.97646,-0.99223 -0.35481,0.30523 -0.67534,0.64793 -1.00616,0.97692"
     id="path254"
     inkscape:connector-curvature="0"
     style="fill:none;stroke:#231f20;stroke-width:0.45692924;stroke-miterlimit:10" /><path
     stroke-miterlimit="10"
     d="m 75.932588,186.34539 c 1.752782,-0.58213 3.449127,-1.32578 5.075343,-2.20012 0.0014,-1.54373 0.0014,-3.08586 -0.0014,-4.62983 -0.370111,-0.37011 -0.740228,-0.74365 -1.112165,-1.11194 -1.674186,2.45029 -3.032865,5.12012 -3.961576,7.94189"
     id="path256"
     inkscape:connector-curvature="0"
     style="fill:none;stroke:#231f20;stroke-width:0.45692924;stroke-miterlimit:10" /><path
     stroke-miterlimit="10"
     d="m 74.340642,179.85677 c -0.0049,1.403 0.0049,2.80669 -0.0049,4.20968 0.673288,-1.85741 1.591946,-3.61682 2.614779,-5.30334 -0.851717,0.40644 -1.722165,0.77335 -2.609755,1.09366"
     id="path258"
     inkscape:connector-curvature="0"
     style="fill:none;stroke:#231f20;stroke-width:0.45692924;stroke-miterlimit:10" /><path
     stroke-miterlimit="10"
     d="m 102.18478,181.26685 c 0.005,1.2184 -0.0153,2.4384 0.0121,3.6584 1.00067,1.00959 2.02191,1.99793 3.03972,2.98992 0.14554,0.004 0.43865,0.0108 0.58602,0.0139 1.02603,-0.99222 2.03333,-2.00478 3.04314,-3.01574 -0.005,-1.28328 -0.0206,-2.56839 -0.0137,-3.85191 -2.20856,0.31345 -4.445,0.17455 -6.66728,0.20539"
     id="path260"
     inkscape:connector-curvature="0"
     style="fill:none;stroke:#231f20;stroke-width:0.45692924;stroke-miterlimit:10" /><path
     stroke-miterlimit="10"
     d="m 111.10861,181.26342 c 0.004,0.46607 0,0.93168 -0.0153,1.39775 0.45921,-0.46607 0.9271,-0.92345 1.38449,-1.39318 -0.45739,-0.003 -0.91317,-0.003 -1.36919,-0.004"
     id="path262"
     inkscape:connector-curvature="0"
     style="fill:none;stroke:#231f20;stroke-width:0.45692924;stroke-miterlimit:10" /><path
     stroke-miterlimit="10"
     d="m 47.046663,181.4005 c 1.871129,1.41899 3.884358,2.6559 6.016159,3.64447 5.89439,2.74683 12.653966,3.54692 19.034987,2.30658 0.0014,-2.02877 0.0014,-4.05754 0,-6.0863 -6.375766,0.001 -12.750154,0 -19.125913,0.001 -1.975761,0.0121 -3.956553,-0.0599 -5.925233,0.13364"
     id="path264"
     inkscape:connector-curvature="0"
     style="fill:none;stroke:#231f20;stroke-width:0.45692924;stroke-miterlimit:10" /><path
     stroke-miterlimit="10"
     d="m 87.937035,182.47315 c 3.630985,2.49985 7.80709,4.18272 12.140605,4.9691 -0.0411,-0.52615 -0.0736,-1.05048 -0.103265,-1.57481 -1.546931,-1.52637 -3.07216,-3.07764 -4.617271,-4.60356 -2.134998,0.006 -4.2684,0 -6.403173,0.004 -0.351836,0.39022 -0.691336,0.793 -1.016896,1.20584"
     id="path266"
     inkscape:connector-curvature="0"
     style="fill:none;stroke:#231f20;stroke-width:0.45692924;stroke-miterlimit:10" /><path
     stroke-miterlimit="10"
     d="m 98.538477,181.26685 c 0.466523,0.46972 0.935561,0.93739 1.405056,1.40506 -0.0014,-0.46973 -0.0014,-0.93739 -0.0014,-1.40506 -0.467893,-0.001 -0.937163,-0.001 -1.403454,0"
     id="path268"
     inkscape:connector-curvature="0"
     style="fill:none;stroke:#231f20;stroke-width:0.45692924;stroke-miterlimit:10" /><path
     stroke-miterlimit="10"
     d="m 111.13603,185.81444 c 0.0274,0.5225 0.072,1.04339 0.13022,1.56453 4.33032,-0.81037 8.48861,-2.5515 12.09058,-5.087 -0.40301,-0.32899 -0.7898,-0.67534 -1.17226,-1.02466 -2.16561,-0.002 -4.33123,0 -6.49753,0 -1.51998,1.51266 -3.03287,3.03241 -4.55101,4.54713"
     id="path270"
     inkscape:connector-curvature="0"
     style="fill:none;stroke:#231f20;stroke-width:0.45692924;stroke-miterlimit:10" /><path
     stroke-miterlimit="10"
     d="m 127.16236,182.38427 c 2.4432,1.68607 5.12149,3.03447 7.94486,3.95632 -0.58761,-1.75163 -1.32441,-3.45278 -2.20697,-5.07534 -1.53528,0.001 -3.07034,0.004 -4.60585,-0.002 -0.38359,0.36668 -0.7585,0.74365 -1.13204,1.12085"
     id="path272"
     inkscape:connector-curvature="0"
     style="fill:none;stroke:#231f20;stroke-width:0.45692924;stroke-miterlimit:10" /><path
     stroke-miterlimit="10"
     d="m 135.44032,181.26685 c 0.91842,1.86587 1.66368,3.81627 2.23416,5.81739 5.90992,1.42722 12.21874,0.99725 17.93332,-1.05048 0.0736,-1.58645 0.007,-3.18525 -0.22275,-4.7564 -6.64832,-0.0242 -13.29664,-0.006 -19.94473,-0.0105"
     id="path274"
     inkscape:connector-curvature="0"
     style="fill:none;stroke:#231f20;stroke-width:0.45692924;stroke-miterlimit:10" /><path
     stroke-miterlimit="10"
     d="m 41.568541,186.72258 c -4.206722,2.04774 -8.833126,3.24717 -13.514142,3.42217 -1.737473,1.71349 -3.248763,3.64584 -4.602419,5.67461 -0.930538,1.14644 -1.427446,2.82382 -0.702528,4.19804 1.72879,3.01756 3.94787,5.76302 6.571331,8.04675 4.239159,3.73585 9.520114,6.2204 15.066553,7.24461 -0.195109,-2.26523 -0.118347,-4.53913 -0.133655,-6.80961 -5.846406,-1.39455 -11.154782,-4.97253 -14.576727,-9.92245 3.70798,-5.64285 9.979338,-9.41549 16.629482,-10.3908 2.549664,-0.3957 5.135201,-0.20722 7.703827,-0.25017 -2.673034,-1.05893 -5.207164,-2.45371 -7.566743,-4.095 -1.603825,0.9936 -3.18731,2.03014 -4.874979,2.88185"
     id="path276"
     inkscape:connector-curvature="0"
     style="fill:none;stroke:#231f20;stroke-width:0.45692924;stroke-miterlimit:10" /><path
     stroke-miterlimit="10"
     d="m 157.87486,187.54003 c -0.004,6.44247 -0.002,12.8854 -0.002,19.32811 2.2225,-0.0137 4.45894,0.0806 6.66728,-0.23121 -0.0153,-7.6097 0.0308,-15.2178 -0.019,-22.82544 -2.0612,1.49576 -4.30084,2.73975 -6.64649,3.72854"
     id="path278"
     inkscape:connector-curvature="0"
     style="fill:none;stroke:#231f20;stroke-width:0.45692924;stroke-miterlimit:10" /><path
     stroke-miterlimit="10"
     d="m 84.858018,187.93573 c 1.523627,-0.002 3.048174,0 4.572033,-0.002 -1.030147,-1.02467 -2.063041,-2.04591 -3.075595,-3.08794 -0.545569,1.00616 -1.062816,2.02923 -1.496438,3.08976"
     id="path280"
     inkscape:connector-curvature="0"
     style="fill:none;stroke:#231f20;stroke-width:0.45692924;stroke-miterlimit:10" /><path
     stroke-miterlimit="10"
     d="m 121.65339,187.93413 c 1.5234,0 3.04476,0.004 4.56815,-0.001 -0.42654,-1.05391 -0.91842,-2.082 -1.48205,-3.06897 -1.02991,1.02124 -2.06326,2.04248 -3.0861,3.07057"
     id="path282"
     inkscape:connector-curvature="0"
     style="fill:none;stroke:#231f20;stroke-width:0.45692924;stroke-miterlimit:10" /><path
     stroke-miterlimit="10"
     d="m 128.61517,187.93413 c 1.3966,0.004 2.79298,-0.004 4.18776,0.004 -1.83183,-0.7023 -3.5949,-1.58508 -5.27411,-2.59924 0.40621,0.84624 0.76969,1.71143 1.08635,2.59582"
     id="path284"
     inkscape:connector-curvature="0"
     style="fill:none;stroke:#231f20;stroke-width:0.45692924;stroke-miterlimit:10" /><path
     stroke-miterlimit="10"
     d="m 166.78315,185.27457 c 0.007,1.0955 -0.019,2.19167 0.019,3.28852 5.84823,1.41374 11.2416,4.9538 14.56233,10.01178 -4.37098,6.34492 -11.87239,10.41616 -19.58992,10.52263 -7.61153,0.0308 -15.22465,0.004 -22.8371,0.0137 0.0308,2.2225 -0.10098,4.46191 0.25703,6.66728 6.38947,0.002 12.78076,0 19.17023,0 1.83526,-0.007 3.67371,0.0393 5.50394,-0.12155 4.74613,-0.41991 9.39493,-1.92435 13.47827,-4.38012 4.46511,-2.72101 8.23616,-6.5695 10.85481,-11.09493 0.73886,-1.22319 0.47818,-2.85649 -0.34772,-3.96797 -1.44435,-2.14551 -2.97804,-4.28028 -4.88686,-6.03352 -5.70248,-0.20722 -11.31745,-1.93624 -16.18397,-4.90582"
     id="path286"
     inkscape:connector-curvature="0"
     style="fill:none;stroke:#231f20;stroke-width:0.45692924;stroke-miterlimit:10" /><path
     stroke-miterlimit="10"
     d="m 75.20424,188.90899 c -1.418763,5.91655 -1.047051,12.24959 1.058939,17.95937 1.585087,0.0238 3.1768,-0.004 4.744752,-0.24697 0.0014,-6.64649 -0.0014,-13.29298 0.0014,-19.93925 -1.864272,0.9109 -3.808959,1.65797 -5.805286,2.22685"
     id="path288"
     inkscape:connector-curvature="0"
     style="fill:none;stroke:#231f20;stroke-width:0.45692924;stroke-miterlimit:10" /><path
     stroke-miterlimit="10"
     d="m 46.498348,190.43056 c -0.0049,6.33099 0,12.6622 -0.0021,18.99227 0.0049,1.76786 -0.03084,3.54006 0.09596,5.30494 0.373539,4.90582 1.90722,9.72255 4.455057,13.93223 2.710734,4.41919 6.528376,8.15436 11.012681,10.75726 1.105314,0.69408 2.587364,0.54832 3.673708,-0.10943 2.278939,-1.47885 4.465343,-3.12243 6.375991,-5.05981 0.180032,-5.71641 1.922535,-11.35195 4.900567,-16.2267 -1.098457,0.005 -2.194857,-0.0153 -3.293314,0.0153 -1.417168,5.84824 -4.950146,11.25463 -10.018632,14.56302 -4.251271,-2.94902 -7.51032,-7.28573 -9.197988,-12.17441 -0.904719,-2.5908 -1.324409,-5.3374 -1.333085,-8.0776 -0.0087,-7.39037 0,-14.78052 -0.0035,-22.17066 -2.222734,0.0274 -4.460544,-0.10099 -6.665685,0.25359"
     id="path290"
     inkscape:connector-curvature="0"
     style="fill:none;stroke:#231f20;stroke-width:0.45692924;stroke-miterlimit:10" /><path
     stroke-miterlimit="10"
     d="m 55.420349,190.2197 c -0.04637,5.54986 0.02059,11.09857 0.04637,16.64821 5.544838,0.0308 11.087848,-0.024 16.631084,-0.0582 -0.01208,-5.53958 0.03267,-11.07756 -0.03267,-16.61737 -5.548265,-0.0462 -11.096524,0.0292 -16.64479,0.0274"
     id="path292"
     inkscape:connector-curvature="0"
     style="fill:none;stroke:#231f20;stroke-width:0.45692924;stroke-miterlimit:10" /><path
     stroke-miterlimit="10"
     d="m 85.294836,205.48364 c 2.606326,-0.95955 5.054786,-2.38197 7.109368,-4.25629 1.874775,-1.57641 3.44456,-3.50603 4.641714,-5.6392 -1.771745,-1.81446 -3.555594,-3.6207 -5.366176,-5.39588 -2.522707,-0.0237 -5.044732,-0.0153 -7.568352,-0.0169 -1.439783,5.02896 -1.001131,10.55849 1.183446,15.30827"
     id="path294"
     inkscape:connector-curvature="0"
     style="fill:none;stroke:#231f20;stroke-width:0.45692924;stroke-miterlimit:10" /><path
     stroke-miterlimit="10"
     d="m 94.880302,190.20439 c 1.077669,1.07789 2.15396,2.15579 3.23323,3.23323 0.448931,-1.04546 0.824071,-2.12107 1.124045,-3.21792 -1.453034,0.004 -2.904473,-0.0238 -4.357275,-0.0153"
     id="path296"
     inkscape:connector-curvature="0"
     style="fill:none;stroke:#231f20;stroke-width:0.45692924;stroke-miterlimit:10" /><path
     stroke-miterlimit="10"
     d="m 102.70043,190.17697 c 0.55357,2.9168 1.47176,5.76941 2.82039,8.41664 0.82979,-1.64655 1.50147,-3.37214 2.0322,-5.13703 -0.97144,-0.98148 -1.9568,-1.95155 -2.92824,-2.93669 -0.44047,-0.62896 -1.29013,-0.23668 -1.92435,-0.34292"
     id="path298"
     inkscape:connector-curvature="0"
     style="fill:none;stroke:#231f20;stroke-width:0.45692924;stroke-miterlimit:10" /><path
     stroke-miterlimit="10"
     d="m 111.8301,190.17697 c 0.32556,1.09686 0.68357,2.1848 1.12747,3.24031 1.07973,-1.08155 2.16265,-2.15876 3.24032,-3.24168 -1.45669,0.0204 -2.91133,-0.0124 -4.36779,0.001"
     id="path300"
     inkscape:connector-curvature="0"
     style="fill:none;stroke:#231f20;stroke-width:0.45692924;stroke-miterlimit:10" /><path
     stroke-miterlimit="10"
     d="m 114.01468,195.53149 c 2.54281,4.56656 6.75615,8.1683 11.65672,9.98117 2.20194,-4.73265 2.71028,-10.26698 1.31596,-15.30484 -2.52751,-0.0544 -5.05638,-0.0169 -7.58366,-0.0377 -1.81447,1.76831 -3.59489,3.57273 -5.38902,5.36137"
     id="path302"
     inkscape:connector-curvature="0"
     style="fill:none;stroke:#231f20;stroke-width:0.45692924;stroke-miterlimit:10" /><path
     stroke-miterlimit="10"
     d="m 130.0289,190.17697 c -0.001,6.01776 0,12.03391 0,18.05168 0.0259,2.33376 -0.0838,4.67438 0.13229,7.00289 2.01482,-2.64905 3.65429,-5.59258 4.75275,-8.73877 1.84896,-5.20374 2.24283,-10.89593 1.19761,-16.3158 -2.02671,-0.001 -4.05548,-0.001 -6.08265,0"
     id="path304"
     inkscape:connector-curvature="0"
     style="fill:none;stroke:#231f20;stroke-width:0.45692924;stroke-miterlimit:10" /><path
     stroke-miterlimit="10"
     d="m 138.95296,190.22152 c -0.0429,5.54346 0.029,11.08602 0.029,16.62971 5.54826,0.0681 11.09858,-0.0157 16.64662,-0.0429 0.0358,-5.54369 -0.0258,-11.0883 -0.0549,-16.63154 -5.54141,0.0329 -11.08122,-0.0478 -16.6208,0.0448"
     id="path306"
     inkscape:connector-curvature="0"
     style="fill:none;stroke:#231f20;stroke-width:0.45692924;stroke-miterlimit:10" /><path
     stroke-miterlimit="10"
     d="m 32.454628,198.5406 c 2.978038,3.69016 7.141805,6.42031 11.738969,7.60742 0.03267,-5.07534 0.08751,-10.14886 0.05663,-15.22443 -4.607675,1.2015 -8.795434,3.92251 -11.795631,7.61701"
     id="path308"
     inkscape:connector-curvature="0"
     style="fill:none;stroke:#231f20;stroke-width:0.45692924;stroke-miterlimit:10" /><path
     stroke-miterlimit="10"
     d="m 166.84141,190.90874 c -0.0274,5.07009 -0.0704,10.1404 -0.0564,15.21049 4.60562,-1.18733 8.83656,-3.85168 11.80225,-7.58068 -2.95724,-3.71804 -7.13997,-6.44933 -11.74582,-7.62981"
     id="path310"
     inkscape:connector-curvature="0"
     style="fill:none;stroke:#231f20;stroke-width:0.45692924;stroke-miterlimit:10" /><path
     stroke-miterlimit="10"
     d="m 99.809884,195.1358 c 0.985366,0.98536 1.975536,1.96547 2.952456,2.95907 -0.82088,-1.79048 -1.4222,-3.67531 -1.88644,-5.58756 -0.30363,0.89627 -0.67009,1.76991 -1.066016,2.62849"
     id="path312"
     inkscape:connector-curvature="0"
     style="fill:none;stroke:#231f20;stroke-width:0.45692924;stroke-miterlimit:10" /><path
     stroke-miterlimit="10"
     d="m 109.34715,195.24705 c -0.67169,1.96206 -1.51472,3.8638 -2.52751,5.67347 3.1736,5.19345 7.92315,9.40886 13.44743,11.95852 1.12542,-1.11033 2.24284,-2.24147 3.17177,-3.52475 -4.69655,-4.70363 -9.38966,-9.41046 -14.09169,-14.10724"
     id="path314"
     inkscape:connector-curvature="0"
     style="fill:none;stroke:#231f20;stroke-width:0.45692924;stroke-miterlimit:10" /><path
     stroke-miterlimit="10"
     d="m 87.128497,209.82218 c -1.842113,1.90174 -3.824043,3.67326 -5.524273,5.70728 4.035823,-0.54146 7.976836,-1.82658 11.509814,-3.85534 4.155316,-2.35433 7.719362,-5.70065 10.402692,-9.64509 -1.42745,-1.4359 -2.86335,-2.86495 -4.294462,-4.29765 -4.031939,4.03057 -8.062057,8.06069 -12.093771,12.0908"
     id="path316"
     inkscape:connector-curvature="0"
     style="fill:none;stroke:#231f20;stroke-width:0.45692924;stroke-miterlimit:10" /><path
     stroke-miterlimit="10"
     d="m 104.31133,205.23667 c -3.52978,3.52338 -7.028951,7.0751 -10.550049,10.6067 3.879785,3.9666 7.868329,7.82719 11.799299,11.74422 3.9289,-3.912 7.82148,-7.85644 11.71497,-11.80248 -3.91177,-3.9088 -7.80709,-7.83405 -11.74422,-11.71361 -0.43705,0.35663 -0.80876,0.77952 -1.22,1.16517"
     id="path318"
     inkscape:connector-curvature="0"
     style="fill:none;stroke:#231f20;stroke-width:0.45692924;stroke-miterlimit:10" /><path
     stroke-miterlimit="10"
     d="m 77.188454,209.1128 c 0.784777,1.70183 1.716917,3.33444 2.772419,4.8816 1.464457,-1.73404 3.121972,-3.28989 4.715511,-4.90399 -0.164491,-0.28443 -0.328989,-0.56842 -0.490059,-0.85171 -2.275503,0.62896 -4.640112,0.89969 -6.997871,0.8741"
     id="path320"
     inkscape:connector-curvature="0"
     style="fill:none;stroke:#231f20;stroke-width:0.45692924;stroke-miterlimit:10" /><path
     stroke-miterlimit="10"
     d="m 122.51014,213.8146 c 1.75803,0.64587 3.5709,1.14461 5.41461,1.49074 -0.19511,-2.26363 -0.12337,-4.53731 -0.13868,-6.80643 -0.31688,-0.0836 -0.63399,-0.16929 -0.94744,-0.25199 -1.16517,2.05321 -2.64403,3.91748 -4.32849,5.56768"
     id="path322"
     inkscape:connector-curvature="0"
     style="fill:none;stroke:#231f20;stroke-width:0.45692924;stroke-miterlimit:10" /><path
     stroke-miterlimit="10"
     d="m 132.60279,215.83491 c 0.91272,1.47475 1.86427,2.93121 2.6712,4.46878 2.18618,4.30746 3.44936,9.08626 3.63054,13.91509 1.70183,1.73427 3.62733,3.23688 5.64604,4.58688 0.77472,0.58441 1.67579,1.06099 2.67122,1.06419 0.83137,0.0686 1.59856,-0.30866 2.26865,-0.75736 2.91795,-1.7786 5.56196,-4.01275 7.7502,-6.64124 3.51447,-4.14663 5.8391,-9.24619 6.82972,-14.57993 -2.26363,0.19877 -4.53708,0.11081 -6.80756,0.13 -1.39637,5.84641 -4.97139,11.16164 -9.92656,14.58175 -5.60469,-3.68741 -9.36362,-9.89868 -10.36841,-16.49879 -0.42311,-2.6029 -0.2296,-5.24509 -0.26913,-7.86878 -1.03769,2.69359 -2.45279,5.23115 -4.09591,7.59941"
     id="path324"
     inkscape:connector-curvature="0"
     style="fill:none;stroke:#231f20;stroke-width:0.45692924;stroke-miterlimit:10" /><path
     stroke-miterlimit="10"
     d="m 55.406642,209.11097 c 0.01208,2.2225 -0.07357,4.45894 0.236462,6.66729 7.607871,-0.0153 15.217337,0.0292 22.823615,-0.0169 -1.501012,-2.06006 -2.748434,-4.3013 -3.735402,-6.65038 -6.442699,0 -12.883803,0 -19.324675,0"
     id="path326"
     inkscape:connector-curvature="0"
     style="fill:none;stroke:#231f20;stroke-width:0.45692924;stroke-miterlimit:10" /><path
     stroke-miterlimit="10"
     d="m 82.884083,217.69371 c -0.403243,1.7923 -0.793461,3.59146 -1.355483,5.34309 -1.516545,4.47357 -3.959975,8.63734 -7.174475,12.10543 -0.03084,2.79298 0.37011,5.57545 0.971433,8.29829 0.335841,1.05231 1.100054,2.03905 2.170872,2.40779 5.831104,1.63809 12.143575,1.50627 17.90431,-0.36166 2.943767,-0.95247 5.7299,-2.35935 8.28985,-4.09157 -1.72719,-1.4704 -3.29333,-3.11352 -4.886867,-4.72259 -5.140456,3.12037 -11.417519,4.37806 -17.345716,3.2796 -1.36234,-6.64123 0.416261,-13.76979 4.46511,-19.17046 1.51129,-2.06463 3.46809,-3.73037 5.235267,-5.5654 -2.643793,1.16174 -5.440197,1.94287 -8.274301,2.47748"
     id="path328"
     inkscape:connector-curvature="0"
     style="fill:none;stroke:#231f20;stroke-width:0.45692924;stroke-miterlimit:10" /><path
     stroke-miterlimit="10"
     d="m 107.11094,229.21015 c 1.57481,1.56795 3.09637,3.20604 4.87657,4.54759 2.80852,-2.82337 5.64788,-5.61658 8.45274,-8.44588 2.5275,-2.5908 5.15736,-5.07991 7.65059,-7.70383 -2.50876,-0.40256 -4.96911,-1.09618 -7.31817,-2.05961 -4.55628,4.55262 -9.11049,9.10546 -13.66173,13.66173"
     id="path330"
     inkscape:connector-curvature="0"
     style="fill:none;stroke:#231f20;stroke-width:0.45692924;stroke-miterlimit:10" /><path
     stroke-miterlimit="10"
     d="m 87.599587,222.30321 c 3.90332,3.90674 7.810069,7.81006 11.713382,11.71658 1.908831,1.86609 3.721701,3.8366 5.745211,5.5791 2.55675,2.15579 5.45596,3.89829 8.55555,5.15119 6.21286,2.53596 13.26191,2.90607 19.73248,1.15992 0.81014,-0.20722 1.47337,-0.79483 1.91203,-1.48868 0.52592,-0.74182 0.58921,-1.67076 0.77472,-2.53093 0.41443,-2.21017 0.67145,-4.45506 0.65957,-6.70658 -3.91656,-4.16879 -6.66865,-9.38806 -8.01065,-14.94135 -0.76718,0.7818 -1.55744,1.54213 -2.31663,2.33376 3.13042,5.13863 4.43792,11.4511 3.21609,17.37793 -6.67733,1.22023 -13.84312,-0.48663 -19.22301,-4.63303 -1.61936,-1.21817 -3.00934,-2.70045 -4.44318,-4.12264 -4.59397,-4.5942 -9.187486,-9.18771 -13.781911,-13.78328 -1.552186,1.58966 -3.227974,3.07834 -4.533652,4.88801"
     id="path332"
     inkscape:connector-curvature="0"
     style="fill:none;stroke:#231f20;stroke-width:0.45692924;stroke-miterlimit:10" /><path
     stroke-miterlimit="10"
     d="m 56.162403,218.02109 c 1.180706,4.60585 3.850312,8.82627 7.566743,11.80248 3.735401,-2.94033 6.452984,-7.1418 7.642142,-11.74239 -5.06871,-0.0308 -10.138798,-0.0704 -15.208885,-0.0601"
     id="path334"
     inkscape:connector-curvature="0"
     style="fill:none;stroke:#231f20;stroke-width:0.45692924;stroke-miterlimit:10" /><path
     stroke-miterlimit="10"
     d="m 139.6877,218.04006 c 1.2047,4.58825 3.90698,8.77098 7.59097,11.75975 3.7354,-2.91132 6.43768,-7.13837 7.63003,-11.72205 -5.07374,-0.005 -10.14725,-0.10099 -15.221,-0.0377"
     id="path336"
     inkscape:connector-curvature="0"
     style="fill:none;stroke:#231f20;stroke-width:0.45692924;stroke-miterlimit:10" /><path
     stroke-miterlimit="10"
     d="m 83.398127,237.96948 c 4.715511,0.50719 9.59186,-0.51245 13.682062,-2.92503 -3.576158,-3.60015 -7.110963,-7.23958 -10.728242,-10.79975 -2.405505,4.10871 -3.449134,8.99214 -2.95382,13.72478"
     id="path338"
     inkscape:connector-curvature="0"
     style="fill:none;stroke:#231f20;stroke-width:0.45692924;stroke-miterlimit:10" /><path
     stroke-miterlimit="10"
     d="m 113.94454,234.96768 c 4.08015,2.44846 8.97203,3.53321 13.70285,3.00203 0.53826,-4.72076 -0.49119,-9.60945 -2.91292,-13.70125 -3.59672,3.56587 -7.21034,7.11438 -10.78993,10.69922 z"
     id="path340"
     inkscape:connector-curvature="0"
     style="fill:none;stroke:#231f20;stroke-width:0.45692924;stroke-miterlimit:10" /><metadata
     id="metadata342"><rdf:RDF><cc:Work><dc:format>image/svg+xml</dc:format><dc:type
           rdf:resource="http://purl.org/dc/dcmitype/StillImage" /><cc:license
           rdf:resource="http://creativecommons.org/publicdomain/zero/1.0/" /><dc:publisher><cc:Agent
             rdf:about="http://openclipart.org/"><dc:title>Open Clip Art Library</dc:title></cc:Agent></dc:publisher><dc:title></dc:title><dc:date>2012-06-01T08:27:03</dc:date><dc:description /><dc:source>http://openclipart.org/detail/170343/abstract-016---bw-by-tikigiki-170343</dc:source><dc:creator><cc:Agent><dc:title>TikiGiki</dc:title></cc:Agent></dc:creator><dc:subject><rdf:Bag><rdf:li>B&amp;W</rdf:li><rdf:li>abstract</rdf:li><rdf:li>black and white</rdf:li><rdf:li>clip art</rdf:li><rdf:li>clipart</rdf:li><rdf:li>free form</rdf:li><rdf:li>freeform</rdf:li><rdf:li>retro</rdf:li><rdf:li>shape</rdf:li><rdf:li>shapes</rdf:li></rdf:Bag></dc:subject></cc:Work><cc:License
         rdf:about="http://creativecommons.org/publicdomain/zero/1.0/"><cc:permits
           rdf:resource="http://creativecommons.org/ns#Reproduction" /><cc:permits
           rdf:resource="http://creativecommons.org/ns#Distribution" /><cc:permits
           rdf:resource="http://creativecommons.org/ns#DerivativeWorks" /></cc:License></rdf:RDF></metadata></svg>