<?xml version="1.0" encoding="UTF-8" standalone="no"?>
<!-- Created with Inkscape (http://www.inkscape.org/) -->

<svg
   xmlns:dc="http://purl.org/dc/elements/1.1/"
   xmlns:cc="http://creativecommons.org/ns#"
   xmlns:rdf="http://www.w3.org/1999/02/22-rdf-syntax-ns#"
   xmlns:svg="http://www.w3.org/2000/svg"
   xmlns="http://www.w3.org/2000/svg"
   xmlns:sodipodi="http://sodipodi.sourceforge.net/DTD/sodipodi-0.dtd"
   xmlns:inkscape="http://www.inkscape.org/namespaces/inkscape"
   width="210mm"
   height="297mm"
   viewBox="0 0 210 297"
   version="1.1"
   id="svg214492"
   inkscape:version="0.92.2 5c3e80d, 2017-08-06"
   sodipodi:docname="Chopa.svg">
  <sodipodi:namedview
     id="base"
     pagecolor="#ffffff"
     bordercolor="#666666"
     borderopacity="1.0"
     inkscape:pageopacity="0.0"
     inkscape:pageshadow="2"
     inkscape:zoom="0.35"
     inkscape:cx="404.28571"
     inkscape:cy="580"
     inkscape:document-units="mm"
     inkscape:current-layer="svg214492"
     showgrid="false"
     inkscape:window-width="1360"
     inkscape:window-height="694"
     inkscape:window-x="0"
     inkscape:window-y="1"
     inkscape:window-maximized="1" />
  <defs
     id="defs214486">
    <clipPath
       id="id0">
      <path
         id="path7"
         d="m 6016,4281 h 169 z m -51,573 h 270 z m -58,-37 h 386 z m -38,-37 h 463 z m -28,-37 h 518 z m -20,-37 h 559 z m -14,-36 h 587 z m -9,-37 h 605 z m -5,-37 h 614 z m 0,-37 h 614 z m 5,-37 h 605 z m 9,-37 h 587 z m 14,-37 h 559 z m 20,-37 h 518 z m 28,-36 h 463 z m 38,-37 h 386 z m 58,-37 h 270 z m 44,570 h 183 z m -78,-37 h 338 z m -46,-36 h 430 z m -32,-37 h 494 z m -23,-37 h 541 z m -17,-37 h 575 z m -12,-37 h 598 z m -6,-37 h 611 z m -2,-37 h 615 z m 2,-37 h 611 z m 7,-36 h 597 z m 11,-37 h 574 z m 18,-37 h 539 z m 24,-37 h 491 z m 32,-37 h 426 z m 47,-37 h 332 z"
         inkscape:connector-curvature="0" />
    </clipPath>
    <clipPath
       id="id2">
      <path
         id="path13"
         d="m 3934,4281 h 169 z m -51,573 h 270 z m -58,-37 h 386 z m -38,-37 h 463 z m -28,-37 h 518 z m -20,-37 h 559 z m -14,-36 h 587 z m -9,-37 h 605 z m -5,-37 h 614 z m 0,-37 h 614 z m 5,-37 h 605 z m 9,-37 h 587 z m 14,-37 h 559 z m 20,-37 h 518 z m 28,-36 h 463 z m 38,-37 h 386 z m 58,-37 h 270 z m 44,570 h 183 z m -78,-37 h 338 z m -46,-36 h 430 z m -32,-37 h 494 z m -23,-37 h 541 z m -17,-37 h 575 z m -12,-37 h 598 z m -6,-37 h 611 z m -2,-37 h 615 z m 2,-37 h 611 z m 7,-36 h 597 z m 11,-37 h 574 z m 18,-37 h 539 z m 24,-37 h 491 z m 32,-37 h 426 z m 47,-37 h 332 z"
         inkscape:connector-curvature="0" />
    </clipPath>
    <clipPath
       id="id3">
      <path
         id="path16"
         d="m 3934,4281 h 169 z m -51,573 h 270 z m -58,-37 h 386 z m -38,-37 h 463 z m -28,-37 h 518 z m -20,-37 h 559 z m -14,-36 h 587 z m -9,-37 h 605 z m -5,-37 h 614 z m 0,-37 h 614 z m 5,-37 h 605 z m 9,-37 h 587 z m 14,-37 h 559 z m 20,-37 h 518 z m 28,-36 h 463 z m 38,-37 h 386 z m 58,-37 h 270 z m 44,570 h 183 z m -78,-37 h 338 z m -46,-36 h 430 z m -32,-37 h 494 z m -23,-37 h 541 z m -17,-37 h 575 z m -12,-37 h 598 z m -6,-37 h 611 z m -2,-37 h 615 z m 2,-37 h 611 z m 7,-36 h 597 z m 11,-37 h 574 z m 18,-37 h 539 z m 24,-37 h 491 z m 32,-37 h 426 z m 47,-37 h 332 z"
         inkscape:connector-curvature="0" />
    </clipPath>
  </defs>
  <metadata
     id="metadata214489">
    <rdf:RDF>
      <cc:Work
         rdf:about="">
        <dc:format>image/svg+xml</dc:format>
        <dc:type
           rdf:resource="http://purl.org/dc/dcmitype/StillImage" />
        <dc:title />
      </cc:Work>
    </rdf:RDF>
  </metadata>
  <g
     id="layer1"
     inkscape:groupmode="layer"
     inkscape:label="Layer 1">
    <path
       inkscape:connector-curvature="0"
       d="m 154.5289,96.446926 c 1.35624,-0.821385 6.53287,-3.457458 9.16895,1.069711 0,0 -1.35624,11.499393 -0.45845,19.484023 0,0 0.19102,5.53957 4.69909,6.03622 4.50806,0.47755 9.32176,-6.89581 9.6274,-23.151597 0,0 0.30563,-2.559666 7.01042,-0.744978 0,0 1.8911,-2.483257 6.93402,-1.088812 0,0 7.87002,-3.782193 8.95883,0.974201 0,0 0.0573,15.835536 -3.22824,25.596656 0,0 -4.03051,14.26918 -32.56887,11.55669 0,0 -0.70677,3.40016 -3.13273,4.48897 l -9.76111,-5.19574 c 0,0 2.36865,-0.80228 2.94171,-3.22823 l -2.8844,-1.68098 z"
       id="path20"
       style="fill:none;fill-rule:evenodd;stroke:#332c2b;stroke-width:0.1502216" />
    <path
       inkscape:connector-curvature="0"
       d="m 160.25949,139.98034 c 0.87869,-0.11461 1.75738,-0.22923 2.67428,-0.34384 m -4.22154,-0.45844 c 1.64277,-0.24833 3.30464,-0.47755 5.04292,-0.68768 m -6.57108,-0.13371 c 2.29224,-0.32473 4.62268,-0.66857 7.08684,-0.9551 m -8.6341,0.13372 c 2.9035,-0.40115 5.82611,-0.85959 8.99703,-1.20343 m 0.84049,-0.0955 c 2.57877,-0.24833 5.31035,-0.42024 8.30936,-0.40114 2.99901,0 5.36766,-0.0764 7.37337,-0.19102 m -27.06751,1.06971 c 5.99802,-0.76408 11.93874,-1.9484 19.69414,-1.9293 5.61599,0.0382 9.03524,-0.30563 12.03425,-0.40114 m -33.31385,1.48995 c 6.55198,-0.74497 12.83653,-2.15852 21.2796,-2.12032 7.25876,0.0382 10.83083,-0.53485 14.59392,-0.43934 m -35.33867,1.45175 c 6.36096,-0.74498 12.5309,-2.08212 20.74475,-2.04391 8.36667,0.0382 11.84323,-0.72588 16.3704,-0.34384 m -36.00723,1.22253 c 5.97892,-0.76408 11.90053,-1.9484 19.63683,-1.9102 9.20716,0.0382 12.4927,-0.87869 17.76484,-0.19102 m -36.88592,0.9933 c 5.807,-0.76408 11.61401,-1.87199 19.12108,-1.83379 9.85662,0.0382 12.91294,-1.0124 18.91096,-0.0191 m -39.08265,0.9551 c 6.16994,-0.76408 12.20617,-2.00571 20.17169,-1.9675 10.37238,0.0382 13.23768,-1.12702 19.90427,0.15281 m -41.54681,0.9551 c 6.68569,-0.72587 13.04665,-2.17763 21.64254,-2.13942 10.81172,0.0382 13.4478,-1.24163 20.74475,0.32473 m -42.63562,0.80229 c 6.78121,-0.70678 13.18037,-2.19673 21.89087,-2.15853 11.17466,0.0382 13.61971,-1.31803 21.48973,0.47755 m -43.30419,0.64947 c 6.7621,-0.72588 13.14216,-2.21583 21.81446,-2.17763 11.46119,0.0573 13.75343,-1.37534 22.1392,0.64947 m -43.85815,0.47755 c 6.7239,-0.72588 13.08486,-2.19673 21.71895,-2.15852 11.72862,0.0573 13.84894,-1.45175 22.71226,0.78318 m -44.3548,0.32473 c 6.68569,-0.70677 13.04665,-2.17763 21.64254,-2.13942 11.91964,0.0573 13.90624,-1.50906 23.1707,0.91689 m -44.73683,0.19102 c 6.66659,-0.72587 13.00845,-2.17762 21.56613,-2.13942 12.07245,0.0573 13.96355,-1.54726 23.53364,0.9933 m -45.00426,0.0955 c 4.62268,-0.49665 9.09254,-1.35624 14.26918,-1.81468 m 3.935,-0.24833 c 1.05061,-0.0382 2.13943,-0.0573 3.26644,-0.0573 12.20617,0.0573 14.00175,-1.58547 23.82017,1.06971 m -45.21438,0.0191 c 4.18333,-0.47755 8.23295,-1.20343 12.81742,-1.68098 m 6.7048,-0.42024 c 0.61126,-0.0191 1.24163,-0.0191 1.87199,-0.0191 12.30168,0.0573 14.03996,-1.60457 24.1067,1.14612 m -45.42451,-0.0764 c 3.91591,-0.43935 7.73631,-1.10792 11.95784,-1.58547 m 8.38577,-0.51575 c 0.32474,0 0.64947,0 0.9742,0 12.41629,0.0382 14.05906,-1.64277 24.35503,1.22253 m -45.59643,-0.17192 c 3.74399,-0.42024 7.37337,-1.05061 11.36568,-1.50906 m 9.58919,-0.59216 h 0.28653 c 12.5118,0.0573 14.07816,-1.66187 24.58425,1.29894 M 152.6378,120.3435 c 3.59117,-0.42024 7.10594,-1.0124 10.92633,-1.47085 m 10.50609,-0.63036 c 12.32078,0.0382 13.90624,-1.66188 24.50784,1.35624 m -45.86385,-0.30564 c 3.49566,-0.40114 6.91492,-0.9742 10.6398,-1.43264 m 11.21286,-0.64947 c 11.93874,-0.0191 13.56241,-1.64277 24.20221,1.41354 m -45.97846,-0.36293 c 3.43835,-0.40114 6.8003,-0.9742 10.44878,-1.41355 m 11.74772,-0.66857 c 11.6331,-0.0573 13.29498,-1.62367 23.95388,1.45175 m -46.05487,-0.42024 c 3.36195,-0.40114 6.66659,-0.9551 10.23866,-1.39445 m 12.24437,-0.66857 c 11.34657,-0.0955 13.04665,-1.60456 23.74376,1.50906 m -46.15039,-0.49665 c 3.32375,-0.38204 6.57109,-0.936 10.08585,-1.35624 m 12.64551,-0.68767 c 11.09825,-0.11461 12.83653,-1.58547 23.57184,1.54726 m -46.22679,-0.53486 c 3.28554,-0.38204 6.49468,-0.93599 9.95213,-1.35624 m 12.98935,-0.70677 c 10.88813,-0.13372 12.66461,-1.56636 23.43813,1.60457 m -46.2841,-0.59217 c 3.22824,-0.38204 6.39917,-0.91689 9.81842,-1.33713 m 13.27588,-0.70678 c 10.71621,-0.15281 12.51179,-1.54726 23.30441,1.64277 m -46.3223,-0.64947 c 3.19003,-0.38203 6.34186,-0.89779 9.72291,-1.31803 m 13.5242,-0.70678 c 10.5634,-0.17191 12.37808,-1.54726 23.20891,1.66188 m -46.37961,-0.66857 c 3.17093,-0.38204 6.28455,-0.8978 9.6465,-1.31804 m 13.71522,-0.72587 c 10.42968,-0.17192 12.26347,-1.50906 23.1325,1.71917 m -46.39871,-0.72587 c 3.13272,-0.38204 6.22724,-0.89779 9.55099,-1.29894 m 13.88714,-0.72587 c 10.31507,-0.19102 12.16796,-1.50906 23.05609,1.73828 m -46.41781,-0.76408 c 3.11362,-0.36294 6.18904,-0.87869 9.49368,-1.27983 m 14.02085,-0.72588 c 10.20046,-0.21012 12.07246,-1.48995 22.99879,1.77649 m -46.43692,-0.80229 c 3.09453,-0.38204 6.15084,-0.87869 9.43638,-1.29893 m 14.13547,-0.72588 c 10.10495,-0.21012 11.99604,-1.47085 22.94148,1.81469 M 153.6311,107.8126 c 3.07542,-0.38204 6.11264,-0.87869 9.37908,-1.27983 m 14.21187,-0.72587 c 10.02854,-0.22923 11.93874,-1.47086 22.90327,1.83379 M 153.70751,106.762 c 3.05632,-0.36294 6.09353,-0.8787 9.35997,-1.26074 m 14.25008,-0.72587 c 9.97123,-0.22922 11.88143,-1.47085 22.88417,1.85289 m -46.41781,-0.89779 c 3.05632,-0.38204 6.07443,-0.87869 9.34087,-1.27983 m 14.26918,-0.70678 c 9.91392,-0.24832 11.84322,-1.47085 22.86507,1.872 m -46.37961,-0.936 c 3.03721,-0.38204 6.05533,-0.87869 9.30266,-1.26073 m 14.28829,-0.72588 c 9.87572,-0.22922 11.80502,-1.45175 22.84596,1.9102 m -46.3605,-0.9742 c 3.03721,-0.38204 6.05533,-0.85959 9.30266,-1.26073 m 14.25008,-0.70677 c 9.85662,-0.22923 11.78592,-1.45175 22.86507,1.91019 m -46.3414,-0.9742 c 3.03721,-0.38204 6.05532,-0.87869 9.30266,-1.27983 m 14.21187,-0.68767 c 9.83752,-0.24833 11.76682,-1.451751 22.86507,1.9293 m -46.3032,-1.01241 c 3.03722,-0.38203 6.05533,-0.87869 9.30267,-1.26073 m 14.25008,-0.687667 c 9.742,-0.248326 11.69041,-1.432649 22.76956,1.929297 m -46.2268,-1.0315 c 3.03722,-0.38204 6.05533,-0.878695 9.30267,-1.260735 m 22.38752,-1.050609 c 4.06872,-0.133713 7.43067,0.152816 14.57481,2.311344 m -46.18859,-1.031511 c 3.03722,-0.401142 6.07443,-0.897793 9.34087,-1.279833 m 29.09232,-0.630365 c 2.10121,0.343836 4.54627,0.935997 7.7554,1.910198 M 154.35698,98.41443 c 2.97991,-0.382039 5.94072,-0.859589 9.13075,-1.241629 m 31.30814,-0.248325 c 1.56636,0.343835 3.34285,0.802283 5.46317,1.45175 m -45.80655,-1.012405 c 2.69338,-0.343835 5.38676,-0.764079 8.25205,-1.127017 m -7.92732,0.05731 c 2.19673,-0.286529 4.37436,-0.630365 6.64749,-0.935997"
       id="path22"
       style="fill:none;fill-rule:evenodd;stroke:#332c2b;stroke-width:0.1502216" />
    <path
       inkscape:connector-curvature="0"
       d="m 162.78095,118.3569 c 0,0.0191 0.43935,7.27785 6.64749,8.80601 l 0.15282,-0.66857 c -5.69239,-1.39444 -6.11264,-8.17565 -6.11264,-8.19475 z"
       id="path24"
       style="fill:none;fill-rule:evenodd;stroke:#332c2b;stroke-width:0.1502216" />
    <path
       inkscape:connector-curvature="0"
       d="m 191.14739,97.917779 c 0,0.05731 1.03151,20.572831 -5.04292,25.997791 l 0.45845,0.51576 c 6.32275,-5.65419 5.27214,-26.494449 5.27214,-26.551755 z"
       id="path26"
       style="fill:none;fill-rule:evenodd;stroke:#332c2b;stroke-width:0.1502216" />
    <path
       inkscape:connector-curvature="0"
       d="m 184.11786,98.89198 c 0,0.0382 0.55396,14.53661 -3.935,23.39993 l 0.61126,0.30563 c 4.58448,-9.01614 4.03052,-23.667356 4.03052,-23.724662 z"
       id="path28"
       style="fill:none;fill-rule:evenodd;stroke:#332c2b;stroke-width:0.1502216" />
    <path
       inkscape:connector-curvature="0"
       d="m 154.16596,96.141295 c 0,0.0573 -1.9293,20.381815 3.8204,28.118115 l 0.55395,-0.42024 c -5.57778,-7.50708 -3.68668,-27.564162 -3.68668,-27.621468 z"
       id="path30"
       style="fill:none;fill-rule:evenodd;stroke:#332c2b;stroke-width:0.1502216" />
    <path
       inkscape:connector-curvature="0"
       d="m 154.71992,132.24404 -0.11461,-0.0764 c 1.71917,0.24832 6.89581,1.22253 10.04764,4.04962"
       id="path32"
       style="fill:none;fill-rule:evenodd;stroke:#332c2b;stroke-width:0.1502216" />
    <path
       inkscape:connector-curvature="0"
       d="m 57.930184,95.377215 -0.0382,-0.248325 c 0,0 -1.241629,0.477549 -1.852893,1.088812 0,0 -5.845205,-3.629376 -8.672298,1.241629 0,0 0.897793,14.727629 0.477549,17.535619 0,0 -0.343836,7.56438 -4.813699,8.11834 -4.469863,0.55396 -7.698098,-5.42496 -8.806013,-12.5882 -1.088813,-7.14415 -0.955099,-10.716215 -0.955099,-10.716215 0,0 -1.318036,-2.349544 -7.086834,-0.821385 0,0 -2.063014,-2.273136 -7.086835,-1.184323 0,0 -8.462177,-3.228235 -9.07344,1.318036 0,0 -0.076408,12.511797 2.273135,21.241407 2.330442,8.7487 7.277855,17.61202 33.963321,15.62541 0,0 -0.534856,3.36195 4.966514,6.59019 l 10.792619,-5.29125 c 0,0 -4.851903,-1.43265 -5.826104,-4.73729 l -2.483257,-1.08881 0.229224,-0.40115 2.368645,1.06971 4.450762,-2.9608 -2.922603,-33.600385 c 0,0 0.0191,-0.05731 0.09551,-0.19102 z"
       id="path34"
       style="fill:none;fill-rule:evenodd;stroke:#332c2b;stroke-width:0.1502216" />
    <path
       inkscape:connector-curvature="0"
       d="m 56.936882,95.587337 c 0.305631,0.07641 0.611263,0.152816 0.916895,0.248326 m -7.774506,46.016667 c 0.668569,0.0573 1.35624,0.15282 2.101217,0.26743 m -3.514764,-1.39444 c 1.547261,0.0764 3.132725,0.24832 5.062025,0.63036 m -6.055328,-1.68097 c 2.234932,0.0191 4.469864,0.24832 7.507078,0.9551 m -8.213851,-1.98661 c 2.788889,-0.0382 5.482268,0.22922 9.627398,1.29893 M 46.5072,137.61169 c 3.266439,-0.0573 6.26545,0.22923 11.442086,1.66188 m -11.671309,-2.69338 c 3.629376,-0.0955 6.838509,0.22922 13.008448,2.04391 m -26.360732,-2.63608 c 0.210121,0 0.420243,0 0.630365,0 13.428692,0.0573 14.269179,-1.9293 27.029302,2.00571 m -32.912712,-2.84619 c 1.852892,-0.13372 3.801294,-0.21012 5.88341,-0.21012 13.848935,0.0764 14.307383,-2.04392 28.309134,2.42595 m -37.019637,-2.99901 c 2.693379,-0.26743 5.558676,-0.45845 8.710503,-0.45845 12.473593,0.0573 14.078159,-1.64277 24.488738,1.26073 m -35.281357,-1.58546 c 3.285541,-0.42025 6.800305,-0.72588 10.792619,-0.70678 11.938737,0.0573 13.925343,-1.50905 23.228008,0.9169 m -35.682499,-1.03151 c 3.76309,-0.51575 7.774506,-0.936 12.454491,-0.91689 11.709514,0.0573 13.848935,-1.45176 22.654948,0.76407 M 19.707122,131.9193 c 4.183334,-0.59216 8.595891,-1.12701 13.848936,-1.10791 10.620701,0.0382 13.371386,-1.18432 20.381813,0.24832 m 0,0 c 0.897793,0.19102 1.871994,0.42025 2.941705,0.68768 m -38.337674,-0.70678 c 4.508067,-0.64947 9.26446,-1.27983 15.014156,-1.26073 12.435389,0.0573 14.078159,-1.64277 24.431432,1.24163 m -40.457993,-0.85959 c 4.813699,-0.68767 9.837519,-1.45175 16.026561,-1.41355 12.874735,0.0573 14.173669,-1.77648 25.520245,1.54726 m -42.425497,-1.0506 c 5.081126,-0.72588 10.353273,-1.56637 16.905252,-1.52816 13.256774,0.0573 14.250077,-1.8911 26.589956,1.87199 m -44.259288,-1.26073 c 5.329453,-0.74498 10.773517,-1.68097 17.669332,-1.66187 13.466896,0.0573 14.269179,-1.9293 27.163016,2.06301 m -45.500917,-1.35624 c 5.558676,-0.74498 11.155556,-1.75738 18.337901,-1.73828 13.428692,0.0573 14.269179,-1.9102 27.067506,2.02481 m -45.997568,-1.24163 c 5.749696,-0.76408 11.499392,-1.85289 18.930062,-1.81469 13.40959,0.0573 14.269179,-1.91019 26.971996,1.98661 m -46.39871,-1.12702 c 5.902512,-0.76408 11.785922,-1.9293 19.426714,-1.89109 13.371386,0.0573 14.250077,-1.9102 26.895588,1.9675 m -46.780749,-1.06971 c 6.074429,-0.74498 12.053349,-1.9675 19.885161,-1.9293 2.521461,0 4.603577,-0.0573 6.399163,-0.13371 m 5.214841,-0.26743 c 4.336149,-0.17192 7.678996,0.0382 15.186074,2.33044 m -47.086381,-0.9742 c 6.208144,-0.76408 12.282573,-2.02481 20.286303,-1.98661 1.967504,0 3.66758,-0.0382 5.176637,-0.0764 m 7.354262,-0.36294 c 3.896804,-0.0955 7.258752,0.22922 14.173669,2.34954 M 12.92592,122.50203 c 6.322755,-0.74498 12.473593,-2.06302 20.630138,-2.02481 1.604566,0 3.018113,-0.0191 4.297945,-0.0573 m 8.806013,-0.40114 c 3.648478,-0.0382 6.991325,0.36294 13.5051,2.33044 m -47.544828,-0.84049 c 6.437367,-0.74497 12.645511,-2.10121 20.93577,-2.08211 1.318037,0.0191 2.521461,0 3.610274,-0.0191 m 9.913928,-0.42025 c 3.457458,-0.0191 6.800305,0.42025 12.989346,2.29224 m -47.735848,-0.78318 c 6.532877,-0.72588 12.798327,-2.13942 21.2223,-2.10122 1.107915,0.0191 2.101218,0 3.037215,-0.0191 m 10.792619,-0.42024 c 3.342846,0 6.628387,0.47755 12.588204,2.27313 M 12.06633,119.50302 c 6.64749,-0.72588 12.951143,-2.17763 21.489728,-2.13943 0.916895,0 1.757382,0 2.559665,0 m 11.48029,-0.43934 c 3.266439,0.0191 6.532877,0.49665 12.301675,2.23493 m -48.060581,-0.66857 c 6.723897,-0.72587 13.084856,-2.19673 21.718951,-2.15852 0.764079,0 1.470852,0 2.139422,0 m 12.072451,-0.43935 c 3.190031,0.0382 6.418265,0.51576 12.034248,2.21583 m -48.175194,-0.63036 c 6.800305,-0.70678 13.21857,-2.21583 21.929073,-2.17763 0.630365,0 1.222527,0 1.795586,0 m 12.511797,-0.43935 c 3.132725,0.0382 6.341857,0.53486 11.843228,2.17763 M 11.435965,116.4658 c 6.876713,-0.70677 13.31408,-2.23493 22.120093,-2.19673 0.515753,0 0.993303,0 1.470852,0 m 12.912939,-0.43934 c 3.094521,0.0573 6.265449,0.53485 11.67131,2.13942 M 11.264047,115.4534 c 6.934019,-0.70678 13.40959,-2.25404 22.292011,-2.21583 0.420244,0 0.821385,0 1.203425,0 m 13.199468,-0.43935 c 3.075419,0.0573 6.227245,0.53486 11.556698,2.12032 M 11.09213,114.42189 c 7.010426,-0.68767 13.524201,-2.25403 22.463928,-2.21583 0.343836,0 0.649467,0 0.974201,0 m 13.428692,-0.45845 c 3.056317,0.0764 6.189041,0.55396 11.461188,2.10122 m -48.461723,-0.43935 c 7.04863,-0.68767 13.600609,-2.29223 22.597642,-2.25403 0.267428,0.0191 0.534855,0.0191 0.783181,0 m 13.60061,-0.43934 c 3.037215,0.0573 6.169939,0.53485 11.38478,2.08211 m -48.499927,-0.42024 c 7.105936,-0.66857 13.677017,-2.29224 22.731356,-2.25404 h 0.611263 m 13.753426,-0.43934 c 3.037215,0.0573 6.131736,0.51575 11.327474,2.04391 M 10.71009,111.36557 c 7.14414,-0.66857 13.734324,-2.31134 22.845968,-2.27313 h 0.458447 m 13.868038,-0.43935 c 3.037215,0.0573 6.112634,0.51575 11.270168,2.02481 m -48.557233,-0.34383 c 7.201446,-0.64947 13.810732,-2.31134 22.96058,-2.27314 h 0.324734 m 13.982649,-0.43935 c 2.999011,0.0382 6.07443,0.49666 11.19376,1.98661 m -48.557233,-0.28653 c 7.220549,-0.64947 13.848936,-2.33044 23.05609,-2.29224 h 0.19102 m 14.078159,-0.43934 c 2.999011,0.0382 6.055328,0.47755 11.136454,1.9675 m -48.557233,-0.26743 c 7.277855,-0.64946 13.906242,-2.33044 23.1516,-2.29223 h 0.07641 m 14.154567,-0.43935 c 2.999011,0.0382 6.036226,0.45845 11.079148,1.9293 M 10.32805,107.25865 c 7.296957,-0.63037 13.944446,-2.33044 23.208906,-2.29224 m 14.192771,-0.45845 c 2.999011,0.0382 6.036226,0.47755 11.040945,1.9293 m -48.499928,-0.21012 c 7.277855,-0.63037 13.925344,-2.33044 23.170702,-2.29224 m 14.250077,-0.45845 c 2.999011,0.0382 5.998022,0.45845 11.002741,1.8911 m -48.499928,-0.17192 c 7.296957,-0.61126 13.944446,-2.31134 23.170702,-2.31134 m 14.269179,-0.43934 c 2.999011,0.0382 5.998022,0.43934 10.964537,1.85289 m -48.442622,-0.11461 c 7.296957,-0.63037 13.925344,-2.33044 23.1516,-2.33044 m 14.269179,-0.43935 c 2.999011,0.0191 5.998022,0.42024 10.926333,1.83379 m -48.404417,-0.0955 c 7.316058,-0.63036 13.944445,-2.33044 23.170701,-2.33044 m 14.269179,-0.43935 c 2.979909,0.0191 5.959818,0.40115 10.869027,1.79559 m -48.328009,-0.0573 c 7.316058,-0.61126 13.944445,-2.330437 23.170701,-2.330437 m 14.230975,-0.439346 c 2.979909,0 5.959818,0.401142 10.830823,1.776483 m -48.270703,-0.0382 c 6.914916,-0.59216 13.237672,-2.139424 21.699849,-2.311342 m 15.682725,-0.47755 c 2.979909,0.0191 5.940716,0.401142 10.792619,1.757382 m -48.194295,0 c 4.966514,-0.420243 9.608296,-1.337138 14.937748,-1.891096 m 22.521234,-0.897793 c 2.960807,0.0191 5.88341,0.401142 10.658905,1.738281 m -48.098785,0 c 3.935007,-0.324734 7.678996,-0.974201 11.728615,-1.489955 m 26.513549,-1.260731 c 2.674277,0.07641 5.463166,0.496652 9.761111,1.680975 m -47.602134,0 c 2.196728,-0.19102 4.33615,-0.47755 6.494673,-0.783182 m 32.759896,-1.852892 c 2.254034,0.171918 4.756393,0.611264 8.252055,1.585465"
       id="path36"
       style="fill:none;fill-rule:evenodd;stroke:#332c2b;stroke-width:0.1502216" />
    <path
       inkscape:connector-curvature="0"
       d="m 19.420593,97.917779 c -0.0191,0.05731 -1.050609,20.572831 5.023821,25.997791 l -0.458448,0.51576 C 17.663211,118.77714 18.71382,97.936881 18.71382,97.879575 Z"
       id="path38"
       style="fill:none;fill-rule:evenodd;stroke:#332c2b;stroke-width:0.1502216" />
    <path
       inkscape:connector-curvature="0"
       d="m 26.431019,98.89198 c 0,0.0382 -0.553957,14.53661 3.935008,23.39993 l -0.611263,0.30563 C 25.170289,113.5814 25.743348,98.930184 25.743348,98.872878 Z"
       id="path40"
       style="fill:none;fill-rule:evenodd;stroke:#332c2b;stroke-width:0.1502216" />
    <path
       inkscape:connector-curvature="0"
       d="m 56.382924,96.141295 c 0.0191,0.0573 1.9293,20.381815 -3.820396,28.118115 l -0.553957,-0.42024 c 5.577778,-7.50708 3.705784,-27.564162 3.686682,-27.621468 z"
       id="path42"
       style="fill:none;fill-rule:evenodd;stroke:#332c2b;stroke-width:0.1502216" />
    <path
       inkscape:connector-curvature="0"
       d="M 61.368541,136.25545 57.834675,95.568235 c 0,0 4.775495,-12.416287 40.381585,-16.427703 6.53288,-0.725875 11.72862,-0.764079 18.3188,-0.114612 13.44779,1.298935 36.37017,5.214841 38.03204,16.867049 l -3.07542,38.834321 c -4.20243,-1.75738 -8.02283,-3.01811 -10.79262,-3.83949 -2.75068,-0.82139 -5.08112,-1.18433 -7.87001,-1.60457 -4.03052,-0.53486 -7.64079,-0.9169 -10.83082,-1.20342 l 0.95509,-0.8787 -8.50038,-8.48128 8.38577,-8.00372 -8.38577,-8.38577 -8.19475,8.29026 -8.404867,-8.29026 -8.29026,8.19475 8.366668,8.30936 -8.462178,8.27115 0.821386,0.9551 0.382039,-0.0573 c -5.539574,0.78318 -10.391477,1.9102 -10.391477,1.9102 -0.783181,0.32473 -2.368645,0.36293 -2.368645,0.36293 -3.495663,-0.21012 -4.450762,1.79559 -4.450762,1.79559 -9.589194,1.66187 -9.26446,3.34285 -9.26446,3.34285 -0.420244,-0.0764 -1.489955,0.28653 -2.827093,0.84048 z m 40.897339,-8.82511 c -0.11461,-0.0191 -0.22922,-0.0382 -0.34384,-0.0382 0.11462,0 0.22923,0.0191 0.34384,0.0382 z m -0.38204,-0.0382 c -0.0955,-0.0191 -0.21012,-0.0382 -0.32473,-0.0382 0.11461,0 0.22922,0.0191 0.32473,0.0382 z m -0.34384,-0.0382 c -0.11461,-0.0191 -0.24832,-0.0191 -0.36293,-0.0191 0.11461,0 0.24832,0 0.36293,0.0191 z m -0.38203,-0.0382 c -0.11462,0 -0.22923,0 -0.34384,0 0.11461,0 0.22922,0 0.34384,0 z m -0.38204,-0.0191 c -0.13372,0 -0.24833,0 -0.36294,0 0.11461,0 0.22922,0 0.36294,0 z m -0.38204,0 c -0.26743,-0.0191 -0.515757,-0.0191 -0.783185,-0.0191 0.267428,0 0.515755,0 0.783185,0.0191 z m -1.222531,-0.0191 c -0.133714,0 -0.248325,0 -0.382039,0 0.133714,0 0.248325,0 0.382039,0 z"
       id="path44"
       style="fill:none;fill-rule:evenodd;stroke:#332c2b;stroke-width:0.1502216" />
    <path
       inkscape:connector-curvature="0"
       d="m 61.368541,136.10264 c 0.974201,-0.32474 1.948402,-0.66857 2.922603,-0.9742 m -3.056317,-0.57306 c 9.512786,-3.32375 19.159286,-5.53958 28.882194,-6.7048 m 32.244139,-0.0955 c 3.64848,0.40114 7.29696,0.936 10.94544,1.60457 m 7.94642,1.70007 c 3.45746,0.82139 6.89582,1.75739 10.31507,2.8271 m -90.466977,-0.87869 c 9.627398,-3.36195 19.407612,-5.61599 29.264233,-6.78121 m 31.460964,-0.13371 c 10.00944,1.06971 19.99977,3.17093 29.85639,6.22724 m -90.715301,-0.85958 c 10.276866,-3.61028 20.725649,-5.92162 31.231738,-7.02953 m 27.869793,-0.0955 c 10.6398,0.9933 21.2605,3.17093 31.74749,6.43736 m -90.982735,-0.8405 c 10.907231,-3.8586 22.005481,-6.24635 33.18014,-7.25876 m 24.297715,-0.0955 c 11.27017,0.9169 22.52124,3.17093 33.61949,6.62839 m -91.231058,-0.82138 c 11.537595,-4.08783 23.285313,-6.53288 35.090337,-7.46888 m 20.802061,-0.0573 c 11.88143,0.82138 23.76286,3.13272 35.47237,6.8003 m -91.517584,-0.82138 c 12.167961,-4.31705 24.546044,-6.81941 37.000535,-7.6408 m 17.344599,-0.0382 c 12.49269,0.72588 24.98539,3.07542 37.28706,6.95312 m -91.765908,-0.82138 c 11.957839,-4.25975 24.106699,-6.7621 36.351068,-7.62169 m 18.85365,-0.0573 c 12.30168,0.76408 24.58425,3.13272 36.67581,6.93402 m -92.014242,-0.80228 c 11.499392,-4.10693 23.208906,-6.59019 34.994827,-7.54529 m 21.909975,-0.0764 c 11.80502,0.87869 23.61004,3.20913 35.24315,6.87671 m -92.281666,-0.8023 c 11.079149,-3.95411 22.330215,-6.41827 33.638587,-7.46888 m 24.928079,-0.0764 c 11.34658,0.9551 22.67406,3.26644 33.82961,6.80031 m -92.52999,-0.8023 c 10.639803,-3.82039 21.451524,-6.24634 32.32055,-7.37336 m 27.9271,-0.0764 c 10.86902,1.03151 21.69984,3.28554 32.41606,6.6857 m -92.797424,-0.76408 c 10.21956,-3.68669 20.572833,-6.09354 31.002514,-7.27786 m 30.8879,-0.0955 c 10.39148,1.10792 20.78296,3.32375 31.02162,6.59019 m -93.045747,-0.76408 c 9.856621,-3.57207 19.885161,-5.94072 29.951904,-7.18235 m 15.281583,-1.03151 c 0.84049,0 1.68098,0 2.52146,0 m 14.84224,0.85959 c 10.25776,1.12702 20.47732,3.34285 30.56317,6.57108 m -93.294071,-0.76407 c 10.506089,-3.8204 21.184096,-6.26545 31.919408,-7.44978 m 11.862333,-0.7832 c 1.89109,-0.0382 3.78219,-0.0382 5.67328,-0.0191 m 11.4994,0.66857 c 10.88813,1.06971 21.75715,3.36195 32.47336,6.7812 M 59.477445,114.4792 c 11.136454,-4.04962 22.463928,-6.59019 33.848708,-7.679 m 8.500377,-0.55396 c 2.92261,-0.0955 5.84521,-0.0955 8.76781,-0.0191 m 8.21385,0.45845 c 11.5185,0.9933 23.01789,3.34284 34.34536,6.99132 m -93.809819,-0.74498 c 11.747718,-4.29794 23.724659,-6.87671 35.758907,-7.88911 m 5.176632,-0.32474 c 3.95411,-0.17191 7.88912,-0.19102 11.84323,-0.0382 m 4.96652,0.28653 c 12.12975,0.87869 24.24041,3.30464 36.19825,7.16324 m -94.077253,-0.74498 c 12.358981,-4.52716 24.966288,-7.16324 37.650003,-8.06103 m 1.891096,-0.11461 c 4.947414,-0.28653 9.913924,-0.30563 14.880444,-0.0573 m 1.73828,0.0955 c 12.76012,0.78318 25.48204,3.26644 38.03204,7.31606 m -94.325577,-0.72588 c 30.8688,-11.346572 63.265757,-10.907226 94.459287,-0.82138 M 58.942589,108.30926 C 89.887797,96.886272 122.38026,97.325617 153.65021,107.44967 M 58.808876,106.762 C 89.830491,95.262603 122.41847,95.721051 153.76482,105.90241 M 58.675162,105.21474 C 89.792287,93.658037 122.45667,94.097383 153.89853,104.35515 M 58.541448,103.66747 C 89.734981,92.053471 122.49488,92.492816 154.01314,102.80789 M 58.407734,102.13932 C 89.677675,90.448904 122.53308,90.88825 154.14686,101.24152 M 58.27402,100.59206 C 89.620369,88.844338 122.57128,89.283684 154.26147,99.694263 M 58.140306,99.044795 C 89.563063,87.22067 122.60949,87.679117 154.39518,98.147002 M 58.006592,97.497535 C 89.505757,85.616104 122.64769,86.074551 154.5098,96.58064 M 57.872879,95.969377 C 89.372044,84.030639 122.51398,84.469985 154.37608,94.956972 M 58.770672,94.020975 C 89.792287,82.540685 122.36116,82.960928 153.72661,93.142284 M 61.005603,91.633227 C 90.938406,81.108036 122.26565,81.604688 152.48499,91.155678 M 64.864203,88.748828 C 92.886808,79.809102 121.99823,80.382161 150.23095,88.86344 M 72.504995,84.966636 C 96.669,78.758493 121.53978,79.446164 145.79929,86.017245 M 94.491374,79.618082 c 12.091556,-1.069711 24.259516,-0.515754 36.351066,1.509056"
       id="path46"
       style="fill:none;fill-rule:evenodd;stroke:#332c2b;stroke-width:0.1502216" />
    <path
       inkscape:connector-curvature="0"
       d="m 39.210244,150.46733 c 0.821385,-0.66857 2.043912,-1.62367 3.495662,-2.61698 0,0 0.420244,-2.31134 9.799316,-7.29695 0,0 10.162254,-5.38676 11.690412,-5.13843 0,0 -0.324734,-1.68098 9.26446,-3.34285 0,0 0.955099,-2.00571 4.450762,-1.79559 0,0 1.585464,-0.0382 2.368645,-0.36293 0,0 14.536607,-3.38106 21.986379,-2.48326 0.78318,0.0955 1.29893,0.26743 2.10122,0.13371 0.63036,-0.11461 10.42968,-0.68767 28.46195,1.71918 2.78889,0.42024 5.11933,0.78318 7.87001,1.60457 2.99901,0.87869 7.22055,2.29223 11.82413,4.27884 0,0 6.22724,2.40685 13.25677,7.85091 1.96751,1.66188 4.06873,2.96081 5.88341,4.87101 2.42595,2.59787 2.12032,3.45746 1.96751,6.97222 -0.11461,2.67428 -0.47755,5.95982 -1.50906,7.79361 -1.9484,3.45746 -3.66758,12.89384 -24.58425,20.49642 0,0 -4.33615,1.98661 -7.33516,1.8911 l -0.0764,-0.0191 c 8.99704,-9.68471 6.743,-23.74376 6.743,-23.74376 -13.77252,-11.13646 -41.18387,-12.09156 -41.18387,-12.09156 -27.067501,0 -39.025341,11.38478 -39.025341,11.38478 -0.458447,5.86431 0.0191,11.17466 1.470853,15.85465 0.802283,2.61697 1.910198,4.96651 3.342846,7.04863 h -0.19102 c 0,0 -10.200457,-1.06971 -22.081888,-9.01614 0,0 -3.705785,-2.31134 -6.093532,-4.50806 -4.546271,-4.14513 -5.138433,-11.11736 -5.081127,-17.01987 0.0191,-1.66187 -0.133714,-1.37534 1.184323,-2.46415 z"
       id="path48"
       style="fill:none;fill-rule:evenodd;stroke:#332c2b;stroke-width:0.1502216" />
    <path
       inkscape:connector-curvature="0"
       d="m 74.453397,131.04061 c 1.146119,-0.26743 2.31134,-0.51575 3.457459,-0.76408 m 5.69239,-1.06971 c 5.807002,-0.9742 11.652207,-1.60456 17.478314,-1.89109 m 33.73409,2.27313 c 1.35624,0.24833 2.71249,0.51575 4.06873,0.80228 m 2.55966,53.10351 c 1.05061,0.22922 2.10122,0.49665 3.17093,0.76408 m -76.446124,-1.35624 c 0.840487,-0.24833 1.661872,-0.45845 2.502359,-0.68767 m 72.148175,-0.68767 c 1.77649,0.43934 3.57207,0.89779 5.34856,1.39444 m -84.01051,-1.14612 c 1.814688,-0.55396 3.629376,-1.06971 5.444064,-1.56636 m 74.344906,-0.68767 c 2.52146,0.63036 5.04292,1.31803 7.56438,2.06301 m -90.734401,-1.0124 c 2.655176,-0.87869 5.291249,-1.68098 7.946424,-2.40685 m 76.159597,-0.68767 c 3.20913,0.80228 6.41826,1.73828 9.6274,2.75068 m -96.694227,-0.936 c 3.38105,-1.18432 6.800304,-2.25403 10.200457,-3.20913 m 77.61134,-0.70677 c 3.87771,1.0124 7.73631,2.15852 11.5758,3.47656 M 55.122193,177.97418 c 4.106926,-1.50906 8.213852,-2.8653 12.339879,-4.03052 m 78.757468,-0.68767 c 4.48896,1.16522 8.95882,2.55966 13.40959,4.16423 M 52.658038,176.61794 c 4.775495,-1.8529 9.570092,-3.45746 14.383791,-4.8328 m 79.617051,-0.70678 c 5.06203,1.35624 10.14315,2.96081 15.16697,4.8519 M 50.384902,175.24259 c 5.424963,-2.19672 10.888129,-4.08782 16.351295,-5.65418 m 80.209213,-0.70678 c 5.63509,1.50906 11.27017,3.34285 16.84795,5.52048 M 48.245481,173.84815 c 6.074429,-2.55967 12.187063,-4.71819 18.318798,-6.49467 m 80.533951,-0.72588 c 6.16994,1.66187 12.33988,3.72489 18.45251,6.18904 M 46.201569,172.4346 c 6.723897,-2.9226 13.485998,-5.38676 20.286302,-7.33516 m 80.610359,-0.74497 c 6.70479,1.79558 13.39049,4.06872 20.01887,6.8003 M 44.310473,170.98285 c 7.354262,-3.30464 14.76583,-6.03622 22.215602,-8.17565 m 80.438435,-0.78318 c 7.20145,1.9293 14.38379,4.41256 21.50883,7.41157 m -125.862943,0.0382 c 8.003729,-3.68669 16.083867,-6.7048 24.183106,-9.03524 m 76.560737,-1.62367 c 8.80601,2.13942 17.57382,5.08113 26.28432,8.84422 m -128.384404,0.17192 c 10.315069,-4.87101 20.725648,-8.5959 31.193533,-11.17466 m 62.100541,-1.98661 c 12.11065,2.19673 24.164,5.92162 36.08364,11.13646 m -130.409221,0.22922 c 14.479301,-6.95312 29.206927,-11.65221 43.99186,-14.07816 m 31.651981,-1.75738 c 18.68174,0.9933 37.32527,5.55867 55.64407,13.69612 m -132.071092,0.24832 c 43.590718,-21.2414 89.263552,-21.85266 132.987982,-2.12032 M 38.847306,162.13864 C 82.820064,140.5343 128.93224,139.92303 173.03872,160.01832 m -134.592555,0.0382 C 82.667249,138.20385 129.04686,137.57349 173.38255,157.898 m -135.184711,0 C 82.552637,135.89251 129.08506,135.24305 173.57357,155.70127 M 38.064125,155.68217 C 82.495331,133.58118 129.12326,132.93171 173.68818,153.48544 M 38.025921,153.40903 C 82.457127,131.30804 129.08506,130.65857 173.63088,151.1741 M 38.98102,150.65835 c 43.533413,-21.35602 89.12984,-22.1392 132.81607,-2.61698 M 44.329575,145.86375 C 84.367325,127.83148 126.04785,127.0674 166.23841,143.39959 M 55.504233,139.00614 c 34.077932,-12.5309 69.110967,-12.74102 103.207997,-0.74498"
       id="path50"
       style="fill:none;fill-rule:evenodd;stroke:#332c2b;stroke-width:0.1502216" />
    <path
       inkscape:connector-curvature="0"
       d="m 137.66185,234.36322 -0.0191,-0.11461 c 0.47755,-0.34384 0.63036,-1.05061 0.63036,-1.05061 -0.0573,-1.18432 -0.13371,-2.38775 -0.24832,-3.59117 0.76408,0.68767 1.91019,1.73828 2.15852,2.12032 0.53486,0.84049 1.48995,1.14612 1.70008,2.15852 0.13371,0.66857 0.0764,1.81469 -0.85959,3.20913 -0.70678,0.9551 -0.30563,1.98661 -0.32474,3.03722 -0.0382,2.46416 -0.26742,10.6016 -1.20342,13.61971 0,0 3.41925,2.73158 -0.84049,4.58448 l -1.73828,8.6914 c 0,0 -6.11263,3.15182 -21.12679,1.10791 0,0 -1.83379,-0.38204 -1.9484,-2.00571 -0.0955,-1.64277 -0.30563,-4.37435 -0.78318,-5.42496 -0.47755,-1.05061 -1.26073,-2.21583 -1.52816,-2.9417 -0.26743,-0.74498 -4.90921,-2.42595 -9.91393,0 0,0 -1.680972,1.20342 -3.266436,8.90152 0,0 0.05731,1.56636 -1.776484,1.8911 -1.852892,0.30563 -18.662634,0.30563 -18.662634,0.30563 0,0 -4.794597,-0.36294 -3.266439,-9.68471 0,0 -1.107915,-0.63036 -1.107915,-1.73828 0,-1.10791 0.630365,-1.05061 0.630365,-1.05061 0,0 0.687672,-0.95509 -0.152815,-1.79558 0,0 -2.254034,-3.05632 -2.005708,-15.22428 0,0 -0.935997,-1.47085 -1.528159,-2.63607 -0.534855,-1.08882 0.592162,-2.8271 3.8586,-4.64178 0.343836,-0.19102 0.687672,-0.28653 0.955099,-0.21013 -0.0382,1.05061 -0.0382,1.9293 -0.0191,2.54057 -0.229223,0.28653 -0.592161,0.55396 -1.203424,0.89779 0,0 1.088812,0.30563 3.170928,0.72588 1.661873,0.42024 3.782192,0.74497 6.131736,1.0124 16.122071,1.9484 37.898326,1.60457 53.141706,-2.42595 0.38204,-0.0764 0.76408,-0.17192 1.14612,-0.26743 z"
       id="path52"
       style="fill:none;fill-rule:evenodd;stroke:#332c2b;stroke-width:0.1502216" />
    <path
       inkscape:connector-curvature="0"
       d="m 138.1394,230.88666 c 0.38204,-0.0382 0.76408,-0.0764 1.14612,-0.11461 m -62.769109,37.51629 c 1.910198,0.21012 3.820396,0.40114 5.730594,0.57306 m -7.029529,-2.10122 c 7.220549,0.84049 14.574811,1.37534 21.986379,1.60457 m 20.018875,-0.0573 c 6.60929,-0.22922 13.19947,-0.70677 19.71324,-1.35624 m -62.272451,-1.64277 c 7.774506,0.91689 15.682726,1.48995 23.648251,1.71918 m 15.81644,0 c 7.7363,-0.21012 15.4726,-0.70678 23.09429,-1.48996 m -62.807307,-1.64277 c 7.927322,0.9551 16.026561,1.52816 24.164005,1.75739 m 15.224282,0 c 7.94642,-0.19102 15.87374,-0.72588 23.68645,-1.52816 m -63.132043,-1.62367 c 8.061036,0.9742 16.274887,1.54726 24.546045,1.77648 m 14.804038,0 c 8.06103,-0.21012 16.12207,-0.72587 24.06849,-1.56636 M 74.415193,261.1251 c 8.156546,0.9933 16.485009,1.56636 24.851676,1.77648 m 14.288281,0 c 8.21385,-0.21012 16.4277,-0.74498 24.50784,-1.60457 m -63.494981,-1.52815 c 8.252055,0.9933 16.656927,1.56636 25.119104,1.75738 m 13.619707,0 c 8.40488,-0.21012 16.79064,-0.76408 25.0427,-1.64277 M 73.784828,258.298 c 8.653197,1.05061 17.516516,1.66187 26.418042,1.85289 m 12.5882,0 c 8.6723,-0.19102 17.3255,-0.76407 25.82588,-1.68097 m -65.00404,-1.58546 c 8.939727,1.10791 18.070473,1.73828 27.23942,1.91019 m 11.17466,0 c 9.5892,-0.19102 19.15929,-0.84048 28.53836,-1.91019 m -66.131055,-1.27984 c 9.149849,1.10792 18.509819,1.70008 27.907995,1.83379 m 8.86332,-0.0191 c 9.89482,-0.17192 19.80875,-0.82138 29.51256,-1.9484 m -66.952444,-1.31804 c 21.604339,2.65518 44.373904,2.48326 66.188364,0.0382 m -66.72322,-1.48996 c 21.69985,2.71248 44.58402,2.57877 66.49399,0.13372 m -66.876029,-1.56637 c 21.890869,2.76979 45.004269,2.63608 67.124359,0.15282 m -67.391787,-1.56636 c 22.024583,2.80799 45.309897,2.67427 67.563707,0.17192 m -67.754727,-1.58547 c 22.120093,2.8462 45.520017,2.71248 67.888437,0.17192 m -68.041253,-1.56636 c 22.196501,2.86529 45.711043,2.73158 68.155863,0.17191 m -68.270474,-1.56636 c 22.272908,2.8844 45.844754,2.75069 68.365984,0.19102 m -68.442392,-1.58546 c 22.330214,2.9035 45.940262,2.76978 68.518802,0.19102 M 72.008344,242.8636 c 22.349316,2.92261 46.016666,2.76979 68.614316,0.19102 m -68.633418,-1.56636 c 22.368418,2.9226 46.054878,2.76979 68.671618,0.17192 m -68.652516,-1.54726 c 22.368418,2.9035 46.054876,2.76978 68.690716,0.17192 M 71.5881,238.66117 c 22.463929,2.97991 46.2841,2.84619 69.03456,0.24832 m -69.913251,-1.73828 c 22.788662,3.09452 46.990871,2.99901 70.085161,0.34384 m -70.371691,-1.75738 c 5.520473,0.74497 11.136455,1.31803 16.790641,1.70007 m 22.80776,0.63037 c 10.6016,-0.13372 21.2032,-0.84049 31.57558,-2.06302 m -70.429003,-1.54726 c 1.184322,0.15282 2.368645,0.30564 3.552968,0.43935 m 57.745285,0.66857 c 3.17093,-0.26743 6.32276,-0.59216 9.47458,-0.9742 m -69.435695,-1.35624 c 0.916895,0.13371 1.83379,0.22922 2.750685,0.34383 m 62.84551,0.0573 c 1.18433,-0.11461 2.34955,-0.24833 3.53387,-0.38204 m -67.315377,-1.16522 c 0.324734,0.0382 0.630366,0.0764 0.955099,0.11461 m 62.941028,0.0382 c 0.74497,-0.0764 1.47085,-0.15281 2.19672,-0.22922"
       id="path54"
       style="fill:none;fill-rule:evenodd;stroke:#332c2b;stroke-width:0.1502216" />
    <path
       inkscape:connector-curvature="0"
       d="m 68.130642,176.42692 c -1.451751,-4.67999 -1.9293,-9.99034 -1.470853,-15.85465 0,0 11.95784,-11.38478 39.025341,-11.38478 0,0 27.41135,0.9551 41.18387,12.09156 0,0 3.76309,23.36172 -17.68843,30.62047 -0.11461,0.0382 -1.27983,0.36294 -1.39444,0.40114 l 0.0191,0.0573 c 0.93599,-0.22923 3.36195,-0.87869 3.8777,-0.87869 0,0 15.01416,3.22823 25.55845,19.02557 l 0.13371,-1.62367 c 0,0 8.6341,3.99231 9.72291,15.26248 0,0 1.06971,11.95784 -4.92831,7.96553 0,0 -1.08881,3.20913 -3.05632,3.66758 -0.57306,0.13371 -0.61126,0 -1.08881,-0.34384 -1.22253,-0.89779 -4.24064,-3.26644 -5.97892,-6.22724 -2.23493,-3.78219 -4.25974,-9.18806 -1.83379,-15.93105 l 2.50236,0.66857 c 0,0 -11.69041,-9.99034 -20.80206,-10.71622 l -1.83379,-2.9417 -0.36293,0.34384 c 0,0 4.69908,5.95981 6.45646,16.69513 0,0 1.81469,8.57678 2.10122,15.87374 0,0 -0.21012,1.01241 -0.9551,1.20343 0,0 -13.37138,4.06872 -31.21263,3.76309 0,0 -24.469638,-0.0382 -30.830598,-2.75069 0,0 -0.630365,-20.91667 5.921614,-31.30814 0,0 -5.444064,0.0764 -15.682725,8.08013 0,0 4.985616,6.64749 -0.05731,15.54901 0,0 -0.840488,4.16424 -4.317048,7.90822 -0.955099,0.85959 -1.719178,2.12032 -3.151827,1.41355 -0.706773,-0.34383 -1.604566,-1.22253 -2.540563,-3.20913 l -0.401142,0.0573 c 0,0 -0.783181,1.29894 -1.83379,1.45175 -1.06971,0.17192 -5.081126,-2.9035 -4.641781,-10.44878 0.362938,-4.12603 4.43166,-14.36469 9.340868,-14.19277 0,0 8.09924,-13.94444 22.96058,-19.44582 l 1.547261,0.30564 -0.0382,-0.19102 c -7.43067,-2.50236 -11.996044,-7.6599 -14.250077,-14.95685 z"
       id="path56"
       style="fill:none;fill-rule:evenodd;stroke:#332c2b;stroke-width:0.1502216" />
    <path
       inkscape:connector-curvature="0"
       d="m 92.256443,268.74679 c -0.687672,1.24162 -1.738281,3.68668 -2.158524,7.65989 0,0 2.979909,1.9675 2.979909,4.89011 0,2.9035 -1.661873,4.39345 -5.329453,4.39345 l -21.929073,0.68767 c -2.846195,0.0764 -10.353273,-1.60456 -5.88341,-5.21484 0.955099,-0.76408 2.254034,-1.39444 3.438357,-1.73828 2.559665,-0.76408 5.21484,-0.82138 7.583486,-2.34954 1.9293,-1.24163 5.768798,-3.53387 11.709514,-2.04391 0,0 -1.413547,-2.52146 -0.725876,-6.16994 3.037215,-0.0191 7.182345,-0.0382 10.31507,-0.11461 z"
       id="path58"
       style="fill:none;fill-rule:evenodd;stroke:#332c2b;stroke-width:0.1502216" />
    <path
       inkscape:connector-curvature="0"
       d="m 131.30089,268.44115 c -0.0955,1.9293 -0.28653,6.16994 -0.57306,6.81941 0,0 11.07915,-1.31804 23.66735,6.81941 2.67428,1.71918 -2.21583,2.9608 -3.40015,3.17093 0,0 -23.45723,0.68767 -27.35403,0.72587 -5.99803,0.0764 -7.54529,-6.93402 -2.00571,-8.6532 0,0 0.26743,-5.34855 -1.14612,-8.6914 4.64178,0.36294 8.21385,0.17192 10.81172,-0.19102 z"
       id="path60"
       style="fill:none;fill-rule:evenodd;stroke:#332c2b;stroke-width:0.1502216" />
    <polygon
       transform="matrix(0.01910198,0,0,0.01910198,9.9460107,78.491065)"
       points="4516,4218 3969,3965 3984,3932 4531,4185 "
       id="polygon62"
       style="fill:none;fill-rule:evenodd;stroke:#332c2b;stroke-width:7.8641901" />
    <polygon
       transform="matrix(0.01910198,0,0,0.01910198,9.9460107,78.491065)"
       points="6202,3965 5633,4187 5620,4154 6188,3931 "
       id="polygon64"
       style="fill:none;fill-rule:evenodd;stroke:#332c2b;stroke-width:7.8641901" />
    <path
       inkscape:connector-curvature="0"
       d="m 77.318694,174.17288 c 0,0 2.731583,0 4.871005,2.13942 l -0.477549,0.49666 c -1.948402,-1.94841 -4.393456,-1.94841 -4.393456,-1.94841 z"
       id="path66"
       style="fill:none;fill-rule:evenodd;stroke:#332c2b;stroke-width:0.1502216" />
    <path
       inkscape:connector-curvature="0"
       d="m 74.472499,175.16619 c 0,0 2.540563,-0.64947 4.488965,0.82138 l -0.401141,0.55396 c -1.700076,-1.26073 -3.915906,-0.70677 -3.935008,-0.70677 z"
       id="path68"
       style="fill:none;fill-rule:evenodd;stroke:#332c2b;stroke-width:0.1502216" />
    <path
       inkscape:connector-curvature="0"
       d="m 73.269074,176.10218 c 0.0191,0 1.871994,-0.47755 3.247337,0.64947 l -0.439346,0.53486 c -1.107914,-0.8978 -2.636073,-0.51576 -2.636073,-0.51576 z"
       id="path70"
       style="fill:none;fill-rule:evenodd;stroke:#332c2b;stroke-width:0.1502216" />
    <path
       inkscape:connector-curvature="0"
       d="m 140.64176,176.17859 c 0,0 -0.9169,-0.74498 -2.92261,-0.32473 l -0.13371,-0.66857 c 2.33044,-0.47755 3.47656,0.43934 3.49566,0.43934 z"
       id="path72"
       style="fill:none;fill-rule:evenodd;stroke:#332c2b;stroke-width:0.1502216" />
    <path
       inkscape:connector-curvature="0"
       d="m 138.78887,174.59313 c 0,0 -1.56637,-0.9169 -4.35526,0.72587 l -0.36293,-0.61126 c 3.15182,-1.81469 5.04292,-0.70678 5.06202,-0.70678 z"
       id="path74"
       style="fill:none;fill-rule:evenodd;stroke:#332c2b;stroke-width:0.1502216" />
    <path
       inkscape:connector-curvature="0"
       d="m 135.82806,173.86725 c 0,0 -1.85289,-0.91689 -4.22154,1.05061 l -0.43934,-0.53486 c 2.71248,-2.25403 4.94741,-1.14611 4.96651,-1.14611 z"
       id="path76"
       style="fill:none;fill-rule:evenodd;stroke:#332c2b;stroke-width:0.1502216" />
    <circle
       cx="86.697769"
       cy="165.92082"
       r="7.755404"
       id="circle78"
       style="fill:none;fill-rule:evenodd;stroke:#332c2b;stroke-width:0.1502216" />
    <path
       inkscape:connector-curvature="0"
       d="m 86.697766,157.72608 c 4.52717,0 8.19475,3.68668 8.19475,8.19475 0,2.25403 -0.916895,4.31704 -2.40685,5.7879 -1.470852,1.48995 -3.533866,2.40685 -5.7879,2.40685 -4.508067,0 -8.194749,-3.66758 -8.194749,-8.19475 0,-2.25404 0.935997,-4.29795 2.406849,-5.7879 1.489955,-1.47085 3.533867,-2.40685 5.7879,-2.40685 z m 0,0.87869 c -2.005708,0 -3.839498,0.82138 -5.176636,2.13942 -1.318037,1.33714 -2.139422,3.17093 -2.139422,5.17664 0,4.04962 3.285541,7.33516 7.316058,7.33516 2.02481,0 3.8586,-0.82139 5.176637,-2.15853 1.337139,-1.31803 2.158524,-3.15182 2.158524,-5.17663 0,-4.03052 -3.285541,-7.31606 -7.335161,-7.31606 z"
       id="path80"
       style="fill:none;fill-rule:evenodd;stroke:#332c2b;stroke-width:0.1502216" />
    <circle
       cx="126.46809"
       cy="165.92082"
       r="7.755404"
       id="circle82"
       style="fill:none;fill-rule:evenodd;stroke:#332c2b;stroke-width:0.1502216" />
    <path
       inkscape:connector-curvature="0"
       d="m 126.46809,157.72608 c 4.52717,0 8.19475,3.68668 8.19475,8.19475 0,2.25403 -0.9169,4.31704 -2.40685,5.7879 -1.47085,1.48995 -3.53387,2.40685 -5.7879,2.40685 -4.50807,0 -8.19475,-3.66758 -8.19475,-8.19475 0,-2.25404 0.936,-4.29795 2.40685,-5.7879 1.48995,-1.47085 3.53387,-2.40685 5.7879,-2.40685 z m 0,0.87869 c -2.00571,0 -3.8395,0.82138 -5.17664,2.13942 -1.31803,1.33714 -2.13942,3.17093 -2.13942,5.17664 0,4.04962 3.28554,7.33516 7.31606,7.33516 2.02481,0 3.8586,-0.82139 5.17664,-2.15853 1.33713,-1.31803 2.15852,-3.15182 2.15852,-5.17663 0,-4.03052 -3.28554,-7.31606 -7.33516,-7.31606 z"
       id="path84"
       style="fill:none;fill-rule:evenodd;stroke:#332c2b;stroke-width:0.1502216" />
    <path
       inkscape:connector-curvature="0"
       d="m 86.907888,183.87669 c 0,0.0191 -1.35624,2.02481 -0.534855,4.18333 0.553957,1.45175 1.795586,2.46416 3.28554,3.11363 1.986606,0.87869 4.393456,1.14611 6.246348,1.0506 2.101218,-0.13371 4.221539,-0.63036 6.074429,-1.41354 1.87199,-0.76408 3.45746,-1.81469 4.48897,-2.97991 l 0.28653,-0.30563 0.24832,0.32473 c 0,0.0191 2.73158,3.57207 9.26446,4.24064 2.36865,0.22922 5.92162,-0.15282 8.36667,-1.48995 0.70677,-0.40115 1.31804,-0.8787 1.75738,-1.43265 0.43935,-0.55396 0.72588,-1.20343 0.80228,-1.9293 0.0955,-0.9551 -0.15281,-2.06302 -0.87869,-3.38105 l 0.61127,-0.32474 c 0.80228,1.43265 1.06971,2.69338 0.9551,3.7822 -0.0764,0.87869 -0.42025,1.62366 -0.936,2.27313 -0.51576,0.64947 -1.20343,1.18432 -1.98661,1.60457 -2.55966,1.41354 -6.26545,1.83379 -8.7487,1.58546 -5.67329,-0.59216 -8.6341,-3.28554 -9.49369,-4.20243 -1.08881,1.12701 -2.65517,2.12032 -4.46986,2.88439 -1.9293,0.80229 -4.12603,1.31804 -6.303655,1.45176 -1.9293,0.0955 -4.469864,-0.17192 -6.571081,-1.10792 -1.642771,-0.72587 -3.018113,-1.85289 -3.648479,-3.49566 -0.955099,-2.48326 0.611264,-4.7946 0.611264,-4.8137 z"
       id="path86"
       style="fill:none;fill-rule:evenodd;stroke:#332c2b;stroke-width:0.1502216" />
    <polygon
       transform="matrix(0.01910198,0,0,0.01910198,9.9460107,78.491065)"
       points="5046,5757 5046,5308 5082,5308 5082,5757 "
       id="polygon88"
       style="fill:none;fill-rule:evenodd;stroke:#332c2b;stroke-width:7.8641901" />
    <path
       inkscape:connector-curvature="0"
       d="m 101.80743,172.07167 c 2.34955,-0.72588 7.92732,-0.40115 9.91393,0.78318 4.7755,2.80799 -1.27983,7.18234 -4.871,7.54528 0,0 -3.34285,-0.15282 -5.57778,-1.85289 -2.502362,-1.9102 -2.903504,-5.40586 0.53485,-6.47557 z"
       id="path90"
       style="fill:none;fill-rule:evenodd;stroke:#332c2b;stroke-width:0.1502216" />
    <path
       inkscape:connector-curvature="0"
       d="m 105.41771,180.22821 h 2.40685 m -4.8328,-0.70677 h 6.70479 m -8.04193,-0.70678 h 9.26446 m -10.16226,-0.70677 h 11.09825 m -11.70951,-0.70677 h 12.41629 M 99.725317,176.69434 H 113.0585 M 99.457889,175.98757 H 113.38323 M 99.324175,175.2999 h 14.154565 m -14.135463,-0.70677 h 14.020853 m -13.810731,-0.70678 h 13.409591 m -12.95114,-0.70677 h 12.20616 m -11.32747,-0.70677 h 10.00944 m -7.39247,-0.70678 h 3.68668 m -3.28554,8.08014 h 5.04292 m -6.743,-0.70677 h 8.17565 m -9.24536,-0.70678 h 10.29597 m -11.02184,-0.68767 h 11.82412 m -12.339875,-0.70677 h 12.951145 m -13.294981,-0.70677 h 13.696121 m -13.887141,-0.70678 h 14.097261 m -14.135465,-0.70677 h 14.135465 m -14.020853,-0.70677 h 13.753423 m -13.447791,-0.70678 h 12.874731 m -12.22526,-0.70677 h 11.25106 m -9.91393,-0.68767 h 7.81271"
       id="path92"
       style="fill:none;fill-rule:evenodd;stroke:#332c2b;stroke-width:0.1502216" />
    <path
       inkscape:connector-curvature="0"
       d="m 80.164889,186.64648 c 0,0.0191 2.616971,8.25205 14.326485,11.5949 3.66758,1.05061 7.793606,1.48995 11.919636,1.41354 4.25974,-0.0764 8.51948,-0.72587 12.26347,-1.87199 3.22824,-0.9933 6.53288,-2.52146 9.18805,-4.871 2.12032,-1.8911 3.8395,-4.33615 4.71819,-7.46888 l 0.66857,0.19102 c -0.936,3.26644 -2.71248,5.807 -4.92831,7.79361 -2.73158,2.42595 -6.13173,4.01141 -9.45548,5.02382 -3.80129,1.16522 -8.11834,1.81469 -12.45449,1.9102 -4.18333,0.0764 -8.38577,-0.40114 -12.091554,-1.45175 C 82.227903,195.45249 79.515422,186.8948 79.49632,186.8566 Z"
       id="path94"
       style="fill:none;fill-rule:evenodd;stroke:#332c2b;stroke-width:0.1502216" />
    <line
       x1="78.140076"
       y1="200.59093"
       x2="78.445709"
       y2="202.53932"
       id="line96"
       style="fill:none;fill-rule:nonzero;stroke:#332c2b;stroke-width:0.1502216" />
    <line
       x1="79.992973"
       y1="199.00546"
       x2="80.031174"
       y2="201.85165"
       id="line98"
       style="fill:none;fill-rule:nonzero;stroke:#332c2b;stroke-width:0.1502216" />
    <polygon
       transform="matrix(0.01910198,0,0,0.01910198,9.9460107,78.491065)"
       points="4025,7440 3971,7354 3997,7338 4051,7424 "
       id="polygon100"
       style="fill:none;fill-rule:evenodd;stroke:#332c2b;stroke-width:7.8641901" />
    <polygon
       transform="matrix(0.01910198,0,0,0.01910198,9.9460107,78.491065)"
       points="4167,7522 4103,7430 4128,7413 4191,7505 "
       id="polygon102"
       style="fill:none;fill-rule:evenodd;stroke:#332c2b;stroke-width:7.8641901" />
    <polygon
       transform="matrix(0.01910198,0,0,0.01910198,9.9460107,78.491065)"
       points="4380,7590 4348,7494 4377,7485 4408,7580 "
       id="polygon104"
       style="fill:none;fill-rule:evenodd;stroke:#332c2b;stroke-width:7.8641901" />
    <path
       inkscape:connector-curvature="0"
       d="m 86.411237,205.36642 c 0,0.0191 -0.802284,4.10692 0.859589,5.67328 l -0.401142,0.42025 c -1.891096,-1.77649 -1.031507,-6.18904 -1.031507,-6.18904 z"
       id="path106"
       style="fill:none;fill-rule:evenodd;stroke:#332c2b;stroke-width:0.1502216" />
    <path
       inkscape:connector-curvature="0"
       d="m 88.9518,209.16771 c 0,0 0,3.38105 1.83379,4.8137 l -0.343836,0.45845 c -2.063013,-1.60457 -2.063013,-5.27215 -2.063013,-5.27215 z"
       id="path108"
       style="fill:none;fill-rule:evenodd;stroke:#332c2b;stroke-width:0.1502216" />
    <path
       inkscape:connector-curvature="0"
       d="m 93.287949,213.27464 c 0,0 0.248326,2.29223 1.356241,2.9417 l -0.305632,0.49665 c -1.337138,-0.80228 -1.623668,-3.36195 -1.623668,-3.38105 z"
       id="path110"
       style="fill:none;fill-rule:evenodd;stroke:#332c2b;stroke-width:0.1502216" />
    <polygon
       transform="matrix(0.01910198,0,0,0.01910198,9.9460107,78.491065)"
       points="4470,7203 4423,7149 4445,7129 4493,7183 "
       id="polygon112"
       style="fill:none;fill-rule:evenodd;stroke:#332c2b;stroke-width:7.8641901" />
    <polygon
       transform="matrix(0.01910198,0,0,0.01910198,9.9460107,78.491065)"
       points="4776,7307 4670,7204 4691,7182 4797,7286 "
       id="polygon114"
       style="fill:none;fill-rule:evenodd;stroke:#332c2b;stroke-width:7.8641901" />
    <polygon
       transform="matrix(0.01910198,0,0,0.01910198,9.9460107,78.491065)"
       points="4854,7322 4784,7230 4808,7212 4878,7303 "
       id="polygon116"
       style="fill:none;fill-rule:evenodd;stroke:#332c2b;stroke-width:7.8641901" />
    <polygon
       transform="matrix(0.01910198,0,0,0.01910198,9.9460107,78.491065)"
       points="5309,7214 5246,7339 5219,7325 5282,7200 "
       id="polygon118"
       style="fill:none;fill-rule:evenodd;stroke:#332c2b;stroke-width:7.8641901" />
    <path
       inkscape:connector-curvature="0"
       d="m 111.87418,218.14564 c 0,0 1.9293,-1.12702 2.69338,-3.34285 l 0.53485,0.19102 c -0.82138,2.42596 -2.9226,3.64848 -2.9417,3.64848 z"
       id="path120"
       style="fill:none;fill-rule:evenodd;stroke:#332c2b;stroke-width:0.1502216" />
    <path
       inkscape:connector-curvature="0"
       d="m 121.15774,213.54206 c 0,0 -0.43935,2.97991 -2.59787,3.64848 l -0.15282,-0.55396 c 1.79559,-0.55395 2.17763,-3.17092 2.17763,-3.19003 z"
       id="path122"
       style="fill:none;fill-rule:evenodd;stroke:#332c2b;stroke-width:0.1502216" />
    <path
       inkscape:connector-curvature="0"
       d="m 123.46908,211.28803 c 0.0191,0.0191 0.85959,3.26644 -2.04391,4.8137 l -0.26743,-0.49665 c 2.50236,-1.33714 1.75738,-4.16423 1.75738,-4.16423 z"
       id="path124"
       style="fill:none;fill-rule:evenodd;stroke:#332c2b;stroke-width:0.1502216" />
    <path
       inkscape:connector-curvature="0"
       d="m 127.28947,206.70355 c 0,0 0.45845,3.91591 -2.12032,7.08684 l -0.43934,-0.36294 c 2.42595,-2.97991 1.9866,-6.66659 1.9866,-6.66659 z"
       id="path126"
       style="fill:none;fill-rule:evenodd;stroke:#332c2b;stroke-width:0.1502216" />
    <polygon
       transform="matrix(0.01910198,0,0,0.01910198,9.9460107,78.491065)"
       points="5829,7638 5765,7718 5742,7699 5805,7619 "
       id="polygon128"
       style="fill:none;fill-rule:evenodd;stroke:#332c2b;stroke-width:7.8641901" />
    <path
       inkscape:connector-curvature="0"
       d="m 124.06124,220.72441 c 0,0.0191 -0.15282,3.22823 -1.81469,5.31035 l -0.45845,-0.36294 c 1.54726,-1.9484 1.70008,-4.96651 1.70008,-4.96651 z"
       id="path130"
       style="fill:none;fill-rule:evenodd;stroke:#332c2b;stroke-width:0.1502216" />
    <path
       inkscape:connector-curvature="0"
       d="m 127.65241,217.19054 c 0,0 1.16522,4.12603 -3.19003,6.39917 l -0.24832,-0.49666 c 3.935,-2.06301 2.88439,-5.74969 2.88439,-5.76879 z"
       id="path132"
       style="fill:none;fill-rule:evenodd;stroke:#332c2b;stroke-width:0.1502216" />
    <polygon
       transform="matrix(0.01910198,0,0,0.01910198,9.9460107,78.491065)"
       points="6427,6413 6376,6326 6402,6311 6453,6398 "
       id="polygon134"
       style="fill:none;fill-rule:evenodd;stroke:#332c2b;stroke-width:7.8641901" />
    <polygon
       transform="matrix(0.01910198,0,0,0.01910198,9.9460107,78.491065)"
       points="6564,6489 6504,6390 6530,6375 6590,6473 "
       id="polygon136"
       style="fill:none;fill-rule:evenodd;stroke:#332c2b;stroke-width:7.8641901" />
    <polygon
       transform="matrix(0.01910198,0,0,0.01910198,9.9460107,78.491065)"
       points="6622,6484 6593,6421 6620,6409 6649,6471 "
       id="polygon138"
       style="fill:none;fill-rule:evenodd;stroke:#332c2b;stroke-width:7.8641901" />
    <line
       x1="64.577675"
       y1="217.38156"
       x2="67.576683"
       y2="222.29077"
       id="line140"
       style="fill:none;fill-rule:nonzero;stroke:#332c2b;stroke-width:0.1502216" />
    <path
       inkscape:connector-curvature="0"
       d="m 64.233838,220.6098 c 0,0 1.9293,2.71248 2.368645,4.96651"
       id="path142"
       style="fill:none;fill-rule:evenodd;stroke:#332c2b;stroke-width:0.1502216" />
    <polygon
       transform="matrix(0.01910198,0,0,0.01910198,9.9460107,78.491065)"
       points="7520,7822 7451,7654 7479,7643 7548,7810 "
       id="polygon144"
       style="fill:none;fill-rule:evenodd;stroke:#332c2b;stroke-width:7.8641901" />
    <polygon
       transform="matrix(0.01910198,0,0,0.01910198,9.9460107,78.491065)"
       points="7612,7850 7577,7740 7606,7731 7640,7841 "
       id="polygon146"
       style="fill:none;fill-rule:evenodd;stroke:#332c2b;stroke-width:7.8641901" />
    <polygon
       transform="matrix(0.01910198,0,0,0.01910198,9.9460107,78.491065)"
       points="7951,7728 7928,7641 7957,7633 7980,7720 "
       id="polygon148"
       style="fill:none;fill-rule:evenodd;stroke:#332c2b;stroke-width:7.8641901" />
    <polygon
       transform="matrix(0.01910198,0,0,0.01910198,9.9460107,78.491065)"
       points="8037,7691 7979,7558 8007,7546 8065,7679 "
       id="polygon150"
       style="fill:none;fill-rule:evenodd;stroke:#332c2b;stroke-width:7.8641901" />
    <path
       inkscape:connector-curvature="0"
       d="m 158.46391,235.75767 h 0.74497 m -1.70007,-0.70678 h 2.86529 m -3.74398,-0.70677 h 4.35525 m -5.17664,-0.70677 h 5.63508 m -6.38006,-0.70678 h 6.7621 m -7.46887,-0.70677 h 7.7554 m 0.22923,0 h 3.45746 m -12.07246,-0.70677 h 12.55001 m -13.14217,-0.70678 h 13.42869 m -13.94444,-0.68767 h 14.15457 m -14.61302,-0.70677 h 14.76583 m -15.18607,-0.70677 h 15.28158 m -15.66362,-0.70678 h 2.97991 m 5.65418,0 h 7.10594 m -9.14985,7.37337 h 2.02481 m -2.9417,-0.70678 h 3.70578 m -4.54627,-0.70677 h 5.06202 m -5.8452,-0.70677 h 6.24635 m -6.97223,-0.68767 h 7.29696 m 0.9742,0 h 2.50236 m -11.44209,-0.70678 h 12.07246 m -12.68372,-0.70677 h 13.04665 m -13.5815,-0.70677 h 13.81073 m -14.30739,-0.70678 h 14.4793 m -14.91864,-0.70677 h 15.05236 m -15.4344,-0.70677 h 4.10692 m 3.09452,0 h 8.30937 m -15.87375,-0.68768 h 2.19673 m 7.48797,0 h 6.24635 m -16.27488,-0.70677 h 1.22252 m 9.99034,0 h 5.10023 m -16.61873,-0.70677 h 0.55396 m 11.80502,0 h 4.27885 m -16.92436,-0.70677 h 0.0573 m 13.25677,0 h 3.59118 m -3.05632,-0.70678 h 3.03721 m -2.61697,-0.70677 h 2.55967 m -2.21583,-0.70677 h 2.13942 m -1.85289,-0.70678 h 1.75738 m -1.52816,-0.68767 h 1.39445 m -1.22253,-0.70677 h 1.08881 m -0.9551,-0.70678 h 0.76408 m -0.64946,-0.70677 h 0.45844 m -0.40114,-0.70677 h 0.17192 m -15.03326,8.08014 h 1.64277 m 8.90152,0 h 5.59688 m -16.4659,-0.70678 h 0.85959 m 11.00274,0 h 4.62268 m -16.77154,-0.70677 h 0.26743 m 12.6264,0 h 3.87771 m -3.30465,-0.70677 h 3.30465 m -2.8271,-0.68768 h 2.78889 m -2.40685,-0.70677 h 2.33044 m -2.02481,-0.70677 h 1.94841 m -1.70008,-0.70678 h 1.58546 m -1.37534,-0.70677 h 1.22253 m -1.06971,-0.70677 h 0.91689 m -0.80228,-0.70678 h 0.61126 m -0.51575,-0.68767 h 0.30563 m -0.26743,-0.70677 h 0.0191"
       id="path152"
       style="fill:none;fill-rule:evenodd;stroke:#332c2b;stroke-width:0.1502216" />
    <g
       transform="matrix(0.01910198,0,0,0.01910198,9.9460107,78.491065)"
       id="_844086000"
       style="fill-rule:evenodd">
      <line
         x1="2070"
         y1="7458"
         x2="2084"
         y2="7458"
         id="line155"
         style="fill:none;stroke:#332c2b;stroke-width:7.8641901" />
      <line
         x1="2058"
         y1="7495"
         x2="2096"
         y2="7495"
         id="line157"
         style="fill:none;stroke:#332c2b;stroke-width:7.8641901" />
      <line
         x1="2048"
         y1="7532"
         x2="2109"
         y2="7532"
         id="line159"
         style="fill:none;stroke:#332c2b;stroke-width:7.8641901" />
      <line
         x1="2038"
         y1="7569"
         x2="2125"
         y2="7569"
         id="line161"
         style="fill:none;stroke:#332c2b;stroke-width:7.8641901" />
      <line
         x1="2031"
         y1="7606"
         x2="2142"
         y2="7606"
         id="line163"
         style="fill:none;stroke:#332c2b;stroke-width:7.8641901" />
      <line
         x1="2024"
         y1="7643"
         x2="2162"
         y2="7643"
         id="line165"
         style="fill:none;stroke:#332c2b;stroke-width:7.8641901" />
      <line
         x1="2021"
         y1="7679"
         x2="2185"
         y2="7679"
         id="line167"
         style="fill:none;stroke:#332c2b;stroke-width:7.8641901" />
      <line
         x1="2020"
         y1="7716"
         x2="2211"
         y2="7716"
         id="line169"
         style="fill:none;stroke:#332c2b;stroke-width:7.8641901" />
      <line
         x1="2021"
         y1="7753"
         x2="2242"
         y2="7753"
         id="line171"
         style="fill:none;stroke:#332c2b;stroke-width:7.8641901" />
      <line
         x1="2022"
         y1="7790"
         x2="2280"
         y2="7790"
         id="line173"
         style="fill:none;stroke:#332c2b;stroke-width:7.8641901" />
      <path
         inkscape:connector-curvature="0"
         d="m 2026,7827 h 301 m 558,0 h 17"
         id="path175"
         style="fill:none;stroke:#332c2b;stroke-width:7.8641901" />
      <path
         inkscape:connector-curvature="0"
         d="m 2031,7864 h 363 m 395,0 h 103"
         id="path177"
         style="fill:none;stroke:#332c2b;stroke-width:7.8641901" />
      <line
         x1="2076"
         y1="7441"
         x2="2079"
         y2="7441"
         id="line179"
         style="fill:none;stroke:#332c2b;stroke-width:7.8641901" />
      <line
         x1="2064"
         y1="7478"
         x2="2090"
         y2="7478"
         id="line181"
         style="fill:none;stroke:#332c2b;stroke-width:7.8641901" />
      <line
         x1="2052"
         y1="7515"
         x2="2103"
         y2="7515"
         id="line183"
         style="fill:none;stroke:#332c2b;stroke-width:7.8641901" />
      <line
         x1="2043"
         y1="7551"
         x2="2117"
         y2="7551"
         id="line185"
         style="fill:none;stroke:#332c2b;stroke-width:7.8641901" />
      <line
         x1="2034"
         y1="7588"
         x2="2134"
         y2="7588"
         id="line187"
         style="fill:none;stroke:#332c2b;stroke-width:7.8641901" />
      <line
         x1="2027"
         y1="7625"
         x2="2152"
         y2="7625"
         id="line189"
         style="fill:none;stroke:#332c2b;stroke-width:7.8641901" />
      <line
         x1="2022"
         y1="7662"
         x2="2173"
         y2="7662"
         id="line191"
         style="fill:none;stroke:#332c2b;stroke-width:7.8641901" />
      <line
         x1="2020"
         y1="7699"
         x2="2198"
         y2="7699"
         id="line193"
         style="fill:none;stroke:#332c2b;stroke-width:7.8641901" />
      <line
         x1="2020"
         y1="7736"
         x2="2227"
         y2="7736"
         id="line195"
         style="fill:none;stroke:#332c2b;stroke-width:7.8641901" />
      <line
         x1="2021"
         y1="7773"
         x2="2261"
         y2="7773"
         id="line197"
         style="fill:none;stroke:#332c2b;stroke-width:7.8641901" />
      <line
         x1="2024"
         y1="7809"
         x2="2303"
         y2="7809"
         id="line199"
         style="fill:none;stroke:#332c2b;stroke-width:7.8641901" />
      <path
         inkscape:connector-curvature="0"
         d="m 2028,7846 h 331 m 479,0 h 59"
         id="path201"
         style="fill:none;stroke:#332c2b;stroke-width:7.8641901" />
      <path
         inkscape:connector-curvature="0"
         d="m 2034,7883 h 414 m 272,0 h 165"
         id="path203"
         style="fill:none;stroke:#332c2b;stroke-width:7.8641901" />
      <line
         x1="2043"
         y1="7920"
         x2="2872"
         y2="7920"
         id="line205"
         style="fill:none;stroke:#332c2b;stroke-width:7.8641901" />
      <line
         x1="2053"
         y1="7957"
         x2="2857"
         y2="7957"
         id="line207"
         style="fill:none;stroke:#332c2b;stroke-width:7.8641901" />
      <line
         x1="2066"
         y1="7994"
         x2="2839"
         y2="7994"
         id="line209"
         style="fill:none;stroke:#332c2b;stroke-width:7.8641901" />
      <line
         x1="2081"
         y1="8031"
         x2="2821"
         y2="8031"
         id="line211"
         style="fill:none;stroke:#332c2b;stroke-width:7.8641901" />
      <line
         x1="2100"
         y1="8068"
         x2="2800"
         y2="8068"
         id="line213"
         style="fill:none;stroke:#332c2b;stroke-width:7.8641901" />
      <line
         x1="2123"
         y1="8104"
         x2="2776"
         y2="8104"
         id="line215"
         style="fill:none;stroke:#332c2b;stroke-width:7.8641901" />
      <path
         inkscape:connector-curvature="0"
         d="m 2152,8141 h 206 m 28,0 h 365"
         id="path217"
         style="fill:none;stroke:#332c2b;stroke-width:7.8641901" />
      <path
         inkscape:connector-curvature="0"
         d="m 2190,8178 h 137 m 78,0 h 318"
         id="path219"
         style="fill:none;stroke:#332c2b;stroke-width:7.8641901" />
      <line
         x1="2427"
         y1="8215"
         x2="2691"
         y2="8215"
         id="line221"
         style="fill:none;stroke:#332c2b;stroke-width:7.8641901" />
      <line
         x1="2455"
         y1="8252"
         x2="2655"
         y2="8252"
         id="line223"
         style="fill:none;stroke:#332c2b;stroke-width:7.8641901" />
      <line
         x1="2495"
         y1="8289"
         x2="2615"
         y2="8289"
         id="line225"
         style="fill:none;stroke:#332c2b;stroke-width:7.8641901" />
      <line
         x1="2038"
         y1="7903"
         x2="2879"
         y2="7903"
         id="line227"
         style="fill:none;stroke:#332c2b;stroke-width:7.8641901" />
      <line
         x1="2048"
         y1="7940"
         x2="2864"
         y2="7940"
         id="line229"
         style="fill:none;stroke:#332c2b;stroke-width:7.8641901" />
      <line
         x1="2059"
         y1="7976"
         x2="2848"
         y2="7976"
         id="line231"
         style="fill:none;stroke:#332c2b;stroke-width:7.8641901" />
      <line
         x1="2073"
         y1="8013"
         x2="2830"
         y2="8013"
         id="line233"
         style="fill:none;stroke:#332c2b;stroke-width:7.8641901" />
      <line
         x1="2091"
         y1="8050"
         x2="2810"
         y2="8050"
         id="line235"
         style="fill:none;stroke:#332c2b;stroke-width:7.8641901" />
      <line
         x1="2112"
         y1="8087"
         x2="2788"
         y2="8087"
         id="line237"
         style="fill:none;stroke:#332c2b;stroke-width:7.8641901" />
      <line
         x1="2138"
         y1="8124"
         x2="2763"
         y2="8124"
         id="line239"
         style="fill:none;stroke:#332c2b;stroke-width:7.8641901" />
      <path
         inkscape:connector-curvature="0"
         d="m 2170,8161 h 173 m 52,0 h 341"
         id="path241"
         style="fill:none;stroke:#332c2b;stroke-width:7.8641901" />
      <path
         inkscape:connector-curvature="0"
         d="m 2217,8198 h 85 m 114,0 h 291"
         id="path243"
         style="fill:none;stroke:#332c2b;stroke-width:7.8641901" />
      <line
         x1="2441"
         y1="8234"
         x2="2673"
         y2="8234"
         id="line245"
         style="fill:none;stroke:#332c2b;stroke-width:7.8641901" />
      <line
         x1="2473"
         y1="8271"
         x2="2635"
         y2="8271"
         id="line247"
         style="fill:none;stroke:#332c2b;stroke-width:7.8641901" />
      <line
         x1="2533"
         y1="8308"
         x2="2580"
         y2="8308"
         id="line249"
         style="fill:none;stroke:#332c2b;stroke-width:7.8641901" />
    </g>
    <path
       inkscape:connector-curvature="0"
       d="m 54.243502,224.25827 c 0,0.0191 -0.09551,7.81271 1.413547,9.55099 l -0.706773,0.21013"
       id="path251"
       style="fill:none;fill-rule:evenodd;stroke:#332c2b;stroke-width:0.1502216" />
    <path
       inkscape:connector-curvature="0"
       d="m 163.2203,226.05386 c 0,0.0191 0.34383,3.62938 -0.66857,6.43737 l -0.28653,-0.24833 -0.59216,0.49665 c 0.93599,-2.59787 0.68767,-6.28455 0.68767,-6.30365 z"
       id="path253"
       style="fill:none;fill-rule:evenodd;stroke:#332c2b;stroke-width:0.1502216" />
    <path
       inkscape:connector-curvature="0"
       d="m 142.16992,279.36749 c -1.12702,1.12701 -2.10122,2.40685 -2.8271,3.8777 m 15.4153,-0.87869 c -0.36294,0.63036 -0.68767,1.29893 -0.936,2.02481 m 0.34384,-2.46416 c -0.55396,0.87869 -1.01241,1.81469 -1.33714,2.8462 m 0.74498,-3.20914 c -0.70677,1.03151 -1.27983,2.17763 -1.66187,3.47656 m 1.08881,-3.82039 c -0.85959,1.16522 -1.54726,2.48326 -1.96751,4.01141 m 1.39445,-4.35525 c -0.9933,1.26073 -1.77648,2.69338 -2.23493,4.39346 m 1.66187,-4.71819 c -1.10791,1.35624 -1.98661,2.8844 -2.48326,4.73729 m 1.9293,-5.04292 c -1.26073,1.43265 -2.23493,3.07542 -2.76978,5.06202 m 2.19672,-5.36765 c -1.37534,1.50905 -2.46415,3.24733 -3.03721,5.40586 m 2.48326,-5.69239 c -1.50906,1.58546 -2.71249,3.40015 -3.30465,5.71149 m 2.75069,-5.97892 c -1.64277,1.64277 -2.96081,3.55297 -3.59117,5.99802 m 3.03721,-6.26545 c -1.77648,1.70008 -3.20913,3.70579 -3.8777,6.28455 m 3.30464,-6.55198 c -1.89109,1.77649 -3.43835,3.8395 -4.14513,6.59019 m 3.59117,-6.83851 c -2.02481,1.83379 -3.68668,3.97321 -4.41255,6.85761 m 3.8586,-7.08684 c -2.15853,1.872 -3.93501,4.08783 -4.69909,7.10594 m 4.14513,-7.33516 c -2.29224,1.9293 -4.18333,4.20244 -4.98562,7.35426 m 4.41256,-7.58348 c -2.40685,1.9866 -4.43166,4.31704 -5.23394,7.62169 m 4.43166,-7.6408 c -2.40685,2.00571 -4.45076,4.33615 -5.27215,7.6599 m 3.80129,-7.10594 c -1.9293,1.68098 -3.53386,3.64848 -4.37435,6.22725"
       id="path255"
       style="fill:none;fill-rule:evenodd;stroke:#332c2b;stroke-width:0.1502216" />
    <path
       inkscape:connector-curvature="0"
       d="m 160.45051,234.97449 c -0.38204,0.38203 -0.84049,0.68767 -1.33714,0.80228 -0.57306,0.13371 -0.61126,0 -1.08881,-0.34384 -1.22253,-0.89779 -4.24064,-3.26644 -5.97892,-6.22724 -2.23493,-3.78219 -4.25974,-9.18806 -1.83379,-15.93105 l 2.31134,0.63036 c -0.17192,0.34384 -0.49665,0.59216 -1.14612,0.57306 0,0 -0.55396,12.55 9.07344,20.49643 z M 89.391146,215.92981 c -2.903501,-1.48995 -3.763091,-3.8586 -3.228235,-6.7812 0,0 1.566362,1.70007 1.795586,1.87199 0.229224,0.17192 0.764079,-1.0315 0.764079,-1.0315 l 0.133714,-0.47755 c 0,0 1.73828,2.84619 3.877702,3.30464 0,0 0.267428,-1.26073 0.496652,-1.56636 0,0 0.744977,1.56636 2.368645,2.27313 1.604566,0.70677 1.64277,1.10792 1.64277,1.10792 l 0.19102,-1.73828 c 0,0 1.776484,2.82709 4.450761,3.30464 0,0 0.72588,-0.26743 0.76408,-0.87869 l 4.01142,2.40685 1.83379,-1.52816 1.9293,1.20342 2.0057,-2.54056 0.26743,1.60457 2.50236,-3.11363 -0.36294,2.67428 c 0,0 3.13273,-1.66187 4.33615,-2.67428 l 0.22923,1.41355 4.01141,-3.74399 0.85959,1.52816 2.13942,-1.56636 c 0,0 -0.13371,4.37435 -8.27115,7.7745 l 0.0955,-1.39444 c 0,0 -4.90921,3.80129 -8.00373,4.50807 l -0.47755,-1.33714 -2.33045,2.10122 -2.0057,-1.66188 -0.70678,1.08882 c 0,0 -4.928307,-1.79559 -9.302661,-4.7946 l -0.210122,1.16522 c 0,0 -3.400152,-1.50906 -5.463166,-3.8395 z m 32.396954,9.47458 -5.13843,2.52146 c 0,0 3.97321,-4.16423 4.29795,-6.8003 l 1.48995,1.47085 1.22253,-3.19003 1.54726,1.50906 c 0,0 1.64277,-2.06302 2.21583,-3.22824 0,0 1.9866,5.27215 -5.65419,9.09255 z m -34.211643,0.0764 c -3.57207,-3.40015 -4.221537,-6.49467 -3.056316,-9.41728 l 1.432648,2.90351 0.592162,-0.59217 0.649467,1.70008 c 0,0 0.420243,-1.24163 1.031507,-1.41355 0,0 1.165221,2.69338 2.616971,3.89681 l 0.706773,-1.37534 1.069711,1.70007 0.725875,-1.06971 3.056317,6.55198 -3.457458,-2.80799 -0.706773,1.33714 c 0,0 -3.056317,-0.55396 -4.488966,-3.26644 z m 64.984933,-11.65221 c -1.39444,-1.16522 -11.99604,-9.79931 -20.45822,-10.6016 l -1.9293,-2.99901 c 0,0 13.40959,3.13273 22.34932,11.93874 0,0 0.30563,0.9742 0.0382,1.66187 z m -71.861645,-9.6847 c -1.566363,0.22922 -6.742999,1.43265 -15.186074,8.04193 0,0 4.985616,6.64749 -0.05731,15.54901 0,0 -0.840488,4.16424 -4.317048,7.90822 -0.955099,0.85959 -1.719178,2.12032 -3.151827,1.41355 -0.05731,-0.0382 -0.133713,-0.0573 -0.191019,-0.11461 10.372375,-11.42298 5.386758,-25.73037 5.386758,-25.73037 14.899544,-11.34657 19.770549,-11.15555 19.770549,-11.15555 l -1.948402,3.61027 z"
       id="path257"
       style="fill:none;fill-rule:evenodd;stroke-width:0.01910198" />
    <path
       inkscape:connector-curvature="0"
       d="m 58.063898,236.65546 h 2.043912 m -1.184323,-1.05061 h 2.254034 m 97.095369,0 h 1.29893 m -99.865151,-1.03151 h 2.368645 m 94.822226,0 h 3.07542 m -99.559518,-1.05061 h 2.425951 m 92.854727,0 h 3.15182 m -97.802133,-1.0315 h 2.445054 m 91.116449,0 h 3.26643 m -96.254873,-1.05061 h 2.445053 m 89.58829,0 h 3.34284 m -94.879532,-1.05061 h 2.445054 m 88.270248,0 h 3.40015 M 62.552864,229.3585 h 2.406849 m 87.162337,0 h 3.40015 m -92.568195,-1.05061 h 2.349544 m 31.021615,0 h 0.0382 m 55.166526,0 h 3.38105 m -91.632205,-1.0506 h 2.425951 m 29.340642,0 h 0.840487 m 21.375115,0 h 0.74498 m 32.98912,0 h 3.36195 m -90.791715,-1.03151 h 2.655175 m 24.202208,0 h 2.177626 m 1.165221,0 h 1.623668 m 22.731357,0 h 2.00571 m 1.64277,0 h 1.03151 m 27.73607,0 h 3.32375 m -90.04674,-1.05061 h 2.846195 m 20.611037,0 h 0.343835 m 1.337139,0 h 5.959818 m 24.011196,0 h 5.42496 m 25.78767,0 h 3.28554 m -89.41637,-1.03151 h 3.018113 m 19.273898,0 h 1.413546 m 0.343836,0 h 6.360959 m 25.233718,0 h 5.86431 m 24.27862,0 h 3.22823 m -88.862414,-1.05061 h 3.151827 m 18.185085,0 h 8.443075 m 26.322537,0 h 6.11263 m 23.1516,0 h 3.15183 m -88.403972,-1.05061 h 3.247336 m 17.344598,0 h 5.444065 m 0.802283,0 h 0.993303 m 1.069711,0 h 0.267427 m 11.251069,0 h 0.0191 m 2.00571,0 h 1.35624 m 12.64551,0 h 1.16522 m 0.76408,0 h 4.35525 m 22.33022,0 h 3.05632 m -88.041034,-1.0315 h 3.304642 m 16.752437,0 h 5.100228 m 12.683717,0 h 3.20913 m 0.0573,0 h 3.76309 m 0.70677,0 h 2.59787 m 10.52519,0 h 4.35526 m 21.79535,0 h 2.92261 m -87.754502,-1.05061 h 3.342846 m 16.408601,0 h 3.018113 m 0.09551,0 h 1.64277 m 11.117352,0 h 14.422 m 9.03524,0 h 0.78318 m 1.70007,0 h 1.68098 m 21.50883,0 h 2.76978 m -87.525272,-1.05061 h 3.323744 m 16.313091,0 h 1.910198 m 0.07641,0 h 0.764079 m 1.069711,0 h 0.515754 m 9.722907,0 H 116.0575 m 10.6207,0 h 0.9551 m 21.48973,0 h 2.59787 m -87.391564,-1.03151 h 3.266438 m 16.446805,0 h 1.356241 m 8.691401,0 h 1.203424 m 1.031507,0 h 21.222298 m 0.64947,0 h 1.83379 m 7.29696,0 h 0.15281 m 21.69985,0 h 2.38775 M 64.25294,216.8276 h 3.170929 m 16.828844,0 h 0.649467 m 7.468874,0 h 12.817426 m 2.55967,0 h 1.75738 m 1.37534,0 h 10.94544 m 27.46864,0 h 2.15853 m -87.315152,-1.0315 h 3.018113 m 21.967277,0 h 0.305631 m 1.547261,0 h 9.6656 m 1.81469,0 h 0.9933 m 8.25206,0 h 0.87869 m 0.66857,0 h 1.62367 m 0.40114,0 h 7.98463 m 26.22701,0 h 1.9102 m -87.391556,-1.05061 h 2.807991 m 20.859362,0 h 2.02481 m 0.19102,0 h 9.16895 m 15.014153,0 h 0.936 m 2.10122,0 h 2.29224 m 0.0191,0 h 4.96651 m 25.36743,0 h 1.62367 m -87.563476,-1.05061 h 2.559666 m 20.439118,0 h 9.168951 m 1.35624,0 h 0.687671 m 16.88615,0 h 0.22922 m 3.57207,0 h 0.51576 m 1.31803,0 h 4.69909 m 24.81347,0 h 1.73828 m 0.61127,0 h 0.19102 m -89.015229,-1.03151 h 2.234931 m 20.496425,0 h 5.921614 m 0.534855,0 h 1.54726 m 27.334934,0 h 4.22154 m 25.23371,0 h 1.50906 m -89.320859,-1.05061 h 2.960807 m 19.808753,0 h 4.546271 m 2.445054,0 h 0.382039 m 29.340645,0 h 0.9742 m 1.77648,0 h 0.76408 m 23.43813,0 h 2.21583 m -87.926414,-1.0315 h 3.648478 m 18.337901,0 h 1.489955 m 0.916895,0 h 1.203424 m 58.662181,0 h 2.50236 m -85.347647,-1.05061 h 3.705784 m 16.962558,0 h 0.420244 m 2.311339,0 h 0.0191 m 57.898102,0 h 2.76979 m -82.654271,-1.05061 h 3.8586 m 74.402211,0 h 2.99901 m -79.769866,-1.03151 h 4.106925 m 70.925651,0 h 3.22824 m -76.732658,-1.05061 h 4.508067 m 67.105261,0 h 3.45746 m -73.466222,-1.05061 h 5.157535 m 62.692697,0 h 3.7822 m -69.970559,-1.0315 h 6.666591 m 56.923898,0 h 4.37436 M 74.950049,203.2652 H 81.2346 m 51.19331,0 h 6.45647 m -62.005031,-1.03151 h 4.909208 m 49.665153,0 h 4.9092 m -57.267732,-1.05061 h 3.247337 m 48.442625,0 h 2.67427 m -51.212405,-1.05061 h 0.649467"
       id="path259"
       style="fill:none;fill-rule:evenodd;stroke:#332c2b;stroke-width:0.1502216" />
    <path
       inkscape:connector-curvature="0"
       d="m 58.541448,283.28339 c 0.171918,0.34384 0.324733,0.68767 0.458447,1.05061 m -0.152815,-2.00571 c 0.515753,0.85959 0.935997,1.77649 1.241628,2.80799 m -0.783181,-3.38105 c 0.764079,1.10792 1.356241,2.36865 1.719178,3.7822 m -1.222526,-4.25975 c 0.9742,1.31804 1.719178,2.808 2.120319,4.56538 m -1.604566,-4.96652 c 1.165221,1.45175 2.043912,3.13273 2.483257,5.17664 m -1.9293,-5.52047 c 1.318037,1.56636 2.330442,3.40015 2.788889,5.67329 m -2.234931,-5.97892 c 1.489954,1.66187 2.616971,3.61027 3.094521,6.09353 m -2.521462,-6.38006 c 1.623669,1.73828 2.865297,3.78219 3.342847,6.43736 m -2.750685,-6.68569 c 1.73828,1.79559 3.075418,3.8968 3.591172,6.66659 m -2.979909,-6.87671 c 1.83379,1.81469 3.266439,3.99231 3.801294,6.85761 m -3.151827,-7.04863 c 1.910198,1.85289 3.419255,4.06872 3.973212,7.02953 m -3.323744,-7.20145 c 1.986605,1.8911 3.57207,4.14513 4.145129,7.16324 m -3.47656,-7.29695 c 2.063014,1.9102 3.705784,4.18333 4.297945,7.27785 m -3.610274,-7.43067 c 2.12032,1.9484 3.820396,4.24064 4.43166,7.41157 m -3.763091,-7.54528 c 2.177626,1.9675 3.95411,4.29794 4.584476,7.50708 m -3.915906,-7.6599 c 2.254033,1.98661 4.087823,4.35525 4.737291,7.64079"
       id="path261"
       style="fill:none;fill-rule:evenodd;stroke:#332c2b;stroke-width:0.1502216" />
    <circle
       cx="126.46809"
       cy="165.92082"
       r="5.88341"
       id="circle263"
       style="fill:none;fill-rule:evenodd;stroke:#332c2b;stroke-width:0.1502216" />
    <g
       transform="matrix(0.01910198,0,0,0.01910198,9.9460107,78.491065)"
       clip-path="url(#id0)"
       id="g265"
       style="fill-rule:evenodd" />
    <path
       inkscape:connector-curvature="0"
       d="m 124.86352,160.26664 h 3.22824 m -4.20244,10.94544 h 5.15754 m -6.26545,-0.70678 h 7.37336 m -8.09924,-0.70677 h 8.84422 m -9.37907,-0.70677 h 9.89482 m -10.27686,-0.70678 h 10.678 m -10.94543,-0.68767 h 11.21286 m -11.38478,-0.70677 h 11.5567 m -11.65221,-0.70677 h 11.72862 m -11.72862,-0.70678 h 11.72862 m -11.63311,-0.70677 h 11.5567 m -11.38478,-0.70677 h 11.21286 m -10.94543,-0.70678 h 10.678 m -10.29596,-0.70677 h 9.89482 m -9.35997,-0.68767 h 8.84422 m -8.11834,-0.70678 h 7.37336 m -6.26545,-0.70677 h 5.15754 m -4.31705,10.88813 h 3.49566 m -4.98562,-0.70677 h 6.45647 m -7.33516,-0.68767 h 8.21385 m -8.82511,-0.70678 h 9.43638 m -9.87573,-0.70677 h 10.33418 m -10.65891,-0.70677 h 10.98364 m -11.21286,-0.70678 h 11.42298 m -11.5376,-0.70677 h 11.67131 m -11.70951,-0.70677 h 11.74772 m -11.70952,-0.70678 h 11.67131 m -11.53759,-0.68767 h 11.40388 m -11.19376,-0.70677 h 10.96454 m -10.6207,-0.70678 h 10.29596 m -9.83752,-0.70677 h 9.37908 m -8.76781,-0.70677 h 8.13744 m -7.23965,-0.70678 h 6.34186"
       id="path267"
       style="fill:none;fill-rule:evenodd;stroke:#332c2b;stroke-width:0.1502216" />
    <circle
       cx="86.697769"
       cy="165.92082"
       r="5.88341"
       id="circle272"
       style="fill:none;fill-rule:evenodd;stroke:#332c2b;stroke-width:0.1502216" />
    <g
       transform="matrix(0.01910198,0,0,0.01910198,9.9460107,78.491065)"
       clip-path="url(#id2)"
       id="g274"
       style="fill-rule:evenodd" />
    <path
       inkscape:connector-curvature="0"
       d="m 85.0932,160.26664 h 3.228235 m -4.202436,10.94544 h 5.157535 m -6.26545,-0.70678 h 7.373364 m -8.099239,-0.70677 h 8.844217 m -9.379072,-0.70677 h 9.894825 m -10.276865,-0.70678 h 10.678007 m -10.945435,-0.68767 h 11.212862 m -11.38478,-0.70677 h 11.556698 m -11.652208,-0.70677 h 11.728616 m -11.728616,-0.70678 h 11.728616 m -11.633106,-0.70677 h 11.556698 m -11.38478,-0.70677 H 92.313748 M 81.368314,163.45667 H 92.046321 M 81.750354,162.7499 h 9.894825 m -9.35997,-0.68767 h 8.844217 m -8.118342,-0.70678 h 7.373364 m -6.265449,-0.70677 h 5.157535 m -4.317048,10.88813 h 3.495663 m -4.985617,-0.70677 h 6.456469 m -7.33516,-0.68767 h 8.213851 m -8.825115,-0.70678 h 9.436378 m -9.875723,-0.70677 H 91.874403 M 81.215498,168.02205 H 92.199137 M 80.986274,167.31527 H 92.409258 M 80.871662,166.6085 h 11.67131 m -11.709514,-0.70677 h 11.747718 m -11.709514,-0.70678 h 11.67131 m -11.537596,-0.68767 h 11.403882 m -11.19376,-0.70677 h 10.964537 m -10.620701,-0.70678 h 10.295967 m -9.83752,-0.70677 h 9.379072 m -8.767808,-0.70677 h 8.137443 m -7.23965,-0.70678 h 6.341857"
       id="path276"
       style="fill:none;fill-rule:evenodd;stroke:#332c2b;stroke-width:0.1502216" />
    <g
       transform="matrix(0.01910198,0,0,0.01910198,9.9460107,78.491065)"
       clip-path="url(#id3)"
       id="g278"
       style="fill-rule:evenodd" />
  </g>
  <defs
     id="defs227015">
    <marker
       style="overflow:visible"
       refY="-2.41063"
       refX="-8"
       orient="auto"
       id="DrawCurveMarker">
      <path
         id="path227012"
         style="fill:#000044; fill-rule:evenodd;stroke-width:0.62500000;stroke-linejoin:round;"
         d="m -6.55552,-2.41063 0,0 L -13.11104,0 c 1.0473,-1.42323 1.04126,-3.37047 0,-4.82126" />
    </marker>
  </defs>
  <defs
     id="defs227020">
    <marker
       style="overflow:visible"
       refY="-2.41063"
       refX="8"
       orient="auto"
       id="DrawCurveMarker_r">
      <path
         id="path227017"
         style="fill:#000044; fill-rule:evenodd;stroke-width:0.62500000;stroke-linejoin:round;"
         d="m 6.55552,-2.41063 0,0 L 13.11104,0 c -1.0473,-1.42323 -1.04126,-3.37047 0,-4.82126" />
    </marker>
  </defs>
</svg>
