<?xml version="1.0" encoding="UTF-8" standalone="no"?>
<!-- Created with Inkscape (http://www.inkscape.org/) -->

<svg
   xmlns:dc="http://purl.org/dc/elements/1.1/"
   xmlns:cc="http://creativecommons.org/ns#"
   xmlns:rdf="http://www.w3.org/1999/02/22-rdf-syntax-ns#"
   xmlns:svg="http://www.w3.org/2000/svg"
   xmlns="http://www.w3.org/2000/svg"
   xmlns:sodipodi="http://sodipodi.sourceforge.net/DTD/sodipodi-0.dtd"
   xmlns:inkscape="http://www.inkscape.org/namespaces/inkscape"
   width="210mm"
   height="297mm"
   viewBox="0 0 210 297"
   version="1.1"
   id="svg448045"
   inkscape:version="0.92.2 5c3e80d, 2017-08-06"
   sodipodi:docname="Doraemon.svg">
  <sodipodi:namedview
     id="base"
     pagecolor="#ffffff"
     bordercolor="#666666"
     borderopacity="1.0"
     inkscape:pageopacity="0.0"
     inkscape:pageshadow="2"
     inkscape:zoom="0.45166246"
     inkscape:cx="-1.677307"
     inkscape:cy="561.25984"
     inkscape:document-units="mm"
     inkscape:current-layer="layer1"
     showgrid="false"
     inkscape:window-width="1360"
     inkscape:window-height="694"
     inkscape:window-x="0"
     inkscape:window-y="1"
     inkscape:window-maximized="1" />
  <defs
     id="defs448039" />
  <metadata
     id="metadata448042">
    <rdf:RDF>
      <cc:Work
         rdf:about="">
        <dc:format>image/svg+xml</dc:format>
        <dc:type
           rdf:resource="http://purl.org/dc/dcmitype/StillImage" />
        <dc:title />
      </cc:Work>
    </rdf:RDF>
  </metadata>
  <g
     inkscape:label="Layer 1"
     inkscape:groupmode="layer"
     id="layer1">
    <path
       style="fill:#000000;stroke-width:0.29612374"
       d="m 102.77793,281.94539 c -2.40915,-0.31461 -4.852253,-1.16277 -7.373376,-2.55978 -2.672212,-1.48073 -7.235994,-6.0737 -8.915484,-8.97249 -1.38641,-2.39294 -2.98276,-6.56918 -3.53412,-9.24569 -0.29277,-1.42118 -0.53783,-1.83741 -1.58833,-2.69772 -1.7098,-1.40025 -5.1435,-3.59328 -6.57238,-4.19764 -2.9038,-1.2282 -7.78203,-1.63683 -12.7371,-1.06694 -2.22639,0.25606 -2.45359,0.34979 -3.68305,1.51935 -0.72066,0.68554 -2.31802,1.72771 -3.54971,2.31593 -2.17948,1.04087 -2.33057,1.06912 -5.64484,1.05555 -3.90931,-0.016 -5.91259,-0.56184 -9.17983,-2.50116 -7.51694,-4.46179 -13.25106,-13.17758 -15.44073,-23.46971 -0.90408,-4.24948 -0.90071,-10.33637 0.008,-13.69576 1.64526,-6.08512 4.80469,-9.99258 9.31333,-11.5184 2.06442,-0.69864 5.82311,-0.66966 8.12818,0.0627 2.34387,0.74466 5.35324,2.5339 7.49668,4.45718 l 1.65776,1.4875 1.74766,-0.45819 c 1.74328,-0.45705 6.22864,-0.42984 7.72241,0.0468 0.62511,0.19948 0.6474,0.12525 0.74031,-2.46574 0.0917,-2.55695 0.0604,-2.71363 -0.73071,-3.65637 -3.71829,-4.43114 -1.86728,-16.17069 3.12491,-19.8189 0.69029,-0.50445 1.53801,-1.02747 1.88383,-1.16225 0.34581,-0.13479 0.72265,-0.62124 0.83741,-1.08101 0.11476,-0.45976 0.40975,-1.05913 0.65554,-1.33191 0.40379,-0.44816 0.33564,-0.64803 -0.70686,-2.07287 -5.90284,-8.06773 -10.1505,-21.01441 -10.1505,-30.93825 0,-2.41428 -0.38133,-3.06419 -1.79789,-3.06419 -0.57345,0 -0.86722,-0.15047 -0.86722,-0.44418 0,-0.3267 0.3404,-0.44419 1.28689,-0.44419 h 1.28689 l 0.18927,-3.92364 c 0.16142,-3.34625 0.69052,-6.83449 1.52047,-10.02417 0.18952,-0.72838 0.0847,-0.81703 -1.92473,-1.62868 -1.91387,-0.77303 -2.68733,-1.36886 -2.29119,-1.76499 0.0774,-0.0774 1.09786,0.26651 2.26764,0.76429 2.13958,0.91047 2.69886,0.93151 2.69886,0.10149 0,-0.79222 2.98552,-8.45402 4.36709,-11.20735 3.94852,-7.86903 10.67054,-15.37294 18.5825,-20.743966 5.34099,-3.625728 13.261525,-7.047836 19.81905,-8.562929 10.98983,-2.539161 23.80221,-2.27834 35.70582,0.72686 9.74163,2.459386 20.70169,7.371829 26.83922,12.029695 5.29105,4.01546 10.79135,10.84095 14.17823,17.59421 6.81675,13.59221 8.94157,24.93401 7.06898,37.73255 -1.92401,13.14983 -8.67743,25.64603 -19.93756,36.89144 -4.5161,4.51018 -7.94703,7.18432 -11.5786,9.02458 -1.21564,0.61601 -1.37449,0.80285 -1.24747,1.46729 0.08,0.41877 0.48085,1.02514 0.89066,1.3475 2.11178,1.66113 5.49007,7.41363 6.97174,11.8714 1.58675,4.77389 2.87201,12.41951 2.87201,17.08474 v 2.97649 l 1.36615,0.68229 c 1.83183,0.91486 4.07826,3.42856 4.80869,5.38081 2.30928,6.17212 -0.28318,13.44977 -5.70476,16.01459 -7.34845,3.47637 -16.30185,-0.79086 -18.34132,-8.74155 -0.3906,-1.52272 -0.44989,-1.59156 -1.26347,-1.46688 -1.25887,0.19293 -2.21763,0.17714 -3.28691,-0.0541 l -0.95264,-0.20604 -0.63642,2.13754 c -2.38172,7.99959 -8.74706,15.67496 -21.44431,25.85767 -4.68241,3.75512 -9.60616,5.2556 -14.95424,4.55721 z m 6.36666,-1.24412 c 3.54951,-0.76343 7.49432,-3.24571 9.92161,-6.24323 6.73336,-8.31517 7.27391,-20.48596 1.35669,-30.54665 -1.48321,-2.5218 -5.63727,-6.76621 -7.94958,-8.12246 -7.66721,-4.49708 -16.208656,-3.54792 -22.30713,2.47887 -8.3003,8.20273 -9.10903,22.70913 -1.85133,33.20777 5.127422,7.41708 13.00879,10.90781 20.82974,9.2257 z m 18.06792,-13.31116 c 4.56524,-4.67085 5.94103,-6.36338 8.12139,-9.99116 2.21251,-3.68128 3.66132,-8.5641 4.7578,-16.03491 l 0.55904,-3.80898 -0.69821,-1.7183 c -1.36916,-3.36954 -2.23384,-8.41778 -1.78885,-10.44382 0.37844,-1.723 0.88349,-0.78077 1.08222,2.01898 0.22425,3.15936 0.64355,5.07847 1.65593,7.57912 0.78721,1.94447 2.76641,5.04064 4.25458,6.65569 0.82406,0.8943 0.96101,0.9508 1.21306,0.50041 2.05466,-3.67147 9.31232,-6.14892 14.48861,-4.94578 l 1.07634,0.25018 0.15344,-1.36131 c 0.30273,-2.68581 -0.87038,-11.23473 -2.19526,-15.99776 -1.26969,-4.56458 -3.76649,-9.51419 -6.18254,-12.2561 l -1.24517,-1.41311 -1.19953,1.0837 c -4.41896,3.99226 -16.84896,6.53713 -28.37185,5.80872 l -3.42626,-0.21658 0.99926,2.16215 c 1.49888,3.24324 2.18652,6.2313 2.3646,10.27505 0.23205,5.2694 -0.80989,8.70334 -3.6044,11.87908 l -1.24774,1.41796 1.43291,1.77822 c 6.40424,7.9476 7.9486,20.3661 3.65876,29.42082 -0.76342,1.61138 -0.89214,2.08189 -0.51352,1.87711 0.27791,-0.1503 2.37283,-2.18403 4.65539,-4.51938 z m 34.9524,-7.98447 c 4.91246,-1.81797 7.80047,-7.10592 6.92967,-12.68822 -0.7717,-4.94699 -3.70683,-7.75638 -8.9764,-8.59187 -3.64231,-0.57748 -8.32419,0.48062 -10.90214,2.46388 -4.44878,3.42254 -4.43239,10.97307 0.0341,15.69571 3.41722,3.61321 8.35773,4.80695 12.91478,3.1205 z M 83.06938,249.07813 c 0.2704,-1.05864 0.83915,-2.82511 1.26389,-3.92548 0.42474,-1.10038 0.71756,-2.04386 0.65072,-2.09663 -0.0669,-0.0528 -1.18759,-0.46329 -2.49053,-0.91227 -8.22316,-2.83358 -15.35484,-9.30363 -18.33251,-16.63173 -1.11514,-2.74437 -1.75608,-6.6549 -1.55865,-9.50966 0.37726,-5.45517 3.34502,-11.58913 8.65774,-17.89432 l 2.15186,-2.55385 -1.33918,-1.29575 c -1.81903,-1.76004 -4.09017,-4.77513 -4.90133,-6.50686 -0.36774,-0.78507 -0.74247,-1.43287 -0.83273,-1.43954 -0.0903,-0.007 -0.78414,0.38107 -1.54195,0.86165 -4.37825,2.77661 -6.55772,12.19546 -4.03013,17.41677 0.36479,0.75356 0.70285,1.24395 0.75123,1.08976 0.0484,-0.15418 0.48596,-1.87941 0.97238,-3.83382 0.48643,-1.95442 1.44721,-5.11924 2.13508,-7.03294 1.00777,-2.80371 1.36137,-3.47946 1.8207,-3.47946 0.70198,0 0.70468,-0.0122 -1.24572,5.62635 -2.04733,5.91882 -2.77869,9.62557 -2.78989,14.13998 l -0.009,3.62759 -0.68068,-0.446 c -1.78869,-1.172 -5.44271,-1.58676 -8.21351,-0.9323 l -1.44679,0.34173 1.12402,1.33255 c 1.79118,2.1235 4.21635,5.99099 5.63604,8.988 4.5988,9.70815 5.57245,19.92637 2.52021,26.44886 l -0.87914,1.87867 0.79971,-0.20708 c 1.44969,-0.37539 9.29581,-0.25343 11.01597,0.17123 2.31658,0.57191 5.43799,2.08406 7.84728,3.80157 l 2.07286,1.47769 0.19021,-3.28995 c 0.10462,-1.80947 0.41144,-4.15611 0.68184,-5.21476 z m -29.37333,7.42292 c 8.07402,-3.10518 10.64044,-13.73612 6.40291,-26.5229 -3.37405,-10.18121 -10.28072,-18.89344 -17.19041,-21.68439 -5.01632,-2.02618 -9.18971,-1.36812 -12.81179,2.02016 -6.26016,5.85607 -7.15318,17.31196 -2.27337,29.16337 3.5553,8.63465 10.70948,15.67686 17.72352,17.44614 2.36344,0.59617 5.98938,0.40823 8.14914,-0.42238 z m 33.11219,-15.76761 c 0.23066,-0.41919 0.0279,-0.56887 -1.28937,-0.95181 -1.93035,-0.56117 -5.7998,-2.86025 -8.53965,-5.07395 -5.94814,-4.80588 -9.19342,-11.71051 -8.75962,-18.63694 0.18869,-3.01285 0.76044,-5.7892 1.22854,-5.96564 0.1716,-0.0647 1.52121,1.06142 2.99913,2.50247 4.67809,4.56134 9.90558,8.02054 14.79306,9.78904 6.459641,2.33737 16.0722,4.06436 24.34728,4.37423 l 5.10814,0.19128 v 1.5283 c 0,1.86038 -0.6819,4.30051 -1.68797,6.04031 l -0.74899,1.29521 1.29251,1.13432 c 0.71088,0.62388 1.42576,1.09715 1.58863,1.05172 0.16287,-0.0454 0.92987,-0.86657 1.70444,-1.82475 2.30745,-2.8544 3.36118,-6.47664 3.09842,-10.65093 -0.21702,-3.44768 -1.25431,-7.42816 -2.67283,-10.25666 l -1.24166,-2.47583 -2.96123,-0.3626 c -4.21841,-0.51654 -11.9899,-2.03424 -15.05886,-2.94086 -0.581887,-0.1719 -0.584588,0.2701 -0.02422,3.96457 0.174761,1.15222 0.128701,1.27757 -0.566591,1.54192 -0.416247,0.15826 -0.952393,0.65992 -1.191433,1.11481 -0.624623,1.18863 -2.781254,3.16857 -4.331728,3.97684 -1.13739,0.59292 -1.766256,0.69504 -4.293797,0.69724 -3.48502,0.003 -5.05342,-0.5934 -7.19691,-2.73689 -1.88829,-1.88829 -2.82693,-4.13484 -2.80961,-6.7246 0.039,-5.83691 0.0822,-6.10989 1.04887,-6.63553 0.48889,-0.26583 1.2783,-0.80041 1.75425,-1.18796 l 0.86535,-0.70464 -2.1612,-1.39125 c -1.18866,-0.76518 -3.2201,-2.23613 -4.51432,-3.26878 l -2.35311,-1.87753 -1.28889,1.45637 c -6.76771,7.64709 -10.03933,15.283 -9.2544,21.59963 0.71488,5.75292 3.21685,10.51126 7.832,14.89519 3.45774,3.28452 6.7693,5.30037 11.56325,7.03893 2.87038,1.04096 2.8599,1.04243 3.72253,-0.52523 z m 3.14656,-3.49739 c 3.678244,-3.43507 7.718349,-5.04068 12.66326,-5.03259 3.28222,0.005 5.79511,0.57167 8.54241,1.92511 1.15187,0.56746 2.1939,1.03175 2.31562,1.03175 0.56836,0 2.10766,-3.90316 2.25291,-5.71264 l 0.1521,-1.89483 -0.90881,0.13339 c -1.47859,0.21701 -10.73967,-0.50157 -14.61722,-1.13418 -5.753826,-0.93871 -12.12056,-2.67583 -15.93681,-4.34825 -3.79326,-1.66234 -9.25792,-5.54239 -12.57599,-8.92926 -0.97211,-0.99228 -1.85954,-1.80413 -1.97208,-1.80413 -0.42859,0 -0.91884,4.37476 -0.77842,6.94639 0.27447,5.02687 2.17885,9.15339 6.13692,13.29779 3.63303,3.80408 9.4977,7.52021 11.96004,7.57845 0.30225,0.007 1.54698,-0.9185 2.76607,-2.057 z m 2.363094,-17.62124 c 0.820819,-0.24376 1.99447,-0.84219 2.608115,-1.32985 1.223767,-0.97253 2.79659,-2.91103 2.809584,-3.46281 0.01356,-0.57595 -4.391468,-3.61237 -7.246793,-4.99526 -2.53236,-1.22648 -5.80547,-2.26488 -8.20147,-2.60194 -1.03703,-0.14589 -1.11244,-0.0996 -1.4362,0.8814 -0.44917,1.361 -0.43556,4.22034 0.0268,5.63888 0.53162,1.63088 1.92728,3.54804 3.31441,4.55287 0.66171,0.47935 1.30585,0.87154 1.43141,0.87154 0.12557,0 0.27214,-0.98374 0.32573,-2.18608 0.0971,-2.17853 0.0941,-2.18824 -0.85905,-2.81201 -1.03753,-0.67898 -1.52757,-1.92018 -1.05529,-2.67294 1.21324,-1.93377 6.595533,-0.16476 6.838896,2.24776 0.121524,1.20472 -0.548186,1.68109 -2.307056,1.64102 -1.37008,-0.0312 -1.45405,0.0121 -1.63691,0.84468 -0.2378,1.08269 0.10774,3.30483 0.55969,3.59931 0.56765,0.36988 3.259987,0.24911 4.828093,-0.21657 z m -2.588444,-5.46124 c 0.36944,-0.23378 0.36944,-0.33632 0,-0.78271 -1.00298,-1.21186 -4.71894,-2.16606 -4.71894,-1.21175 0,1.28036 3.50581,2.76209 4.71894,1.99446 z m 9.19773,-1.2053 c -1.036519,-2.50238 -6.918878,-6.19025 -11.87142,-7.44264 -2.70719,-0.6846 -5.33702,-0.64243 -6.07687,0.0974 -0.40002,0.40001 -0.23166,0.46672 1.56968,0.62193 4.00134,0.34477 9.794814,2.85069 14.145493,6.11852 1.29561,0.97314 2.412905,1.7121 2.482879,1.64212 0.06997,-0.07 -0.04242,-0.53678 -0.249762,-1.03735 z m -0.583435,-4.40713 C 97.012124,202.99033 90.3351,200.02651 85.31589,202.75831 l -1.53868,0.83745 2.61549,0.6444 c 4.238426,1.04424 8.501189,3.04713 11.203069,5.26383 0.488604,0.40087 0.936701,0.68135 0.995772,0.62331 0.05907,-0.058 -0.05244,-0.77182 -0.247796,-1.58616 z m 37.748105,-1.53904 c 4.49025,-0.48164 7.69429,-1.82459 12.6538,-5.30377 5.11092,-3.58538 10.14861,-8.98915 14.2723,-15.30944 5.20346,-7.9752 7.06049,-13.84911 7.0496,-22.29827 -0.0187,-14.45658 -8.14591,-26.99158 -22.09136,-34.07236 l -3.51409,-1.78428 -0.66628,1.90677 c -1.53149,4.38287 -4.87487,8.46702 -8.29622,10.1344 -1.64955,0.80389 -2.02051,0.86588 -5.18216,0.86588 -3.29436,0 -3.4682,-0.0327 -5.33023,-1.00332 -2.63051,-1.37117 -5.17747,-4.03514 -6.75267,-7.06288 -1.80503,-3.4695 -2.47285,-6.26767 -2.52903,-10.5966 l -0.0462,-3.5605 -0.98461,1.63569 c -1.30995,2.17617 -2.30051,3.45752 -3.81177,4.93075 l -1.25374,1.22219 1.33085,0.50826 c 2.12465,0.81141 4.02562,2.51229 5.17254,4.62809 0.97762,1.80348 1.02734,2.03857 1.02712,4.85646 -2e-4,2.66661 -0.0822,3.11693 -0.82445,4.526 -1.77183,3.36375 -4.76304,5.31372 -8.5958,5.60359 l -2.22307,0.16813 -1.32897,3.43873 c -1.81357,4.69264 -3.02998,8.59304 -4.212379,13.50694 -1.117802,4.64546 -2.207164,11.58832 -2.209595,14.08249 l -0.0015,1.6453 2.642874,0.50663 c 5.76599,1.10533 12.25337,1.99831 16.9502,2.33318 9.23444,0.6584 17.44048,-0.64918 24.82548,-3.95581 2.16977,-0.9715 6.51472,-3.52104 6.51472,-3.82272 0,-0.10874 -5.5287,-2.58078 -12.28599,-5.4934 -7.5763,-3.26563 -12.2872,-5.45081 -12.28914,-5.70036 -0.002,-0.24045 0.20719,-0.34946 0.51508,-0.26859 0.28502,0.0749 6.02013,2.50879 12.74469,5.40872 10.96608,4.72908 12.29678,5.23499 12.90852,4.90759 1.06988,-0.57258 6.01978,-5.12619 7.64323,-7.03131 1.84478,-2.16485 2.48781,-3.3127 1.95264,-3.48562 -0.20928,-0.0676 -8.04271,-1.53964 -17.40763,-3.27114 -19.85807,-3.67162 -18.35967,-3.35214 -18.35967,-3.91451 0,-0.31125 0.1994,-0.39567 0.66628,-0.28207 0.36646,0.0892 8.58835,1.63844 18.27089,3.44285 15.24548,2.84111 17.63832,3.22051 17.85616,2.83123 0.37091,-0.66276 1.086,-0.56782 0.90606,0.12029 -0.12634,0.48311 0.0601,0.60115 1.22504,0.77586 1.86449,0.27959 1.60661,0.90376 -0.32468,0.78584 l -1.46459,-0.0894 -0.9823,1.51594 c -1.3158,2.03062 -3.62869,4.49288 -6.68446,7.11612 -1.38663,1.19036 -2.52114,2.24874 -2.52114,2.35196 0,0.10322 1.39919,0.771 3.1093,1.48396 1.71012,0.71296 3.1093,1.39652 3.1093,1.51904 0,0.61439 -0.8063,0.43711 -3.74698,-0.82384 -1.76656,-0.7575 -3.34518,-1.37326 -3.50805,-1.36836 -0.16287,0.005 -1.54525,0.77013 -3.07195,1.70052 -12.02822,7.33005 -25.20173,8.34354 -48.305637,3.71635 -15.013993,-3.00697 -23.872563,-6.93169 -31.005853,-13.7369 -6.03557,-5.75798 -9.07746,-11.26035 -9.47539,-17.13973 -0.0965,-1.4251 -0.27336,-2.59108 -0.39313,-2.59108 -0.69174,0 -0.75698,3.88154 -0.13839,8.2333 2.27271,15.98834 9.97698,28.9338 21.91278,36.81995 2.79957,1.84971 9.83308,5.60602 13.874341,7.40972 6.254174,2.79137 14.493119,5.14897 23.155269,6.62595 7.25405,1.23689 12.71179,1.43296 19.53002,0.70161 z m -11.99301,-58.16185 c 0,-0.3901 2.25383,-0.44419 18.50773,-0.44419 16.2539,0 18.50773,0.0541 18.50773,0.44419 0,0.39009 -2.25383,0.44418 -18.50773,0.44418 -16.2539,0 -18.50773,-0.0541 -18.50773,-0.44418 z m 29.02012,53.1269 c 3.72976,-1.91124 7.29149,-4.63536 11.33675,-8.67069 14.73823,-14.70203 21.93725,-32.72877 20.03481,-50.16827 -1.11765,-10.24535 -6.04885,-22.89183 -12.17213,-31.21645 -2.54303,-3.45726 -7.58621,-8.36387 -10.78708,-10.49496 -3.36104,-2.237741 -10.02172,-5.634342 -14.40629,-7.346472 -9.09673,-3.552181 -17.63904,-5.329196 -27.31997,-5.683243 -11.56398,-0.422913 -21.83732,1.731951 -31.53718,6.61502 -5.36189,2.699263 -8.95279,5.245975 -13.28177,9.419605 -5.53208,5.33356 -8.68832,9.56129 -11.44952,15.33647 -1.47242,3.07965 -3.99271,9.85036 -3.99271,10.72636 0,0.21027 0.37617,0.51344 0.83594,0.67371 0.8206,0.28607 0.87354,0.23402 2.8872,-2.83876 1.1282,-1.72159 3.19611,-4.30807 4.59535,-5.74773 l 2.54409,-2.61756 -2.20691,-2.09634 c -1.88283,-1.78851 -2.14653,-2.15672 -1.79577,-2.50748 0.35076,-0.35076 0.75736,-0.0918 2.76895,1.7632 l 2.35783,2.17432 1.48601,-0.98666 c 2.78544,-1.84942 9.48919,-4.08054 14.09009,-4.6894 1.35031,-0.1787 1.35799,-0.18631 1.88674,-1.87161 1.748989,-5.57459 5.890884,-10.78919 10.476833,-13.190201 3.023807,-1.583141 5.035737,-2.06453 8.030187,-1.921364 2.24795,0.107476 2.79256,0.249938 4.47096,1.169518 3.71159,2.033553 5.56266,5.329317 5.88226,10.473137 0.12249,1.9715 0.26155,2.74415 0.41605,2.31175 0.12763,-0.35721 0.83165,-1.42326 1.56449,-2.36899 5.31462,-6.8585 13.67386,-7.5884 19.51315,-1.70381 2.17528,2.19217 3.48247,4.34973 4.698,7.75423 0.89738,2.51342 0.92736,2.75784 0.96074,7.83055 l 0.0344,5.23614 3.57761,1.83503 c 9.9706,5.1141 17.33857,13.28687 20.48042,22.71746 1.49265,4.48034 1.91557,7.16599 1.9223,12.20696 0.012,8.96594 -1.86545,14.89624 -7.35895,23.24507 -4.78607,7.27372 -10.09209,12.57995 -17.24173,17.24243 -1.22886,0.80138 4.07042,-1.26411 6.6988,-2.61097 z M 97.092406,175.67357 c 0.822498,-8.62745 3.361044,-18.75781 6.661494,-26.58349 l 0.99233,-2.35291 -1.74511,-0.81989 c -2.10739,-0.99009 -3.768761,-2.58855 -4.876794,-4.69211 -0.742216,-1.40907 -0.824249,-1.85939 -0.824453,-4.526 -1.95e-4,-2.53022 0.09976,-3.14859 0.686708,-4.24846 0.377815,-0.70797 0.644327,-1.32648 0.592248,-1.37446 -0.05208,-0.048 -0.960851,-0.30527 -2.019493,-0.57175 -3.71046,-0.93397 -6.493316,-3.66631 -7.741496,-7.60098 -0.45229,-1.42575 -0.60139,-2.6921 -0.59838,-5.08224 0.005,-3.69519 0.23403,-3.51885 -3.55974,-2.73673 -4.62569,0.95363 -11.94864,3.95385 -12.2814,5.03169 -0.0503,0.16287 3.64198,3.88294 8.20503,8.26682 5.50846,5.29217 8.19735,8.0698 8.00153,8.26562 -0.35179,0.35179 -1.93874,-1.06824 -10.82166,-9.68343 l -6.3725,-6.18044 -1.03479,0.78927 c -1.51259,1.15371 -4.42759,4.6396 -6.43057,7.68997 l -1.74896,2.66352 0.68257,0.35246 c 0.37541,0.19385 4.94675,2.12481 10.15853,4.29102 5.21178,2.16621 9.5337,3.98291 9.60428,4.03711 0.0706,0.0542 -0.0168,0.24366 -0.19414,0.42101 -0.23252,0.23253 -3.03496,-0.81267 -10.04846,-3.74768 -5.34931,-2.23857 -9.93521,-4.12748 -10.1909,-4.19758 -0.74227,-0.20352 -2.70433,4.32428 -3.81052,8.79346 -0.79928,3.2292 -0.97634,4.44582 -0.64702,4.44582 0.15762,0 0.4482,-0.4997 0.64574,-1.11046 0.91499,-2.82896 2.56935,-5.04995 4.49235,-6.03099 1.23349,-0.62928 3.71519,-0.8138 5.55875,-0.4133 2.15883,0.46899 7.69922,3.68868 7.69922,4.47425 0,0.6111 -0.16984,0.54482 -2.39548,-0.93477 -5.5149,-3.66631 -10.0599,-3.87715 -12.57229,-0.58324 -0.92938,1.21848 -2.26766,4.36867 -1.97025,4.63778 0.11387,0.10303 4.07144,0.53707 8.79462,0.96454 11.31408,1.02398 11.40076,1.03584 11.40076,1.55918 0,0.34109 -0.27065,0.39714 -1.25853,0.26063 -2.01854,-0.27895 -17.29705,-1.63912 -18.41182,-1.63912 h -1.01552 l 0.1531,1.70271 c 0.64339,7.15553 5.24632,14.31816 12.91234,20.09289 5.07181,3.82054 12.55736,7.08644 21.317651,9.30076 1.831442,0.46293 3.401303,0.85144 3.488586,0.86335 0.08728,0.0119 0.322378,-1.69531 0.522439,-3.79383 z m 37.098904,-35.84708 c 4.25505,-1.61679 7.78137,-6.08243 9.36767,-11.86297 0.80944,-2.94962 0.72787,-9.16031 -0.16157,-12.30132 -2.26368,-7.99404 -8.50414,-13.07431 -14.69041,-11.95922 -7.84743,1.41451 -13.58112,11.69266 -12.03668,21.57684 0.76007,4.86435 2.59539,8.74049 5.50552,11.6275 3.49208,3.46434 7.81601,4.51485 12.01547,2.91917 z m -5.91289,-7.90453 c -2.90497,-2.03472 -2.11261,-8.98247 1.29033,-11.3142 3.29389,-2.25701 6.4846,1.29964 5.51359,6.14593 -0.84034,4.19409 -4.36851,6.8741 -6.80392,5.16827 z m 3.93629,-4.52025 c 0.81306,-0.89843 1.00396,-3.42444 0.31623,-4.18438 -0.29071,-0.32122 -0.81781,-0.58403 -1.17135,-0.58403 -2.05312,0 -3.14834,4.88919 -1.25539,5.60418 0.74293,0.28061 1.29975,0.0601 2.11051,-0.83577 z m -72.1068,6.52962 c 0.36397,-0.70797 0.61916,-1.31395 0.56708,-1.34662 -0.0521,-0.0327 -0.43974,-0.20705 -0.86149,-0.38749 -0.76415,-0.32694 -0.76847,-0.32077 -1.25304,1.79082 -0.48111,2.09649 -1.09668,5.69236 -1.07243,6.26462 0.007,0.16287 0.4503,-0.90318 0.98533,-2.36899 0.53503,-1.46581 1.27058,-3.24437 1.63455,-3.95234 z m 47.95197,3.25713 c 1.03839,-0.97 1.37612,-2.00133 1.11362,-3.4006 -0.40571,-2.1626 -3.16372,-3.47764 -5.1449,-2.45313 -1.33269,0.68916 -1.84291,1.58591 -1.84291,3.23902 0,1.24775 0.13703,1.58138 1.00682,2.45116 0.87621,0.87622 1.19866,1.00682 2.48573,1.00682 1.21691,0 1.63884,-0.14939 2.38164,-0.84327 z m -7.52912,-8.18284 c 1.76819,-1.4489 3.68142,-2.21909 6.01497,-2.42136 1.88588,-0.16346 2.09285,-0.25638 3.43974,-1.54423 4.53777,-4.33883 7.24912,-10.77907 6.93042,-16.46173 -0.31383,-5.59571 -2.87557,-9.321934 -7.31514,-10.640347 -2.00338,-0.594938 -3.5508,-0.60084 -5.77305,-0.02202 -7.42112,1.932956 -13.49145,9.378237 -14.70207,18.032147 -0.91123,6.51375 2.215728,12.28164 7.419065,13.685 2.093782,0.56469 2.635205,0.47946 3.986065,-0.62746 z m 3.8799,-3.75693 c -1.08678,-0.85486 -1.63273,-2.25317 -1.63273,-4.18181 0,-2.24144 0.76117,-4.2129 2.21062,-5.72563 1.10448,-1.1527 1.38771,-1.29554 2.56882,-1.29554 2.21877,0 3.51203,1.782 3.51203,4.8393 0,4.84571 -3.87751,8.55139 -6.65874,6.36368 z m 3.6582,-4.49837 c 1.31027,-1.39472 1.42219,-3.60693 0.23242,-4.59435 -1.65184,-1.3709 -3.75531,2.6958 -2.39726,4.63469 0.5948,0.84919 1.34226,0.83526 2.16484,-0.0403 z"
       id="path448053"
       inkscape:connector-curvature="0" />
  </g>
  <defs
     id="defs473144">
    <marker
       id="DrawCurveMarker"
       orient="auto"
       refX="-8"
       refY="-2.41063"
       style="overflow:visible">
      <path
         d="m -6.55552,-2.41063 0,0 L -13.11104,0 c 1.0473,-1.42323 1.04126,-3.37047 0,-4.82126"
         style="fill:#000044; fill-rule:evenodd;stroke-width:0.62500000;stroke-linejoin:round;"
         id="path473141" />
    </marker>
  </defs>
  <defs
     id="defs473149">
    <marker
       id="DrawCurveMarker_r"
       orient="auto"
       refX="8"
       refY="-2.41063"
       style="overflow:visible">
      <path
         d="m 6.55552,-2.41063 0,0 L 13.11104,0 c -1.0473,-1.42323 -1.04126,-3.37047 0,-4.82126"
         style="fill:#000044; fill-rule:evenodd;stroke-width:0.62500000;stroke-linejoin:round;"
         id="path473146" />
    </marker>
  </defs>
</svg>
