<?xml version="1.0" encoding="UTF-8" standalone="no"?>
<!-- Created with Inkscape (http://www.inkscape.org/) -->

<svg
   xmlns:dc="http://purl.org/dc/elements/1.1/"
   xmlns:cc="http://creativecommons.org/ns#"
   xmlns:rdf="http://www.w3.org/1999/02/22-rdf-syntax-ns#"
   xmlns:svg="http://www.w3.org/2000/svg"
   xmlns="http://www.w3.org/2000/svg"
   xmlns:sodipodi="http://sodipodi.sourceforge.net/DTD/sodipodi-0.dtd"
   xmlns:inkscape="http://www.inkscape.org/namespaces/inkscape"
   width="210mm"
   height="297mm"
   viewBox="0 0 210 297"
   version="1.1"
   id="svg448070"
   inkscape:version="0.92.2 5c3e80d, 2017-08-06"
   sodipodi:docname="iRonManStand.svg">
  <sodipodi:namedview
     id="base"
     pagecolor="#ffffff"
     bordercolor="#666666"
     borderopacity="1.0"
     inkscape:pageopacity="0.0"
     inkscape:pageshadow="2"
     inkscape:zoom="0.45255331"
     inkscape:cx="396.85039"
     inkscape:cy="561.25984"
     inkscape:document-units="mm"
     inkscape:current-layer="layer1"
     showgrid="false"
     inkscape:window-width="1360"
     inkscape:window-height="690"
     inkscape:window-x="0"
     inkscape:window-y="1"
     inkscape:window-maximized="1" />
  <defs
     id="defs448064" />
  <metadata
     id="metadata448067">
    <rdf:RDF>
      <cc:Work
         rdf:about="">
        <dc:format>image/svg+xml</dc:format>
        <dc:type
           rdf:resource="http://purl.org/dc/dcmitype/StillImage" />
        <dc:title />
      </cc:Work>
    </rdf:RDF>
  </metadata>
  <g
     id="layer1"
     inkscape:groupmode="layer"
     inkscape:label="Layer 1">
    <path
       inkscape:connector-curvature="0"
       id="path448078"
       d="m 148.68785,291.11181 c -0.62978,-0.17784 -1.70742,-0.93014 -2.39475,-1.67177 -1.12043,-1.20896 -1.24163,-1.92818 -1.17172,-6.95313 0.22353,-16.06602 -1.78814,-30.41155 -4.72497,-33.69463 -0.56408,-0.63059 -1.35536,-1.79145 -1.75839,-2.57969 -0.40304,-0.78824 -1.81817,-2.85199 -3.14474,-4.58611 -1.32657,-1.73412 -3.06101,-4.44279 -3.85429,-6.01927 -2.6173,-5.20124 -5.59653,-13.93435 -5.59653,-16.40527 0,-2.03298 -0.49579,-3.06909 -3.16659,-6.61757 -1.74162,-2.31396 -3.48291,-4.20995 -3.86953,-4.21331 -1.08704,-0.009 -6.14895,-4.91297 -6.14895,-5.95654 0,-0.51018 -1.4433,-2.87922 -3.20733,-5.26455 -1.76403,-2.38533 -4.58061,-6.96178 -6.25906,-10.16989 -1.67845,-3.20812 -4.2104,-7.84962 -5.62657,-10.31446 -1.41615,-2.46483 -3.55454,-6.65682 -4.75197,-9.31554 -1.94228,-4.31253 -2.34225,-4.83401 -3.70772,-4.83401 -1.85695,0 -2.16913,0.35653 -4.76849,5.446 -1.12722,2.20707 -3.50407,5.81863 -5.28189,8.0257 -4.85619,6.02867 -15.69766,22.71216 -15.69766,24.15646 0,1.81643 -2.68933,4.79336 -4.33027,4.79336 -2.09768,0 -2.57792,1.55581 -1.59636,5.17162 1.28968,4.75085 1.15482,12.60379 -0.30784,17.92604 -1.2233,4.4513 -4.6734,12.03254 -5.7898,12.72251 -0.33524,0.2072 -0.58754,2.72825 -0.58754,5.871 0,5.22789 0.10305,5.69535 2.02695,9.19546 2.05932,3.74647 2.21816,5.8665 0.43956,5.8665 -0.72198,0 -0.83967,0.49822 -0.60645,2.56728 l 0.28937,2.56729 -4.20066,2.30546 c -2.31037,1.268 -4.59977,2.30545 -5.08756,2.30545 -0.4878,0 -0.8869,0.30097 -0.8869,0.66881 0,0.36784 -0.16331,0.5055 -0.3629,0.30591 -0.1996,-0.1996 -1.07568,0.62106 -1.94686,1.82369 -2.12543,2.93406 -6.00566,6.03896 -9.15552,7.3261 -3.97325,1.62359 -10.44204,1.41118 -13.75833,-0.45179 -3.09207,-1.73701 -3.79423,-3.97836 -1.61083,-5.1419 1.12217,-0.59802 1.22845,-0.58203 0.69661,0.10475 -1.47388,1.90329 -1.33772,2.72787 0.64347,3.8968 1.07664,0.63523 2.86362,1.32496 3.97106,1.53271 1.81088,0.33972 2.07207,0.22378 2.59512,-1.15195 0.35579,-0.93579 0.83896,-1.37063 1.2445,-1.11999 0.42399,0.26204 0.507,0.15743 0.2303,-0.29028 -0.44342,-0.71747 -0.31562,-0.84331 4.18967,-4.12527 2.4253,-1.76675 2.48811,-1.78038 2.07356,-0.45002 -0.40443,1.29787 -0.36925,1.3221 0.6519,0.44894 0.59367,-0.50763 1.59533,-1.22935 2.22592,-1.60384 1.07984,-0.64128 1.06923,-0.65965 -0.18224,-0.3159 -0.91932,0.25253 -1.97921,-0.0812 -3.43959,-1.08293 -1.16094,-0.79636 -2.80964,-1.61852 -3.66377,-1.82703 -0.85413,-0.2085 -1.8531,-0.74073 -2.21993,-1.18274 -0.36683,-0.44201 -1.02234,-0.80365 -1.45667,-0.80365 -0.92508,0 -1.06684,-0.95861 -0.18522,-1.25248 0.52051,-0.1735 0.90796,-1.23261 1.07144,-2.92882 0.0241,-0.25029 0.39593,-0.37927 0.82623,-0.28663 1.06555,0.22942 6.05138,-5.39977 5.99,-6.76295 -0.0708,-1.57357 1.15978,-4.37273 1.75948,-4.00209 0.90856,0.56152 1.34935,-7.10179 1.30716,-22.72548 -0.0324,-11.99188 0.14821,-16.03408 0.83235,-18.63108 0.48052,-1.8241 0.98912,-5.63827 1.13021,-8.47592 0.14109,-2.83766 0.63527,-6.44922 1.09817,-8.0257 1.12461,-3.83002 4.16532,-9.03536 4.98287,-8.53009 0.37899,0.23423 0.47871,0.13557 0.24507,-0.24245 -0.21665,-0.35055 0.40766,-2.05768 1.38736,-3.79361 1.15347,-2.04385 2.07197,-4.83055 2.6061,-7.90685 0.45365,-2.61283 1.11923,-5.6535 1.47906,-6.75703 0.93244,-2.85962 10.80631,-19.33102 15.63589,-26.08351 0.45102,-0.63059 0.98214,-3.08129 1.18027,-5.446 0.19814,-2.36472 0.68191,-4.95141 1.07505,-5.74821 0.57691,-1.16928 0.56672,-1.81161 -0.0529,-3.33001 -0.86875,-2.12907 -1.29184,-2.10965 -6.04118,0.27737 -3.02306,1.51939 -5.23247,1.36345 -6.19621,-0.43732 -0.31806,-0.59432 -1.03357,-1.08058 -1.59001,-1.08058 -1.31582,0 -2.38754,-1.09794 -2.38754,-2.44596 0,-0.58857 -0.65991,-1.93531 -1.46646,-2.99275 -1.59344,-2.08911 -1.43844,-2.87636 1.16412,-5.91272 0.62196,-0.72562 1.19026,-2.24841 1.26291,-3.38398 0.1693,-2.64649 0.8618,-3.29635 3.51263,-3.29635 h 2.14887 l -2.63278,-7.17882 c -2.74292,-7.479177 -3.6764,-9.527529 -4.89916,-10.750284 -1.00854,-1.008543 -2.09545,-6.57877 -2.15554,-11.046777 -0.0375,-2.790551 0.26321,-4.320771 1.19768,-6.093997 2.21975,-4.212166 6.59331,-7.484667 10.18476,-7.620723 1.61543,-0.0612 8.60684,-6.899385 9.11207,-8.912369 0.76599,-3.051943 0.48227,-8.943868 -0.48199,-10.009361 -1.36904,-1.512782 -1.22522,-10.890572 0.23978,-15.633671 1.5345,-4.968136 3.48947,-6.696366 8.96729,-7.927251 3.83244,-0.861161 9.22034,0.178537 12.23243,2.36048 1.74769,1.26602 2.46267,2.316281 3.14808,4.624331 1.27065,4.278723 1.17691,14.076007 -0.18427,19.260647 l -1.0711,4.079748 2.18105,0.368485 c 1.7004,0.287282 2.53653,0.106844 3.79411,-0.818777 3.3918,-2.496471 12.1513,-2.927859 18.0626,-0.889547 2.86221,0.986938 7.91418,5.007203 7.91418,6.297962 0,1.083623 2.18083,1.656594 3.17256,0.833529 0.45347,-0.376346 1.73093,-0.578444 2.83881,-0.449106 1.94317,0.226854 2.62889,-0.233656 1.44106,-0.967776 -0.31531,-0.194863 -0.57328,-1.247493 -0.57328,-2.339178 0,-2.84242 1.67595,-3.504749 5.78251,-2.285229 2.9169,0.866223 3.14712,0.860649 3.86386,-0.09356 1.94615,-2.590997 2.90313,-5.477601 3.56855,-10.764239 0.79643,-6.327369 1.55855,-8.639363 3.39597,-10.302205 0.94571,-0.855857 1.44996,-0.97006 2.19706,-0.497603 0.81465,0.515164 0.97817,1.680608 1.02288,7.290458 0.0293,3.672498 0.16032,6.784374 0.29123,6.91528 0.1309,0.130905 1.26781,-1.726765 2.52647,-4.128155 3.03368,-5.787961 5.94047,-8.881301 8.11139,-8.631951 0.98065,0.112638 1.69359,0.575768 1.80698,1.173833 0.18904,0.997068 -1.59632,5.643546 -4.30759,11.210646 -0.8106,1.66442 -1.35364,3.146394 -1.20676,3.293277 0.14688,0.146882 2.05269,-1.157982 4.23513,-2.899697 2.18243,-1.741715 4.96669,-3.467362 6.18725,-3.834771 1.96717,-0.592158 2.30894,-0.545259 3.00963,0.412993 0.43475,0.594556 0.79044,1.269818 0.79044,1.500585 0,0.230766 -2.60381,3.03799 -5.78623,6.238275 -3.18244,3.200286 -5.68742,5.917522 -5.56665,6.038303 0.12078,0.120781 1.88619,-0.123035 3.92313,-0.541813 8.62116,-1.772436 11.57493,-1.737591 12.29737,0.14507 0.61126,1.592903 -2.02796,3.223395 -8.49633,5.248987 -3.34072,1.046154 -5.95795,2.089905 -5.81609,2.319445 0.69627,1.126592 -7.88366,12.0158 -9.4676,12.0158 -0.5963,0 -1.25302,0.273201 -1.45938,0.607115 -0.20638,0.333914 -0.96667,0.52961 -1.68955,0.434878 -0.91976,-0.120529 -2.1977,0.654054 -4.25686,2.580157 -4.35992,4.078194 -4.92694,4.256628 -18.89698,5.946724 -1.37884,0.166814 -3.95853,0.0266 -5.73263,-0.311597 -1.77409,-0.338197 -4.17165,-0.761335 -5.32791,-0.940313 l -2.10228,-0.325419 -0.39005,3.886608 c -0.48713,4.85382 -2.21917,13.113876 -3.99142,19.034913 -1.18938,3.9737 -1.28975,5.02713 -0.83184,8.7303 0.78957,6.38526 1.08681,7.46422 2.71944,9.8711 0.8283,1.2211 1.80825,3.02688 2.17767,4.01284 1.51535,4.04444 4.63676,10.5671 5.70947,11.93085 0.63048,0.80151 1.61654,2.58886 2.19127,3.97188 0.57472,1.38302 2.74048,6.10542 4.81279,10.49422 3.62495,7.677 3.78354,8.19879 4.18206,13.75833 0.64501,8.99848 3.10982,17.07281 6.74263,22.08777 0.99368,1.37171 1.80667,3.04827 1.80667,3.72569 0,1.29944 3.14914,4.89437 6.57942,7.51077 3.14241,2.39683 7.58605,8.3322 9.71533,12.97675 3.32587,7.25466 4.42568,12.73238 4.69757,23.39664 0.31207,12.23993 1.69022,18.26177 6.55252,28.63118 2.43194,5.18637 3.45813,8.03764 3.36096,9.33831 -0.21249,2.84416 0.65141,7.89162 1.3507,7.89162 0.34066,0 0.01,0.64899 -0.73548,1.4422 l -1.35488,1.44221 -1.57905,-1.72884 c -1.48638,-1.62737 -3.36347,-2.32002 -3.36347,-1.24112 0,1.65121 1.38248,4.09839 2.3153,4.09839 1.12065,0 2.04628,0.98888 1.46745,1.56771 -0.79301,0.79301 -3.10201,-1.24146 -3.70925,-3.26822 -1.05088,-3.50752 -0.90113,-4.10046 0.8659,-3.42863 1.7796,0.6766 1.56849,0.83031 2.73967,-1.99472 1.01018,-2.43668 0.79506,-2.85325 -1.83506,-3.55353 -0.96785,-0.25768 -1.64484,0.0424 -2.59794,1.1516 -0.91824,1.06863 -1.84712,1.5001 -3.2294,1.5001 -2.24365,0 -2.11332,-0.50854 0.17896,-0.69825 1.5617,-0.12925 4.29749,-2.43929 3.65261,-3.08418 -0.19105,-0.19105 -0.93738,0.0659 -1.65852,0.57101 -0.75839,0.5312 -2.46577,0.91836 -4.04992,0.91836 -1.98068,0 -2.73876,0.2248 -2.73876,0.81213 0,0.44666 0.32246,0.94224 0.71658,1.10127 0.42808,0.17273 0.31268,0.30737 -0.28663,0.3344 -1.19063,0.0537 -1.3005,0.80467 -0.24581,1.67999 0.46026,0.38199 1.88488,0.49505 3.6314,0.2882 l 2.87402,-0.34038 0.9677,3.44879 c 0.53221,1.89683 1.35972,3.77416 1.83887,4.17183 0.59632,0.4949 0.68536,0.90887 0.2822,1.31203 -0.63303,0.63303 -12.75141,1.09747 -14.64962,0.56145 z m 4.51809,-5.69324 c 0.26837,-2.28351 0.14813,-3.47593 -0.43438,-4.30759 -0.44302,-0.63249 -0.67493,-1.64924 -0.51536,-2.25943 0.25441,-0.97287 -0.018,-1.10836 -2.21311,-1.10067 -1.37678,0.005 -2.81496,0.20689 -3.19595,0.44903 -0.84923,0.53973 -0.56991,6.24793 0.35078,7.16863 0.34572,0.34571 0.62037,1.02842 0.61034,1.51712 -0.0145,0.70548 -0.19165,0.65929 -0.8599,-0.22422 -0.77379,-1.02304 -0.84166,-1.03033 -0.84166,-0.0904 0,0.5623 0.49945,1.65732 1.1099,2.43337 1.09857,1.39662 1.11633,1.399 1.73996,0.23374 0.34653,-0.6475 1.13692,-1.17728 1.75642,-1.17728 0.90226,0 1.14553,-0.4277 1.22272,-2.14974 l 0.0964,-2.14973 0.22877,2.21512 c 0.17671,1.71104 -0.0735,2.55899 -1.09958,3.72622 l -1.32835,1.51109 1.50096,-1.31883 c 1.1444,-1.00553 1.58911,-2.06891 1.87207,-4.47641 z m -5.35842,-1.15932 c -0.66433,-1.77558 -1.09553,-3.34068 -0.95822,-3.47799 0.13731,-0.13731 0.55229,0.66734 0.92218,1.78812 0.66761,2.02287 0.68458,2.03153 2.32173,1.18493 0.90705,-0.46905 1.98446,-0.83954 2.39424,-0.82329 0.40977,0.0162 -0.24146,0.43842 -1.44719,0.93816 -1.87146,0.77566 -2.14249,1.10688 -1.85219,2.26352 0.61587,2.45381 -0.15075,1.41349 -1.38055,-1.87345 z m 3.13192,-5.37062 c -0.19486,-0.31529 -0.0811,-0.57326 0.2528,-0.57326 0.3339,0 0.6071,0.25797 0.6071,0.57326 0,0.3153 -0.11376,0.57327 -0.2528,0.57327 -0.13904,0 -0.41223,-0.25797 -0.6071,-0.57327 z m 8.53587,7.59575 c -0.50061,-2.12394 -0.99263,-2.56814 -2.59379,-2.34159 -1.06124,0.15015 -1.39501,0.5968 -1.53561,2.05496 -0.17615,1.82705 -0.13434,1.8631 2.16066,1.8631 2.26096,0 2.32771,-0.0534 1.96874,-1.57647 z m 7.94161,-4.4993 -0.48949,-2.80982 -0.72007,2.12167 c -0.55022,1.6212 -0.56402,2.41326 -0.0585,3.35781 1.09009,2.03687 1.8202,0.49978 1.26807,-2.66966 z m -1.89045,-6.05698 c -0.95824,-1.83983 -0.8663,-1.7992 -2.31579,-1.02345 -1.29214,0.69153 -1.28878,0.70015 0.66748,1.71436 2.32419,1.20496 2.57991,1.09777 1.64831,-0.69091 z m -19.00271,-11.42553 c 0.11307,1.34153 0.1471,1.35072 1.26273,0.3411 0.63059,-0.57068 1.17645,-1.70703 1.21303,-2.52522 0.0434,-0.97136 0.15748,-1.13948 0.32867,-0.48442 0.28484,1.09 1.61481,1.35176 2.18452,0.42995 0.19486,-0.3153 1.52042,-0.57326 2.94569,-0.57326 2.52059,0 2.58287,-0.0431 2.27883,-1.57648 -0.17191,-0.86706 -0.47909,-2.54386 -0.68261,-3.72621 -0.3275,-1.90263 -0.5604,-2.14974 -2.02603,-2.14974 -0.91848,0 -1.67614,0.31913 -1.70125,0.71658 -0.0338,0.53603 -0.11563,0.54348 -0.32455,0.0296 -0.76191,-1.8742 -5.82585,3.59229 -6.00259,6.47976 -0.0602,0.98316 -0.0917,0.98955 -0.33174,0.0672 -0.14589,-0.56055 0.43192,-2.20881 1.28401,-3.66279 l 1.54926,-2.64362 -1.17117,-4.36289 c -1.04491,-3.89258 -6.41868,-17.45698 -6.77479,-17.10087 -0.0776,0.0776 0.21828,2.58841 0.65746,5.57962 0.43919,2.9912 0.91011,6.7284 1.04649,8.30488 0.13638,1.57647 0.81049,5.05905 1.49801,7.73906 0.8528,3.32423 1.37277,7.60542 1.63619,13.4717 l 0.38615,8.59896 0.31374,-7.1658 c 0.17257,-3.94119 0.36604,-6.54539 0.42995,-5.7871 z m 5.98184,-5.10491 c 0,-1.10353 0.11798,-1.55498 0.26217,-1.00321 0.14419,0.55177 0.14419,1.45466 0,2.00642 -0.14419,0.55177 -0.26217,0.10032 -0.26217,-1.00321 z m -3.52732,0.23886 c 0.0275,-0.66782 0.16334,-0.80366 0.34634,-0.34635 0.1656,0.41383 0.14524,0.90827 -0.0452,1.09876 -0.1905,0.19049 -0.32598,-0.1481 -0.30109,-0.75241 z m 1.03717,16.63281 c 0.74229,0.45876 0.7774,-0.98746 0.1208,-4.97644 -0.24651,-1.49766 -0.26446,-2.72301 -0.0399,-2.72301 0.22457,0 0.58625,1.80578 0.80373,4.01285 0.24139,2.44965 0.66104,4.03188 1.07728,4.06172 1.01673,0.0729 6.97717,-0.13008 7.05555,-0.24025 0.0373,-0.0524 -0.36732,-3.01771 -0.89908,-6.5896 -1.02245,-6.86781 -1.4396,-7.60778 -4.0991,-7.2712 -2.89017,0.36577 -3.94929,1.31444 -4.03065,3.61028 l -0.0755,2.12957 -0.35449,-1.92895 -0.35448,-1.92894 -1.10799,1.22997 c -0.86494,0.96016 -1.14315,2.24358 -1.26826,5.85075 -0.12996,3.74676 -0.0188,4.50341 0.58747,4.00022 0.93392,-0.77508 1.52048,-0.25122 1.12194,1.00201 -0.23833,0.74944 -0.18363,0.78224 0.26204,0.15714 0.30979,-0.43452 0.85005,-0.61277 1.2006,-0.39612 z m 16.93443,-1.63923 c -0.21086,-0.84012 -0.49393,-1.41694 -0.62906,-1.28182 -0.13513,0.13513 -0.0732,0.93306 0.13769,1.77319 0.21086,0.84012 0.49394,1.41694 0.62906,1.28182 0.13513,-0.13513 0.0732,-0.93306 -0.13769,-1.77319 z m -4.18449,-0.41128 1.50721,-1.04225 -2.21983,-4.23628 c -2.51017,-4.79041 -3.94753,-6.4205 -3.94753,-4.47686 0,1.42413 1.13583,9.80553 1.47425,10.87864 0.24648,0.78157 0.62356,0.64863 3.1859,-1.12325 z M 35.42577,271.74404 c 1.88962,-0.97716 2.6984,-2.58932 1.63689,-3.26286 -1.3467,-0.85451 -3.23356,-0.50035 -4.86019,0.91222 -1.58638,1.37763 -1.59272,1.40883 -0.46192,2.27483 1.43692,1.10042 1.69362,1.1057 3.68522,0.0758 z m 128.23056,-4.69116 c -1.42271,-2.79154 -2.5998,-4.88584 -2.61576,-4.65401 -0.0432,0.62843 4.75779,10.17425 4.99688,9.93517 0.11309,-0.11309 -0.95841,-2.48961 -2.38112,-5.28116 z m -120.68745,0.89406 c 1.63444,-1.63444 1.06435,-3.61716 -1.92067,-6.68 -1.73702,-1.7823 -2.5055,-2.2408 -2.8825,-1.71979 -0.35121,0.48538 -0.40998,0.38785 -0.18553,-0.3079 0.24395,-0.75617 -0.19478,-1.26784 -1.70434,-1.9877 l -2.03285,-0.9694 -3.83091,3.99413 c -6.52703,6.80513 -6.2919,6.36849 -3.95526,7.3448 1.73436,0.72467 2.51005,0.7293 5.8232,0.0348 3.5661,-0.74752 3.96432,-0.72623 5.9409,0.31768 2.71312,1.43289 3.29168,1.42965 4.74796,-0.0266 z m -12.08822,-3.3899 c 0.33748,-0.6306 0.74259,-1.14653 0.90023,-1.14653 0.15765,0 0.0105,0.51593 -0.32697,1.14653 -0.33748,0.63059 -0.74259,1.14652 -0.90023,1.14652 -0.15765,0 -0.0105,-0.51593 0.32697,-1.14652 z m 2.92195,-4.83831 c 0.66228,-1.12247 1.31427,-2.04086 1.44887,-2.04086 0.40733,0 -1.45348,3.34038 -2.07468,3.7243 -0.31808,0.19659 -0.0365,-0.56096 0.62581,-1.68344 z m 14.5626,6.32621 c 0,-0.75813 -0.19348,-1.25885 -0.42995,-1.1127 -0.23647,0.14615 -0.42995,0.76644 -0.42995,1.37842 0,0.61198 0.19348,1.11269 0.42995,1.11269 0.23647,0 0.42995,-0.62028 0.42995,-1.37841 z m -3.41928,-7.47687 c -0.29235,-2.70021 -0.75707,-3.91495 -2.09507,-5.47631 l -1.71939,-2.00643 0.21402,3.58509 c 0.16213,2.71579 0.48224,3.78121 1.32018,4.39393 0.8217,0.60084 1.21541,0.63713 1.53096,0.14113 0.23364,-0.36724 0.46389,0.75111 0.51165,2.48524 0.0478,1.73412 0.20531,2.52166 0.35009,1.75009 0.14479,-0.77157 0.0942,-2.96431 -0.11244,-4.87274 z m -1.45347,2.53027 c 0,-0.28859 -0.79434,-0.93548 -1.76519,-1.43753 l -1.7652,-0.91282 1.2831,1.73548 c 1.18015,1.59625 2.24729,1.88823 2.24729,0.61487 z m 2.1114,-4.67449 c -0.183,-0.45731 -0.31884,-0.32147 -0.34635,0.34635 -0.0249,0.60431 0.1106,0.9429 0.30109,0.75241 0.19049,-0.19049 0.21086,-0.68493 0.0453,-1.09876 z m -6.95284,-3.14022 c 0.34548,-3.22598 0.25917,-3.93066 -0.55428,-4.52547 -1.70188,-1.24445 -3.0283,-0.37642 -3.41079,2.23207 -0.1926,1.31349 -0.49828,2.91329 -0.6793,3.55512 -0.25315,0.89759 0.0428,1.31359 1.28208,1.80213 2.77894,1.09549 2.93178,0.95623 3.36229,-3.06385 z m -3.13899,-0.52627 c 0.0275,-0.66783 0.16334,-0.80366 0.34634,-0.34635 0.1656,0.41382 0.14524,0.90826 -0.0453,1.09875 -0.19049,0.19049 -0.32598,-0.14809 -0.30109,-0.7524 z m 10.83914,-5.79701 c 0.71781,-8.46134 0.68209,-8.80206 -1.57096,-14.98133 -0.65294,-1.79079 -1.03316,-2.25237 -1.36577,-1.65804 -0.87884,1.5704 -2.21503,10.90497 -2.21503,15.4741 0,4.49853 0.0436,4.64022 2.14974,6.98373 1.18235,1.31561 2.18617,2.37568 2.23069,2.3557 0.0445,-0.02 0.39163,-3.69836 0.77133,-8.17416 z m 105.24146,5.60569 c -0.14474,-0.49909 -0.79889,-3.22916 -1.45366,-6.06682 -1.81801,-7.87884 -4.7295,-17.48454 -5.29959,-17.48454 -0.41836,0 -3.80594,1.55652 -4.32585,1.98762 -0.0809,0.0671 1.01429,2.77767 2.43383,6.02346 2.59541,5.93441 6.02566,15.61929 6.02566,17.01268 0,0.59153 0.30233,0.61078 1.44139,0.0918 0.90168,-0.41084 1.34285,-0.99653 1.17822,-1.56419 z m 4.06478,-5.9235 c -0.59154,-11.17545 -0.4575,-10.81104 -5.32384,-14.47374 -2.32478,-1.74977 -4.22408,-3.11077 -4.22067,-3.02445 0.003,0.0863 0.4033,1.4468 0.88864,3.02328 1.52032,4.93833 4.12337,14.7633 4.82225,18.20112 0.64144,3.15528 0.7457,3.29627 2.43771,3.29627 h 1.76762 z m -14.45778,1.03128 c -0.50635,-0.7728 -0.77343,-1.86917 -0.5935,-2.43637 0.17993,-0.56721 -0.15286,-4.31756 -0.73954,-8.33413 -1.18031,-8.08074 -2.06165,-9.85994 -6.46396,-13.04895 -2.10852,-1.52741 -5.4047,-2.71889 -5.96676,-2.15682 -0.35027,0.35025 2.15855,7.50277 4.22274,12.03881 0.96654,2.12399 2.89643,5.34859 4.28862,7.1658 1.39219,1.8172 2.86193,3.94893 3.26608,4.73717 0.74019,1.44364 2.30463,3.43958 2.69597,3.43958 0.11605,0 -0.20329,-0.63229 -0.70965,-1.40509 z M 39.69855,245.49601 c 0.76079,-6.04724 1.12372,-20.49418 0.51484,-20.49418 -0.32475,0 -1.43726,-0.16936 -2.47223,-0.37636 -1.72046,-0.34409 -1.85404,-0.27031 -1.55828,0.86069 0.17792,0.68037 0.0896,1.09248 -0.19631,0.91578 -0.30259,-0.187 -0.5198,3.49585 -0.5198,8.81315 0,5.02391 -0.16713,9.97003 -0.3714,10.99138 -0.32778,1.63889 -0.24362,1.81716 0.71658,1.5179 0.59839,-0.18649 1.47493,-0.0909 1.94787,0.21232 1.39675,0.89565 1.542,0.71278 1.93873,-2.44068 z m 13.38914,-9.35076 c 3.07599,-5.64163 4.35548,-10.64152 4.40562,-17.21587 0.0439,-5.76189 -0.50567,-7.68589 -2.19553,-7.68589 -1.07608,0 -2.43351,2.86104 -3.39985,7.1658 -1.06431,4.7412 -2.77524,20.29464 -2.3145,21.04015 0.63441,1.02649 1.68117,0.0395 3.50426,-3.30419 z m -4.22274,0.46517 c 0.17264,-1.18236 0.61215,-4.96643 0.97668,-8.40905 1.2567,-11.86831 3.32285,-17.89802 5.96021,-17.39385 1.22277,0.23374 1.28012,0.12634 0.80923,-1.51555 -0.27874,-0.97191 -0.5068,-1.83332 -0.5068,-1.91422 0,-0.64753 -2.52949,0.12192 -4.2589,1.29553 -1.16921,0.79345 -2.35632,1.30018 -2.63802,1.12608 -0.72235,-0.44644 -3.35406,3.71243 -4.2654,6.74058 -1.40804,4.67856 -1.64537,9.62984 -0.59795,12.47474 0.52238,1.41882 1.49997,4.19199 2.17243,6.16258 0.67245,1.9706 1.40534,3.5829 1.62864,3.5829 0.22329,0 0.54724,-0.96738 0.71988,-2.14974 z m 104.96401,-6.3059 c -0.25371,-1.81295 -0.3955,-5.46604 -0.31507,-8.11799 0.13921,-4.59074 0.0408,-5.02964 -2.05401,-9.16188 -1.55353,-3.06446 -3.43688,-5.56546 -6.40754,-8.50888 -2.31402,-2.29281 -4.46317,-4.0106 -4.77588,-3.81734 -1.02721,0.63485 0.14227,3.30797 2.60147,5.94622 4.29431,4.60699 8.69815,12.10329 9.77394,16.63739 l 0.34004,1.43316 -0.65915,-1.43316 c -0.36253,-0.78824 -1.40081,-3.08521 -2.30729,-5.10439 -1.63385,-3.63939 -6.19581,-10.29048 -8.46963,-12.34825 -1.17278,-1.06136 -1.18178,-1.05375 -1.18178,0.99839 v 2.0679 l -1.51687,-1.40578 c -1.87494,-1.73765 -2.38987,-1.75743 -3.01764,-0.11595 -0.5935,1.5519 -1.99823,2.83744 -4.46593,4.08704 -2.25759,1.14319 -3.43667,1.16259 -5.49225,0.0904 l -1.59425,-0.83159 1.02099,1.76466 c 1.10729,1.91383 6.73068,6.79155 7.80939,6.77386 0.36521,-0.006 1.88938,-0.78038 3.38703,-1.72085 2.71099,-1.7024 2.723,-1.72386 2.723,-4.86185 0,-1.73354 0.23351,-3.1519 0.5189,-3.1519 0.2854,0 0.39236,1.48332 0.23769,3.29627 -0.26626,3.1209 -0.11705,3.60755 2.80459,9.14725 2.68954,5.09962 3.56082,6.21799 6.7848,8.70893 2.03444,1.57187 3.92798,2.87296 4.20786,2.89129 0.29112,0.0191 0.31148,-1.37716 0.0476,-3.26292 z m -9.44205,-3.48579 c 0,-1.01751 -4.66027,-9.8426 -5.19759,-9.8426 -0.21485,0 -1.59239,0.67167 -3.0612,1.49261 l -2.67055,1.4926 1.18345,1.80366 c 0.65089,0.99202 2.00551,3.25624 3.01026,5.03162 l 1.82682,3.22795 2.45441,-1.19245 c 1.34992,-0.65584 2.4544,-1.56186 2.4544,-2.01339 z m -107.4405,-3.30054 c 0.76268,0.18541 2.0316,0.49406 2.81984,0.68589 l 1.43316,0.34878 v -5.21339 -5.21339 L 38.8947,212.6009 c -1.26759,-0.83885 -2.46122,-1.36868 -2.65251,-1.17739 -0.70455,0.70455 -1.29729,5.3926 -1.24565,9.8521 0.0292,2.52236 0.16787,3.98297 0.30815,3.24579 0.20749,-1.09037 0.51365,-1.27746 1.64172,-1.00321 z m -0.81586,-8.83511 c 0,-0.78824 0.13011,-1.1107 0.28914,-0.71658 0.15904,0.39412 0.15904,1.03904 0,1.43316 -0.15903,0.39412 -0.28914,0.0717 -0.28914,-0.71658 z m 7.36288,-2.86681 c 2.89207,-1.47543 4.58514,-3.31134 4.58514,-4.97198 v -1.31671 l -2.88754,1.13817 c -3.71357,1.46375 -4.17729,1.43731 -6.10939,-0.34845 l -1.60845,-1.48661 2.08372,1.20593 c 1.58747,0.91873 2.40662,1.0786 3.43958,0.6713 1.34593,-0.53072 1.34326,-0.53741 -0.36392,-0.91326 -0.94589,-0.20824 -2.4937,-1.03051 -3.43959,-1.82728 -0.94588,-0.79677 -1.33283,-1.25214 -0.85989,-1.01193 0.47294,0.24021 1.31134,0.82444 1.86311,1.29829 0.83549,0.71752 1.00468,0.7269 1.01199,0.0561 0.007,-0.68715 0.0831,-0.68805 0.51492,-0.006 0.41747,0.65929 0.99341,0.68117 3.28749,0.12492 5.62961,-1.36505 5.96902,-1.62585 5.58071,-4.28837 -0.51228,-3.51259 -2.90652,-8.57933 -3.87792,-8.20657 -0.5424,0.20814 -0.71395,-0.0155 -0.53545,-0.69813 0.37409,-1.43052 -3.72717,-4.56394 -4.4884,-3.4292 -3.04385,4.53735 -4.01182,8.10317 -4.28279,15.77697 l -0.2457,6.95811 1.87586,1.20124 c 2.27254,1.45526 1.76455,1.44687 4.45652,0.0735 z m -1.6755,-11.79919 c 0.0275,-0.66782 0.16335,-0.80366 0.34635,-0.34635 0.1656,0.41382 0.14523,0.90827 -0.0453,1.09876 -0.19049,0.19049 -0.32599,-0.1481 -0.30109,-0.75241 z m 1.10127,-2.94613 c 0,-0.33291 0.53125,-1.2143 1.18055,-1.95865 l 1.18055,-1.35335 -1.00705,1.71979 c -1.32541,2.26349 -1.35405,2.29716 -1.35405,1.59221 z m 88.86522,13.30793 c 1.96246,-0.99446 2.95134,-1.89135 3.20658,-2.9083 0.58615,-2.33544 -0.53296,-2.7687 -2.00583,-0.77654 -1.31975,1.78506 -6.03482,4.25066 -6.9945,3.65755 -0.28681,-0.17726 -0.52147,-0.16977 -0.52147,0.0166 0,0.33494 2.15948,1.34184 3.02869,1.41218 0.24696,0.02 1.72589,-0.61071 3.28653,-1.40155 z m -7.6224,-3.35837 c -2.44161,-3.03056 -4.57733,-6.09576 -4.24732,-6.09576 0.14092,0 1.71243,1.93476 3.49226,4.29947 1.77982,2.36472 3.49815,4.29948 3.81851,4.29948 1.37525,0 4.93785,-2.30929 5.66836,-3.67426 0.95189,-1.77863 2.02598,-1.86267 4.32728,-0.33858 0.94588,0.62643 1.87942,1.14067 2.07453,1.14275 0.76972,0.008 -0.21404,-4.95363 -1.2495,-6.30213 -2.37014,-3.0867 -4.18957,-6.55389 -4.91924,-9.37432 -0.41988,-1.62297 -1.65926,-5.65952 -2.75418,-8.97012 -1.09492,-3.3106 -2.12423,-6.68532 -2.28735,-7.49938 -0.21849,-1.09037 -0.63971,-1.46774 -1.59969,-1.43316 -1.1378,0.041 -2.17582,-1.67978 -8.18228,-13.56398 -5.39522,-10.67484 -7.12649,-13.62644 -8.02569,-13.68285 -0.84426,-0.053 -0.74231,-0.16738 0.38673,-0.43403 1.48162,-0.34993 1.50012,-0.40272 0.54952,-1.5678 -2.66071,-3.26103 -5.55243,-3.27296 -10.10848,-0.0417 -3.68191,2.61128 -4.81761,4.32247 -5.31121,8.00255 -0.26118,1.94722 -0.16629,2.2652 0.58941,1.97521 0.52333,-0.20082 1.03792,0.0119 1.22821,0.50784 0.18013,0.46941 0.0952,0.70991 -0.1887,0.53444 -0.28392,-0.17548 -1.17857,0.86603 -1.98812,2.31446 -1.39234,2.49116 -1.42455,2.73144 -0.59599,4.44543 0.79232,1.63903 0.7912,1.70574 -0.0118,0.69914 -1.78098,-2.23268 -0.80335,0.25255 2.92334,7.43144 2.7509,5.29918 3.83929,8.02057 3.91273,9.78332 0.15814,3.79628 6.93351,16.21668 10.60479,19.44038 l 1.30571,1.14653 -0.34418,-1.71979 c -0.1893,-0.94589 -0.62981,-3.43145 -0.9789,-5.52348 -0.61279,-3.67225 -0.72954,-3.86513 -3.37855,-5.58163 -2.71457,-1.75898 -7.45336,-7.74385 -6.71565,-8.48156 0.21011,-0.21011 0.38202,-0.10422 0.38202,0.23531 0,1.667 7.52175,9.44101 8.34151,8.62125 0.13739,-0.13739 -0.37012,-1.53485 -1.12781,-3.10546 -1.66997,-3.46168 -2.80558,-7.48332 -2.33026,-8.25239 0.19175,-0.31027 1.06867,-0.93646 1.9487,-1.39154 1.59066,-0.82256 1.6291,-0.79827 6.53695,4.13169 2.71529,2.72752 5.13028,4.76573 5.36666,4.52936 0.8123,-0.8123 0.21093,-7.77571 -0.98294,-11.38159 -1.30244,-3.9338 -6.35901,-13.33983 -11.23285,-20.89489 -2.72391,-4.22241 -3.28645,-4.78545 -4.78121,-4.78545 -1.84471,0 -3.28894,1.2489 -4.89678,4.23447 l -1.01694,1.88834 3.55371,6.68532 c 1.95454,3.67694 3.39462,6.94274 3.20018,7.25735 -0.51032,0.82571 -1.57492,0.70497 -1.27471,-0.14456 0.31009,-0.87749 -3.52914,-8.71486 -4.02579,-8.21821 -0.19521,0.19522 -0.0496,0.6602 0.32343,1.0333 0.3731,0.3731 0.67836,0.94214 0.67836,1.26453 0,0.32239 -0.4019,0.0124 -0.8931,-0.68893 -0.49122,-0.70129 -0.73943,-1.52375 -0.55159,-1.82768 0.18784,-0.30393 -0.2089,-1.63152 -0.88164,-2.95021 l -1.22317,-2.3976 2.26729,-3.21138 c 2.18022,-3.08805 2.38596,-3.22437 5.35765,-3.5496 3.2819,-0.35919 4.11634,-0.18638 2.85729,0.59175 -0.59563,0.36812 0.12538,1.90738 3.14058,6.70468 8.68131,13.81229 12.17765,22.54567 11.42572,28.53979 l -0.35401,2.82195 5.03698,5.06043 c 2.77034,2.78323 4.78513,5.06042 4.47732,5.06042 -0.30782,0 -2.66643,-2.2137 -5.24137,-4.91934 -4.22125,-4.43551 -4.8009,-4.85554 -5.89366,-4.27071 -0.66658,0.35674 -1.06235,0.89069 -0.87949,1.18656 0.18285,0.29586 -0.0232,0.40146 -0.45785,0.23466 -0.43466,-0.1668 -1.9167,0.33654 -3.2934,1.11852 -1.37671,0.78198 -2.71049,1.29362 -2.96396,1.13697 -0.784,-0.48454 0.51305,2.39359 5.0205,11.14036 4.30219,8.34847 5.4072,10.15444 5.4072,8.83722 0,-0.36845 0.38548,-0.522 0.85661,-0.34121 0.47113,0.18079 0.7157,0.55669 0.54349,0.83534 -0.17222,0.27864 0.0937,0.35052 0.59085,0.15974 0.74682,-0.28658 0.57208,-0.75884 -1.00507,-2.71644 z m 6.39343,-0.79307 c -0.71307,-0.90923 -0.69279,-0.92951 0.21644,-0.21645 0.55177,0.43273 1.00321,0.88418 1.00321,1.00322 0,0.47182 -0.47076,0.16814 -1.21965,-0.78677 z m -2.66231,-4.01285 c -3.10145,-4.94327 -4.86044,-8.21665 -4.57093,-8.50617 0.15695,-0.15695 1.12535,1.33803 2.152,3.32217 1.02665,1.98414 2.3061,4.25245 2.84323,5.04068 1.414,2.07502 1.84048,2.86632 1.54483,2.86632 -0.14339,0 -1.0295,-1.22535 -1.96913,-2.723 z m 7.3024,-2.17011 c -2.36349,-2.51584 -8.81551,-6.58947 -10.99753,-6.94356 -1.52161,-0.24693 -2.8155,0.009 -4.73024,0.93603 l -2.6357,1.27591 1.4954,2.66263 c 1.05171,1.8726 1.15089,2.23739 0.33426,1.22946 -1.69582,-2.09309 -3.88912,-6.15209 -2.88347,-5.33626 0.6731,0.54605 1.40166,0.35611 3.63327,-0.94721 2.68833,-1.57007 2.87806,-1.59974 5.14108,-0.80403 1.29236,0.4544 3.32617,1.47072 4.51957,2.25848 1.1934,0.78775 2.48324,1.2523 2.86632,1.03232 0.38307,-0.21998 0.49675,-0.18035 0.25261,0.0881 -0.24413,0.26841 0.77805,1.7286 2.27151,3.24486 1.49346,1.51626 2.57657,2.75684 2.40692,2.75684 -0.16966,0 -0.92296,-0.65409 -1.674,-1.45353 z m -21.0985,-8.60314 c -0.9605,-2.10806 -0.77725,-2.55778 0.26133,-0.64135 0.48499,0.89494 0.77454,1.73442 0.64343,1.86553 -0.1311,0.13111 -0.53825,-0.41977 -0.90476,-1.22418 z m -9.72866,-12.67199 -2.68963,-2.66443 2.86632,2.47551 c 1.57647,1.36153 2.9738,2.56053 3.10518,2.66443 0.13137,0.1039 0.0519,0.18891 -0.17669,0.18891 -0.22855,0 -1.62588,-1.19899 -3.10518,-2.66442 z m -4.43697,-5.98781 c -0.50429,-0.97518 -0.81512,-1.87483 -0.69073,-1.99922 0.12439,-0.12439 0.65517,0.67349 1.17952,1.77306 1.17897,2.47232 0.77048,2.66132 -0.48879,0.22616 z m 14.69103,0.8654 c 0.0275,-0.66782 0.16335,-0.80366 0.34635,-0.34635 0.1656,0.41382 0.14523,0.90827 -0.0452,1.09876 -0.1905,0.19049 -0.32598,-0.1481 -0.30109,-0.75241 z m -1.40759,-3.98724 c -0.55319,-1.44158 -0.39,-1.81355 0.28579,-0.65142 0.3346,0.57541 0.48761,1.16697 0.34002,1.31457 -0.1476,0.1476 -0.42922,-0.15082 -0.62581,-0.66315 z m -15.5765,-1.46427 c -0.50429,-0.97518 -0.81511,-1.87484 -0.69073,-1.99922 0.12439,-0.12439 0.65518,0.67349 1.17953,1.77306 1.17896,2.47232 0.77047,2.66132 -0.4888,0.22616 z m -1.71581,-3.42445 c -0.20783,-0.33627 -0.25492,-0.73435 -0.10465,-0.88462 0.15026,-0.15027 0.42597,0.12486 0.61267,0.6114 0.38763,1.01016 0.0573,1.18784 -0.50802,0.27322 z m -43.18459,41.17624 c 1.07961,-2.01727 -0.54653,-0.98714 -1.79975,1.14011 l -1.26648,2.14974 1.26295,-1.14011 c 0.69462,-0.62707 1.5061,-1.59445 1.80328,-2.14974 z m 3.77294,-6.50117 c 2.45857,-4.60069 6.52113,-16.11325 6.70846,-19.0106 0.14047,-2.17242 1.95136,-5.44062 2.74339,-4.95112 0.39308,0.24294 0.47575,0.13236 0.21567,-0.28846 -0.36967,-0.59814 2.79387,-6.3739 3.49115,-6.3739 0.14339,0 0.0766,0.29783 -0.14833,0.66184 -0.24769,0.40077 -0.15785,0.50659 0.22776,0.26827 0.35024,-0.21646 0.51839,-0.70777 0.37365,-1.09179 -0.14473,-0.38402 0.77755,-2.24603 2.04952,-4.1378 l 2.31266,-3.43958 -2.24168,-2.00643 c -1.46202,-1.30858 -2.57134,-3.00333 -3.18952,-4.87274 -0.98047,-2.96503 -3.16706,-6.56451 -2.37994,-3.91778 0.20308,0.68289 0.10373,1.4057 -0.22078,1.60625 -0.35921,0.22201 -0.45958,-0.0394 -0.25658,-0.66833 0.23108,-0.71593 -0.031,-0.5931 -0.85372,0.40017 -1.43149,1.72814 -1.58673,2.74003 -0.25262,1.64667 0.79298,-0.64988 0.77119,-0.48754 -0.12522,0.93302 -3.11991,4.94417 -5.56433,7.82494 -6.14607,7.24321 -0.42706,-0.42707 0.62985,-2.47743 3.56641,-6.91866 l 4.17334,-6.31174 -0.86229,-2.16578 c -0.47425,-1.19118 -1.21842,-2.23759 -1.65371,-2.32537 -0.48426,-0.0977 -2.9224,3.35097 -6.28202,8.88559 -8.28693,13.65185 -8.53052,14.12199 -9.1862,17.72977 -1.15488,6.3546 -1.20197,6.86717 -0.54504,5.93364 0.33281,-0.47294 0.60905,-1.38972 0.61388,-2.03728 0.005,-0.64757 0.91574,-2.05646 2.02426,-3.13087 l 2.01548,-1.95348 1.41608,1.41608 c 1.29501,1.29502 1.36287,1.60879 0.79373,3.67007 -0.54163,1.96161 -0.2453,10.63444 0.36335,10.63444 1.00724,0 3.49912,-1.47272 5.40445,-3.19408 1.27766,-1.15429 2.32303,-1.85899 2.32303,-1.56599 0,0.80844 -2.9107,3.36031 -5.0857,4.45872 -1.82153,0.91991 -4.17394,0.89177 -6.70692,-0.0802 -0.46891,-0.17994 -0.81919,0.0277 -0.81919,0.48566 0,0.44001 -0.48205,1.74554 -1.07123,2.90117 l -1.07122,2.10115 1.64449,3.26022 c 0.90447,1.79313 1.64449,3.72458 1.64449,4.29213 0,0.56756 0.24952,1.18613 0.55448,1.37461 0.30497,0.18848 0.4033,1.09863 0.21852,2.02257 -0.40649,2.03243 0.11479,3.61683 1.0837,3.29385 0.39027,-0.13008 1.80148,-2.27977 3.13603,-4.77709 z m -3.80095,-3.44182 c 0.0275,-0.66782 0.16335,-0.80366 0.34635,-0.34635 0.1656,0.41383 0.14523,0.90827 -0.0453,1.09876 -0.19049,0.19049 -0.32598,-0.1481 -0.30109,-0.75241 z m 0.57327,-2.86632 c 0.0275,-0.66782 0.16334,-0.80366 0.34634,-0.34635 0.1656,0.41383 0.14524,0.90827 -0.0453,1.09876 -0.19049,0.19049 -0.32598,-0.1481 -0.30109,-0.75241 z m 0.57326,-2.86632 c 0.0275,-0.66782 0.16335,-0.80366 0.34635,-0.34635 0.1656,0.41383 0.14523,0.90827 -0.0453,1.09876 -0.19049,0.19049 -0.32598,-0.14809 -0.30109,-0.75241 z m 0.57326,-3.43958 c 0.0275,-0.66782 0.16335,-0.80366 0.34635,-0.34635 0.1656,0.41382 0.14523,0.90827 -0.0453,1.09876 -0.19049,0.19049 -0.32598,-0.1481 -0.30109,-0.75241 z m 1.67454,-10.77405 c 0,-0.11904 0.45144,-0.57049 1.00321,-1.00321 0.90923,-0.71307 0.92951,-0.69279 0.21644,0.21644 -0.7489,0.95491 -1.21965,1.25859 -1.21965,0.78677 z m 2.85754,27.08003 c 0.005,0.46837 0.4593,0.2393 1.13623,-0.57326 0.6201,-0.74435 1.13604,-1.08249 1.14653,-0.75143 0.0105,0.33106 -0.30339,0.94934 -0.69751,1.37395 -0.56657,0.61041 -0.56722,0.68773 -0.003,0.36936 0.39243,-0.22147 0.97414,-0.88967 1.29269,-1.4849 0.49885,-0.93211 0.39988,-1.04921 -0.71349,-0.8442 -1.26695,0.23329 -1.26415,0.21578 0.14047,-0.87951 0.79961,-0.62353 1.09135,-1.12319 0.65994,-1.1303 -0.91625,-0.0151 -4.10338,3.26029 -4.09075,4.20404 0.005,0.36078 0.25886,0.269 0.5645,-0.20394 0.4307,-0.66646 0.55768,-0.68441 0.56448,-0.0798 z m 79.7048,-4.48896 c -1.22046,-1.71398 -2.3054,-2.67137 -2.3054,-2.03438 0,0.63334 2.50248,3.73683 3.01316,3.73683 0.27747,0 -0.041,-0.7661 -0.70776,-1.70245 z m -89.4236,-12.11015 0.79366,-2.4048 -1.93214,-1.61302 c -1.06267,-0.88716 -2.08368,-1.51609 -2.26889,-1.39762 -0.18521,0.11847 -0.82957,1.14104 -1.4319,2.27238 l -1.09515,2.05698 2.24168,1.94382 c 1.23292,1.06909 2.38959,1.85454 2.57038,1.74544 0.18079,-0.10911 0.68585,-1.28054 1.12236,-2.60318 z m 67.83227,-0.15301 3.358,-1.91271 -3.51202,-2.7592 c -1.93161,-1.51757 -4.04418,-3.62025 -4.69459,-4.67264 -1.27691,-2.06608 -2.03632,-2.31811 -3.58114,-1.18851 -0.91731,0.67076 -0.78954,1.16348 1.70958,6.59253 1.48554,3.22718 2.84975,5.86437 3.03158,5.86043 0.18183,-0.004 1.84169,-0.8679 3.68859,-1.9199 z m -0.4852,-3.01625 c -0.54191,-0.82706 -0.70195,-1.32863 -0.35565,-1.11461 0.66177,0.409 1.99649,2.61835 1.58181,2.61835 -0.13248,0 -0.68425,-0.67669 -1.22616,-1.50374 z m -63.77956,-5.79279 c 2.07244,-5.39928 2.10724,-5.61004 1.09393,-6.62335 -1.01331,-1.01331 -1.09752,-0.9697 -2.64631,1.37068 -0.87984,1.32952 -2.31616,3.63243 -3.19184,5.11759 l -1.59215,2.70029 1.50576,1.50576 c 0.82817,0.82817 1.77223,1.50577 2.09791,1.50577 0.32568,0 1.55539,-2.50954 2.7327,-5.57674 z m 26.32025,-9.67749 c 1.25892,-2.37309 1.27135,-2.51577 0.28194,-3.23923 -0.80747,-0.59044 -1.05727,-1.64147 -1.13638,-4.78141 -0.088,-3.49077 -0.31414,-4.27727 -1.70528,-5.92954 -1.73189,-2.05698 -4.07078,-6.3004 -3.68519,-6.68598 0.13031,-0.13031 0.69998,0.78993 1.26592,2.04498 0.56595,1.25505 1.47222,2.68302 2.01393,3.17326 0.86153,0.77967 1.07204,0.78639 1.68017,0.0537 0.52995,-0.63855 0.53845,-1.13069 0.0358,-2.06998 -0.36271,-0.67776 -0.53316,-1.35861 -0.37875,-1.51301 0.1544,-0.15441 0.45814,0.27822 0.67497,0.9614 0.29627,0.93347 0.70104,1.15885 1.62882,0.90699 0.67902,-0.18432 3.36282,-0.50393 5.96401,-0.71023 2.66288,-0.21121 4.72942,-0.63652 4.72942,-0.97337 0,-0.32904 0.32246,-0.17612 0.71658,0.33983 0.39412,0.51595 1.3725,1.09573 2.17418,1.2884 1.32681,0.31889 1.56883,0.0774 2.69735,-2.69163 0.68187,-1.67307 1.61905,-4.71874 2.08262,-6.76815 0.83996,-3.71344 0.83777,-3.73289 -0.63899,-5.67088 -1.4148,-1.85666 -1.51845,-1.89557 -2.29083,-0.8599 -0.44494,0.59662 -1.0519,1.01923 -1.34879,0.93912 -0.29689,-0.0801 -1.07257,0.6938 -1.72371,1.71979 -1.02285,1.61168 -1.13462,1.67049 -0.82168,0.43228 0.68916,-2.7268 13.20695,-13.75833 15.61196,-13.75833 0.41584,0 1.26727,0.8384 1.89204,1.86311 0.62478,1.02471 1.13693,1.56044 1.1381,1.19051 0.001,-0.36993 -0.62115,-1.41335 -1.38296,-2.31871 -0.76181,-0.90535 -1.56443,-2.60195 -1.78359,-3.77019 -0.21919,-1.16828 -0.61967,-2.12412 -0.88998,-2.12412 -0.27031,0 -0.353,-0.36086 -0.18375,-0.80191 0.16924,-0.44105 0.0397,-0.96753 -0.28779,-1.16996 -0.88997,-0.55003 -4.15964,1.33566 -4.48709,2.5878 -0.1569,0.60003 -0.50991,0.95214 -0.78446,0.78246 -0.48742,-0.30125 -7.49511,5.15871 -7.87389,6.13486 -0.35438,0.91324 -1.39898,0.50198 -3.87178,-1.52429 -2.2465,-1.84084 -2.51263,-1.92833 -3.05125,-1.00321 -0.32455,0.55744 -0.59398,0.75555 -0.59874,0.44026 -0.005,-0.3153 0.21974,-0.93399 0.4989,-1.37488 0.40464,-0.63906 1.04219,-0.36352 3.14418,1.3589 2.19362,1.79751 2.63809,1.98035 2.64539,1.08824 0.006,-0.69495 0.15976,-0.83488 0.43784,-0.39765 0.29012,0.45615 1.91167,-0.53355 5.00729,-3.05614 2.51802,-2.05191 4.65612,-3.94354 4.75133,-4.20361 0.0952,-0.26008 -0.61419,-1.36957 -1.57647,-2.46555 -0.96228,-1.09598 -1.7496,-2.15285 -1.7496,-2.34861 0,-0.19575 0.91018,0.65155 2.02262,1.88288 1.90398,2.10748 2.12437,2.2004 3.75714,1.5841 l 1.73451,-0.65471 -0.36734,-4.01882 c -0.20204,-2.21034 -0.46227,-4.11464 -0.57829,-4.23177 -0.19092,-0.19275 -2.21574,0.96254 -7.4064,4.22581 -1.00304,0.63059 -2.6437,1.65359 -3.64592,2.27334 -1.78477,1.10366 -1.8244,1.22147 -1.92826,5.73264 -0.0792,3.44132 -0.15887,3.85669 -0.31498,1.64287 -0.12437,-1.76376 -0.56981,-3.26247 -1.10057,-3.70297 -0.75756,-0.62871 -1.1339,-0.44319 -2.50248,1.23367 -0.88596,1.08552 -1.45432,2.23592 -1.26302,2.55644 0.19129,0.32052 -0.0887,0.22871 -0.62214,-0.20401 -0.76694,-0.62211 -0.96994,-0.63211 -0.96994,-0.0478 0,0.40645 -0.14831,0.59069 -0.32957,0.40942 -0.18127,-0.18126 0.38213,-1.40505 1.25201,-2.71952 1.31789,-1.99146 1.44453,-2.48017 0.75952,-2.93107 -0.75236,-0.49524 -4.22406,-0.21161 -5.26204,0.42991 -0.23972,0.14816 -0.13541,0.83415 0.23181,1.52443 0.62261,1.17034 0.56882,1.16033 -0.79682,-0.14825 -0.80547,-0.7718 -1.34213,-1.80368 -1.19259,-2.29305 0.18574,-0.60778 -0.0154,-0.5371 -0.63479,0.22302 -1.04258,1.27954 -1.20542,2.29246 -0.27624,1.71819 1.47921,-0.9142 -0.71185,1.9161 -3.52794,4.55722 -2.54856,2.39021 -3.06495,2.66406 -3.51318,1.8631 -0.28901,-0.51643 -1.22916,-0.93896 -2.08922,-0.93896 -0.86007,0 -2.1371,-0.40158 -2.83784,-0.8924 -1.52108,-1.06541 -1.5317,-1.01072 -0.35201,1.81269 2.45781,5.88234 6.2455,9.39248 10.13931,9.39631 2.92154,0.003 4.50028,-1.67344 6.09816,-6.47506 0.70083,-2.106 1.53784,-3.99201 1.86003,-4.19112 0.32912,-0.20342 0.28697,0.1963 -0.0962,0.91227 -0.3751,0.70087 -0.55388,1.76423 -0.39729,2.36302 0.15659,0.59879 0.0508,0.94415 -0.2351,0.76746 -0.28589,-0.17669 -0.5198,0.22019 -0.5198,0.88194 0,1.85558 -2.25332,5.84058 -3.48462,6.16258 -0.60582,0.15842 -1.10149,0.64491 -1.10149,1.08108 0,1.05029 -1.96696,1.0168 -2.85111,-0.0486 -0.38414,-0.46286 -0.86717,-0.81927 -1.0734,-0.79201 -1.13393,0.14987 -1.96581,-0.25969 -3.80184,-1.87174 -1.47714,-1.29695 -1.92893,-1.49303 -1.65107,-0.71658 0.73872,2.06425 4.20238,5.81212 7.07484,7.65537 2.62917,1.68714 3.22349,1.83856 6.33326,1.61362 1.8875,-0.13653 3.10709,-0.0421 2.7102,0.20988 -1.29902,0.82468 -6.41614,0.52444 -7.81995,-0.45883 -1.28786,-0.90204 -1.31223,-0.89348 -0.70207,0.24661 0.34765,0.64959 1.08411,1.29257 1.63657,1.42884 0.57656,0.14221 0.47077,0.19615 -0.24832,0.12662 -2.14723,-0.20764 -2.83384,0.57574 -2.1061,2.40291 1.30743,3.28263 1.45286,3.92991 0.55317,2.46216 -0.48316,-0.78824 -1.42398,-3.04266 -2.09069,-5.00984 -1.36516,-4.02798 -1.91093,-4.63511 -2.85071,-3.17123 -0.59199,0.92213 -0.61762,0.91009 -0.27939,-0.13126 0.20481,-0.63059 0.41777,-1.29132 0.47323,-1.4683 0.0555,-0.17697 -1.10511,-1.66662 -2.57906,-3.31033 -3.00538,-3.35152 -3.17094,-3.24111 -3.29723,2.19894 -0.0661,2.84867 0.0666,3.21689 1.3751,3.81542 1.92254,0.87937 2.36868,0.0119 1.00606,-1.95622 -1.51709,-2.19116 -1.9626,-3.0057 -1.64399,-3.0057 0.15054,0 0.83596,0.90973 1.52314,2.02163 0.68719,1.11189 1.54972,2.33724 1.91672,2.723 0.36701,0.38576 1.09711,2.07192 1.62246,3.74702 0.77825,2.48155 0.80353,2.9198 0.13646,2.36618 -0.45029,-0.37371 -0.81871,-1.2435 -0.81871,-1.93287 0,-1.49828 -1.44925,-3.65396 -2.05158,-3.05162 -0.23405,0.23404 0.003,0.89887 0.52639,1.4774 0.52356,0.57853 0.95192,1.25981 0.95192,1.51398 0,0.25417 -0.57153,-0.28208 -1.27008,-1.19166 -1.54863,-2.0165 -2.1998,-2.50248 -3.31603,-2.47484 -0.5823,0.0144 -0.43128,0.31987 0.46782,0.94618 1.66864,1.16239 4.2586,4.90383 6.4448,9.31016 1.2997,2.61957 1.68634,4.18529 1.68634,6.82897 0,2.94388 0.19627,3.58451 1.38453,4.51919 l 1.38452,1.08907 -1.6356,3.39534 c -0.89958,1.86743 -1.80709,4.55619 -2.01669,5.97502 l -0.38109,2.57969 2.31473,-2.22973 c 1.2731,-1.22636 2.90735,-3.34683 3.63166,-4.71217 z M 91.11862,147.2768 c 0.0275,-0.66782 0.16335,-0.80366 0.34635,-0.34635 0.1656,0.41383 0.14523,0.90827 -0.0452,1.09876 -0.1905,0.19049 -0.32598,-0.1481 -0.30109,-0.75241 z M 77.0284,144.19359 c -0.67323,-0.27639 0.39168,-0.34606 2.57969,-0.16875 2.04942,0.16607 3.8337,0.39603 3.96507,0.511 0.4829,0.42263 -5.43557,0.11313 -6.54476,-0.34225 z m 7.21357,-0.22795 c 0.13137,-0.1133 1.01277,-0.3791 1.95865,-0.59068 1.25598,-0.28094 1.48789,-0.22776 0.8599,0.19721 -0.77412,0.52385 -3.39381,0.88956 -2.81855,0.39347 z m 7.47058,-0.85856 c -0.0469,-0.96082 -0.31435,-1.25065 -0.92582,-1.00322 -2.33843,0.94627 -2.65559,0.87134 -0.76466,-0.18065 1.43478,-0.79822 2.31695,-1.82156 2.78014,-3.22503 0.37316,-1.1307 0.78897,-1.94532 0.92401,-1.81027 0.13505,0.13504 -0.0552,0.99072 -0.42267,1.90151 -0.36752,0.91079 -0.86101,2.55888 -1.09664,3.66241 -0.30656,1.43567 -0.44718,1.62206 -0.49436,0.65525 z m -10.52799,-0.48656 c 0.70942,-0.13664 1.87028,-0.13664 2.57969,0 0.70941,0.13664 0.12898,0.24844 -1.28984,0.24844 -1.41883,0 -1.99926,-0.1118 -1.28985,-0.24844 z m 4.62194,-0.56029 c 0.41383,-0.1656 0.90827,-0.14524 1.09876,0.0452 0.19049,0.19049 -0.1481,0.32598 -0.75241,0.30109 -0.66782,-0.0275 -0.80366,-0.16335 -0.34635,-0.34635 z m 1.87505,-0.35517 c 0.13138,-0.0954 1.01277,-0.62667 1.95866,-1.18055 l 1.71979,-1.00705 -1.35335,1.18056 c -0.74435,0.6493 -1.62574,1.18055 -1.95866,1.18055 -0.33291,0 -0.49781,-0.0781 -0.36644,-0.17351 z m -1.17674,-1.83292 c 0,-0.31529 0.25007,-0.96021 0.55571,-1.43316 0.30564,-0.47294 0.5557,-0.60192 0.5557,-0.28663 0,0.3153 -0.25006,0.96022 -0.5557,1.43316 -0.30564,0.47294 -0.55571,0.60193 -0.55571,0.28663 z m 1.75131,-4.29948 c -0.0173,-0.47294 0.21855,-1.24685 0.52419,-1.71979 0.67721,-1.04791 0.67721,-0.14279 0,1.43316 -0.32486,0.75599 -0.50341,0.85363 -0.52419,0.28663 z m 12.89349,-11.41921 c -0.88195,-0.92056 -1.46651,-2.01692 -1.29903,-2.43637 0.23734,-0.59446 0.31448,-0.57993 0.34975,0.0659 0.0249,0.45569 0.73844,1.55206 1.58567,2.43637 0.84723,0.88432 1.41143,1.60785 1.25378,1.60785 -0.15765,0 -1.00822,-0.75318 -1.89017,-1.67373 z m 4.87388,-1.52699 c 0.0275,-0.66783 0.16334,-0.80366 0.34634,-0.34635 0.1656,0.41382 0.14524,0.90826 -0.0452,1.09875 -0.1905,0.19049 -0.32598,-0.14809 -0.30109,-0.7524 z m -37.30742,49.06183 c 0.33748,-0.63059 0.48462,-1.14653 0.32698,-1.14653 -0.15765,0 -0.56276,0.51594 -0.90024,1.14653 -0.33748,0.63059 -0.48462,1.14653 -0.32697,1.14653 0.15765,0 0.56275,-0.51594 0.90023,-1.14653 z m 58.47292,-2.69364 c 0,-2.09707 -0.2827,-3.41851 -0.82059,-3.8357 -0.70937,-0.5502 -10.21806,-17.55946 -10.05968,-17.99487 0.0321,-0.0883 -0.53783,-1.43203 -1.26653,-2.98614 -1.33782,-2.8532 -2.1848,-3.62036 -2.1848,-1.97891 0,0.49155 -0.25797,0.7343 -0.57326,0.53943 -0.73495,-0.45422 -0.72885,0.0713 0.017,1.46491 0.32464,0.6066 1.38049,1.51156 2.34633,2.01101 0.96584,0.49945 1.59881,1.06536 1.40661,1.25756 -0.1922,0.19221 -0.65472,0.0442 -1.02782,-0.3289 -0.37308,-0.3731 -1.09095,-0.67836 -1.59524,-0.67836 -0.67821,0 0.63563,3.09663 5.04692,11.89522 6.82933,13.62154 7.41357,14.6359 8.16301,14.17272 0.30145,-0.18631 0.54808,-1.77839 0.54808,-3.53797 z m -52.6855,-6.19195 c 0.40631,-0.78236 0.21387,-0.69132 -0.60587,0.28663 -0.66073,0.78824 -1.46926,1.9491 -1.79674,2.57969 -0.40631,0.78236 -0.21387,0.69131 0.60587,-0.28664 0.66073,-0.78823 1.46926,-1.94909 1.79674,-2.57968 z m 14.16811,-3.00964 c -0.15863,-1.91669 -0.33328,-2.13178 -1.61108,-1.98408 -2.58258,0.29854 -3.93803,-0.4236 -5.75671,-3.06696 -1.45442,-2.11393 -1.94525,-2.478 -2.60389,-1.93138 -1.2776,1.06031 -0.9856,1.84595 1.62475,4.37157 2.82939,2.73755 6.00429,4.75539 7.48704,4.75845 0.84899,0.002 1.00544,-0.38898 0.85989,-2.1476 z m -26.58758,-2.20364 c 1.17108,-1.76377 2.02061,-3.31547 1.88785,-3.44822 -0.23716,-0.23716 -4.42802,5.78185 -4.42802,6.35963 0,0.71766 0.54646,0.0913 2.54017,-2.91141 z m 9.38564,-8.34145 c -2.29468,-4.30977 -6.19691,-8.79136 -6.60053,-7.58048 -0.26372,0.79117 5.3278,13.27457 7.14323,15.94767 l 1.57646,2.32122 0.17389,-3.02753 c 0.15192,-2.64482 -0.13796,-3.61324 -2.29305,-7.66088 z m 22.78361,6.0821 0.61811,-3.09549 -1.67823,-0.58503 c -2.14579,-0.74803 -2.46315,-0.51775 -2.88713,2.09491 -0.29361,1.80929 -0.10888,2.39848 1.17079,3.73415 0.83566,0.87225 1.66316,1.44215 1.83888,1.26643 0.17571,-0.17572 0.59762,-1.71245 0.93758,-3.41497 z m -5.9213,0.73678 c 0.50452,-0.39412 1.09311,-1.81692 1.30797,-3.16178 l 0.39066,-2.4452 -4.20805,0.36865 c -2.31442,0.20275 -4.44269,0.58326 -4.72949,0.84557 -0.30421,0.27824 0.11712,1.44185 1.01135,2.79313 1.2754,1.92727 1.84995,2.31621 3.42151,2.31621 1.0388,0 2.30152,-0.32246 2.80605,-0.71658 z m 30.55218,-10.14137 c -0.31103,-1.41609 -0.62102,-1.72736 -1.45624,-1.46227 -1.38116,0.43835 -2.67617,-1.70012 -1.72419,-2.84719 0.47271,-0.56957 0.39988,-0.99546 -0.2878,-1.68314 -0.50634,-0.50635 -1.14873,-0.92063 -1.42752,-0.92063 -0.72608,0 0.90242,4.33147 2.43894,6.48709 0.71556,1.00388 1.33366,2.01871 1.37357,2.25518 0.0399,0.23647 0.10479,0.61053 0.1442,0.83123 0.0394,0.22071 0.35572,0.11722 0.70291,-0.22997 0.37725,-0.37724 0.47226,-1.35517 0.23613,-2.4303 z m -15.31317,-6.42112 c -0.50658,-1.45318 -0.84918,-1.67582 -2.34924,-1.52665 -1.61994,0.16109 -1.81298,0.41925 -2.4884,3.32759 -0.40273,1.73413 -0.74316,3.34907 -0.75652,3.58875 -0.0134,0.2397 1.37331,-0.49214 3.08147,-1.6263 2.99615,-1.98933 3.08483,-2.12215 2.51269,-3.76339 z m 14.0811,3.23739 c -0.18079,-0.47113 -0.56386,-0.71127 -0.85126,-0.53365 -0.60111,0.37151 -0.11856,1.39026 0.65852,1.39026 0.2868,0 0.37353,-0.38548 0.19274,-0.85661 z m -7.08774,-4.1125 c 0,-1.47182 -0.28425,-4.30833 -0.63167,-6.30335 l -0.63167,-3.6273 -1.51807,1.09856 c -0.83494,0.60421 -2.9369,2.4629 -4.67102,4.13043 l -3.15295,3.03186 1.64307,0.211 c 1.1858,0.15229 1.81625,0.66982 2.26534,1.85961 0.53937,1.42894 0.96968,1.67658 3.22968,1.85859 1.43406,0.1155 2.80087,0.25649 3.03734,0.31332 0.23647,0.0568 0.42995,-1.10089 0.42995,-2.57272 z m 3.23298,-3.24011 c -0.9973,-2.38687 -2.86648,-5.66216 -2.34894,-4.11596 1.53766,4.59395 2.15738,6.01927 2.61712,6.01927 0.28989,0 0.16921,-0.85649 -0.26818,-1.90331 z m -9.67524,-3.17765 4.7364,-4.45158 -1.35503,-1.27298 -1.35502,-1.27297 -4.24126,3.23601 c -5.77944,4.40962 -5.91943,4.62132 -4.36248,6.59705 0.69726,0.8848 1.39672,1.61038 1.55437,1.61239 0.15765,0.002 2.41801,-1.99956 5.02302,-4.44792 z m -48.75896,-6.79788 c -0.92268,-0.92268 -0.97864,-0.91152 -0.97864,0.19518 0,1.50244 0.61915,2.12159 1.37037,1.37037 0.40038,-0.40037 0.27587,-0.89795 -0.39173,-1.56555 z m 3.27395,1.78539 c 1.14291,-0.43857 1.19649,-2.51835 0.0649,-2.51835 -0.51284,0 -0.71293,0.3361 -0.51193,0.8599 0.18149,0.47294 0.0444,0.85989 -0.30462,0.85989 -0.34903,0 -0.6346,0.25797 -0.6346,0.57327 0,0.66825 0.16294,0.69473 1.38627,0.22529 z m -6.67595,-3.89917 c -0.18906,-0.98902 -0.0454,-1.29694 0.50643,-1.0852 0.96906,0.37186 1.0005,-0.50267 0.0538,-1.4966 -0.58325,-0.61238 -0.49717,-0.68638 0.46264,-0.39777 0.84763,0.25487 1.6379,-0.12418 2.8104,-1.348 1.37684,-1.43712 1.51543,-1.84206 0.88883,-2.59706 -1.01025,-1.21728 -1.51055,-0.57849 -0.54499,0.69585 0.65703,0.86715 0.65218,0.91144 -0.033,0.30049 -1.30018,-1.15941 -2.05456,-0.84829 -3.59789,1.48384 -1.78421,2.69613 -2.2797,5.82527 -0.92241,5.82527 0.36718,0 0.52755,-0.58874 0.37613,-1.38082 z m 5.28968,0.86889 c 0,-0.70329 -1.61505,-1.26786 -1.97248,-0.68952 -0.15918,0.25755 -0.12444,0.63324 0.0772,0.83486 0.54633,0.54633 1.89529,0.44289 1.89529,-0.14534 z m 7.22713,-0.39485 c -0.19139,-0.49873 -0.34797,-1.19296 -0.34797,-1.54273 0,-0.68261 -1.67108,1.30077 -1.70156,2.01956 -0.01,0.23647 0.52531,0.42995 1.18963,0.42995 0.86589,0 1.10935,-0.25673 0.8599,-0.90678 z m -4.1745,-0.5667 c -0.17423,-0.87577 -1.17828,-0.90269 -1.50915,-0.0405 -0.20857,0.54352 0.0132,0.77904 0.64595,0.68616 0.52993,-0.0778 0.91837,-0.36834 0.8632,-0.6457 z m -1.64303,-2.10374 c 0.42954,-1.02159 0.6352,-2.09332 0.45701,-2.38163 -0.17818,-0.28831 -0.0243,-0.33901 0.34192,-0.11266 0.69916,0.43211 1.63021,-1.17284 1.02909,-1.77397 -0.56801,-0.568 -2.16619,1.09027 -1.84854,1.91805 0.17624,0.45929 -0.10352,0.76805 -0.69591,0.76805 -1.12444,0 -2.62711,2.05605 -2.11192,2.88964 0.69646,1.1269 2.07217,0.49094 2.82835,-1.30748 z m 3.57243,-0.24106 c 0.66425,-1.00042 0.65591,-1.2793 -0.0559,-1.87005 -0.68132,-0.56545 -1.01245,-0.42588 -1.78424,0.75201 -0.95321,1.45478 -0.69966,2.88017 0.44448,2.49879 0.33824,-0.11275 0.96629,-0.73409 1.39566,-1.38075 z m 12.34466,-0.0245 c 0.55976,-0.50658 1.01775,-0.7121 1.01775,-0.45672 0,0.25538 0.52504,-0.0108 1.16675,-0.59156 0.6417,-0.58074 1.02958,-1.41332 0.86195,-1.85017 -0.16764,-0.43685 -0.0652,-1.24206 0.22776,-1.78936 0.41176,-0.76938 0.0126,-1.60339 -1.75985,-3.67695 l -2.29239,-2.68187 -2.25506,1.15044 c -1.24028,0.63274 -2.25506,1.51456 -2.25506,1.95958 0,0.88917 -2.06667,0.8869 -3.46383,-0.004 -1.57076,-1.00115 -4.56187,-1.85141 -4.56187,-1.29656 0,1.64652 3.96651,8.85501 5.20273,9.45512 2.94795,1.43104 6.39125,1.33852 8.11112,-0.21794 z m 1.64856,-1.72049 c 0.41743,-0.69508 0.88234,-1.14038 1.03316,-0.98956 0.15081,0.15081 -0.19071,0.71951 -0.75895,1.26377 -0.98712,0.94548 -0.99934,0.93326 -0.27421,-0.27421 z m -26.42768,0.17858 c 0,-0.12392 -0.40036,-0.37893 -0.88967,-0.5667 -0.51017,-0.19577 -0.74027,-0.0997 -0.53944,0.22529 0.33666,0.54473 1.42911,0.8057 1.42911,0.34141 z m 4.13575,-4.57148 c 0.34203,0.21138 0.47858,0.0285 0.31822,-0.42612 -0.37997,-1.07734 -2.76501,-0.7297 -4.0936,0.59667 -1.78166,1.7787 -0.52097,2.57022 1.45093,0.91097 0.94895,-0.79848 1.99495,-1.28517 2.32445,-1.08152 z m 5.37609,-0.11677 c -0.12659,-0.8625 -0.6026,-1.09728 -1.35717,-0.66941 -0.22858,0.12962 -0.0798,0.15192 0.33074,0.0496 0.4105,-0.10236 0.58875,0.0689 0.39612,0.38059 -0.19263,0.31166 -0.72197,0.56667 -1.1763,0.56667 -1.0142,0 -1.09408,0.95471 -0.10949,1.30842 0.97001,0.34847 2.06956,-0.59027 1.9161,-1.63585 z m 2.5267,1.07273 c 0,-0.11558 -0.64492,-1.48284 -1.43316,-3.03835 -0.78824,-1.55551 -1.43316,-3.2668 -1.43316,-3.80287 0,-0.53606 -0.91499,-2.63928 -2.03332,-4.67382 -1.11832,-2.03454 -1.91125,-3.82123 -1.76206,-3.97041 0.14919,-0.14919 0.72619,0.59112 1.28223,1.64513 l 1.01097,1.91638 0.48703,-2.37992 0.48703,-2.379921 5.32429,-1.002805 5.32429,-1.002811 3.56141,1.898215 c 2.04239,1.088576 3.7524,1.675602 4.00917,1.376302 0.24625,-0.287049 1.79728,-2.252152 3.44672,-4.366894 3.1663,-4.059511 5.86543,-6.457233 9.75765,-8.668059 2.34762,-1.333469 2.35678,-1.351613 1.20763,-2.391577 -1.49884,-1.356428 -2.40601,-0.885056 -9.03266,4.693455 -2.73872,2.305541 -5.2779,4.191894 -5.6426,4.191894 -0.36471,0 -1.58922,-0.386953 -2.72113,-0.859895 -1.13191,-0.472943 -2.18494,-0.859896 -2.34005,-0.859896 -0.15512,0 -0.59169,1.033537 -0.97016,2.296753 -0.37847,1.26321 -0.80149,2.183384 -0.94004,2.044832 -0.13856,-0.138558 0.0583,-1.191758 0.43735,-2.340447 0.61352,-1.858974 0.56183,-2.225496 -0.47028,-3.334676 -0.63776,-0.685363 -1.60192,-2.359397 -2.14258,-3.720061 l -0.98301,-2.473932 -1.83852,1.781974 c -1.71299,1.660281 -1.89365,1.714053 -2.64573,0.787412 -0.70164,-0.864482 -0.69474,-0.93712 0.0527,-0.555372 0.51235,0.261677 0.45802,0.10947 -0.13441,-0.376589 -0.54687,-0.448676 -0.87148,-0.985893 -0.72136,-1.193816 0.15012,-0.207923 -0.0351,-0.11729 -0.4116,0.201405 -0.7116,0.602351 -2.95175,6.14419 -4.0078,9.914787 -0.59491,2.12415 -1.59749,2.588063 -2.04176,0.944768 -0.18121,-0.670272 -0.1093,-0.663587 0.38534,0.03583 0.50677,0.716574 0.62392,0.644916 0.70289,-0.429948 0.0521,-0.709414 0.12057,-1.612305 0.1521,-2.006423 0.0315,-0.394119 0.26078,-0.866959 0.50946,-1.050753 0.24867,-0.1838 1.20554,-2.353724 2.12638,-4.822061 1.57363,-4.218167 1.64279,-5.690011 0.2878,-6.125009 -0.31529,-0.101221 -0.50877,-0.377511 -0.42994,-0.613983 0.0788,-0.236471 -0.15765,-0.429948 -0.5255,-0.429948 -0.36784,0 -0.50083,-0.167972 -0.29554,-0.373263 0.2053,-0.205297 -0.0742,-0.740365 -0.62103,-1.189041 -0.54687,-0.448677 -0.65459,-0.641775 -0.23938,-0.429105 0.50688,0.259631 0.69523,0.05727 0.57326,-0.615898 -0.17874,-0.986472 0.93574,-1.409828 3.80477,-1.445324 0.61606,-0.0076 1.44728,-0.285388 1.84716,-0.617256 0.77999,-0.647337 3.76788,-6.843862 3.45223,-7.159512 -0.10424,-0.104244 -1.01085,0.04601 -2.01467,0.333909 -1.25167,0.358972 -1.82514,0.327975 -1.82514,-0.09865 0,-0.342152 -0.56272,-0.130668 -1.25048,0.469965 l -1.25048,1.092061 1.10716,-1.552112 c 1.38369,-1.939773 2.52813,-2.45144 2.57868,-1.1529 0.0376,0.965165 1.6378,-3.340324 1.87102,-5.034051 0.14653,-1.064184 1.66541,-3.439583 2.19933,-3.439583 0.21633,0 0.51131,0.451445 0.6555,1.003212 0.14419,0.551766 0.30845,-0.157648 0.365,-1.576476 0.0948,-2.378766 0.15069,-2.468065 0.71712,-1.146528 0.33785,0.788238 0.57266,2.91648 0.5218,4.729427 l -0.0925,3.296268 h 2.02155 c 1.11185,0 2.02154,-0.208664 2.02154,-0.463696 0,-0.645319 -1.67909,-2.805525 -1.70156,-2.189114 -0.0251,0.690146 -1.73802,-0.788559 -1.73802,-1.500424 0,-0.319782 0.38022,-0.257707 0.85989,0.140386 1.13901,0.945285 1.08441,0.39787 -0.21667,-2.172577 -0.59211,-1.169796 -1.25688,-2.962342 -1.47726,-3.983435 -0.58537,-2.712148 -1.16475,-2.685649 -1.22415,0.05598 -0.0407,1.877828 -0.43941,2.77679 -1.8631,4.200484 -0.99624,0.996243 -1.81135,1.661319 -1.81135,1.477947 0,-0.18337 -1.65447,1.255302 -3.6766,3.19705 -2.02213,1.941747 -3.9268,3.530449 -4.23262,3.530449 -0.30581,0 -0.69627,0.536315 -0.86768,1.19181 -0.24188,0.924929 -0.10358,1.111961 0.61758,0.835226 0.82523,-0.316672 0.82055,-0.236481 -0.0418,0.716436 -1.1227,1.240563 -1.28835,2.106392 -0.28428,1.485842 0.37773,-0.233454 -0.49566,1.112227 -1.94089,2.990402 -2.43951,3.170336 -2.68184,3.79759 -3.38414,8.759636 l -0.75648,5.344774 1.60599,3.067392 c 0.88329,1.687064 1.57594,3.212072 1.53921,3.388907 -0.0367,0.176835 0.33595,1.1003 0.82817,2.052141 0.49221,0.951836 0.73797,1.984588 0.54613,2.295 -0.19185,0.31041 0.43642,2.01416 1.39615,3.78611 0.95972,1.77194 1.58222,3.48502 1.38333,3.80683 -0.20713,0.33514 -0.0789,0.41036 0.30022,0.17608 0.43542,-0.26911 0.66183,0.10062 0.66183,1.08079 0,0.8194 0.5257,2.52027 1.16821,3.7797 0.64252,1.25944 1.04082,2.49601 0.88511,2.74794 -0.1557,0.25194 0.0925,0.45807 0.55159,0.45807 0.45907,0 0.83468,-0.0946 0.83468,-0.21015 z M 57.60825,97.428452 c -0.55319,-1.441581 -0.39,-1.813549 0.28579,-0.651422 0.33461,0.575413 0.48762,1.16697 0.34002,1.314568 -0.1476,0.147598 -0.42921,-0.15082 -0.62581,-0.663146 z m -4.27718,-4.015237 c -0.9605,-2.108058 -0.77725,-2.557783 0.26133,-0.641345 0.48499,0.894934 0.77453,1.734421 0.64343,1.865527 -0.13111,0.131105 -0.53825,-0.419773 -0.90476,-1.224182 z m -2.29566,-7.141246 c 0,-0.788238 0.13011,-1.110699 0.28915,-0.71658 0.15903,0.394119 0.15903,1.039041 0,1.43316 -0.15904,0.394119 -0.28915,0.07166 -0.28915,-0.71658 z m 1.63805,-5.842121 c -0.005,-0.533158 0.24919,-1.128813 0.56449,-1.323677 0.72552,-0.448396 0.72552,0.310497 0,1.433159 -0.4789,0.741053 -0.55692,0.725919 -0.56449,-0.109482 z m 6.7613,-11.642427 c 0.29009,-0.63059 0.67091,-1.533481 0.84627,-2.006424 0.27542,-0.742803 0.325,-0.738207 0.36409,0.03375 0.0249,0.491505 -0.35592,1.394395 -0.84626,2.006424 -0.87726,1.094974 -0.88308,1.094434 -0.3641,-0.03375 z m 2.97541,-4.012847 c 0.74051,-0.788238 1.59706,-1.43316 1.90343,-1.43316 0.30638,0 -0.13884,0.644922 -0.98936,1.43316 -0.85052,0.788238 -1.70706,1.433159 -1.90343,1.433159 -0.19636,0 0.24885,-0.644921 0.98936,-1.433159 z M 96.35633,111.2672 c 2.61204,-1.70209 5.69277,-3.54431 6.84607,-4.09384 1.81108,-0.86293 2.22135,-1.44256 3.00964,-4.25202 0.50199,-1.78909 0.91271,-3.674988 0.91271,-4.190897 0,-1.063914 -3.8325,-5.006044 -4.86683,-5.006044 -0.37296,0 -2.46163,1.155339 -4.64149,2.56742 -4.27726,2.770751 -5.61777,3.088241 -7.15715,1.695113 -0.91162,-0.825002 -1.10592,-0.744641 -2.42562,1.003211 -2.11604,2.802547 -5.69073,9.531327 -5.44892,10.256737 0.18416,0.5525 7.5381,4.86003 8.61221,5.04455 0.22562,0.0388 2.54734,-1.32215 5.15938,-3.02423 z m -37.95901,0.48751 c 0,-1.16416 -0.9807,-1.51813 -1.37309,-0.49558 -0.56008,1.45956 -0.40428,1.94236 0.5132,1.59029 0.47294,-0.18149 0.85989,-0.6741 0.85989,-1.09471 z m 8.08865,0.10336 c -0.55838,-0.67282 -0.25348,-0.86989 1.78142,-1.15138 1.35031,-0.1868 2.76324,-0.38668 3.13984,-0.44418 0.3766,-0.0575 0.66851,-0.25502 0.64869,-0.43895 -0.1105,-1.02536 0.17758,-1.3859 0.58906,-0.73722 0.37117,0.58513 0.64436,0.53168 1.28107,-0.25065 0.71649,-0.88034 0.6945,-0.95134 -0.19185,-0.61918 -1.20613,0.452 -3.06338,-2.78875 -3.63041,-6.33476 -0.58505,-3.658731 -0.65366,-3.692387 -5.59851,-2.746284 -2.4295,0.464842 -4.6687,1.000554 -4.97598,1.190464 -0.90385,0.55861 -0.64451,3.4449 0.61105,6.80069 0.9092,2.43005 1.53682,3.25443 2.81759,3.70091 0.9063,0.31593 1.78086,0.44139 1.94346,0.27879 0.16261,-0.16261 0.62622,0.23368 1.03025,0.88063 0.40403,0.64695 0.84562,1.06526 0.98131,0.92957 0.13568,-0.13569 -0.0565,-0.61199 -0.42699,-1.05845 z m -10.13968,-0.67549 c 0.43926,-1.75012 0.031,-2.55945 -1.27907,-2.53589 -0.88925,0.016 -0.88645,0.0657 0.0338,0.60175 0.55177,0.32138 1.00322,0.83542 1.00322,1.14231 0,0.3069 -0.60103,0.16419 -1.33561,-0.31712 -1.53292,-1.00441 -2.10398,-0.67033 -2.10398,1.23086 0,1.09292 0.30324,1.33762 1.65765,1.33762 1.29804,0 1.73711,-0.31662 2.02396,-1.45953 z M 88.99993,96.764515 c 1.53962,-1.694671 3.99033,-3.762806 5.44601,-4.59585 1.45568,-0.833045 2.74795,-1.591467 2.8717,-1.685385 0.12376,-0.09392 -0.10614,-0.569767 -0.51088,-1.057448 -0.94963,-1.144241 -2.28924,-0.712114 -6.37457,2.05628 -3.44185,2.332347 -5.90717,3.241355 -6.44235,2.375417 -0.18118,-0.293173 0.42998,-0.554627 1.35814,-0.581021 0.92816,-0.02637 2.62107,-0.759993 3.76201,-1.630236 1.92206,-1.466025 1.99915,-1.63731 1.04945,-2.331751 -0.56375,-0.412222 -1.26035,-0.749496 -1.548,-0.749496 -0.81438,0 -8.06184,7.468458 -9.78015,10.07838 l -1.54016,2.339315 2.12471,3.8227 2.12471,3.82269 2.33004,-4.39118 c 1.28152,-2.41515 3.58972,-5.777738 5.12934,-7.472415 z m 19.65101,0.256152 c -0.15903,-0.394119 -0.28914,-0.07166 -0.28914,0.71658 0,0.788237 0.13011,1.110698 0.28914,0.716579 0.15903,-0.394118 0.15903,-1.03904 0,-1.433159 z m -13.36659,0.04231 c 0.99456,-0.686134 1.91419,-1.329474 2.04363,-1.429646 0.4823,-0.373246 -1.88156,-2.482215 -2.78222,-2.482215 -0.51481,0 -1.82358,0.740978 -2.9084,1.646614 -1.71581,1.432432 -1.87164,1.76798 -1.19799,2.579688 1.05918,1.276246 2.69296,1.170209 4.84498,-0.314441 z m 13.23915,-6.615414 0.30356,-4.462246 -0.73102,3.726215 c -0.40207,2.049419 -1.03098,4.267124 -1.39759,4.928235 -0.50758,0.915336 -0.5061,1.362482 0.006,1.874797 0.96236,0.962355 1.45169,-0.669876 1.81884,-6.067001 z m 1.95103,-3.459034 c 0.23293,-2.601185 0.25776,-4.729427 0.0551,-4.729427 -0.20259,0 -0.52984,2.128242 -0.72723,4.729427 -0.19739,2.601185 -0.48971,5.761302 -0.6496,7.022483 l -0.2907,2.293055 0.59442,-2.293055 c 0.32693,-1.261181 0.785,-4.421298 1.01793,-7.022483 z m -9.7188,6.525279 c 0.49426,-0.595546 0.4461,-0.953492 -0.20046,-1.49009 -0.74927,-0.621837 -0.75011,-0.807121 -0.007,-1.550169 0.90563,-0.905631 1.17416,-4.2016 0.34231,-4.2016 -0.27589,0 -1.32234,0.164149 -2.32545,0.364768 l -1.82384,0.364768 1.56707,1.635676 c 0.86189,0.899623 1.39465,1.808109 1.1839,2.018858 -0.21075,0.210749 -0.0959,0.729381 0.2553,1.152507 0.79415,0.956886 0.2623,0.989792 -1.2034,0.07444 -1.70057,-1.062017 -2.20173,0.05085 -0.583,1.294608 1.71334,1.31642 1.95684,1.345719 2.79464,0.33623 z m 3.33601,-3.586797 c -0.13616,-0.136156 -0.99275,0.03743 -1.90354,0.385749 l -1.65598,0.633308 1.71979,1.490589 1.71979,1.490583 0.18375,-1.876332 c 0.10106,-1.031984 0.0724,-1.987735 -0.0638,-2.123897 z m -26.89698,2.312844 c 0.28049,-0.501193 0.61951,-0.823654 0.7534,-0.716579 0.25139,0.201055 11.03034,-8.440566 15.19108,-12.178883 2.7692,-2.488062 2.54724,-3.964457 -0.59604,-3.964457 -2.0067,0 -5.15479,2.593451 -9.39416,7.739062 l -1.8892,2.293055 1.89713,-2.797659 c 1.04342,-1.538715 3.15343,-3.899467 4.68893,-5.246121 2.49424,-2.187474 3.0886,-3.708106 1.44936,-3.708106 -2.09754,0 -13.01722,10.018119 -15.93557,14.61988 -0.97751,1.541374 -1.7773,2.581109 -1.7773,2.310511 0,-0.270598 0.78665,-1.717871 1.7481,-3.216165 2.49276,-3.884631 9.73542,-10.587725 15.61564,-14.452296 2.77122,-1.821284 4.88423,-3.561148 4.6956,-3.866365 -0.18864,-0.305217 -1.16615,-0.580853 -2.17225,-0.612525 -1.78712,-0.05626 -1.777,-0.06983 0.4393,-0.588996 1.24772,-0.292276 2.56344,-0.418258 2.92384,-0.27996 0.39342,0.150968 0.67424,-0.415454 0.70272,-1.417428 0.0472,-1.660805 0.031,-1.668878 -3.35379,-1.668878 -3.24581,0 -3.40124,-0.06549 -3.40124,-1.43316 0,-0.788238 -0.23037,-1.43316 -0.51193,-1.43316 -0.71128,0 -1.29196,1.693199 -0.83452,2.433363 0.20813,0.336752 0.10864,0.444203 -0.22206,0.239821 -0.32953,-0.203656 -1.02025,0.272423 -1.53495,1.057954 C 84.80896,66.67733 84.4091,66.781 80.16814,66.781 c -2.51509,0 -4.5729,0.213291 -4.5729,0.473979 0,0.260688 -0.8384,0.343986 -1.86311,0.185105 -1.80393,-0.279698 -1.81758,-0.302042 -0.42995,-0.703467 1.17109,-0.338779 0.98764,-0.425044 -1.00321,-0.471738 -2.42118,-0.05679 -3.35166,0.766126 -1.43316,1.267483 0.8873,0.231874 -1.67204,0.648995 -2.85806,0.465807 -0.59616,-0.09208 -3.31032,5.413752 -3.2763,6.646152 0.0155,0.562248 0.7673,-0.525543 1.6706,-2.417314 0.9033,-1.891771 1.6645,-3.233296 1.69156,-2.981167 0.0271,0.252129 -0.30507,1.15502 -0.73807,2.006424 -1.55172,3.051133 -1.68041,4.127694 -0.49343,4.127694 0.59928,0 1.26906,-0.179445 1.48838,-0.398768 0.89257,-0.892567 5.07188,-1.244731 5.33733,-0.449743 0.10737,0.321557 -0.90286,1.756504 -2.24495,3.188775 -1.34209,1.432266 -1.91133,1.943084 -1.26497,1.135143 2.8387,-3.548329 2.84725,-3.395516 -0.15677,-2.800921 -7.3805,1.460831 -11.05054,2.337403 -11.05054,2.639358 0,0.182843 1.07944,1.989226 2.39875,4.014189 l 2.39876,3.681752 2.33067,-2.530696 c 1.28187,-1.391885 1.95977,-2.053958 1.50644,-1.47127 -0.69377,0.891735 -0.70663,1.396402 -0.0813,3.18839 1.23101,3.527671 2.28495,4.736175 5.39212,6.182875 3.52278,1.640199 3.62359,1.651533 4.27874,0.480836 z m 1.44425,-2.814954 c 0.48493,-0.945886 1.3105,-2.23573 1.8346,-2.86632 0.52409,-0.63059 0.37348,-0.114653 -0.33469,1.146528 -1.5624,2.782491 -2.73264,4.124267 -1.49991,1.719792 z m -6.50619,-4.660507 c 1.14886,-2.087374 4.5992,-6.641268 3.81221,-5.031514 -0.42231,0.86384 -4.3947,6.759136 -4.79244,7.11233 -0.17754,0.157648 0.26357,-0.778722 0.98023,-2.080816 z m 5.7427,-8.086661 c 0.99897,-1.335631 2.04558,-2.570115 2.3258,-2.7433 0.29366,-0.181496 0.27451,-0.974087 -0.0452,-1.871062 -0.52007,-1.459005 -0.5008,-1.486694 0.30853,-0.443402 0.47479,0.612029 0.85793,1.256951 0.85145,1.43316 -0.006,0.176209 -1.19194,1.610224 -2.63433,3.186699 -2.42408,2.649402 -2.48509,2.682543 -0.80624,0.437905 z m -0.13054,-7.358309 c -2.09929,-1.13888 -2.03486,-1.658382 0.0706,-0.569588 0.90591,0.468465 1.8088,0.690064 2.00642,0.492442 0.19762,-0.197622 0.35931,-0.05835 0.35931,0.309495 0,0.864379 -0.50325,0.816386 -2.43637,-0.232349 z m 4.01285,-0.05177 c 0.39412,-0.159031 1.03904,-0.159031 1.43316,0 0.39412,0.159031 0.0717,0.289146 -0.71658,0.289146 -0.78824,0 -1.1107,-0.130115 -0.71658,-0.289146 z m 4.88365,-0.590869 c 0.55777,-0.145347 1.33167,-0.135789 1.71979,0.02124 0.38812,0.15703 -0.0682,0.275951 -1.01412,0.264268 -0.94589,-0.01168 -1.26344,-0.140162 -0.70567,-0.285508 z m 12.45758,21.341568 c 0,-0.146555 -0.58043,-0.575741 -1.28984,-0.953751 -1.16959,-0.623206 -1.21649,-0.598361 -0.50308,0.266465 0.73254,0.887997 1.79292,1.294481 1.79292,0.687286 z m -4.98194,-1.71266 c 0.45793,-0.457929 0.9923,-0.672903 1.18748,-0.477718 0.19518,0.195179 0.35488,0.21448 0.35488,0.04288 0,-0.17159 -0.43648,-0.66603 -0.96994,-1.098758 -0.8366,-0.678607 -0.90028,-0.668558 -0.46322,0.07313 0.42411,0.719715 0.36044,0.741465 -0.39056,0.133427 -0.86322,-0.698883 -2.7624,-0.433153 -2.7624,0.386529 0,0.524674 1.2628,1.773111 1.7935,1.773111 0.22972,0 0.79233,-0.374669 1.25026,-0.832597 z m 6.93104,-3.647661 c -0.0315,-0.373516 -0.096,-1.198735 -0.14332,-1.83382 -0.0927,-1.24459 -1.10925,-1.232145 -6.03037,0.07382 l -2.21817,0.588656 1.54205,1.609553 c 1.4912,1.556486 1.63049,1.586989 4.22459,0.925231 1.4754,-0.376377 2.65675,-0.98993 2.62522,-1.363445 z m -8.255,0.180777 c -0.39251,-0.472942 -1.00453,-0.851692 -1.36004,-0.841666 -0.35551,0.01003 -0.14564,0.396986 0.46639,0.859896 1.42953,1.081245 1.79986,1.073689 0.89365,-0.01823 z m 2.86632,-2.828048 2.57968,-0.82147 -2.94613,-0.03835 c -2.15428,-0.02803 -3.30987,0.270116 -4.29947,1.10934 l -1.35335,1.147686 1.71979,-0.28787 c 0.94588,-0.15833 2.88065,-0.657534 4.29948,-1.109341 z M 49.18489,75.455082 c 0.46663,-0.871891 1.01757,-1.170663 1.73742,-0.942191 0.73894,0.234531 1.48073,-0.210548 2.48095,-1.488601 1.17287,-1.498641 1.33931,-2.128374 0.93509,-3.53782 -0.6625,-2.309989 -0.70136,-2.324472 -2.48089,-0.92469 -0.89898,0.707133 -1.42261,1.569951 -1.24061,2.044225 0.1732,0.451359 0.10065,0.68823 -0.16123,0.526382 -1.06253,-0.656679 -2.95124,4.615936 -2.87879,8.036573 l 0.0715,3.376794 0.42662,-2.906958 c 0.23465,-1.598827 0.73411,-3.481495 1.10993,-4.183714 z m 73.92368,6.284669 c 0.62217,-0.39405 0.52917,-0.585337 -0.43304,-0.890732 -0.67395,-0.213902 -2.02757,-1.06392 -3.00803,-1.888927 l -1.78266,-1.500014 1.22414,2.399522 c 1.21356,2.37877 2.3608,2.918074 3.99959,1.880151 z m 12.11489,-0.197209 c 0.006,-0.528457 0.12011,-0.541602 0.43284,-0.05005 0.65531,1.029983 4.04821,-0.625259 4.67821,-2.282284 0.28874,-0.759448 0.9317,-1.536886 1.4288,-1.727639 1.87231,-0.718478 0.95166,-2.025175 -1.70786,-2.423993 -2.24844,-0.337175 -2.80739,-0.207769 -4.01899,0.930463 -1.04824,0.984775 -1.22291,1.439161 -0.68459,1.780901 0.39749,0.252334 0.46474,0.461776 0.14945,0.465427 -1.42217,0.01645 -4.40323,-2.481418 -6.2705,-5.254161 -2.11872,-3.146122 -2.4792,-4.885064 -1.42212,-6.860245 0.34084,-0.636866 0.49001,-1.287635 0.3315,-1.446153 -0.15852,-0.158518 -0.68503,0.444006 -1.17002,1.338942 -0.485,0.894936 -0.89214,1.343401 -0.90476,0.996588 -0.0298,-0.817774 2.86876,-4.774228 4.57777,-6.248598 0.73095,-0.63059 1.14044,-0.824067 0.90999,-0.429948 -0.23045,0.394119 -0.21017,0.71658 0.0451,0.71658 0.25524,0 0.48605,0.867655 0.5129,1.928122 0.0418,1.651411 -0.1145,1.885411 -1.08923,1.630514 -1.5249,-0.398789 -2.68639,1.283588 -2.68639,3.891111 0,2.115294 2.85528,7.455096 3.98637,7.455096 1.16137,0 4.1317,-2.1683 3.50279,-2.556988 -0.91945,-0.568251 -3.4848,-5.82774 -3.42704,-7.026124 0.0329,-0.682996 0.19433,-0.545397 0.48635,0.414602 0.53606,1.76229 2.26314,5.155663 2.624,5.155663 0.14513,0 -0.22815,-1.354336 -0.8295,-3.009635 -1.01029,-2.780941 -1.98691,-7.361391 -1.75689,-8.239956 0.33446,-1.277466 -6.9901,-2.000746 -7.75344,-0.765631 -0.2028,0.32812 -0.92743,0.440206 -1.61031,0.249079 -0.84473,-0.236424 -1.00069,-0.179922 -0.48792,0.176762 0.58022,0.403599 0.0194,1.547636 -2.43637,4.970541 -1.75453,2.445452 -3.19006,4.833719 -3.19006,5.30726 0,0.529796 -0.33076,0.734055 -0.85989,0.531009 -0.47294,-0.181485 -0.8599,-0.0801 -0.8599,0.225299 0,0.3054 0.22573,0.555272 0.50161,0.555272 0.27588,0 0.65707,0.709414 0.84709,1.576476 0.86832,3.962188 3.94808,5.452571 9.4906,4.592772 4.03505,-0.625947 4.37202,-0.887733 3.03802,-2.360196 -0.61258,-0.676149 -1.56291,-2.003271 -2.11186,-2.949156 l -0.99808,-1.719792 1.18425,1.43316 c 0.65132,0.788238 1.75902,2.17658 2.46155,3.085203 0.70252,0.908623 2.3259,2.15154 3.6075,2.762031 1.70794,0.813576 1.90789,1.019774 0.74877,0.772164 -0.9064,-0.193626 -2.26068,0.01341 -3.17276,0.48509 -0.87524,0.452603 -2.6143,1.020788 -3.86459,1.262637 -2.09302,0.404861 -2.15962,0.472403 -0.84008,0.851898 2.55651,0.735251 8.59803,0.601813 8.60773,-0.190117 z M 137.0887,79.5688 c 0.55777,-0.145345 1.33168,-0.135789 1.71979,0.02121 0.38812,0.157034 -0.0682,0.275952 -1.01412,0.264269 -0.94588,-0.0117 -1.26344,-0.140163 -0.70567,-0.285508 z m -0.26171,-1.140864 c 0.41382,-0.165598 0.90826,-0.145236 1.09876,0.04523 0.19049,0.190496 -0.1481,0.325981 -0.75241,0.30109 -0.66783,-0.02752 -0.80366,-0.163346 -0.34635,-0.346343 z m -11.00034,-8.516149 c -0.1966,-0.512328 -0.3411,-1.232868 -0.32111,-1.6012 0.02,-0.368331 0.28349,-0.05181 0.58558,0.703379 0.30208,0.755189 0.44658,1.475729 0.32111,1.601199 -0.12547,0.12547 -0.38898,-0.19105 -0.58558,-0.703378 z m -5.15664,-2.103263 c 0.39284,-0.635645 1.93287,-0.569216 1.93287,0.08337 0,0.2957 -0.49806,0.500119 -1.10681,0.454263 -0.60875,-0.04586 -0.98048,-0.287792 -0.82606,-0.537636 z m 5.38123,-7.190113 c 0.007,-0.793431 0.11341,-0.838011 0.50917,-0.213189 0.2915,0.460221 0.80344,0.602731 1.22633,0.341375 0.47264,-0.292108 0.5832,-0.217722 0.31689,0.213188 -0.63093,1.020866 -2.06223,0.782799 -2.05239,-0.341374 z m -8.90345,18.993092 c -1.45111,-2.138326 -2.5618,-5.347531 -2.56741,-7.418223 -0.003,-1.343699 3.07154,-6.66851 5.67585,-9.827987 1.27316,-1.544561 1.55811,-2.245523 1.04527,-2.571299 -0.98642,-0.626616 -2.1382,-0.573644 -2.1382,0.09834 0,0.31007 -1.57853,2.857001 -3.50783,5.659846 -2.9726,4.318524 -3.51928,5.500263 -3.5829,7.745063 -0.0413,1.45694 -0.30407,2.650556 -0.58395,2.652482 -0.27988,0.0017 -0.34463,-1.393921 -0.1439,-3.101876 0.35294,-3.002981 0.31302,-3.124353 -1.21091,-3.680958 -0.86675,-0.316571 -1.23648,-0.59595 -0.82163,-0.620842 0.41485,-0.02489 1.23947,0.214417 1.8325,0.531797 1.37575,0.736279 2.47558,-0.871418 1.65063,-2.412845 -0.39244,-0.733283 -0.18528,-1.550166 0.76519,-3.017342 0.71682,-1.106513 1.50992,-2.015034 1.76244,-2.018937 0.25252,-0.0039 -0.23862,0.907693 -1.09142,2.025771 -1.05324,1.380864 -1.36314,2.220272 -0.96624,2.617176 0.39691,0.396904 1.16009,-0.198627 2.37952,-1.856797 1.21716,-1.655067 1.58439,-2.571403 1.14049,-2.84575 -0.46281,-0.286032 -0.42029,-0.481564 0.14506,-0.667057 0.43988,-0.144328 0.28385,-0.159135 -0.34674,-0.0329 -0.63059,0.126229 -3.13577,0.383348 -5.56707,0.571377 -4.29035,0.3318 -4.46172,0.402817 -5.81861,2.411219 -0.76893,1.138142 -1.53238,2.585287 -1.69655,3.215877 -0.16417,0.63059 -0.45601,1.697584 -0.64853,2.371098 -0.50566,1.769008 2.16622,4.7947 4.23402,4.7947 0.86899,0 2.04689,0.515937 2.61757,1.146527 0.57068,0.630591 1.32339,1.146528 1.67271,1.146528 0.34931,0 0.88975,0.574095 1.20099,1.275765 0.60992,1.375036 3.98139,3.88361 5.2195,3.88361 0.50855,0 0.29479,-0.68235 -0.64985,-2.074355 z M 104.11512,68.121127 c 0.39412,-0.15903 1.03904,-0.15903 1.43316,0 0.39412,0.159031 0.0717,0.289147 -0.71658,0.289147 -0.78824,0 -1.1107,-0.130116 -0.71658,-0.289147 z m 2.90215,-0.01194 c 0.41382,-0.165599 0.90826,-0.145233 1.09876,0.04526 0.19049,0.190491 -0.1481,0.325982 -0.75241,0.30109 -0.66783,-0.0275 -0.80366,-0.163346 -0.34635,-0.346347 z m -9.60031,6.104074 c 0.8391,-0.449075 1.09903,-1.181197 1.06854,-3.009636 -0.0418,-2.508579 -0.98397,-5.767089 -1.06594,-3.686712 -0.0222,0.5624 -0.94318,1.555264 -2.04672,2.206365 -1.10353,0.6511 -2.00642,1.386219 -2.00642,1.633597 0,0.247379 -0.54189,0.591487 -1.20421,0.764686 -1.49535,0.391043 -0.8977,1.535462 0.8081,1.547384 0.6908,0.0048 1.64296,0.258846 2.1159,0.564485 1.07127,0.692304 0.9983,0.692936 2.33075,-0.02017 z m -2.02002,-0.751222 c -1.33485,-0.976064 -0.8048,-2.668194 0.8358,-2.668194 1.50378,0 2.1286,1.556671 1.05552,2.629745 -0.6967,0.696699 -0.98314,0.702522 -1.89132,0.03845 z m 1.83928,-1.091719 c -0.36117,-1.084724 -2.15001,-1.238938 -2.15001,-0.18535 0,0.53178 0.49014,0.90193 1.1943,0.90193 0.70052,0 1.09566,-0.296272 0.95571,-0.71658 z m 50.85418,1.090717 c 0.73191,-0.535188 0.85359,-0.897679 0.3962,-1.18036 -0.36306,-0.224383 -0.66011,-0.700019 -0.66011,-1.056969 0,-0.356949 0.35568,-0.162579 0.7904,0.431933 0.7536,1.030616 0.86039,1.035068 2.29413,0.09564 2.03591,-1.333978 4.88379,-5.658224 3.93475,-5.974568 -0.39236,-0.130786 -0.71338,-0.603248 -0.71338,-1.049916 0,-1.144843 -0.50089,-1.012294 -1.80524,0.47772 l -1.12912,1.289843 1.00815,-1.719791 1.00815,-1.719792 -1.44102,1.289844 c -0.79257,0.709414 -1.85693,1.289844 -2.36526,1.289844 -0.50832,0 -1.0422,0.451445 -1.18639,1.003211 -0.19464,0.744806 -0.2793,0.666341 -0.32867,-0.304623 -0.0392,-0.770728 0.3455,-1.453948 0.93671,-1.663612 2.94074,-1.042895 4.00352,-4.439005 2.06089,-6.585583 -2.27488,-2.513713 -6.58634,-0.541121 -6.445,2.948734 0.0492,1.215532 0.13235,1.136879 0.51601,-0.488289 0.51931,-2.19968 1.3656,-2.914137 3.46682,-2.926754 1.94092,-0.01165 2.83765,0.981941 2.83765,3.144173 0,0.977415 -0.30956,2.08668 -0.68791,2.465034 -0.90158,0.901572 -4.04521,0.883421 -4.96404,-0.02866 -0.57881,-0.574567 -0.64585,-0.516884 -0.33825,0.291058 0.91659,2.407538 -3.60608,6.139895 -7.4815,6.174134 l -2.29305,0.02026 1.60368,1.410951 c 2.36447,2.080302 4.3,2.412534 5.34695,0.917799 1.04328,-1.489495 1.93496,-1.575475 1.93496,-0.18658 0,1.156353 1.04544,2.407709 2.01151,2.407709 0.34962,0 1.11101,-0.347576 1.69198,-0.77239 z m -2.44521,-1.234033 c 0.0117,-0.945885 0.14017,-1.263437 0.28551,-0.705669 0.14535,0.557767 0.13579,1.331673 -0.0213,1.719791 -0.157,0.388118 -0.27592,-0.06824 -0.26424,-1.014122 z m 8.56033,-0.71658 c 0.71306,-0.909228 0.69279,-0.929505 -0.21644,-0.216438 -0.55177,0.432724 -1.00322,0.88417 -1.00322,1.003211 0,0.471816 0.47076,0.16814 1.21966,-0.786773 z M 102.38194,69.64776 c 0.26866,-4.728581 3.99293,-9.37779 8.05596,-10.056697 3.20197,-0.535031 3.50516,-0.740408 1.16697,-0.790502 -4.16533,-0.08924 -7.74549,2.327484 -9.69919,6.547277 -1.22514,2.646188 -1.41263,5.792262 -0.37025,6.212872 0.39412,0.159031 0.71658,0.308176 0.71658,0.331434 0,0.02326 0.0585,-0.986715 0.12993,-2.244384 z m 40.89169,-3.463705 c 0.9276,-0.660507 1.68654,-1.343926 1.68654,-1.51871 0,-0.174784 -0.38695,0.0033 -0.8599,0.395861 -0.47294,0.392507 -0.85989,0.574177 -0.85989,0.403711 0,-0.170467 -0.15332,-0.782483 -0.34071,-1.360037 -0.22315,-0.687778 -0.1669,-0.810735 0.16303,-0.356363 0.3104,0.427479 0.49617,-0.596264 0.48403,-2.667375 -0.0108,-1.84861 -0.21024,-3.24376 -0.4431,-3.100333 -0.23286,0.143428 -0.2719,-0.133968 -0.0868,-0.616436 0.20485,-0.533851 -0.36427,-1.578098 -1.45399,-2.667819 -1.48703,-1.487029 -1.93721,-1.668934 -2.65534,-1.072942 -0.76194,0.632356 -0.72617,0.865149 0.3009,1.958413 1.57156,1.672855 1.46709,3.497187 -0.30156,5.265832 -1.09178,1.091787 -1.89849,1.403871 -3.15295,1.219756 -1.91628,-0.281251 -1.89743,-0.342824 -1.07243,3.504021 0.48184,2.246747 0.88129,2.905507 1.86311,3.072555 1.49787,0.254851 4.41283,-0.810856 6.72902,-2.460134 z m -1.08927,-4.562433 c 0,-0.788237 0.13012,-1.110698 0.28915,-0.716579 0.15903,0.394119 0.15903,1.03904 0,1.433159 -0.15903,0.394119 -0.28915,0.07166 -0.28915,-0.71658 z m 16.64052,0.424853 c -0.82917,-0.829167 -1.53987,-0.965778 -3.44197,-0.66162 -2.87253,0.459337 -3.00325,1.031492 -0.57329,2.509243 1.72344,1.048084 1.91278,1.056512 3.44197,0.153198 1.56576,-0.924915 1.58434,-0.989767 0.57329,-2.000821 z m -27.62304,-0.624708 c 0,-0.315295 -0.64492,0.03261 -1.43316,0.773119 -0.78824,0.740511 -1.43316,1.604353 -1.43316,1.919648 0,0.315295 0.64492,-0.03261 1.43316,-0.77312 0.78824,-0.740511 1.43316,-1.604352 1.43316,-1.919647 z m -36.83221,2.082308 c -0.86706,-0.131349 -2.28589,-0.131349 -3.15295,0 -0.86706,0.131349 -0.15765,0.238816 1.57648,0.238816 1.73412,0 2.44353,-0.107467 1.57647,-0.238816 z m 55.63526,-0.850578 c 1.52341,-1.523402 0.41654,-4.471458 -1.67884,-4.471458 -1.18189,0 -2.79262,1.487911 -2.79262,2.579688 0,2.005164 3.06243,3.300805 4.47146,1.89177 z m -69.25027,-0.61198 c 1.41882,-0.002 2.95166,-0.290779 3.40631,-0.641718 0.66049,-0.509839 0.72479,-0.465259 0.3199,0.221823 -0.45041,0.764352 -0.38903,0.764352 0.55249,0 0.92698,-0.752549 0.94423,-0.882358 0.13816,-1.039831 -0.73476,-0.143542 -0.81065,-0.470322 -0.37521,-1.615616 l 0.54584,-1.435678 -4.75083,0.148742 c -2.61296,0.08181 -5.04615,-0.03377 -5.40709,-0.256844 -1.25084,-0.773056 -1.4989,0.939064 -0.27917,1.926745 0.96925,0.784849 1.70515,0.886074 3.67412,0.505389 1.35416,-0.261816 3.10703,-0.45834 3.89527,-0.436719 0.78823,0.02162 -0.37262,0.37465 -2.57969,0.784509 l -4.01285,0.745196 -2.00642,-1.982999 c -1.10353,-1.09065 -1.58827,-1.827041 -1.07719,-1.636424 1.87752,0.700253 1.55243,-1.503082 -0.94996,-6.438551 -2.71798,-5.360656 -2.94107,-6.162013 -1.8954,-6.808277 0.45398,-0.280575 0.56219,-0.02243 0.3426,0.817303 -0.33156,1.267865 1.63623,4.477064 4.06929,6.636471 1.33701,1.186635 1.74017,2.624309 0.43131,1.538049 -0.67659,-0.561521 -0.69786,-0.374486 -0.13867,1.21965 1.00733,2.87174 1.53441,3.522005 2.2637,2.792724 0.34276,-0.342767 2.48019,-0.623213 4.74982,-0.623213 h 4.12662 l 1.52637,-2.436372 c 0.87785,-1.40123 1.38972,-1.888356 1.20474,-1.146528 -0.83934,3.366032 -0.84095,3.727116 -0.009,1.931038 0.49408,-1.066171 0.76119,-2.295862 0.59358,-2.732647 -0.16761,-0.436785 0.2038,-1.628213 0.82535,-2.647618 0.62152,-1.019405 1.12708,-2.498385 1.12343,-3.286623 -0.005,-1.091986 -0.13177,-1.235361 -0.53228,-0.602272 -0.4118,0.650935 -2.24871,0.855466 -8.48145,0.944376 -6.88959,0.09828 -8.13945,-0.02504 -9.32612,-0.920143 -1.15852,-0.873872 -1.25502,-1.172561 -0.62433,-1.932491 0.67468,-0.812939 0.90996,-0.814066 2.46139,-0.01179 0.94347,0.487888 1.58454,1.017932 1.42459,1.177877 -0.15994,0.159944 -0.82884,0.0029 -1.48643,-0.349072 -0.65801,-0.352155 -1.19563,-0.400618 -1.19563,-0.107777 0,0.292655 0.40805,0.688684 0.90679,0.880065 1.51113,0.579876 3.10553,0.391192 3.11484,-0.368615 0.006,-0.48492 0.14494,-0.516573 0.42995,-0.09791 0.45127,0.662898 11.26522,0.76691 11.9175,0.114627 0.20294,-0.202941 -0.23696,-0.225238 -0.97757,-0.04955 -1.31464,0.311866 -1.31953,0.298569 -0.20634,-0.56127 0.62712,-0.484387 1.32897,-0.764045 1.55967,-0.621461 0.78033,0.482269 1.10994,-2.463638 0.88095,-7.873552 -0.26416,-6.240824 -0.61018,-7.850951 -1.95131,-9.080073 -0.91344,-0.837139 -0.91333,-0.795151 0.002,0.68464 0.53617,0.867062 0.77543,1.568271 0.53169,1.558244 -0.76322,-0.0314 -2.44791,-1.512144 -2.10759,-1.852461 0.81131,-0.81131 -1.10592,-2.619796 -3.48282,-3.285289 -4.07101,-1.139811 -9.43319,-0.489716 -12.39931,1.503252 -2.07573,1.39471 -2.60746,2.17196 -3.47935,5.08589 -1.12554,3.761644 -1.32714,6.01927 -0.53749,6.01927 0.27898,0 0.37652,1.62855 0.21675,3.619 -0.15978,1.990449 0.024,5.483767 0.40846,7.762928 0.61681,3.656856 0.80451,4.056897 1.59689,3.403483 0.78542,-0.647662 0.82118,-0.596315 0.28538,0.409759 -0.9598,1.802223 0.53163,5.215982 3.67152,8.403802 1.8294,1.857324 3.04204,2.667769 3.62138,2.420273 0.47906,-0.204652 2.03187,-0.373735 3.4507,-0.37574 z M 68.23332,43.850442 c 0,-0.788237 0.13012,-1.110698 0.28915,-0.716579 0.15903,0.394118 0.15903,1.03904 0,1.433159 -0.15903,0.394119 -0.28915,0.07166 -0.28915,-0.71658 z m 2.20255,-1.433159 c 0,-0.472943 0.24987,-0.859896 0.55527,-0.859896 0.3054,0 0.40678,0.386953 0.2253,0.859896 -0.18149,0.472942 -0.43136,0.859895 -0.55528,0.859895 -0.12391,0 -0.22529,-0.386953 -0.22529,-0.859895 z m -0.48276,-3.726215 c 0,-0.788238 0.13012,-1.110699 0.28915,-0.71658 0.15903,0.394119 0.15903,1.03904 0,1.433159 -0.15903,0.394119 -0.28915,0.07166 -0.28915,-0.716579 z m 1.14653,-0.573264 c 0,-0.788238 0.13012,-1.110699 0.28915,-0.71658 0.15903,0.394119 0.15903,1.039041 0,1.433159 -0.15903,0.394119 -0.28915,0.07166 -0.28915,-0.716579 z m 9.45578,-1.003212 c -0.14678,-0.236472 0.79162,-0.429948 2.08532,-0.429948 2.01925,0 2.40928,-0.202853 2.75558,-1.43316 0.33861,-1.203022 0.41256,-1.244447 0.46053,-0.257968 0.0314,0.646355 -0.25242,1.484753 -0.63078,1.863107 -0.75366,0.753666 -4.24335,0.946407 -4.67065,0.257969 z m -9.76126,-2.50803 c -0.65297,-3.264833 -0.40653,-4.988918 0.83768,-5.860398 0.95415,-0.668316 1.07633,-1.06126 0.60423,-1.943386 -0.45258,-0.845661 -0.4043,-1.105692 0.20534,-1.105692 0.43839,0 0.74692,0.264146 0.68561,0.58699 -0.18462,0.972176 1.6932,1.061572 2.62959,0.125184 0.78289,-0.782887 0.90941,-0.780988 1.21611,0.01825 0.18827,0.490627 0.34172,0.935444 0.341,0.98848 -5.7e-4,0.05304 -0.72322,0.121298 -1.60557,0.151693 -0.88235,0.03039 -2.30939,0.517275 -3.1712,1.081957 -1.49912,0.982262 -1.55048,1.172144 -1.1867,4.387532 0.40341,3.565704 0.0453,4.576359 -0.55609,1.569389 z m 7.83389,-0.871131 c -0.38137,-1.530884 -0.8552,-3.428348 -1.05294,-4.216586 -0.19962,-0.795701 -0.14618,-1.178176 0.12014,-0.859895 0.26382,0.315295 2.08244,0.589064 4.04138,0.608376 2.77332,0.02734 3.60953,-0.162998 3.77776,-0.859896 0.11883,-0.492255 0.21665,0.320409 0.21737,1.805919 5.7e-4,1.48551 -0.22016,2.564052 -0.49084,2.396759 -0.27069,-0.167291 -0.37599,-0.492135 -0.234,-0.721873 0.77975,-1.261675 -1.40879,-2.044 -5.19458,-1.85687 -1.14126,0.05641 -1.19066,0.230969 -0.69261,2.447616 0.77366,3.443321 0.33339,4.568399 -0.49168,1.25645 z m 6.4301,-7.076339 c -0.20083,-0.32496 0.0293,-0.421066 0.53943,-0.225299 0.99314,0.381101 1.17484,0.791997 0.35024,0.791997 -0.29668,0 -0.69704,-0.255014 -0.88967,-0.566698 z m 13.79492,32.835172 c 1.41422,-1.807032 2.77141,-2.238282 8.9507,-2.844099 2.72281,-0.266944 3.53869,-0.120119 4.96124,0.892828 2.01393,1.434043 3.82235,1.626779 3.30667,0.352414 -0.19139,-0.472942 -0.50455,-1.246849 -0.69593,-1.719791 -0.63027,-1.557528 2.20908,-0.987817 3.57131,0.71658 0.693,0.867061 1.47572,1.362375 1.73939,1.100698 0.80878,-0.80269 -3.44962,-4.17743 -6.90048,-5.468564 -4.25218,-1.590944 -9.94714,-1.666636 -11.8866,-0.157985 -0.75193,0.58491 -2.39902,1.215181 -3.66021,1.400602 l -2.29305,0.33713 2.00642,-0.601453 c 3.65725,-1.096312 3.79187,-1.162272 2.98504,-1.46257 -2.85225,-1.061583 -9.29094,4.680998 -9.29094,8.286455 0,0.896894 0.4383,1.043045 2.92661,0.975866 2.5275,-0.06824 3.11115,-0.314812 4.27983,-1.808111 z m 63.25126,0.629429 c -0.35814,-0.431544 -0.54493,-1.508531 -0.41508,-2.393304 0.21525,-1.466536 0.0988,-1.588532 -1.31737,-1.380675 -1.46191,0.214563 -1.51966,0.334423 -0.97968,2.033376 0.3156,0.992955 0.66429,2.10781 0.77488,2.477454 0.11222,0.375082 0.72858,0.534138 1.39476,0.359928 0.93549,-0.244638 1.05283,-0.481859 0.54249,-1.096779 z m -24.64058,-0.559454 c 0.97008,-0.816265 1.73386,-1.912632 1.69728,-2.436371 -0.0613,-0.877334 -0.0862,-0.877953 -0.31733,-0.0079 -0.13796,0.519409 -0.77892,1.082476 -1.42435,1.251258 -0.6676,0.174583 -1.00527,0.579069 -0.78328,0.938263 0.25914,0.419302 -0.1066,0.541295 -1.08885,0.363179 -1.41791,-0.257116 -1.90569,0.184684 -1.09689,0.993486 0.64016,0.64016 1.17586,0.444267 3.01342,-1.101944 z m 19.39165,0.918684 c 0.39411,-0.0043 0.71658,-0.213997 0.71658,-0.46598 0,-0.251984 -0.90289,-0.352745 -2.00643,-0.223914 -1.10353,0.128832 -2.00642,0.494071 -2.00642,0.811645 0,0.319034 0.57717,0.422731 1.28984,0.231741 0.70942,-0.190116 1.61231,-0.349187 2.00643,-0.353492 z M 89.58994,59.758515 c -0.31194,-0.552512 -0.23776,-0.562464 0.32399,-0.04347 0.57378,0.530121 1.01508,0.107157 2.07729,-1.990988 1.37933,-2.724521 1.1704,-3.822395 -0.65948,-3.465317 -1.3822,0.269723 -3.48297,6.21635 -2.19606,6.21635 0.52065,0 0.69952,-0.282164 0.45426,-0.71658 z m 77.72752,-0.481859 c 0.56154,-0.317689 0.61126,-0.492537 0.14332,-0.50392 -0.41015,-0.01 -0.71658,-0.752865 -0.71658,-1.737225 0,-1.736075 -0.65398,-2.092801 -2.52231,-1.375855 -0.70508,0.270567 -0.76523,0.588792 -0.28198,1.491766 0.33787,0.631306 0.4835,1.647993 0.32364,2.259303 -0.24034,0.919067 -0.0756,1.045774 0.95168,0.731946 0.68328,-0.20874 1.62929,-0.598447 2.10223,-0.866015 z m -4.01285,-0.807985 c 0,-0.788238 -0.23514,-1.43316 -0.52254,-1.43316 -0.28739,0 -0.43611,0.451446 -0.33049,1.003212 0.10563,0.551767 0.21179,1.196689 0.23591,1.43316 0.11148,1.092811 0.61712,0.270829 0.61712,-1.003212 z m -9.97218,-0.143316 c -0.33274,-0.95544 -0.31218,-0.95544 0.43181,0 1.17641,1.51078 3.16218,1.268001 3.82192,-0.467267 0.72363,-1.903276 0.71052,-1.991234 -0.24227,-1.625613 -0.97452,0.373957 -3.2115,-1.899761 -3.2115,-3.264237 0,-1.297654 -1.81511,-0.842534 -2.77596,0.696043 -0.61062,0.977757 -0.52443,1.305871 0.60166,2.290268 l 1.31441,1.149009 -1.71979,-1.030669 -1.7198,-1.030669 1.7198,2.101785 c 1.95628,2.39081 2.27447,2.602014 1.77972,1.18135 z M 134.2801,57.465459 c 0.59608,-2.224255 0.39498,-3.73395 -0.54546,-4.09483 -1.48643,-0.570396 -1.95954,-0.405274 -1.95954,0.68391 0,0.567532 -0.25558,1.287452 -0.56795,1.599824 -0.69245,0.692452 0.83512,3.10094 1.96676,3.10094 0.41829,0 0.91608,-0.58043 1.10619,-1.289844 z m 2.49237,-0.944909 c 0.0489,-0.65024 -0.14955,-1.329717 -0.44117,-1.509949 -0.29507,-0.182364 -0.36281,0.108574 -0.15274,0.656018 0.25612,0.66741 0.16184,0.850431 -0.29319,0.569205 -0.36888,-0.227977 -0.67069,-0.16241 -0.67069,0.145706 0,0.308115 -0.16809,0.998272 -0.37355,1.533681 -0.31236,0.813986 -0.19204,0.87633 0.73436,0.380533 0.60935,-0.326117 1.14799,-1.124954 1.19698,-1.775194 z m 32.43704,0.136999 c -0.34643,-0.902782 -1.89205,-1.04256 -1.89205,-0.171106 0,0.328603 0.32246,0.944977 0.71658,1.36972 0.82379,0.887802 1.65203,0.04326 1.17547,-1.198614 z m -50.90611,0.377962 c -0.57068,-0.63059 -1.39364,-1.146527 -1.82881,-1.146527 -0.61357,0 -0.65345,0.257415 -0.17761,1.146527 0.33748,0.630591 1.16044,1.146528 1.82881,1.146528 1.17889,0 1.1842,-0.03426 0.17761,-1.146528 z m 54.77441,0.09284 c 1.7592,-1.42452 0.99523,-2.385897 -1.89599,-2.385897 -1.84634,0 -2.221,0.152871 -1.68596,0.687917 0.37836,0.378354 0.68792,1.15226 0.68792,1.719791 0,1.326678 1.24025,1.31733 2.89403,-0.02181 z m -26.2886,-1.075728 c 0.60594,-0.17478 1.18065,-1.271203 1.53349,-2.925576 0.65032,-3.049149 0.37136,-3.920173 -0.86086,-2.687954 -0.98066,0.980662 -3.34878,0.64477 -4.89242,-0.693937 -0.84827,-0.735659 -1.03054,-0.694148 -1.59664,0.363627 -0.35148,0.656748 -0.4365,1.200186 -0.18894,1.207639 0.24756,0.0075 1.20113,1.028842 2.11903,2.269755 0.91791,1.240913 1.92515,2.097847 2.23831,1.904299 0.34782,-0.214961 0.38476,-0.05315 0.0949,0.415804 -0.35496,0.574336 -0.99489,0.16346 -2.54058,-1.631218 -1.13636,-1.31941 -2.27054,-2.398927 -2.52042,-2.398927 -0.24986,0 0.53108,1.153474 1.73543,2.563276 1.4165,1.658134 2.49338,2.44489 3.04963,2.228017 0.47294,-0.184394 1.29601,-0.461055 1.82904,-0.614805 z m 3.58939,-1.635166 c 0.757,-1.155322 0.81767,-1.648056 0.28237,-2.293056 -1.15315,-1.389458 -1.68795,-0.923227 -1.68795,1.471525 0,1.261181 0.0993,2.293056 0.2207,2.293056 0.12138,0 0.65458,-0.662187 1.18488,-1.471525 z m -19.75003,0.0045 c 0,-0.491551 -0.25796,-0.734295 -0.57326,-0.539432 -0.3153,0.194863 -0.57326,0.597041 -0.57326,0.893728 0,0.296688 0.25796,0.539432 0.57326,0.539432 0.3153,0 0.57326,-0.402178 0.57326,-0.893728 z m 25.78538,0.01998 c -0.39883,-0.480562 -0.8432,-0.755694 -0.98749,-0.611404 -0.39756,0.397558 0.41019,1.485154 1.10301,1.485154 0.38013,0 0.33664,-0.328929 -0.11552,-0.87375 z m 1.68477,-1.932885 c -0.67794,-0.916959 -0.9969,-1.954405 -0.77704,-2.527359 0.47874,-1.247554 0.95986,-1.223959 2.62316,0.128638 1.20969,0.983719 1.45489,1.009195 2.30992,0.239992 0.88994,-0.800614 0.87687,-0.940256 -0.18764,-2.004768 -0.62932,-0.629316 -0.9951,-1.532774 -0.81286,-2.007685 0.18224,-0.474911 0.1044,-0.777425 -0.17298,-0.672256 -0.91828,0.348173 -6.37562,5.196076 -6.37562,5.663638 0,0.252386 0.67407,1.259976 1.49794,2.239088 1.16267,1.38175 1.67109,1.636503 2.27153,1.138183 0.63952,-0.530759 0.5743,-0.911577 -0.37641,-2.197471 z m 2.0128,-0.567994 c 0.37447,-0.605908 -1.26864,-2.100207 -1.76432,-1.604529 -0.47764,0.477643 0.21328,2.112838 0.89274,2.112838 0.30659,0 0.6988,-0.228739 0.87158,-0.508309 z m -8.27218,-0.92485 c -0.39251,-0.472943 -1.10061,-0.859896 -1.57355,-0.859896 -0.69935,0 -0.72666,0.160542 -0.14624,0.859896 0.3925,0.472943 1.1006,0.859896 1.57354,0.859896 0.69936,0 0.72666,-0.160542 0.14625,-0.859896 z m 2.57968,-1.43316 c 0.86215,-1.667202 0.84945,-1.72006 -0.41522,-1.72857 -1.55391,-0.01046 -2.35381,-0.493223 -3.10823,-1.875938 -0.5128,-0.939856 -0.62199,-0.907417 -1.31703,0.391275 -0.92469,1.72781 -0.45035,3.213233 1.02608,3.213233 0.60189,0 1.41547,0.386953 1.80798,0.859896 0.94727,1.141387 0.97842,1.128034 2.00642,-0.859896 z m -8.01022,0.02504 c -0.18635,-0.301523 -0.71751,-0.402907 -1.18036,-0.225297 -1.185,0.454728 -1.04536,0.773526 0.33883,0.773526 0.6492,0 1.02789,-0.246702 0.84153,-0.548227 z m -0.37376,-0.956589 c 1.41762,-0.283523 1.79145,-0.649461 1.79145,-1.753624 0,-0.874259 -0.23702,-1.24885 -0.63468,-1.00308 -0.4271,0.263961 -0.50821,-0.0062 -0.248,-0.826064 0.32573,-1.026297 0.15471,-1.218317 -1.08511,-1.218317 -0.80949,0 -1.47179,0.257969 -1.47179,0.573264 0,0.315295 0.38695,0.573264 0.85989,0.573264 0.47295,0 0.8599,0.257969 0.8599,0.573264 0,0.925664 -1.05884,0.660955 -2.29306,-0.573264 l -1.14652,-1.146528 v 2.579688 c 0,2.765539 0.15059,2.864864 3.36792,2.221397 z m 18.08932,-0.723283 c 0.37448,-0.605908 -1.26863,-2.100207 -1.76431,-1.604529 -0.47765,0.477644 0.21327,2.112838 0.89274,2.112838 0.30658,0 0.69879,-0.228739 0.87157,-0.508309 z m -10.31235,-1.527797 c -1.07051,-0.855791 -1.05835,-0.876138 0.32038,-0.535711 1.10534,0.272924 1.23647,0.216158 0.57327,-0.248171 -1.23718,-0.866179 -2.86632,-0.75675 -2.86632,0.192529 0,0.837448 0.81709,1.356667 2.2593,1.435674 0.57992,0.03177 0.49448,-0.219884 -0.28663,-0.844321 z m 13.9354,-1.015423 c 3.12261,-2.811108 0.20998,-4.451974 -3.65855,-2.061091 -2.0002,1.236193 -2.51331,2.246301 -1.14107,2.246301 0.43434,0 1.10849,0.384113 1.49811,0.853584 0.76608,0.923073 1.31361,0.750799 3.30151,-1.038794 z m -10.19575,-2.784554 c 0.0112,-0.214543 -0.56011,-0.472511 -1.26953,-0.573264 -0.70941,-0.100753 -1.54449,-0.763617 -1.85573,-1.473031 -0.31123,-0.709414 -0.69819,-1.282759 -0.85989,-1.274101 -0.16171,0.0087 -0.88816,1.193027 -1.61433,2.631929 l -1.32031,2.616185 1.6181,-0.355394 c 1.01616,-0.223186 2.04046,-0.04575 2.75347,0.476982 1.02529,0.751668 1.20289,0.711582 1.83164,-0.413426 0.38295,-0.685192 0.70541,-1.421338 0.71658,-1.63588 z m -11.11144,0.103445 c 1.08213,0 1.38627,-0.302652 1.38627,-1.379491 0,-1.07497 -0.2414,-1.316365 -1.09353,-1.093527 -0.63837,0.166939 -1.56991,-0.190425 -2.23808,-0.858594 -1.1439,-1.143901 -1.14468,-1.143256 -1.36084,1.12331 -0.24009,2.517645 -0.0414,2.960913 1.12649,2.512761 0.43638,-0.167452 1.41724,-0.304459 2.17969,-0.304459 z m 11.31756,-1.950378 c 0.40727,-1.061338 -0.0853,-1.489206 -1.71451,-1.489206 -1.4761,0 -1.70048,0.554357 -0.6497,1.605139 0.92175,0.921747 1.98604,0.869557 2.36421,-0.115933 z m -1.9056,-0.342678 c 0,-0.315295 0.25797,-0.573264 0.57327,-0.573264 0.31529,0 0.57326,0.257969 0.57326,0.573264 0,0.315295 -0.25797,0.573264 -0.57326,0.573264 -0.3153,0 -0.57327,-0.257969 -0.57327,-0.573264 z m -8.33681,-1.68018 c 0.18141,-0.293509 0.0653,-0.697113 -0.25792,-0.896898 -0.81726,-0.505091 -2.96065,0.247711 -2.5584,0.898559 0.42621,0.689639 2.3898,0.68848 2.81632,-0.0017 z m 11.78565,-0.630166 c 0.34257,-0.640099 0.71664,-1.904816 0.83126,-2.810481 0.18756,-1.482066 0.0572,-1.630065 -1.30439,-1.480602 -1.4154,0.155372 -4.6955,3.29671 -4.6955,4.496865 0,0.285137 0.62825,0.398335 1.3961,0.25155 0.76786,-0.146785 1.73524,-0.05182 2.14974,0.211024 0.99216,0.629157 0.91035,0.662851 1.62279,-0.668356 z M 147.1443,36.890102 c 1.18982,0.06649 1.3062,-0.143853 1.14653,-2.072169 -0.14115,-1.704668 -0.43624,-2.182956 -1.43446,-2.325014 -0.9134,-0.129988 -1.50071,0.292933 -2.14974,1.548007 -1.22757,2.373863 -1.18024,3.748098 0.11022,3.200716 0.55177,-0.234044 1.59912,-0.392237 2.32745,-0.35154 z M 16.92688,277.16884 c 1.12833,-1.91011 1.25995,-1.96742 2.4885,-1.08367 0.74404,0.53522 0.73449,0.57883 -0.0709,0.32362 -0.5897,-0.18686 -1.20295,0.21351 -1.67334,1.09245 -0.40839,0.76306 -0.97148,1.38739 -1.25132,1.38739 -0.27984,0 -0.0516,-0.7739 0.5071,-1.71979 z m 2.74138,-2.03805 c -1.08162,-0.86656 -1.07878,-0.87515 0.10169,-0.3068 0.66796,0.3216 1.37738,0.42182 1.57648,0.22271 0.1991,-0.1991 0.36201,-0.061 0.36201,0.3068 0,0.9165 -0.71577,0.83836 -2.04018,-0.22271 z m 4.56499,-0.0901 c 1.04405,-1.25698 1.03473,-1.2793 -1.0468,-2.50744 -1.15513,-0.68154 -2.02473,-1.27167 -1.93244,-1.31141 0.0923,-0.0397 0.9417,-0.71717 1.88759,-1.50541 l 1.71979,-1.43316 -1.34373,1.52747 -1.34373,1.52747 1.21226,0.64878 c 0.66674,0.35683 1.4209,0.51983 1.67592,0.36222 0.9512,-0.58787 0.25392,2.027 -0.79314,2.97434 -1.0659,0.96438 -1.06666,0.95834 -0.0357,-0.28286 z m -7.11092,-0.36533 c 0,-0.83595 1.65761,-3.62035 2.63574,-4.42742 0.90605,-0.7476 0.93576,-0.71342 0.3446,0.39633 -0.35582,0.66795 -0.46255,1.39887 -0.23717,1.62424 0.22538,0.22538 0.0345,0.3238 -0.42406,0.21869 -0.45861,-0.10509 -0.84557,0.11848 -0.8599,0.49683 -0.0282,0.74348 -1.45921,2.40216 -1.45921,1.69133 z"
       style="fill:#000000;stroke-width:0.57326388" />
  </g>
  <g
     id="g467817"
     gcodetools="Gcodetools orientation group">
    <g
       id="g467809"
       gcodetools="Gcodetools orientation point (2 points)">
      <path
         id="path467805"
         style="stroke:none;fill:#000000;"
         gcodetools="Gcodetools orientation point arrow"
         d="m 0.0,297.0 2.9375,-6.343750000001 0.8125,1.90625 6.843748640396,-6.84374864039 0,0 0.6875,0.6875 -6.84375,6.84375 1.90625,0.812500000001 z z" />
      <text
         id="text467807"
         xml:space="preserve"
         y="287.0"
         x="10.0"
         style="font-size:10px;font-style:normal;font-variant:normal;font-weight:normal;font-stretch:normal;fill:#000000;fill-opacity:1;stroke:none;"
         gcodetools="Gcodetools orientation point text">(0.0; 0.0; 0.0)</text>
    </g>
    <g
       id="g467815"
       gcodetools="Gcodetools orientation point (2 points)">
      <path
         id="path467811"
         style="stroke:none;fill:#000000;"
         gcodetools="Gcodetools orientation point arrow"
         d="m 100.0,297.0 2.9375,-6.343750000001 0.8125,1.90625 6.843748640396,-6.84374864039 0,0 0.6875,0.6875 -6.84375,6.84375 1.90625,0.812500000001 z z" />
      <text
         id="text467813"
         xml:space="preserve"
         y="287.0"
         x="110.0"
         style="font-size:10px;font-style:normal;font-variant:normal;font-weight:normal;font-stretch:normal;fill:#000000;fill-opacity:1;stroke:none;"
         gcodetools="Gcodetools orientation point text">(100.0; 0.0; 0.0)</text>
    </g>
  </g>
  <defs
     id="defs467822">
    <marker
       style="overflow:visible"
       refY="-2.41063"
       refX="-8"
       orient="auto"
       id="DrawCurveMarker">
      <path
         id="path467819"
         style="fill:#000044; fill-rule:evenodd;stroke-width:0.62500000;stroke-linejoin:round;"
         d="m -6.55552,-2.41063 0,0 L -13.11104,0 c 1.0473,-1.42323 1.04126,-3.37047 0,-4.82126" />
    </marker>
  </defs>
  <defs
     id="defs467827">
    <marker
       style="overflow:visible"
       refY="-2.41063"
       refX="8"
       orient="auto"
       id="DrawCurveMarker_r">
      <path
         id="path467824"
         style="fill:#000044; fill-rule:evenodd;stroke-width:0.62500000;stroke-linejoin:round;"
         d="m 6.55552,-2.41063 0,0 L 13.11104,0 c -1.0473,-1.42323 -1.04126,-3.37047 0,-4.82126" />
    </marker>
  </defs>
</svg>
