<?xml version="1.0" encoding="UTF-8" standalone="no"?>
<!-- Created with Inkscape (http://www.inkscape.org/) -->

<svg
   xmlns:dc="http://purl.org/dc/elements/1.1/"
   xmlns:cc="http://creativecommons.org/ns#"
   xmlns:rdf="http://www.w3.org/1999/02/22-rdf-syntax-ns#"
   xmlns:svg="http://www.w3.org/2000/svg"
   xmlns="http://www.w3.org/2000/svg"
   xmlns:sodipodi="http://sodipodi.sourceforge.net/DTD/sodipodi-0.dtd"
   xmlns:inkscape="http://www.inkscape.org/namespaces/inkscape"
   width="210mm"
   height="297mm"
   viewBox="0 0 210 297"
   version="1.1"
   id="svg28047"
   inkscape:version="0.92.2 5c3e80d, 2017-08-06"
   sodipodi:docname="iRonManMask.svg">
  <sodipodi:namedview
     id="base"
     pagecolor="#ffffff"
     bordercolor="#666666"
     borderopacity="1.0"
     inkscape:pageopacity="0.0"
     inkscape:pageshadow="2"
     inkscape:zoom="0.45255331"
     inkscape:cx="396.85039"
     inkscape:cy="561.25984"
     inkscape:document-units="mm"
     inkscape:current-layer="svg28047"
     showgrid="false"
     inkscape:window-width="1360"
     inkscape:window-height="690"
     inkscape:window-x="0"
     inkscape:window-y="1"
     inkscape:window-maximized="1" />
  <defs
     id="defs28041" />
  <metadata
     id="metadata28044">
    <rdf:RDF>
      <cc:Work
         rdf:about="">
        <dc:format>image/svg+xml</dc:format>
        <dc:type
           rdf:resource="http://purl.org/dc/dcmitype/StillImage" />
        <dc:title />
      </cc:Work>
    </rdf:RDF>
  </metadata>
  <g
     id="layer1"
     inkscape:groupmode="layer"
     inkscape:label="Layer 1">
    <path
       inkscape:connector-curvature="0"
       id="path4869-1-0"
       d="m 89.792507,214.75245 c -2.634914,3.00676 -5.269825,6.01352 -7.904739,9.02027 15.405005,0 30.810012,0 46.215012,0 -2.88886,-2.86697 -5.26326,-6.86882 -8.47649,-9.02027 -9.94459,0 -19.889188,0 -29.833783,0 z"
       style="fill:#502d16;stroke:#000000;stroke-width:0.26458332;stroke-linecap:butt;stroke-linejoin:miter;stroke-miterlimit:4;stroke-dasharray:none;stroke-opacity:1" />
    <path
       inkscape:connector-curvature="0"
       id="path4867-5-1"
       d="m 120.19805,214.73953 c 0.59101,-3.87603 1.18201,-7.75206 1.77302,-11.62808 -11.31719,0 -22.634394,0 -33.951591,0 0.59101,3.87602 1.182018,7.75205 1.773028,11.62808 10.13518,0 20.270363,0 30.405543,0 z"
       style="fill:#d35f5f;stroke:#000000;stroke-width:0.26458332;stroke-linecap:butt;stroke-linejoin:miter;stroke-miterlimit:4;stroke-dasharray:none;stroke-opacity:1" />
    <path
       inkscape:connector-curvature="0"
       id="path4861-9-6-2"
       d="m 126.10813,186.67217 c 1.79834,1.89932 2.44357,9.40553 5.12627,7.00466 2.77305,-2.45308 5.54611,-4.90617 8.31916,-7.35925 1.7395,4.0481 -2.63214,5.51186 -5.01463,7.81682 -2.77742,2.98251 -5.38513,4.79523 -7.01251,-0.1491 -1.31762,-4.02341 -4.61509,-4.30751 -8.31783,-3.82618 -11.38138,0 -22.762764,0 -34.14415,0 -2.097402,1.75315 -3.554426,7.92017 -6.056347,6.88512 -2.955536,-2.41816 -5.911075,-4.83633 -8.866611,-7.2545 -0.826756,-6.23161 3.073056,-0.65758 5.434394,1.07377 2.785266,3.0803 5.389856,5.28207 6.416934,-0.18681 0.636297,-4.63095 4.436407,-4.27451 8.178877,-4.00893 11.978823,-0.0155 23.957623,-0.005 35.936443,0.004 z"
       style="fill:#502d16;stroke:#000000;stroke-width:0.26458332;stroke-miterlimit:4;stroke-dasharray:none" />
    <path
       inkscape:connector-curvature="0"
       id="path4861-9-6-6"
       d="m 79.880189,197.76835 c -3.250546,-2.65953 -6.50109,-5.31907 -9.751637,-7.97861 -0.112355,3.746 -1.41923,7.84005 -0.824846,11.38011 2.835984,3.54499 5.671971,7.08997 8.507955,10.63495 3.398297,-2.88116 6.796592,-5.76233 10.19489,-8.64349 -0.985012,-4.30944 -1.970026,-8.61888 -2.955038,-12.92832 -1.723774,2.51179 -3.44755,5.02358 -5.171324,7.53536 z"
       style="fill:#d4aa00;stroke:#000000;stroke-width:0.26458332;stroke-linecap:butt;stroke-linejoin:miter;stroke-miterlimit:4;stroke-dasharray:none;stroke-opacity:1" />
    <path
       inkscape:connector-curvature="0"
       id="path4861-9-6-6-0"
       d="m 130.11036,197.76835 c 3.25055,-2.65953 6.50109,-5.31907 9.75164,-7.97861 0.11235,3.746 1.41923,7.84005 0.82485,11.38011 -2.83599,3.54499 -5.67198,7.08997 -8.50796,10.63495 -3.3983,-2.88116 -6.79659,-5.76233 -10.19489,-8.64349 0.98501,-4.30944 1.97003,-8.61888 2.95504,-12.92832 1.72377,2.51179 3.44755,5.02358 5.17132,7.53536 z"
       style="fill:#d4aa00;stroke:#000000;stroke-width:0.26458332;stroke-linecap:butt;stroke-linejoin:miter;stroke-miterlimit:4;stroke-dasharray:none;stroke-opacity:1" />
    <path
       inkscape:connector-curvature="0"
       id="path4865-7-3"
       d="m 70.605577,176.78756 c -3.473807,-9.17325 -12.86357,-25.31496 -14.892763,-28.86593 10.276242,12.11191 23.106375,23.24341 28.190447,38.75054 -1.798336,1.89932 -2.443576,9.40553 -5.126271,7.00466 -2.607109,-2.71556 -6.438617,-4.8909 -8.310295,-7.93094 0.04629,-2.98611 0.09259,-5.97222 0.138882,-8.95833 z"
       style="fill:#d4aa00;stroke:#000000;stroke-width:0.26458332;stroke-linecap:butt;stroke-linejoin:miter;stroke-miterlimit:4;stroke-dasharray:none;stroke-opacity:1" />
    <path
       inkscape:connector-curvature="0"
       id="path4865-7-3-0"
       d="m 139.39895,176.78756 c 3.4738,-9.17325 12.86357,-25.31496 14.89276,-28.86593 -10.27624,12.11191 -23.10637,23.24342 -28.19045,38.75054 1.79834,1.89932 2.44358,9.40553 5.12627,7.00466 2.60711,-2.71556 6.43862,-4.8909 8.3103,-7.93094 -0.0463,-2.98611 -0.0926,-5.97222 -0.13888,-8.95833 z"
       style="fill:#d4aa00;stroke:#000000;stroke-width:0.26458332;stroke-linecap:butt;stroke-linejoin:miter;stroke-miterlimit:4;stroke-dasharray:none;stroke-opacity:1" />
    <path
       inkscape:connector-curvature="0"
       id="path4865-3-7-1"
       d="m 139.39895,176.78756 c 3.62736,-8.74342 12.75329,-26.61645 15.22135,-28.26711 -5.11206,12.56389 -10.07413,25.18817 -15.07361,37.79713 -0.0492,-3.17668 -0.0985,-6.35335 -0.14774,-9.53002 z"
       style="fill:#502d16;stroke:#000000;stroke-width:0.26458332;stroke-linecap:butt;stroke-linejoin:miter;stroke-miterlimit:4;stroke-dasharray:none;stroke-opacity:1" />
    <path
       inkscape:connector-curvature="0"
       id="path4865-3-7-1-9"
       d="m 70.605577,176.78756 c -3.627366,-8.74342 -12.753297,-26.61645 -15.221349,-28.26711 5.112052,12.56389 10.074127,25.18817 15.073603,37.79713 0.04925,-3.17668 0.0985,-6.35335 0.147746,-9.53002 z"
       style="fill:#502d16;stroke:#000000;stroke-width:0.26458332;stroke-linecap:butt;stroke-linejoin:miter;stroke-miterlimit:4;stroke-dasharray:none;stroke-opacity:1" />
    <path
       inkscape:connector-curvature="0"
       id="path4871-6-4"
       d="m 49.039338,74.099862 c 0.131906,16.87217 1.711405,33.778928 -0.144089,50.603608 0.158573,4.64405 -2.214433,9.84248 1.188043,13.77616 1.263822,1.68813 4.218162,8.89607 4.392766,7.02774 -0.437521,-7.46043 -1.854798,-14.98888 -1.683946,-22.40706 1.117285,-5.27758 3.32402,-10.51576 1.501113,-15.89966 C 52.54193,96.167052 50.790634,85.133462 49.039338,74.099862 Z"
       style="fill:#d4aa00;stroke:#000000;stroke-width:0.26458332;stroke-linecap:butt;stroke-linejoin:miter;stroke-miterlimit:4;stroke-dasharray:none;stroke-opacity:1" />
    <path
       inkscape:connector-curvature="0"
       id="path4871-6-4-7"
       d="m 161.00213,74.099862 c -0.13191,16.87217 -1.71141,33.778928 0.14409,50.603608 -0.15858,4.64405 2.21443,9.84248 -1.18804,13.77616 -1.26383,1.68813 -4.21817,8.89607 -4.39277,7.02774 0.43752,-7.46043 1.8548,-14.98888 1.68395,-22.40706 -1.11729,-5.27758 -3.32402,-10.51576 -1.50112,-15.89966 1.7513,-11.033598 3.50259,-22.067188 5.25389,-33.100788 z"
       style="fill:#d4aa00;stroke:#000000;stroke-width:0.26458332;stroke-linecap:butt;stroke-linejoin:miter;stroke-miterlimit:4;stroke-dasharray:none;stroke-opacity:1" />
    <path
       style="fill:#d4aa00;stroke:#000000;stroke-width:0.26458332;stroke-linecap:butt;stroke-linejoin:miter;stroke-miterlimit:4;stroke-dasharray:none;stroke-opacity:1"
       d="m 154.82746,112.84748 c -18.72408,8.08002 -39.75281,6.79446 -59.728861,6.83842 -13.457282,-0.62443 -27.518543,-1.02394 -39.935478,-6.83842 -3.736913,8.16439 10.110782,7.26857 15.195756,9.3589 23.360179,3.47497 47.407293,3.53831 70.729453,-0.27731 4.65002,-2.00111 17.92154,-1.40442 13.73913,-9.08159 z"
       id="path4893-2-1-2-8-3"
       inkscape:connector-curvature="0" />
    <path
       inkscape:connector-curvature="0"
       id="path4875-4-7-5"
       d="m 158.31808,53.414562 c 0.91275,4.63403 2.135,8.85328 -2.84116,2.45235 -8.69061,-6.58303 -18.89997,-12.16205 -29.9598,-12.94274 -1.02455,3.04883 1.29417,11.47519 -4.02458,7.40976 -11.71737,-3.77569 -24.93597,-3.65488 -36.254075,1.38026 -0.877629,-3.7792 1.27994,-11.48733 -5.281727,-8.28443 -10.965116,2.63964 -21.62688,8.07535 -29.392407,16.33815 -0.346422,-6.1989 4.250667,-9.68895 9.178259,-12.61212 29.302811,-20.51869 72.11761,-17.8866 98.57549,6.25877 z"
       style="fill:#d35f5f;stroke:#000000;stroke-width:0.26458332;stroke-linecap:butt;stroke-linejoin:miter;stroke-miterlimit:4;stroke-dasharray:none;stroke-opacity:1" />
    <path
       style="fill:#502d16;stroke:#000000;stroke-width:0.26458332;stroke-linecap:butt;stroke-linejoin:miter;stroke-miterlimit:4;stroke-dasharray:none;stroke-opacity:1"
       d="m 150.73516,119.38394 c 6.40217,-6.96467 9.42351,7.54809 2.39677,8.53571 -9.91852,5.09705 -21.65162,3.38474 -32.01953,0.71861 8.49722,-2.28038 23.01629,0.40186 31.31073,-4.17182 -0.39551,-1.57897 -1.88048,-3.80425 -1.68797,-5.0825 z"
       id="path4893-4-0"
       inkscape:connector-curvature="0" />
    <path
       style="fill:#502d16;stroke:#000000;stroke-width:0.26458332;stroke-linecap:butt;stroke-linejoin:miter;stroke-miterlimit:4;stroke-dasharray:none;stroke-opacity:1"
       d="m 59.255373,119.38394 c -6.402169,-6.96467 -9.423504,7.54809 -2.396773,8.53571 9.918525,5.09705 21.651627,3.38474 32.019539,0.71861 -8.497218,-2.28038 -23.016297,0.40186 -31.310736,-4.17182 0.395512,-1.57897 1.880478,-3.80425 1.68797,-5.0825 z"
       id="path4893-4-0-6"
       inkscape:connector-curvature="0" />
    <path
       style="fill:none;stroke:#000000;stroke-width:0.26458332;stroke-linecap:butt;stroke-linejoin:miter;stroke-miterlimit:4;stroke-dasharray:none;stroke-opacity:1"
       d="m 150.49515,119.45975 c 6.39554,8.7719 -7.95806,6.91372 -13.54477,7.98744 -4.2083,-0.22461 -19.81528,2.72464 -15.5114,-3.1712 9.79361,-0.65007 19.70431,-1.67975 29.05617,-4.81624 z"
       id="path4913-1-9-6"
       inkscape:connector-curvature="0" />
    <path
       style="fill:none;stroke:#000000;stroke-width:0.26458332;stroke-linecap:butt;stroke-linejoin:miter;stroke-miterlimit:4;stroke-dasharray:none;stroke-opacity:1"
       d="m 59.495385,119.45975 c -6.395542,8.7719 7.958055,6.91372 13.544769,7.98744 4.208299,-0.22461 19.815278,2.72464 15.511404,-3.1712 -9.793615,-0.65007 -19.704311,-1.67975 -29.056173,-4.81624 z"
       id="path4913-1-9-6-1"
       inkscape:connector-curvature="0" />
    <path
       inkscape:connector-curvature="0"
       id="path4867-5-1-4"
       d="m 121.97107,203.09852 c -11.31719,0 -22.634394,0 -33.951591,0 -0.985012,-4.31745 -1.970027,-8.63488 -2.955039,-12.95233 13.287224,0 26.57445,0 39.86167,0 -0.98501,4.31745 -1.97002,8.63488 -2.95504,12.95233 z"
       style="fill:#ffdd55;stroke:#000000;stroke-width:0.26458332;stroke-linecap:butt;stroke-linejoin:miter;stroke-miterlimit:4;stroke-dasharray:none;stroke-opacity:1" />
    <path
       style="fill:#ffdd55;stroke:#000000;stroke-width:0.26458332;stroke-miterlimit:4;stroke-dasharray:none"
       d="m 52.506346,124.21172 c 0.686276,7.47795 1.372563,14.95589 2.058839,22.43384 10.588894,12.58067 24.011476,23.98063 29.314938,40.02604 14.070311,-0.0169 28.140607,-0.0168 42.210917,0 5.18612,-16.31558 19.44346,-27.53253 29.39295,-40.5962 0.66674,-7.28789 1.33347,-14.57579 2.00021,-21.86368 -9.33914,9.79307 -24.56439,7.36127 -36.38671,4.42471 -0.72872,-9.51272 -15.666,-1.16751 -22.175728,-3.97255 -6.390886,-1.51319 -9.259036,0.0663 -11.484856,4.3508 -11.324804,2.56608 -26.17619,4.74987 -34.93056,-4.80296 z"
       id="path4893-4-0-6-8"
       inkscape:connector-curvature="0" />
    <path
       inkscape:connector-curvature="0"
       id="path4881-7-3-1"
       d="m 88.610489,80.453202 c -1.383361,-12.50923 -3.150878,-24.97922 -4.137059,-37.52903 -12.761712,1.19178 -25.01542,7.76612 -33.909099,16.84374 -0.630005,7.23671 -2.423436,14.50226 -0.386223,21.67282 1.661665,10.46892 3.323333,20.937838 4.985,31.406748 18.724075,8.08002 39.752809,6.79446 59.728862,6.83841 13.45728,-0.62442 27.51854,-1.02392 39.93547,-6.83841 1.97855,-13.106608 4.36225,-26.203178 6.08865,-39.316048 -0.49663,-4.58784 -0.99325,-9.17568 -1.48987,-13.76352 -8.89368,-9.07762 -21.14739,-15.65196 -33.9091,-16.84374 -0.98532,12.5499 -2.75421,25.01975 -4.13706,37.52903 -10.86565,1.37185 -21.903919,1.37185 -32.769571,0 z"
       style="fill:#ffdd55;stroke:#000000;stroke-width:0.26458332;stroke-linecap:butt;stroke-linejoin:miter;stroke-miterlimit:4;stroke-dasharray:none;stroke-opacity:1" />
    <path
       inkscape:connector-curvature="0"
       id="path4879-0-7-5-8"
       d="m 121.38006,80.453202 c 1.12401,-9.57967 2.24802,-19.15934 3.37203,-28.73901 -4.42089,3.62807 -10.5133,1.40538 -15.80032,2.01443 -6.83051,0 -13.66102,0 -20.49153,0 -5.59195,-5.21533 -1.802365,4.46431 -2.089097,7.63913 0.746448,6.36182 1.492898,12.72363 2.239346,19.08545 10.865887,1.37186 21.903761,1.37185 32.769571,0 z"
       style="fill:#d35f5f;stroke:#000000;stroke-width:0.26458332;stroke-linecap:butt;stroke-linejoin:miter;stroke-miterlimit:4;stroke-dasharray:none;stroke-opacity:1" />
    <path
       inkscape:connector-curvature="0"
       id="path4875-4-7-5-4"
       d="m 104.99366,47.652322 c 5.17614,0.32807 19.72802,1.17646 17.9506,5.14624 -3.97859,1.96608 -8.99688,0.45684 -13.42208,0.93006 -7.0202,0 -14.040398,0 -21.060596,0 -7.042449,-4.40204 10.038588,-5.414 14.389096,-6.01292 z"
       style="fill:#502d16;stroke:#000000;stroke-width:0.26458332;stroke-linecap:butt;stroke-linejoin:miter;stroke-miterlimit:4;stroke-dasharray:none;stroke-opacity:1" />
    <path
       inkscape:connector-curvature="0"
       id="path4861-9-6-6-3"
       d="m 77.811661,211.8048 c -2.792651,-3.92454 -6.70991,-7.52176 -8.803341,-11.64981 0.482277,-4.61222 1.053314,-9.21561 1.439087,-13.83741 -7.25234,-17.18964 -12.635712,-35.2816 -22.294587,-51.34386 0.908413,-12.92843 2.320949,-25.84495 1.416775,-38.816198 -0.183309,-7.35256 -0.36662,-14.70511 -0.549928,-22.05766 -0.726544,18.49277 -2.410632,37.040568 -2.735808,55.491028 4.549934,21.29755 9.099869,42.5951 13.649803,63.89265 7.31588,10.09639 14.631762,20.19279 21.947642,30.28918 2.458162,-3.24105 6.137384,-6.12599 7.824579,-9.59188 -0.56429,-3.68149 -1.128578,-7.36298 -1.692868,-11.04447 -3.400451,2.88948 -6.800903,5.77895 -10.201354,8.66843 z"
       style="fill:#d35f5f;stroke:#000000;stroke-width:0.26458332;stroke-linecap:butt;stroke-linejoin:miter;stroke-miterlimit:4;stroke-dasharray:none;stroke-opacity:1" />
    <path
       inkscape:connector-curvature="0"
       id="path4861-9-6-6-3-7"
       d="m 132.17889,211.8048 c 2.79265,-3.92454 6.70991,-7.52176 8.80334,-11.64981 -0.48227,-4.61222 -1.05331,-9.21561 -1.43909,-13.83741 7.25234,-17.18965 12.63572,-35.2816 22.29459,-51.34386 -0.90841,-12.92843 -2.32095,-25.84495 -1.41678,-38.816198 0.18331,-7.35256 0.36662,-14.70511 0.54993,-22.05766 0.72655,18.49277 2.41063,37.040568 2.73581,55.491028 -4.54993,21.29755 -9.09987,42.5951 -13.6498,63.89265 -7.31588,10.09639 -14.63176,20.19279 -21.94764,30.28918 -2.45816,-3.24105 -6.13739,-6.12599 -7.82458,-9.59188 0.56429,-3.68149 1.12858,-7.36298 1.69287,-11.04447 3.40045,2.88948 6.8009,5.77895 10.20135,8.66843 z"
       style="fill:#d35f5f;stroke:#000000;stroke-width:0.26458332;stroke-linecap:butt;stroke-linejoin:miter;stroke-miterlimit:4;stroke-dasharray:none;stroke-opacity:1" />
    <path
       style="font-style:normal;font-variant:normal;font-weight:normal;font-stretch:normal;font-size:496.89239502px;line-height:125%;font-family:Haettenschweiler;-inkscape-font-specification:Haettenschweiler;text-align:end;letter-spacing:0px;word-spacing:0px;writing-mode:lr-tb;text-anchor:end;fill:#552200;fill-opacity:1;stroke:#000000;stroke-width:0.26458332;stroke-miterlimit:4;stroke-dasharray:none"
       d="m 36.527209,274.41766 c -2.884316,-0.70344 -9.221689,2.04618 -7.904502,-2.85876 0,-11.04185 0,-22.0837 0,-33.12555 2.884316,0.70343 9.22169,-2.04618 7.904502,2.85876 0,11.04185 0,22.0837 0,33.12555 z"
       id="path6360"
       inkscape:connector-curvature="0" />
    <path
       style="font-style:normal;font-variant:normal;font-weight:normal;font-stretch:normal;font-size:496.89239502px;line-height:125%;font-family:Haettenschweiler;-inkscape-font-specification:Haettenschweiler;text-align:end;letter-spacing:0px;word-spacing:0px;writing-mode:lr-tb;text-anchor:end;fill:#552200;fill-opacity:1;stroke:#000000;stroke-width:0.26458332;stroke-miterlimit:4;stroke-dasharray:none"
       d="m 57.630974,274.46784 c -5.302571,0.6887 -10.866573,0.23707 -9.164289,-6.98231 1.188288,-3.88597 -1.457598,-15.23814 -2.353707,-6.9018 0,4.61131 0,9.22262 0,13.83393 -2.884316,-0.70344 -9.221687,2.04618 -7.904501,-2.85876 0,-11.04185 0,-22.0837 0,-33.12555 5.832043,0.55768 13.32044,-1.87084 17.424401,3.50686 3.989427,4.26882 -4.77245,16.0737 -3.12259,13.19963 7.302168,3.52728 1.073732,13.71727 5.120686,19.328 z M 48.572161,250.8798 c 1.156877,-2.77354 -1.395606,-11.43434 -2.459183,-5.51712 0.353338,2.00428 -1.305592,11.75782 2.459183,5.51712 z"
       id="path6362"
       inkscape:connector-curvature="0" />
    <path
       style="font-style:normal;font-variant:normal;font-weight:normal;font-stretch:normal;font-size:496.89239502px;line-height:125%;font-family:Haettenschweiler;-inkscape-font-specification:Haettenschweiler;text-align:end;letter-spacing:0px;word-spacing:0px;writing-mode:lr-tb;text-anchor:end;fill:#552200;fill-opacity:1;stroke:#000000;stroke-width:0.26458332;stroke-miterlimit:4;stroke-dasharray:none"
       d="m 58.609626,268.26971 c 0.308864,-8.72636 -0.660593,-17.60929 0.56774,-26.22443 4.52832,-7.60959 20.202112,-4.23172 17.474602,5.87155 -0.339124,7.67293 0.725683,15.55201 -0.62421,23.07868 -3.396988,5.59936 -17.571482,5.52849 -17.418132,-2.7258 z m 10.3135,0.3764 c -0.210626,-8.42211 0.423056,-17.00507 -0.31995,-25.32576 -4.315748,-0.14979 -1.471686,6.83469 -2.289788,9.95728 0.214569,5.3721 -0.433864,10.91458 0.332486,16.17776 0.71266,0.45013 2.361813,0.43643 2.277252,-0.80928 z"
       id="path6364"
       inkscape:connector-curvature="0" />
    <path
       style="font-style:normal;font-variant:normal;font-weight:normal;font-stretch:normal;font-size:496.89239502px;line-height:125%;font-family:Haettenschweiler;-inkscape-font-specification:Haettenschweiler;text-align:end;letter-spacing:0px;word-spacing:0px;writing-mode:lr-tb;text-anchor:end;fill:#552200;fill-opacity:1;stroke:#000000;stroke-width:0.26458332;stroke-miterlimit:4;stroke-dasharray:none"
       d="m 98.45836,274.41766 c -2.839738,-0.83428 -8.492056,2.04006 -8.747199,-2.20225 -1.584399,-5.65644 -3.16879,-11.31288 -4.753189,-16.96931 0,6.39052 0,12.78103 0,19.17156 -3.534373,0 -8.250576,1.18264 -6.599632,-4.00226 0,-10.66069 0,-21.32137 0,-31.98205 2.940434,0.82135 8.515318,-1.81481 9.438688,1.65376 1.353904,4.91917 2.707798,9.83833 4.0617,14.75749 0,-5.47042 0,-10.94083 0,-16.41125 3.534373,0 8.250582,-1.18264 6.599632,4.00226 0,10.66068 0,21.32137 0,31.98205 z"
       id="path6366"
       inkscape:connector-curvature="0" />
    <path
       style="font-style:normal;font-variant:normal;font-weight:normal;font-stretch:normal;font-size:496.89239502px;line-height:125%;font-family:Haettenschweiler;-inkscape-font-specification:Haettenschweiler;text-align:end;letter-spacing:0px;word-spacing:0px;writing-mode:lr-tb;text-anchor:end;fill:#552200;fill-opacity:1;stroke:#000000;stroke-width:0.26458332;stroke-miterlimit:4;stroke-dasharray:none"
       d="m 136.90185,274.41766 c -3.11041,-0.38354 -8.69881,1.71092 -7.05132,-3.43051 0,-5.58997 0,-11.17993 0,-16.76989 -1.37178,6.73347 -2.74357,13.46693 -4.11535,20.2004 -4.24432,0.89989 -6.68623,-0.47205 -6.61558,-5.01093 -1.18246,-5.06316 -2.3649,-10.12631 -3.54736,-15.18947 0,6.73347 0,13.46693 0,20.2004 -3.99471,0.41236 -7.66313,0.49843 -6.17304,-4.57402 0,-10.4701 0,-20.94019 0,-31.41029 3.26534,0.37925 7.78018,-0.75601 10.27159,0.56134 1.16827,6.03611 2.33656,12.07223 3.50483,18.10834 1.04557,-6.22323 2.09114,-12.44645 3.13671,-18.66968 3.52984,0 7.05968,0 10.58952,0 0,11.99477 0,23.98954 0,35.98431 z"
       id="path6368"
       inkscape:connector-curvature="0" />
    <path
       style="font-style:normal;font-variant:normal;font-weight:normal;font-stretch:normal;font-size:496.89239502px;line-height:125%;font-family:Haettenschweiler;-inkscape-font-specification:Haettenschweiler;text-align:end;letter-spacing:0px;word-spacing:0px;writing-mode:lr-tb;text-anchor:end;fill:#552200;fill-opacity:1;stroke:#000000;stroke-width:0.26458332;stroke-miterlimit:4;stroke-dasharray:none"
       d="m 160.03821,274.41766 c -2.95891,-0.69256 -8.88919,2.02331 -8.21909,-2.83206 -0.78467,-3.04741 0.52173,-8.49348 -4.37061,-6.82901 -0.66532,3.00688 -0.92735,6.47637 -1.43766,9.66107 -2.75004,-0.68982 -9.49938,2.01528 -7.36499,-2.82082 1.81929,-11.05449 3.63858,-22.10899 5.45787,-33.16349 3.1919,0.39599 7.71857,-0.78043 10.10522,0.56416 1.94308,11.80672 3.88618,23.61343 5.82926,35.42015 z m -9.81162,-14.6547 c -0.3764,-3.58003 -0.75281,-7.16006 -1.12921,-10.74009 -0.35968,3.58003 -0.71935,7.16006 -1.07903,10.74009 0.73608,0 1.47216,0 2.20824,0 z"
       id="path6370"
       inkscape:connector-curvature="0" />
    <path
       style="font-style:normal;font-variant:normal;font-weight:normal;font-stretch:normal;font-size:496.89239502px;line-height:125%;font-family:Haettenschweiler;-inkscape-font-specification:Haettenschweiler;text-align:end;letter-spacing:0px;word-spacing:0px;writing-mode:lr-tb;text-anchor:end;fill:#552200;fill-opacity:1;stroke:#000000;stroke-width:0.26458332;stroke-miterlimit:4;stroke-dasharray:none"
       d="m 181.36782,274.41766 c -2.83975,-0.83428 -8.49206,2.04006 -8.74721,-2.20225 -1.58439,-5.65644 -3.16879,-11.31288 -4.75318,-16.96931 0,6.39052 0,12.78103 0,19.17156 -3.53437,0 -8.25058,1.18264 -6.59963,-4.00226 0,-10.66069 0,-21.32137 0,-31.98205 2.94043,0.82135 8.51531,-1.81481 9.43869,1.65376 1.3539,4.91917 2.70779,9.83833 4.0617,14.75749 0,-5.47042 0,-10.94083 0,-16.41125 3.53437,0 8.25057,-1.18264 6.59963,4.00226 0,10.66068 0,21.32137 0,31.98205 z"
       id="path6372"
       inkscape:connector-curvature="0" />
  </g>
  <g
     id="g28162"
     gcodetools="Gcodetools orientation group">
    <g
       id="g28154"
       gcodetools="Gcodetools orientation point (2 points)">
      <path
         id="path28150"
         style="stroke:none;fill:#000000;"
         gcodetools="Gcodetools orientation point arrow"
         d="m 0.0,297.0 2.9375,-6.343750000001 0.8125,1.90625 6.843748640396,-6.84374864039 0,0 0.6875,0.6875 -6.84375,6.84375 1.90625,0.812500000001 z z" />
      <text
         id="text28152"
         xml:space="preserve"
         y="287.0"
         x="10.0"
         style="font-size:10px;font-style:normal;font-variant:normal;font-weight:normal;font-stretch:normal;fill:#000000;fill-opacity:1;stroke:none;"
         gcodetools="Gcodetools orientation point text">(0.0; 0.0; 0.0)</text>
    </g>
    <g
       id="g28160"
       gcodetools="Gcodetools orientation point (2 points)">
      <path
         id="path28156"
         style="stroke:none;fill:#000000;"
         gcodetools="Gcodetools orientation point arrow"
         d="m 100.0,297.0 2.9375,-6.343750000001 0.8125,1.90625 6.843748640396,-6.84374864039 0,0 0.6875,0.6875 -6.84375,6.84375 1.90625,0.812500000001 z z" />
      <text
         id="text28158"
         xml:space="preserve"
         y="287.0"
         x="110.0"
         style="font-size:10px;font-style:normal;font-variant:normal;font-weight:normal;font-stretch:normal;fill:#000000;fill-opacity:1;stroke:none;"
         gcodetools="Gcodetools orientation point text">(100.0; 0.0; 0.0)</text>
    </g>
  </g>
  <defs
     id="defs28973">
    <marker
       style="overflow:visible"
       refY="-2.41063"
       refX="-8"
       orient="auto"
       id="DrawCurveMarker">
      <path
         id="path28970"
         style="fill:#000044; fill-rule:evenodd;stroke-width:0.62500000;stroke-linejoin:round;"
         d="m -6.55552,-2.41063 0,0 L -13.11104,0 c 1.0473,-1.42323 1.04126,-3.37047 0,-4.82126" />
    </marker>
  </defs>
  <defs
     id="defs28978">
    <marker
       style="overflow:visible"
       refY="-2.41063"
       refX="8"
       orient="auto"
       id="DrawCurveMarker_r">
      <path
         id="path28975"
         style="fill:#000044; fill-rule:evenodd;stroke-width:0.62500000;stroke-linejoin:round;"
         d="m 6.55552,-2.41063 0,0 L 13.11104,0 c -1.0473,-1.42323 -1.04126,-3.37047 0,-4.82126" />
    </marker>
  </defs>
</svg>
