<?xml version="1.0" encoding="UTF-8" standalone="no"?>
<!-- Created with Inkscape (http://www.inkscape.org/) -->

<svg
   xmlns:dc="http://purl.org/dc/elements/1.1/"
   xmlns:cc="http://creativecommons.org/ns#"
   xmlns:rdf="http://www.w3.org/1999/02/22-rdf-syntax-ns#"
   xmlns:svg="http://www.w3.org/2000/svg"
   xmlns="http://www.w3.org/2000/svg"
   xmlns:sodipodi="http://sodipodi.sourceforge.net/DTD/sodipodi-0.dtd"
   xmlns:inkscape="http://www.inkscape.org/namespaces/inkscape"
   width="210mm"
   height="297mm"
   viewBox="0 0 210 297"
   version="1.1"
   id="svg216523"
   inkscape:version="0.92.2 5c3e80d, 2017-08-06"
   sodipodi:docname="KungFuPanda.svg">
  <sodipodi:namedview
     id="base"
     pagecolor="#ffffff"
     bordercolor="#666666"
     borderopacity="1.0"
     inkscape:pageopacity="0.0"
     inkscape:pageshadow="2"
     inkscape:zoom="0.49497475"
     inkscape:cx="399.65847"
     inkscape:cy="572.245"
     inkscape:document-units="mm"
     inkscape:current-layer="svg216523"
     showgrid="false"
     inkscape:window-width="1360"
     inkscape:window-height="694"
     inkscape:window-x="0"
     inkscape:window-y="1"
     inkscape:window-maximized="1" />
  <defs
     id="defs216517" />
  <metadata
     id="metadata216520">
    <rdf:RDF>
      <cc:Work
         rdf:about="">
        <dc:format>image/svg+xml</dc:format>
        <dc:type
           rdf:resource="http://purl.org/dc/dcmitype/StillImage" />
        <dc:title />
      </cc:Work>
    </rdf:RDF>
  </metadata>
  <g
     id="layer1"
     inkscape:groupmode="layer"
     inkscape:label="Layer 1">
    <g
       id="layer1-9"
       transform="matrix(0.33730632,0,0,0.33730632,-6.6078405,76.752008)">
      <g
         style="fill-rule:evenodd"
         id="g3181"
         transform="matrix(1.25,0,0,1.25,-48.320748,-184.15112)">
        <g
           id="g2987">
          <g
             id="g2989">
            <g
               id="g2991">
              <path
                 style="fill:#fcfcfc;stroke:none"
                 id="path2993"
                 d="m 310.478,405.01 1.406,-9.137 c -0.445,0.011 -0.902,0.023 -1.369,0.037 m -5.122,0.183 -0.362,0.016 c -0.444,0.019 -0.896,0.039 -1.352,0.061 m -4.006,0.206 -0.314,0.018 -1.514,0.089 -0.511,0.031 c -1.243,0.078 -2.515,0.162 -3.813,0.255 l -0.485,0.035 c -0.515,0.038 -1.034,0.077 -1.556,0.117 l -0.496,0.038 c -1.355,0.105 -2.733,0.219 -4.133,0.343 l -0.388,0.035 c -0.571,0.051 -1.145,0.104 -1.722,0.158 l -0.545,0.051 c -1.401,0.134 -2.82,0.277 -4.254,0.431 l -0.526,0.057 c -0.595,0.064 -1.192,0.131 -1.791,0.199 l -0.409,0.047 c -1.489,0.171 -2.992,0.353 -4.503,0.548 l -0.433,0.056 c -0.624,0.081 -1.249,0.164 -1.875,0.249 l -0.466,0.064 c -1.504,0.207 -3.014,0.425 -4.527,0.657 l -0.514,0.08 c -0.608,0.094 -1.216,0.19 -1.824,0.288 l -0.48,0.078 c -1.511,0.247 -3.022,0.507 -4.53,0.781 l -0.53,0.097 c -0.603,0.111 -1.204,0.224 -1.805,0.339 l -0.508,0.098 c -1.502,0.291 -2.999,0.597 -4.486,0.917 l -0.484,0.105 c -0.596,0.13 -1.191,0.263 -1.784,0.397 l -0.505,0.115 c -1.479,0.341 -2.945,0.696 -4.396,1.068 l -0.433,0.112 c -0.601,0.155 -1.199,0.314 -1.794,0.475 l -0.423,0.114 c -1.437,0.393 -2.855,0.803 -4.252,1.23 l -0.421,0.13 c -0.57,0.176 -1.135,0.355 -1.697,0.537 l -0.435,0.141 c -1.35,0.442 -2.676,0.902 -3.975,1.379 l -0.49,0.183 c -0.501,0.186 -0.997,0.376 -1.489,0.568 -0.159,0.062 -0.318,0.124 -0.476,0.186 -1.256,0.498 -2.483,1.015 -3.677,1.549 l -0.441,0.201 c -0.462,0.21 -0.918,0.423 -1.37,0.639 -0.148,0.07 -0.296,0.141 -0.443,0.212 -1.143,0.556 -2.251,1.131 -3.321,1.725 -0.147,0.082 -0.291,0.164 -0.436,0.247 -0.401,0.227 -0.796,0.457 -1.186,0.689 -0.141,0.084 -0.282,0.168 -0.421,0.252 -0.508,0.31 -1.01,0.623 -1.497,0.942 m -1.418,0.97 c -0.132,0.094 -0.261,0.189 -0.392,0.283 -0.341,0.247 -0.675,0.497 -1.004,0.749 -0.127,0.098 -0.256,0.197 -0.382,0.295 m -3.758,3.528 -0.026,0.029 c -0.379,0.418 -0.745,0.841 -1.098,1.269 l -0.03,0.036 c -0.348,0.425 -0.682,0.854 -1.003,1.289 l -0.041,0.056 c -0.317,0.431 -0.619,0.867 -0.908,1.309 l -0.043,0.065 c -0.285,0.438 -0.555,0.88 -0.812,1.328 l -0.047,0.082 c -0.254,0.445 -0.493,0.896 -0.718,1.352 m -0.456,1.101 c -0.058,0.154 -0.114,0.309 -0.168,0.465 -0.122,0.352 -0.236,0.707 -0.339,1.065 -0.041,0.144 -0.081,0.287 -0.119,0.431 -0.101,0.385 -0.192,0.773 -0.271,1.166 -0.024,0.121 -0.047,0.244 -0.07,0.366 -0.076,0.425 -0.141,0.853 -0.191,1.287 l -0.03,0.278 c -0.048,0.466 -0.08,0.937 -0.096,1.414 l -0.006,0.2 c -0.012,0.509 -0.007,1.024 0.017,1.545 l 0.006,0.118 c 0.028,0.543 0.076,1.093 0.145,1.649 l 0.008,0.068 c 0.073,0.576 0.167,1.158 0.284,1.748 l 0.004,0.024 c 0.12,0.602 0.263,1.212 0.43,1.83 1.67,6.175 21.648,43.908 26.52,52.969 9.253,17.207 22.648,32.663 36.728,42.733 35.223,25.191 94.008,26.538 89.678,-33.565 -1.455,-20.204 -17.157,-39.25 -26.286,-53.089 -15.748,-23.877 -13.896,-34.296 -7.658,-62.563 l -1.577,-0.898 -9.284,16.3"
                 inkscape:connector-curvature="0" />
              <path
                 style="fill:#fcfcfc;stroke:none"
                 id="path2995"
                 d="m 139.769,271.436 c -0.785,1.169 0.245,0.011 -0.153,1.111 l -0.59,1.077 c -1.38,1.196 -1.235,0.716 -3.21,0.554 l -1.224,-6.141 c -0.749,-2.148 -1.314,-4.508 -1.829,-6.611 2.465,-1.342 -1.171,-0.775 0.845,0.384 1.971,1.133 -1.874,1.325 0.582,0.366 0.473,-2.254 0.889,-2.857 0.268,-5.298 l -1.638,-3.156 c -0.31,-0.589 -2.095,-2.346 -2.913,-2.798 -3.021,-1.365 -2.068,1.115 -2.34,-3.161 -0.118,0.168 -0.106,0.453 -0.144,0.6 l -1.627,4.772 c 0.174,-4.457 0.953,-6.513 -0.075,-9.953 l -1.001,-2.309 c -0.016,-0.15 -0.066,-0.238 -0.153,-0.318 -1.024,0.515 -5.743,2.236 -5.6,-0.517 -19.9625,8.358 -34.3885,28.308 -34.5623,55.924 -0.0967,15.368 -2.1526,13.811 5.1721,28.895 14.0212,28.875 64.3162,60.633 91.0432,91.253 4.048,4.637 16.865,22.183 20.204,25.098 -0.415,-4.634 0.446,-8.877 2.34,-12.749 1.523,-3.482 4.008,-6.601 7.252,-9.388 l 0.006,-0.005 0.003,-0.002 c 21.71,-19.874 74.501,-26.381 102.581,-24.102 2.833,-6.645 20.718,-18.756 32.013,-19.366 l 22.372,-45.098 -51.689,-11.636 -4.373,16.575 0.578,-33.057 -2.186,-0.012 c 1.404,41.237 -28.939,82.305 -67.398,81.332 -20.268,-0.514 -40.675,-12.23 -52.246,-22.063 C 172.84,346.988 170.1,337.865 169.551,308.67 l -8.649,-5.932 -17.187,7.484 -0.69,-1.583 c 13.783,-3.691 21.605,-13.613 19.383,-31.089 -0.028,-0.22 -0.056,-0.44 -0.087,-0.662 0.036,0.22 0.065,0.441 0.087,0.662 0.665,6.792 -5.757,13.615 -13.186,11.038 -10.147,-3.52 -5.461,-16.561 -9.453,-17.152 z m 63.395,157.023 c 1.669,-3.413 4.14,-6.538 7.252,-9.388"
                 inkscape:connector-curvature="0" />
              <path
                 style="fill:#fcfcfc;stroke:none"
                 id="path2997"
                 d="m 435.778,391.568 -1.083,8.239 c -6.739,-13.44 19.441,-65.332 19.449,-82.436 -6.475,14.504 -37.995,12.157 -53.218,-1.592 -7.564,-6.833 -5.526,-12.198 -8.642,-16.451 -11.617,12.179 -24.204,34.265 -32.861,52.949 -11.977,25.848 -7.822,42.299 4.938,66.796 41.802,80.255 93.456,-7.147 71.417,-27.505 z"
                 inkscape:connector-curvature="0" />
              <path
                 style="fill:#282828;stroke:none"
                 id="path2999"
                 d="m 407.446,285.994 c 0.122,-0.113 8.461,-4.956 7.549,4.123 -4.218,0.974 -7.645,0.67 -7.549,-4.123 z m 44.042,-22.922 z m -35.128,27.196 c 0.732,-9.594 -9.47,-7.516 -10.3,-3.748 -0.561,2.541 2.006,4.42 4.067,5.032 2.822,0.835 4.182,-0.016 6.233,-1.284 z m 25.976,124.659 c 8.389,12.095 -1.161,73.629 -6.93,87.609 -8.895,21.557 -26.64,39.985 -36.471,61.772 -21.609,1.802 -30.792,3.129 -50.547,9.394 -41.463,13.149 -25.184,15.784 -40.602,4.22 l 1.642,11.662 -3.689,-0.121 3.255,-29.669 c 2.324,0.255 20.342,-2.646 28.237,-6.211 8.697,-3.929 13.975,-7.555 19.391,-13.61 9.884,-11.05 15.722,-31.873 11.545,-51.179 -6.528,-30.163 -44.128,-62.935 -23.004,-95.793 l 3.821,12.224 -0.833,-31.582 c 4.584,9.029 5.624,49.916 34.487,72.903 27.354,21.783 53.266,-5.816 59.698,-31.619 z m -122.574,-26.217 1.577,0.898 c -6.238,28.267 -8.09,38.686 7.658,62.563 9.129,13.839 24.831,32.885 26.286,53.089 4.33,60.103 -54.455,58.756 -89.678,33.565 -14.08,-10.07 -27.475,-25.526 -36.728,-42.733 -4.872,-9.061 -24.85,-46.794 -26.52,-52.969 -10.761,-39.798 77.482,-46.446 109.527,-47.25 l -1.406,9.137 z m 198.89,-3.606 c 10.202,4.877 13.17,29.622 -3.306,29.165 -21.956,-0.609 -10.918,-25.097 2.294,-11.193 l 1.242,-5.889 -17.974,0.303 -8.137,23.974 c -12.948,-5.612 -2.033,-23.199 -5.497,-35.105 -5.671,7.05 2.793,20.802 -10.673,30.615 -6.056,4.415 -19.699,11.965 -28.824,12.736 -0.159,-0.316 -10.32,-43.727 -10.343,-43.951 -0.41,-4.048 9.774,-37.771 13.166,-43.261 z m -82.874,6.464 c 22.039,20.358 -29.615,107.76 -71.417,27.505 -12.76,-24.497 -16.915,-40.948 -4.938,-66.796 8.657,-18.684 21.244,-40.77 32.861,-52.949 3.116,4.253 1.078,9.618 8.642,16.451 15.223,13.749 46.743,16.096 53.218,1.592 -0.008,17.104 -26.188,68.996 -19.449,82.436 z m -34.877,-136.603 0.11,-0.072 0.013,-0.009 0.01,-0.006 0.113,-0.071 0.002,-10e-4 0.087,-0.053 0.037,-0.022 0.031,-0.018 0.067,-0.039 0.028,-0.015 0.04,-0.023 0.068,-0.037 0.017,-0.01 0.052,-0.027 0.068,-0.036 0.007,-0.003 0.127,-0.064 0.003,-0.002 0.069,-0.033 0.055,-0.026 0.014,-0.007 0.069,-0.031 0.045,-0.02 0.024,-0.011 0.07,-0.03 0.011,-0.005 0.054,-0.022 0.004,-0.002 0.069,-0.028 0.025,-0.01 0.003,-0.001 0.093,-0.036 0.067,-0.025 0.022,-0.008 0.069,-0.024 0.004,-0.002 0.066,-0.022 0.063,-0.021 0.007,-0.003 0.101,-0.031 0.022,-0.007 0.018,-0.005 0.07,-0.021 0.008,-0.002 0.058,-0.017 0.004,-0.001 0.071,-0.019 0.031,-0.008 0.039,-0.01 0.07,-0.017 0.071,-0.017 0.07,-0.015 0.056,-0.012 0.015,-0.003 0.07,-0.014 h 10e-4 l 0.07,-0.012 0.14,-0.024 h 0.002 l 0.07,-0.011 0.07,-0.009 0.006,-0.001 0.062,-0.007 0.003,-0.001 0.071,-0.008 0.07,-0.007 0.07,-0.006 0.061,-0.004 0.024,-0.002 c 0.085,-0.006 0.17,-0.01 0.255,-0.012 h 0.021 l 0.132,-0.001 h 0.07 l 0.07,0.002 0.07,0.002 0.07,0.004 0.07,0.004 h 0.001 l 0.131,0.01 0.024,0.002 c 0.064,0.006 0.129,0.013 0.192,0.021 l 0.07,0.01 -1.725,-1.189 c 51.19,-18.094 70.643,28.39 31.881,41.509 -16.791,5.683 -35.633,0.516 -43.257,-10.96 -4.443,-6.687 -4.772,-16.315 -0.013,-22.536 11.202,-14.645 5.023,4.979 16.884,-1.971 l 1.223,-1.414 -1.604,-1.105 m -3.389,-2.334 3.389,2.334 -0.405,2.515 c -5.444,1.409 -6.936,0.261 -7.437,-3.725 M 277.712,356.952 c -5.174,6.555 -3.429,18.069 -16.67,22.261 -8.788,2.781 -25.757,-2.4 -28.112,-7.924 l -0.833,1.263 16.126,10.758 -24.796,-5.116 c -10.616,0.494 -30.432,-16.629 -35.484,-21.91 -22.739,-23.77 -20.089,-58.549 2.19,-80.297 10.652,-10.398 13.064,-1.653 18.001,-7.497 4.214,-4.989 -1.66,-4.837 6.654,-7.577 3.269,-1.077 7.892,-2.583 11.309,-2.881 l -3.066,5.071 1.6,1.119 6.059,-8.564 9.248,6.979 3.76,-3.358 -7.787,-3.348 c 7.571,-1.061 21.066,-1.922 25.158,3.228 8.389,10.557 6.557,-3.219 18.762,3.747 51.809,29.575 17.165,98.901 -6.073,110.381 z m -137.797,-116.514 0.223,-0.006 c 1.745,-1.869 1.031,-2.032 3.981,-3.045 4.315,-1.482 13.961,0.048 16.114,4.451 -3.667,-0.523 -6.29,-4.188 -12.436,-3.837 -5.343,0.306 -7.648,4.051 -7.297,9.326 2.525,2.52 6.418,4.787 10.574,4.713 0.108,0.008 1.961,0.1 1.971,0.099 1.638,-0.156 0.74,-0.066 1.637,-0.578 -19.853,-1.288 -13.523,-15.575 -1.123,-10.967 6.047,2.248 4.981,3.58 5.28,4.46 2.499,7.334 3.592,0.588 2.08,6.008 l -0.353,0.619 c 1.158,-1.161 1.444,-1.045 2.992,-0.75 0.384,1.697 1.192,-2.06 0.072,2.036 l -0.052,0.188 c -0.773,2.73 -0.664,0.123 -0.888,0.026 0.281,0.017 0.581,-0.038 0.888,-0.026 0.769,0.031 1.578,0.485 2.234,3.556 0.012,-5.638 -0.256,-0.624 1.37,-2.464 7.847,1.398 6.585,-2.987 10.629,-5.078 8.238,3.336 9.279,17.112 -3.502,15.66 -4.112,-0.467 -4.119,-1.552 -6.275,-3.407 -1.038,-0.539 -1.581,0.293 -1.547,-0.116 0.012,-0.138 0.089,-0.42 0.237,-0.946 l 0.099,-0.35 c -0.107,0.123 -0.127,0.24 -0.099,0.35 0.132,0.519 1.343,0.876 -0.237,0.946 -0.337,0.015 -0.8,0.017 -1.429,0.004 4.721,3.744 1.671,8.777 -3.745,8.935 -6.681,-8.533 -5.381,-4.886 -15.389,-5.334 4.545,1.253 1.447,0.408 2.81,1.84 0.855,2.563 0.527,2.076 -1.93,3.127 l -0.709,-1.699 c -0.87,-0.059 -0.246,-0.035 -0.887,0.236 l -2.735,1.581 c -0.126,-0.182 -0.416,0.329 -0.658,0.425 -2.075,-0.016 -2.859,-2.094 -3.39,-2.928 -0.347,0.774 -1.428,-1.118 0.115,1.247 l 1.229,2.696 c 3.992,0.591 -0.694,13.632 9.453,17.152 7.671,2.661 14.268,-4.7 13.099,-11.7 2.506,17.888 -5.339,28.013 -19.296,31.751 l 0.69,1.583 17.187,-7.484 8.649,5.932 c 0.549,29.195 3.289,38.318 20.526,52.967 11.571,9.833 31.978,21.549 52.246,22.063 38.459,0.973 68.802,-40.095 67.398,-81.332 l 2.186,0.012 -0.578,33.057 4.373,-16.575 51.689,11.636 -22.372,45.098 c -11.295,0.61 -29.18,12.721 -32.013,19.366 -36.678,-2.976 -115.513,9.035 -112.182,46.246 -3.339,-2.915 -16.156,-20.461 -20.204,-25.098 -26.727,-30.62 -77.022,-62.378 -91.0432,-91.253 -7.3247,-15.084 -5.2688,-13.527 -5.1721,-28.895 0.1738,-27.616 14.5998,-47.566 34.5623,-55.924 12.129,-5.582 33.279,-11.339 47.73,-6.448 21.847,7.395 -1.715,27.217 -2.426,14.005 -0.412,-7.662 -4.346,-2.614 1.294,-10.466 -4.51,0.858 -2.745,1.404 -5.802,2.471 -4.232,-3.808 -18.375,-6.588 -19.848,0.838 z m -59.1092,72.034 c -0.0079,4.623 2.4948,-1.106 5.3779,8.307 7.0937,23.16 29.5843,39.484 48.4903,55.785 21.795,18.792 42.082,35.941 59.323,59.15 41.436,55.776 29.414,102.498 114.032,123.425 -0.76,8.882 -9.553,25.164 -2.255,33.964 6.44,7.765 9.594,17.813 15.852,24.528 -5.338,5.466 -10.778,4.562 -12.323,15.15 -1.69,11.581 -0.237,12.91 11.516,13.768 11.578,0.845 42.348,2.899 49.273,-3.869 3.446,-3.904 -2.093,-2.763 4.943,-9.306 5.893,-5.48 13.422,-17.979 14.221,-26.364 1.99,-20.875 2.219,-24.009 11.565,-41.624 6.56,-12.366 13.499,-23.138 20.569,-34.133 7.939,-12.346 11.987,-21.298 19.581,-34.36 l 7.478,-58.929 c -1.138,-0.485 -1.879,-1.277 -1.879,-2.172 0,-1.038 0.999,-1.938 2.456,-2.381 l 0.025,-0.197 34.721,-18.683 c 5.618,9.706 2.891,9.621 17.326,10.209 8.515,0.347 17.559,-0.472 22.268,-5.23 11.202,-11.321 6.604,-30.088 -3.766,-37.211 -7.141,-4.906 -9.82,-3.964 -17.396,-10.314 -23.743,-19.902 -32.521,-18.772 -51.801,-30.556 3.796,-12.984 10.039,-32.994 11.258,-47.266 1.203,-14.089 -5.559,-37.223 -15.021,-42.858 -11.554,-6.883 -37.656,-5.288 -49.172,1.816 -21.151,13.049 -6.039,26.294 -4.337,40.423 l -24.101,33.768 -53.387,-11.064 c 0.122,-0.589 -1.95,-14.916 -5.596,-20.581 -3.418,-5.309 -5.259,-11.054 -8.874,-16.627 -11.188,-17.248 -18.129,-13.01 -28.076,-22.183 4.877,-3.143 17.471,-12.558 2.594,-16.145 -15.423,-3.717 -13.966,8.517 -16.88,13.098 l -30.756,-0.541 -17.249,6.15 c -4.012,-5.547 -2.715,-11.638 -12.069,-12.182 -7.298,-0.425 -13.059,4.408 -12.255,12.404 l 10.355,6.612 c -0.771,1.537 -12.891,12.436 -16.162,16.803 -6.051,8.078 -6.006,14.211 -10.532,22.199 l -8.531,-5.747 3.565,-22.254 c 5.374,0.265 19.237,8.621 19.845,-8.339 0.957,-26.706 -3.251,-13.536 -6.781,-23.579 -3.627,-10.315 -2.666,-14.517 -18.15,-16.379 -10.985,-1.32 -18.991,1.62 -28.395,4.204 -20.369,5.597 -31.69,13.954 -40.3844,28.014 -9.8629,15.951 -9.667,50.266 -10.5058,51.297"
                 inkscape:connector-curvature="0" />
              <path
                 style="fill:#fbfbfb;stroke:none"
                 id="path3001"
                 d="m 223.427,378.194 3.861,-0.681 -1.401,-0.353 5.171,-18.201 c -0.616,-3.336 -5.14,-6.946 -8.119,-8.862 7.037,0.776 18.34,22.668 32.979,15.566 -0.905,-2.434 -1.006,-1.87 -4.478,-2.339 -6.892,-0.932 -10.097,-4.708 -11.003,-4.21 -1.986,1.095 -4.803,-4.954 -4.582,-7.479 3.374,-0.538 7.103,3.085 13.2,2.928 4.363,-0.112 10.411,-2.068 11.249,-4.668 -0.435,-1.657 -5.277,-0.277 -1.789,-3.343 0.761,-0.669 1.878,-0.198 3.676,-3.99 1.498,-3.16 11.062,-2.388 9.464,-6.149 l 0.072,-1.729 -25.449,-1.046 -0.68,-0.028 c 0.172,0.031 0.405,0.039 0.68,0.028 3.17,-0.125 12.113,-2.802 1.889,-3.749 -5.25,-0.487 -2.638,-0.124 -4.874,-2.687 -2.412,-2.765 -2.26,-2.597 -4.745,-0.778 -10.715,11.325 -26.834,27.584 -39.838,4.115 -5.696,-10.28 -2.468,-18.897 8.115,-21.412 17.023,-4.046 18.969,2.135 27.805,3.753 l 6.236,-2.842 c -1.194,-2.426 -3.599,-4.863 -5.679,-7.757 -3.903,-5.432 2.112,-5.315 2.11,-5.336 -0.818,-1.805 -0.644,-1.73 -2.739,-2.982 -3.919,-2.341 -10.953,-3.04 -15.503,-3.088 -8.592,-0.091 -13.149,1.454 -20.124,3.452 6.801,-5.598 20.574,-6.994 30.788,-4.564 13.507,3.212 14.716,14.608 16.704,18.161 l 8.228,14.248 c 3.371,-1.697 9.759,-4.94 13.033,-7.632 3.518,-2.893 7.246,-6.922 12.282,-8.716 6.992,-2.49 9.974,2.378 10.111,8.834 0.193,9.085 -4.227,10.509 -5.784,14.318 l 2.647,1.713 -0.659,1.081 -7.114,12.881 1.384,0.764 v 0.754 l -1.916,-0.567 -0.923,11.35 -3.954,16.335 c 23.238,-11.48 57.882,-80.806 6.073,-110.381 -12.205,-6.966 -10.373,6.81 -18.762,-3.747 -4.092,-5.15 -17.587,-4.289 -25.158,-3.228 l 7.787,3.348 -3.76,3.358 -9.248,-6.979 -6.059,8.564 -1.6,-1.119 3.066,-5.071 c -3.417,0.298 -8.04,1.804 -11.309,2.881 -8.314,2.74 -2.44,2.588 -6.654,7.577 -4.937,5.844 -7.349,-2.901 -18.001,7.497 -22.279,21.748 -24.929,56.527 -2.19,80.297 5.052,5.281 24.868,22.404 35.484,21.91 z"
                 inkscape:connector-curvature="0" />
              <path
                 style="fill:#fcfcfc;stroke:none"
                 id="path3003"
                 d="m 487.274,386.359 2.263,-2.584 6.879,14.353 1.391,-0.394 0.21,-8.077 17.624,-10e-4 -0.68,-0.407 3.691,-4.145 -68.052,-42.606 c -3.392,5.49 -13.576,39.213 -13.166,43.261 0.023,0.224 10.184,43.635 10.343,43.951 9.125,-0.771 22.768,-8.321 28.824,-12.736 13.466,-9.813 5.002,-23.565 10.673,-30.615 z"
                 inkscape:connector-curvature="0" />
              <path
                 style="fill:#fbfbfb;stroke:none"
                 id="path3005"
                 d="m 310.057,582.635 c 0.506,2.396 2.488,5.391 2.598,6.341 0.605,5.245 -3.051,-0.818 -2.23,5.552 0.577,4.482 6.545,9.822 9.545,11.452 7.951,4.317 26.648,4.53 36.717,3.927 11.433,-0.685 26.268,-2.323 29.525,-11.819 1.441,-4.204 10.68,-30.853 10.732,-31.299 -15.986,-0.892 -34.112,4.7 -47.703,9.328 -15.203,5.176 -30.061,17.245 -39.184,6.518 z"
                 inkscape:connector-curvature="0" />
              <path
                 style="fill:#f8f8f8;stroke:none"
                 id="path3007"
                 d="m 451.488,263.072 z m -47.859,-10.42 1.725,1.189 c 1.256,0.176 2.456,0.777 3.472,1.819 l -0.083,0.515 1.604,1.105 -1.223,1.414 c -11.861,6.95 -5.682,-12.674 -16.884,1.971 -4.759,6.221 -4.43,15.849 0.013,22.536 7.624,11.476 26.466,16.643 43.257,10.96 38.762,-13.119 19.309,-59.603 -31.881,-41.509 z"
                 inkscape:connector-curvature="0" />
              <path
                 style="fill:#f9f8f8;stroke:none"
                 id="path3009"
                 d="m 234.63,312.88 3.918,13.544 c 2.485,-1.819 2.333,-1.987 4.745,0.778 2.236,2.563 -0.376,2.2 4.874,2.687 11.114,1.03 -0.421,4.103 -2.569,3.721 l 26.129,1.074 -0.072,1.729 c 1.598,3.761 -7.966,2.989 -9.464,6.149 -1.798,3.792 -2.915,3.321 -3.676,3.99 -3.488,3.066 1.354,1.686 1.789,3.343 6.7,-4.208 2.04,-5.611 6.745,-6.962 1.615,2.115 2.037,4.117 0.704,6.761 -1.029,2.041 -0.613,1.923 -2.154,5.364 -2.155,4.813 -7.609,5.478 -8.549,10.095 15.534,-2.16 12.213,-23.423 19.82,-28.124 -4.995,11.172 -4.81,24.558 -14.532,29.092 -16.231,7.569 -22.57,-0.423 -31.28,-7.162 l -5.171,18.201 1.401,0.353 -3.861,0.681 24.796,5.116 -16.126,-10.758 0.833,-1.263 c 2.355,5.524 19.324,10.705 28.112,7.924 13.241,-4.192 11.496,-15.706 16.67,-22.261 l 0.923,-11.35 1.916,0.567 v -0.754 l -1.384,-0.764 7.114,-12.881 0.659,-1.081 -2.647,-1.713 c -8.453,3.034 -29.351,3.958 -29.642,-6.804 l -8.228,-14.248 0.032,4.311 c -1.482,-5.926 -4.869,-12.767 -9.158,-15.29 0.002,0.021 -6.013,-0.096 -2.11,5.336 2.08,2.894 4.485,5.331 5.679,7.757 z"
                 inkscape:connector-curvature="0" />
              <path
                 style="fill:#211f1f;stroke:none"
                 id="path3011"
                 d="m 219.809,319.25 c 1.35,-1.319 0.344,-1.329 2.97,-1.658 1.209,-0.151 1.78,0.296 2.77,0.724 2.434,1.05 1.922,1.423 4.751,1.606 0.87,1.141 0.055,0.407 0.372,2.272 0.577,2.38 0.991,1.185 1.278,4.663 -1.541,1.081 -3.215,1.891 -4.923,2.39 v 0 l -0.01,0.017 0.003,-0.004 0.007,-0.013 m -0.01,0.017 -0.037,-0.002 c -4.771,1.378 -9.798,0.322 -12.946,-4.094 1.192,-3.204 2.755,-3.432 5.775,-5.918 m 18.739,7.174 -3.918,-13.544 c -8.836,-1.618 -10.782,-7.799 -27.805,-3.753 -10.583,2.515 -13.811,11.132 -8.115,21.412 13.004,23.469 29.123,7.21 39.838,-4.115 z"
                 inkscape:connector-curvature="0" />
              <path
                 style="fill:#f9f9f9;stroke:none"
                 id="path3013"
                 d="m 487.274,386.359 c 3.464,11.906 -7.451,29.493 5.497,35.105 l 8.137,-23.974 17.974,-0.303 -1.242,5.889 c -13.212,-13.904 -24.25,10.584 -2.294,11.193 16.476,0.457 13.508,-24.288 3.306,-29.165 l -3.691,4.145 0.68,0.407 -17.624,10e-4 -0.21,8.077 -1.391,0.394 -6.879,-14.353 z"
                 inkscape:connector-curvature="0" />
              <path
                 style="fill:#f8f8f8;stroke:none"
                 id="path3015"
                 d="m 118.967,240.038 c -0.143,2.753 4.576,1.032 5.6,0.517 0.087,0.08 0.137,0.168 0.153,0.318 l 1.001,2.309 c 1.028,3.44 0.249,5.496 0.075,9.953 l 1.627,-4.772 c 0.038,-0.147 0.026,-0.432 0.144,-0.6 0.272,4.276 -0.681,1.796 2.34,3.161 -1.651,-6.906 -0.236,-11.118 5.857,-13.212 -4.078,3.354 -7.371,12.056 -0.782,15.613 -1.126,1.202 0.574,0.291 -2.162,0.397 l 1.638,3.156 c 0.621,2.441 0.205,3.044 -0.268,5.298 -2.456,0.959 1.389,0.767 -0.582,-0.366 -2.016,-1.159 1.62,-1.726 -0.845,-0.384 0.515,2.103 1.08,4.463 1.829,6.611 l 1.224,6.141 c 1.975,0.162 1.83,0.642 3.21,-0.554 l 0.59,-1.077 c 0.398,-1.1 -0.632,0.058 0.153,-1.111 l -1.229,-2.696 c -2.849,-1.779 -2.935,-4.189 -1.46,-8.835 1.063,-3.348 3.011,-5.164 4.898,-6.728 -4.989,-3.694 -6.046,-9.253 -2.063,-12.739 1.473,-7.426 15.616,-4.646 19.848,-0.838 3.057,-1.067 1.292,-1.613 5.802,-2.471 -5.64,7.852 -1.706,2.804 -1.294,10.466 0.711,13.212 24.273,-6.61 2.426,-14.005 -14.451,-4.891 -35.601,0.866 -47.73,6.448 z"
                 inkscape:connector-curvature="0" />
              <path
                 style="fill:#211f1f;stroke:none"
                 id="path3017"
                 d="m 254.651,322.172 c 0.291,10.762 21.189,9.838 29.642,6.804 1.557,-3.809 5.977,-5.233 5.784,-14.318 -0.137,-6.456 -3.119,-11.324 -10.111,-8.834 -5.036,1.794 -8.764,5.823 -12.282,8.716 -3.274,2.692 -9.662,5.935 -13.033,7.632 z"
                 inkscape:connector-curvature="0" />
              <path
                 style="fill:#231f20;stroke:none"
                 id="path3019"
                 d="m 260.304,349.895 c -0.838,2.6 -6.886,4.556 -11.249,4.668 -1.188,0.03 -2.285,-0.083 -3.308,-0.281 -0.757,-0.146 -1.473,-0.339 -2.154,-0.554 -0.657,-0.208 -1.281,-0.437 -1.878,-0.665 -0.629,-0.24 -1.228,-0.48 -1.802,-0.695 -0.693,-0.259 -1.351,-0.481 -1.985,-0.623 -0.715,-0.16 -1.401,-0.217 -2.073,-0.11 -0.007,0.079 -0.012,0.157 -0.016,0.235 9.67,3.806 16.111,4.74 22.066,1.215 4.95,-2.93 7.649,-6.834 9.161,-10.13 l -0.017,-0.022 -0.185,0.055 c -0.551,0.167 -0.963,0.336 -1.275,0.511 -0.935,0.524 -0.978,1.107 -1.176,1.888 -0.125,0.493 -0.313,1.063 -0.824,1.748 -0.571,0.763 -1.544,1.667 -3.285,2.76 z m -24.465,1.975 c -0.011,0.239 -0.008,0.476 0.009,0.709 0.019,0.254 0.054,0.506 0.104,0.753 9.607,3.768 16.021,4.681 21.953,1.17 5.399,-3.195 8.121,-7.55 9.545,-11.01 -0.119,-0.178 -0.247,-0.357 -0.384,-0.537 -1.512,3.296 -4.211,7.2 -9.161,10.13 -5.955,3.525 -12.396,2.591 -22.066,-1.215 z m 0.113,1.462 c 0.04,0.19 0.088,0.378 0.145,0.564 0.114,0.37 0.262,0.73 0.441,1.081 9.283,3.576 15.556,4.382 21.367,0.943 5.86,-3.469 8.566,-8.304 9.883,-11.877 l -0.004,-0.006 c -0.102,-0.182 -0.214,-0.363 -0.334,-0.545 -1.424,3.46 -4.146,7.815 -9.545,11.01 -5.932,3.511 -12.346,2.598 -21.953,-1.17 z m 0.586,1.645 0.07,0.132 c 0.208,0.387 0.453,0.762 0.731,1.124 0.176,0.23 0.365,0.455 0.565,0.675 8.542,3.132 14.48,3.697 20.001,0.429 6.332,-3.748 8.981,-9.091 10.174,-12.714 -0.086,-0.194 -0.183,-0.387 -0.291,-0.58 -1.317,3.573 -4.023,8.408 -9.883,11.877 -5.811,3.439 -12.084,2.633 -21.367,-0.943 z m 1.366,1.931 c 0.116,0.126 0.235,0.251 0.357,0.373 0.743,0.745 1.618,1.428 2.568,2.046 7.015,2.211 12.208,2.309 17.076,-0.573 6.801,-4.025 9.354,-9.89 10.416,-13.489 l -0.007,-0.023 c -0.066,-0.208 -0.144,-0.414 -0.235,-0.619 -1.193,3.623 -3.842,8.966 -10.174,12.714 -5.521,3.268 -11.459,2.703 -20.001,-0.429 z m 2.925,2.419 c 1.827,1.189 3.933,2.137 5.914,2.82 4.216,0.593 7.768,0.033 11.162,-1.975 7.214,-4.27 9.648,-10.609 10.593,-14.117 -0.037,-0.267 -0.097,-0.53 -0.177,-0.79 -1.062,3.599 -3.615,9.464 -10.416,13.489 -4.868,2.882 -10.061,2.784 -17.076,0.573 z m 5.914,2.82 c 1.757,0.606 3.416,1.004 4.697,1.177 0.594,0.08 1.09,0.13 1.508,0.17 1.723,-0.334 3.358,-0.958 4.957,-1.905 4.707,-2.786 7.379,-6.454 8.931,-9.641 0.235,-0.707 0.377,-1.184 0.917,-2.254 0.058,-0.115 0.113,-0.229 0.164,-0.341 0.235,-0.669 0.42,-1.287 0.57,-1.838 0.076,-0.504 0.078,-0.988 0.011,-1.46 -0.945,3.508 -3.379,9.847 -10.593,14.117 -3.394,2.008 -6.946,2.568 -11.162,1.975 z m 6.205,1.347 c 2.022,0.194 2.22,0.152 2.97,2.169 -7.483,3.631 -14.094,-0.316 -19.71,-5.145 -1.009,-0.392 -2.053,-0.817 -3.135,-1.272 1.082,0.455 2.126,0.88 3.135,1.272 -0.636,-0.547 -1.259,-1.105 -1.87,-1.665 -0.328,-0.3 -0.651,-0.601 -0.971,-0.901 l -0.294,-0.123 0.294,0.123 -0.131,-0.123 c -4.062,-3.814 -7.513,-7.425 -10.297,-7.732 2.979,1.916 7.503,5.526 8.119,8.862 8.71,6.739 15.049,14.731 31.28,7.162 9.722,-4.534 9.537,-17.92 14.532,-29.092 -7.607,4.701 -4.286,25.964 -19.82,28.124 0.94,-4.617 6.394,-5.282 8.549,-10.095 0.733,-1.637 1.023,-2.468 1.237,-3.11 -1.552,3.187 -4.224,6.855 -8.931,9.641 -1.599,0.947 -3.234,1.571 -4.957,1.905 z m 14.969,-14.141 c 0.295,-0.647 0.482,-1.255 0.57,-1.838 -0.15,0.551 -0.335,1.169 -0.57,1.838 z"
                 inkscape:connector-curvature="0" />
              <path
                 style="fill:#f9f8f8;stroke:none"
                 id="path3021"
                 d="m 318.914,608.522 c 2.446,5.441 6.41,6.082 15.472,8.534 7.835,2.12 11.551,3.01 20.239,1.891 10.628,-1.369 32.789,-5.94 32.065,-15.987 -7.797,7.032 -16.32,9.083 -30.399,9.691 -21.929,0.947 -23.447,-2.372 -37.377,-4.129 z"
                 inkscape:connector-curvature="0" />
              <path
                 style="fill:#f9f8f8;stroke:none"
                 id="path3023"
                 d="m 322.425,432.273 3.59,9.819 c 4.211,-1.508 5.258,-3.481 11.223,-4.033 l -2.846,1.772 c -2.551,1.174 -4.634,1.188 -7.109,3.822 l 2.918,5.931 c 4.538,-0.79 6.718,-4.073 14.423,-4.836 l -2.22,-5.824 -5.343,-0.202 c 1.776,-1.387 2.358,-1.079 4.208,-1.818 -1.988,-8.476 -3.605,-10.418 -18.844,-4.631 z"
                 inkscape:connector-curvature="0" />
              <path
                 style="fill:#f6f6f6;stroke:none"
                 id="path3025"
                 d="m 200.308,269.903 c 7.224,0.378 9.762,-3.86 7.739,-10.957 -4.937,-17.316 -23.541,-7.023 -17.149,0.637 1.512,1.812 3.853,2.857 5.769,3.996 2.666,1.586 2.285,3.648 3.641,6.324 z"
                 inkscape:connector-curvature="0" />
              <path
                 style="fill:#525252;stroke:none"
                 id="path3027"
                 d="m 138.54,268.74 c -1.543,-2.365 -0.462,-0.473 -0.115,-1.247 0.531,0.834 1.315,2.912 3.39,2.928 0.242,-0.096 0.532,-0.607 0.658,-0.425 l 2.735,-1.581 c 0.641,-0.271 0.017,-0.295 0.887,-0.236 l 0.08,-1.604 2.559,0.176 c -1.363,-1.432 1.735,-0.587 -2.81,-1.84 -2.874,0.153 -4.025,-1.392 -5.546,-2.735 0.142,-9.104 10.712,-5.342 17.981,-3.707 5.358,1.205 2.415,1.677 6.699,2.841 4.202,0.084 1.051,-0.472 1.765,-1.3 -0.732,2.613 -0.25,0.653 1.211,1.412 l -0.852,-7.175 c -1.626,1.84 -1.358,-3.174 -1.37,2.464 -0.918,-4.296 -2.136,-3.471 -3.122,-3.53 0.229,0.1 0.11,2.822 0.94,-0.214 1.12,-4.096 0.312,-0.339 -0.072,-2.036 -1.548,-0.295 -1.834,-0.411 -2.992,0.75 l 0.353,-0.619 -6.237,0.499 c -0.897,0.512 0.001,0.422 -1.637,0.578 -0.01,10e-4 -1.863,-0.091 -1.971,-0.099 -0.601,0.642 1.261,2.636 -5.569,0.605 -7.472,-2.222 -7.211,-4.56 -5.367,-12.213 l -0.223,0.006 c -3.983,3.486 -2.926,9.045 2.063,12.739 -1.887,1.564 -3.835,3.38 -4.898,6.728 -1.475,4.646 -1.389,7.056 1.46,8.835 z"
                 inkscape:connector-curvature="0" />
              <path
                 style="fill:#f9f9f9;stroke:none"
                 id="path3029"
                 d="m 150.633,267.425 c -3.201,4.579 -0.093,1.31 -4.942,3.753 -5.039,2.539 -0.892,15.659 7.291,14.983 14.051,-1.161 3.572,-27.204 -2.349,-18.736 z"
                 inkscape:connector-curvature="0" />
              <path
                 style="fill:#f8f8f8;stroke:none"
                 id="path3031"
                 d="m 453.39,313.852 c -9.058,3.103 -15.164,5.852 -26.255,2.668 -8.065,-2.316 -13.579,-7.809 -19.436,-11.246 6.351,12.969 23.572,23.177 35.391,18.259 4.153,-1.728 8.744,-5.989 10.3,-9.681 z"
                 inkscape:connector-curvature="0" />
              <path
                 style="fill:#f7f7f7;stroke:none"
                 id="path3033"
                 d="m 270.337,261.632 c 1.303,-2.619 0.582,-3.572 2.629,-6.313 1.645,-2.201 2.967,-2.478 4.671,-4.324 7.625,-8.258 -13.155,-14.519 -16.181,1.047 -1.435,7.38 1.822,10.074 8.881,9.59 z"
                 inkscape:connector-curvature="0" />
              <path
                 style="fill:#f8f8f8;stroke:none"
                 id="path3035"
                 d="m 419.223,310.913 c 5.909,7.543 26.994,7.007 34.998,0.419 2.662,-2.191 3.853,-7.66 4.101,-11.764 -6.343,4.035 -10.503,11.407 -27.036,11.207 -5.519,-0.066 -7.531,-1.602 -12.063,0.138 z"
                 inkscape:connector-curvature="0" />
              <path
                 style="fill:#fbfbfb;stroke:none"
                 id="path3037"
                 d="m 319.755,421.156 c 7.719,-1.125 7.25,-3.024 17.382,-1.818 l 0.33,-12.384 c -4.943,-0.868 -9.373,-1.195 -14.498,0.369 -5.738,1.751 -3.843,7.881 -3.214,13.833 z"
                 inkscape:connector-curvature="0" />
              <path
                 style="fill:#f9f9f9;stroke:none"
                 id="path3039"
                 d="m 145.924,264.911 c 10.008,0.448 8.708,-3.199 15.389,5.334 5.416,-0.158 8.466,-5.191 3.745,-8.935 -4.284,-1.164 -1.341,-1.636 -6.699,-2.841 -7.269,-1.635 -17.839,-5.397 -17.981,3.707 1.521,1.343 2.672,2.888 5.546,2.735 z"
                 inkscape:connector-curvature="0" />
              <path
                 style="fill:#f9f9f9;stroke:none"
                 id="path3041"
                 d="m 314.198,632.81 c 7.889,-3.723 6.042,-2.223 5.624,5.592 l 19.572,1.128 c -1.586,-4.618 -14.311,-17.429 -19.999,-13.874 -2.75,1.719 -4.442,3.763 -5.197,7.154 z"
                 inkscape:connector-curvature="0" />
              <path
                 style="fill:#f9f9f9;stroke:none"
                 id="path3043"
                 d="m 319.585,406.993 c 9.312,-2.375 8.77,-2.006 18.67,-1.535 l 2.568,-9.657 c -5.044,-1.4 -17.58,-2.576 -19.907,3.522 -0.667,1.749 -1.133,5.48 -1.331,7.67 z"
                 inkscape:connector-curvature="0" />
              <path
                 style="fill:#f7f5f6;stroke:none"
                 id="path3045"
                 d="m 369.044,638.393 c -20.027,2.904 -38.095,5.933 -57.891,0.109 0.697,6.127 5.78,5.247 11.663,5.617 9.288,0.583 24.676,0.774 33.801,-0.186 4.507,-0.474 11.531,-0.48 12.427,-5.54 z"
                 inkscape:connector-curvature="0" />
              <path
                 style="fill:#f8f6f7;stroke:none"
                 id="path3047"
                 d="m 412.89,305.721 c 12.971,3.277 27.71,8.253 42.074,-4.865 3.784,-3.455 5.11,-6.221 4.471,-13.799 -11.885,26.298 -42.954,16.952 -46.545,18.664 z"
                 inkscape:connector-curvature="0" />
              <path
                 style="fill:#f9f9f9;stroke:none"
                 id="path3049"
                 d="m 167.182,254.247 0.852,7.175 c 2.156,1.855 2.163,2.94 6.275,3.407 12.781,1.452 11.74,-12.324 3.502,-15.66 -4.044,2.091 -2.782,6.476 -10.629,5.078 z"
                 inkscape:connector-curvature="0" />
              <path
                 style="fill:#f8f6f7;stroke:none"
                 id="path3051"
                 d="m 383.043,617.112 c -27.142,9.679 -35.006,2.829 -56.935,-0.937 11.217,11.714 53.803,12.347 56.935,0.937 z"
                 inkscape:connector-curvature="0" />
              <path
                 style="fill:#f9f8f8;stroke:none"
                 id="path3053"
                 d="m 322.898,394.92 c 8.03,-1.464 9.793,-2.818 18.392,-0.359 2.393,-2.496 3.595,-5.305 3.145,-9.4 -3.781,-2.617 -17.588,-5.693 -21.537,9.759 z"
                 inkscape:connector-curvature="0" />
              <path
                 style="fill:#f9f8f8;stroke:none"
                 id="path3055"
                 d="m 154.682,251.561 6.237,-0.499 c 1.512,-5.42 0.419,1.326 -2.08,-6.008 -0.299,-0.88 0.767,-2.212 -5.28,-4.46 -12.4,-4.608 -18.73,9.679 1.123,10.967 z"
                 inkscape:connector-curvature="0" />
              <path
                 style="fill:#f4f0f3;stroke:none"
                 id="path3057"
                 d="m 379.928,622.664 c -7.797,1.548 -12.153,3.551 -21.36,3.937 -8.627,0.363 -14.822,-0.741 -22.527,-1.949 l -0.112,-1.076 c -0.59,-2.13 2.392,1.816 -0.298,-0.705 l -8.96,-4.089 c 2.222,1.245 0.946,1.616 4.981,3.167 5.898,2.267 0.909,1.011 5.3,3.707 4.611,2.83 26.242,5.688 32.13,5.588 5.265,-0.089 7.708,-1.224 10.846,-8.58 z"
                 inkscape:connector-curvature="0" />
              <path
                 style="fill:#f8f6f7;stroke:none"
                 id="path3059"
                 d="m 426.787,324.465 c -3.763,-2.766 -16.427,-7.917 -20.201,-18.138 -1.943,-5.26 -1.418,-5.115 -6.94,-6.998 0.524,7.483 3.083,15.03 7.627,18.331 3.943,2.864 13.649,6.709 19.514,6.805 z"
                 inkscape:connector-curvature="0" />
              <path
                 style="fill:#f9f8f8;stroke:none"
                 id="path3061"
                 d="m 331.781,451.177 4.991,8.162 c 4.214,-1.042 6.673,-3.678 13.131,-4.819 -0.843,-3.127 -2.672,-5.766 -4.196,-8.342 -5.86,0.038 -10.256,2.104 -13.926,4.999 z"
                 inkscape:connector-curvature="0" />
              <path
                 style="fill:#f9f9f9;stroke:none"
                 id="path3063"
                 d="m 320.356,422.755 1.245,8.112 c 7.234,-1.481 6.96,-3.615 16.944,-2.587 -1.103,-7.551 -0.781,-11.462 -18.189,-5.525 z"
                 inkscape:connector-curvature="0" />
              <path
                 style="fill:#f7f7f7;stroke:none"
                 id="path3065"
                 d="m 432.941,303.944 c 10.629,-0.085 28.946,-10.905 24.801,-25.526 l -0.841,0.926 c -0.082,0.112 -0.28,0.339 -0.376,0.478 -1.42,2.06 -1.15,2.761 -3.737,6.099 -5.815,7.504 -6.934,12.546 -19.847,18.023 z"
                 inkscape:connector-curvature="0" />
              <path
                 style="fill:#f9f9f9;stroke:none"
                 id="path3067"
                 d="m 182.791,266.757 c -2.528,0.11 -3.294,1.103 -6.484,1.078 -3.516,-0.027 -4.068,-1.395 -7.163,-1.043 -1.055,5.67 -1.699,11.043 5.587,10.377 5.628,-0.515 8.217,-4.694 8.06,-10.412 z"
                 inkscape:connector-curvature="0" />
              <path
                 style="fill:#f7f7f7;stroke:none"
                 id="path3069"
                 d="m 415.588,303.922 c 13.871,2.476 26.296,-4.149 31.381,-12.42 -10.055,6.194 -22.194,6.171 -31.381,12.42 z"
                 inkscape:connector-curvature="0" />
              <path
                 style="fill:#2e2e2e;stroke:none"
                 id="path3071"
                 d="m 237.297,296.945 c 4.289,2.523 7.676,9.364 9.158,15.29 l -0.032,-4.311 c -1.988,-3.553 -3.197,-14.949 -16.704,-18.161 -10.214,-2.43 -23.987,-1.034 -30.788,4.564 6.975,-1.998 11.532,-3.543 20.124,-3.452 4.55,0.048 11.584,0.747 15.503,3.088 2.095,1.252 1.921,1.177 2.739,2.982 z"
                 inkscape:connector-curvature="0" />
              <path
                 style="fill:#f9f9f9;stroke:none"
                 id="path3073"
                 d="m 357.526,501.371 0.653,10.877 c 4.31,1.253 3.924,1.324 8.148,-0.045 1.585,-3.786 1.289,-8.259 1.287,-12.501 -4.455,1.889 -4.624,2.084 -10.088,1.669 z"
                 inkscape:connector-curvature="0" />
              <path
                 style="fill:#f9f9f9;stroke:none"
                 id="path3075"
                 d="m 355.209,491.272 1.782,8.492 c 6.047,0.92 5.934,0.36 10.365,-1.562 l -1.078,-9.349 c -4.766,1.127 -5.357,2.019 -11.069,2.419 z"
                 inkscape:connector-curvature="0" />
              <path
                 style="fill:#f9f8f8;stroke:none"
                 id="path3077"
                 d="m 347.241,475.149 2.793,5.448 c 4.228,0.078 8.957,-0.824 12.205,-2.448 -0.279,-2.62 -1.318,-4.917 -2.951,-6.877 -4.004,0.624 -8.981,1.726 -12.047,3.877 z"
                 inkscape:connector-curvature="0" />
              <path
                 style="fill:#f8f8f8;stroke:none"
                 id="path3079"
                 d="m 338.351,460.901 2.884,4.984 13.386,-3.778 -3.488,-6.191 c -4.407,-0.08 -10.389,2.59 -12.782,4.985 z"
                 inkscape:connector-curvature="0" />
              <path
                 style="fill:#f8f8f8;stroke:none"
                 id="path3081"
                 d="m 351.238,482.276 2.781,6.591 c 0.101,0.15 0.292,0.381 0.378,0.501 0.086,0.122 0.25,0.341 0.391,0.497 4.733,-0.095 7.127,-0.949 10.528,-2.532 l -1.836,-7.381 z"
                 inkscape:connector-curvature="0" />
              <path
                 style="fill:#f8f8f8;stroke:none"
                 id="path3083"
                 d="m 342.779,467.65 3.186,5.801 12.666,-3.704 -2.867,-5.933 c -4.782,0.169 -9.895,1.528 -12.985,3.836 z"
                 inkscape:connector-curvature="0" />
              <path
                 style="fill:#f9f8f8;stroke:none"
                 id="path3085"
                 d="m 356.559,524.876 5.703,0.751 c 2.069,-2.772 3.345,-7.556 4.018,-11.658 -4.586,0.792 -4.18,0.339 -8.424,0.083 z"
                 inkscape:connector-curvature="0" />
              <path
                 style="fill:#f4f0f3;stroke:none"
                 id="path3087"
                 d="m 322.337,621.172 c 4.514,5.807 22.445,10.747 26.937,17.685 l 6.032,-0.388 c -6.05,-7.497 -19.83,-9.055 -28.588,-16.016 -1.869,-1.487 -1.559,-1.727 -4.381,-1.281 z"
                 inkscape:connector-curvature="0" />
              <path
                 style="fill:#efefef;stroke:none"
                 id="path3089"
                 d="m 356.299,620.33 c 6.346,0.562 12.513,-0.103 18.323,-1.59 6.741,-1.725 10.115,-2.682 11.403,-9.239 -4.151,1.936 -6.75,4.658 -13.054,6.79 -5.802,1.963 -10.851,2.555 -16.672,4.039 z"
                 inkscape:connector-curvature="0" />
              <path
                 style="fill:#f9f8f8;stroke:none"
                 id="path3091"
                 d="m 505.949,422.272 c -2.915,-5.623 -3.124,-3.573 -4.3,-11.572 -4.566,0.24 -6.29,2.203 -5.748,7.399 0.487,4.659 6.008,4.103 10.048,4.173 z"
                 inkscape:connector-curvature="0" />
              <path
                 style="fill:#f8f6f7;stroke:none"
                 id="path3093"
                 d="m 350.116,539.847 c 5.76,0.151 8.718,-5.896 11.804,-12.648 l -5.636,-0.826 c -0.765,1.087 -5.403,11.632 -6.168,13.474 z"
                 inkscape:connector-curvature="0" />
              <path
                 style="fill:#303030;stroke:none"
                 id="path3095"
                 d="m 256.882,297.091 c 4.233,-9.649 23.515,-11.078 31.753,-12.039 -13.352,-2.466 -32.022,1.529 -31.753,12.039 z"
                 inkscape:connector-curvature="0" />
              <path
                 style="fill:#f7f7f7;stroke:none"
                 id="path3097"
                 d="m 365.377,636.379 c -3.779,-3.64 -12.249,-6.3 -18.582,-5.873 2.087,1.702 9.82,7.475 12.479,7.518 0.316,0.005 3.071,-0.383 3.408,-0.467 z"
                 inkscape:connector-curvature="0" />
              <path
                 style="fill:#f4f0f3;stroke:none"
                 id="path3099"
                 d="m 230.672,322.194 c -1.884,1.967 -0.692,1.794 -1.616,4.016 -0.518,1.245 -1.245,1.723 -2.039,3.054 l 0.01,-0.017 c 1.708,-0.499 3.382,-1.309 4.923,-2.39 -0.287,-3.478 -0.701,-2.283 -1.278,-4.663 z m -3.655,7.07 c -1.884,-0.14 -7.459,0.308 -7.132,-5.511 0.171,-3.032 2.26,-3.623 3.139,-4.765 l -3.215,0.262 c -3.02,2.486 -4.583,2.714 -5.775,5.918 3.148,4.416 8.175,5.472 12.946,4.094 z"
                 inkscape:connector-curvature="0" />
              <path
                 style="fill:#e7e3e6;stroke:none"
                 id="path3101"
                 d="m 140.138,240.432 c -1.844,7.653 -2.105,9.991 5.367,12.213 6.83,2.031 4.968,0.037 5.569,-0.605 -4.156,0.074 -8.049,-2.193 -10.574,-4.713 -0.351,-5.275 1.954,-9.02 7.297,-9.326 6.146,-0.351 8.769,3.314 12.436,3.837 -2.153,-4.403 -11.799,-5.933 -16.114,-4.451 -2.95,1.013 -2.236,1.176 -3.981,3.045 z"
                 inkscape:connector-curvature="0" />
              <path
                 style="fill:#f6f6f6;stroke:none"
                 id="path3103"
                 d="m 523.776,414.676 c -7.614,6.385 -13.363,0.553 -19.378,-0.656 1.235,3.8 3.988,7.279 9.373,7.2 5.301,-0.078 8.147,-3.984 10.005,-6.544 z"
                 inkscape:connector-curvature="0" />
              <path
                 style="fill:#444243;stroke:none"
                 id="path3105"
                 d="m 230.672,322.194 c -0.317,-1.865 0.498,-1.131 -0.372,-2.272 -2.829,-0.183 -2.317,-0.556 -4.751,-1.606 -0.99,-0.428 -1.561,-0.875 -2.77,-0.724 -2.626,0.329 -1.62,0.339 -2.97,1.658 l 3.215,-0.262 c -0.879,1.142 -2.968,1.733 -3.139,4.765 -0.327,5.819 5.248,5.371 7.132,5.511 0.794,-1.331 1.521,-1.809 2.039,-3.054 0.924,-2.222 -0.268,-2.049 1.616,-4.016 z m -7.678,3.535 3.407,0.403 c 0.578,-2.938 1.188,-1.536 -0.597,-3.855 -2.672,-0.018 -2.74,-0.249 -2.81,3.452 z"
                 inkscape:connector-curvature="0" />
              <path
                 style="fill:#676767;stroke:none"
                 id="path3107"
                 d="m 392.536,268.175 c -0.574,-9.953 10.84,-6.756 12.19,-3.413 2.403,5.953 -7.312,8.778 -12.19,3.413 z m 2.069,-7.004 c -8.016,3.627 -1.692,14.878 7.906,10.551 8.909,-4.017 1.305,-14.72 -7.906,-10.551 z"
                 inkscape:connector-curvature="0" />
              <path
                 style="fill:#6a6969;stroke:none"
                 id="path3109"
                 d="m 395.225,277.924 c 3.324,-5.293 8.15,-2.735 12.247,-1.127 0.51,4.74 -0.277,6.692 -5.435,6.749 -4.25,0.046 -6.641,-1.564 -6.812,-5.622 z m -1.204,2.25 c 1.304,6.926 17.1,6.302 14.899,-2.175 -1.453,-5.598 -16.623,-6.977 -14.899,2.175 z"
                 inkscape:connector-curvature="0" />
              <path
                 style="fill:#eeeeee;stroke:none"
                 id="path3111"
                 d="m 419.899,299.257 c -12.566,-1.635 -15.018,-2.544 -23.922,-7.924 3.086,6.317 15.1,12.025 23.922,7.924 z"
                 inkscape:connector-curvature="0" />
              <path
                 style="fill:#f3eff0;stroke:none"
                 id="path3113"
                 d="m 401.153,312.346 c -1.293,-5.887 -2.401,-7.622 -2.959,-14.932 l -2.684,-2.131 c -1.411,7.3 2.022,13.849 5.643,17.063 z"
                 inkscape:connector-curvature="0" />
              <path
                 style="fill:#f8f6f7;stroke:none"
                 id="path3115"
                 d="m 332.215,382.229 12.294,0.518 0.079,-4.711 c -3.044,0.06 -4.232,0.07 -7.18,1.045 -2.86,0.947 -3.411,1.372 -5.193,3.148 z"
                 inkscape:connector-curvature="0" />
              <path
                 style="fill:#f7f7f7;stroke:none"
                 id="path3117"
                 d="m 400.901,254.965 c 0.501,3.986 1.993,5.134 7.437,3.725 l 0.488,-3.03 c -2.212,-2.268 -5.297,-2.452 -7.925,-0.695 z"
                 inkscape:connector-curvature="0" />
              <path
                 style="fill:#615f60;stroke:none"
                 id="path3119"
                 d="m 407.446,285.994 c 0.122,-0.113 8.461,-4.956 7.549,4.123 -4.218,0.974 -7.645,0.67 -7.549,-4.123 z m 8.914,4.274 c 0.732,-9.594 -9.47,-7.516 -10.3,-3.748 -0.561,2.541 2.006,4.42 4.067,5.032 2.822,0.835 4.182,-0.016 6.233,-1.284 z"
                 inkscape:connector-curvature="0" />
              <path
                 style="fill:#3c3c3c;stroke:none"
                 id="path3121"
                 d="m 129.907,250.924 c 0.818,0.452 2.603,2.209 2.913,2.798 2.736,-0.106 1.036,0.805 2.162,-0.397 -6.589,-3.557 -3.296,-12.259 0.782,-15.613 -6.093,2.094 -7.508,6.306 -5.857,13.212 z"
                 inkscape:connector-curvature="0" />
              <path
                 style="fill:#f7f7f7;stroke:none"
                 id="path3123"
                 d="m 269.213,321.967 c 3.524,-1.056 5.33,-2.436 6.158,-5.223 -1.83,-0.833 -3.71,-1.482 -6.698,-1.28 z"
                 inkscape:connector-curvature="0" />
              <path
                 style="fill:#eeeced;stroke:none"
                 id="path3125"
                 d="m 342.79,639.152 4.593,0.016 c -1.036,-3.101 -7.376,-6.772 -10.24,-7.007 2.872,2.401 2.921,4.494 5.647,6.991 z"
                 inkscape:connector-curvature="0" />
              <path
                 style="fill:#dddbdc;stroke:none"
                 id="path3127"
                 d="m 223.192,321.032 c -4.142,4.405 -0.967,7.725 4.4,5.914 1.118,-4.104 0.179,-6.554 -4.4,-5.914 z"
                 inkscape:connector-curvature="0" />
              <path
                 style="fill:#f7f5f6;stroke:none"
                 id="path3129"
                 d="m 314.677,637.441 c 2.769,0.624 2.401,0.401 3.735,-0.312 l 0.863,-4.891 c -3.384,0.687 -5.133,1.864 -4.598,5.203 z"
                 inkscape:connector-curvature="0" />
              <path
                 style="fill:#efefef;stroke:none"
                 id="path3131"
                 d="m 368.287,635.7 3.979,-2.908 -9.57,-0.241 c 0.166,0.141 0.411,0.139 0.498,0.417 0.084,0.269 0.373,0.31 0.489,0.391 0.711,0.496 0.642,0.468 1.453,0.955 1.853,1.114 1.258,0.867 3.151,1.386 z"
                 inkscape:connector-curvature="0" />
              <path
                 style="fill:#d3d2d2;stroke:none"
                 id="path3133"
                 d="m 265.746,320.994 c -1.845,0.334 -1.529,-0.093 -1.993,-0.342 -0.915,-0.49 1.665,-0.464 -0.841,-0.543 -2.09,-0.066 -0.683,0.138 -1.473,0.56 2.337,3.262 4.056,2.242 6.41,0.908 0.446,-3.002 0.992,-2.423 -0.8,-4.52 -0.802,1.88 0.339,-0.913 -0.342,1.484 z"
                 inkscape:connector-curvature="0" />
              <path
                 style="fill:#cdcdcd;stroke:none"
                 id="path3135"
                 d="m 344.43,546.987 c 2.868,-0.765 6.342,-3.466 7.318,-5.724 -3.152,-0.257 -3.158,0.047 -4.677,1.976 -0.957,1.215 -1.713,2.605 -2.641,3.748 z"
                 inkscape:connector-curvature="0" />
              <path
                 style="fill:#212121;stroke:none"
                 id="path3137"
                 d="m 222.994,325.729 3.407,0.403 c 0.578,-2.938 1.188,-1.536 -0.597,-3.855 -2.672,-0.018 -2.74,-0.249 -2.81,3.452 z"
                 inkscape:connector-curvature="0" />
              <path
                 style="fill:#f0f0f0;stroke:none"
                 id="path3139"
                 d="m 146.095,268.179 0.709,1.699 c 2.457,-1.051 2.785,-0.564 1.93,-3.127 l -2.559,-0.176 z"
                 inkscape:connector-curvature="0" />
              <path
                 style="fill:#ededed;stroke:none"
                 id="path3141"
                 d="m 160.233,245.678 c 1.269,1.59 -0.321,1.27 3.033,1.271 0.048,-3.528 -2.271,-3.582 -3.033,-1.271 z"
                 inkscape:connector-curvature="0" />
              <path
                 style="fill:#f3eff0;stroke:none"
                 id="path3143"
                 d="m 166.823,260.01 -0.695,-2.602 c -2.283,-0.023 -2.138,0.68 -1.953,2.285 z"
                 inkscape:connector-curvature="0" />
              <path
                 style="fill:#e1dfe0;stroke:none"
                 id="path3145"
                 d="m 165.101,271.175 c 1.35,1.613 0.949,2.21 2.505,0 -0.427,-0.291 1.19,-2.739 -2.505,0 z"
                 inkscape:connector-curvature="0" />
              <path
                 style="fill:#fbfbfb;stroke:none"
                 id="path3147"
                 d="M 451.488,263.072 Z"
                 inkscape:connector-curvature="0" />
              <path
                 style="fill:#5c5c5c;stroke:none"
                 id="path3149"
                 d="m 451.488,263.072 z m 0,0 z"
                 inkscape:connector-curvature="0" />
              <path
                 style="fill:none;stroke:#2c2c2b;stroke-width:0.50003099"
                 id="path3151"
                 d="m 198.164,322.76 c -0.453,-1.812 -0.265,-3.218 0.219,-4.531 0.484,-1.312 1.266,-2.531 2.656,-3.766 1.391,-1.234 3.391,-2.484 5.547,-3.249 2.156,-0.766 4.469,-1.048 7.375,-1.141 2.906,-0.094 6.406,0 9.234,0.437 2.829,0.438 4.985,1.219 6.594,2.016 1.61,0.797 2.672,1.609 3.407,2.641 0.734,1.031 1.14,2.281 1.624,3.781 0.485,1.5 1.047,3.25 1.219,4.844 0.172,1.593 -0.047,3.031 -0.906,4.406 -0.859,1.375 -2.359,2.688 -3.875,3.984 -1.516,1.297 -3.047,2.579 -5.063,3.813 -2.015,1.234 -4.515,2.422 -6.984,3.141 -2.469,0.718 -4.906,0.968 -7.484,0.312 -2.578,-0.656 -5.297,-2.219 -7.141,-4.109 -1.844,-1.891 -2.813,-4.11 -3.844,-6.329 -1.031,-2.218 -2.125,-4.437 -2.578,-6.25 z"
                 inkscape:connector-curvature="0" />
              <path
                 style="fill:none;stroke:#2c2c2b;stroke-width:0.50003099"
                 id="path3153"
                 d="m 203.649,315.995 c 1.875,-1.516 4.437,-2.735 6.89,-3.313 2.453,-0.578 4.797,-0.515 7.328,-0.328 2.532,0.188 5.251,0.5 7.625,1.047 2.376,0.547 4.407,1.328 5.719,2.297 1.313,0.969 1.906,2.125 2.406,3.672 0.5,1.547 0.907,3.484 0.813,5.234 -0.094,1.75 -0.687,3.313 -1.891,4.672 -1.203,1.359 -3.015,2.516 -5.281,3.844 -2.266,1.328 -4.984,2.828 -7.656,3.609 -2.672,0.781 -5.297,0.844 -7.61,0.219 -2.312,-0.625 -4.312,-1.938 -6.094,-3.86 -1.781,-1.921 -3.343,-4.453 -4.39,-6.546 -1.047,-2.094 -1.578,-3.75 -1.25,-5.485 0.328,-1.734 1.516,-3.547 3.391,-5.062 z"
                 inkscape:connector-curvature="0" />
              <path
                 style="fill:none;stroke:#2c2c2b;stroke-width:0.50003099"
                 id="path3155"
                 d="m 205.711,317.417 c 1.281,-1.063 3.438,-1.907 5.437,-2.438 2.001,-0.531 3.845,-0.75 5.86,-0.812 2.016,-0.063 4.203,0.031 6.25,0.421 2.047,0.391 3.953,1.079 5.422,2.032 1.469,0.953 2.5,2.172 3.156,3.484 0.656,1.313 0.938,2.719 0.953,4.109 0.016,1.391 -0.234,2.766 -1.594,4.047 -1.359,1.282 -3.828,2.469 -6.609,3.625 -2.781,1.157 -5.875,2.282 -8.719,2.219 -2.843,-0.062 -5.437,-1.312 -7.281,-2.797 -1.844,-1.484 -2.937,-3.203 -3.641,-4.953 -0.703,-1.75 -1.015,-3.531 -0.968,-5.062 0.047,-1.532 0.453,-2.813 1.734,-3.875 z"
                 inkscape:connector-curvature="0" />
              <path
                 style="fill:none;stroke:#2c2c2b;stroke-width:0.50003099"
                 id="path3157"
                 d="m 207.789,319.604 c 0.578,-1.312 1.766,-2.094 3.5,-2.719 1.735,-0.625 4.016,-1.093 6.641,-1.062 2.625,0.031 5.594,0.562 7.703,1.141 2.11,0.578 3.359,1.203 4.297,2.203 0.937,1 1.562,2.375 1.89,3.734 0.329,1.359 0.36,2.703 -0.875,4.016 -1.234,1.312 -3.734,2.594 -6.25,3.437 -2.515,0.844 -5.046,1.25 -7.343,1.078 -2.297,-0.172 -4.36,-0.921 -6,-2.156 -1.641,-1.234 -2.86,-2.953 -3.485,-4.734 -0.625,-1.782 -0.656,-3.625 -0.078,-4.938 z"
                 inkscape:connector-curvature="0" />
              <path
                 style="fill:none;stroke:#2c2c2b;stroke-width:0.50003099"
                 id="path3159"
                 d="m 213.336,320.51 c 0.906,-1.531 3.094,-2.375 5.407,-2.703 2.312,-0.328 4.75,-0.14 6.843,0.266 2.094,0.406 3.844,1.031 4.875,2.078 1.031,1.047 1.344,2.516 1.375,3.828 0.031,1.313 -0.219,2.469 -1.484,3.485 -1.266,1.015 -3.547,1.89 -6.141,2.297 -2.594,0.406 -5.5,0.343 -7.39,-0.282 -1.891,-0.625 -2.766,-1.812 -3.391,-3.515 -0.625,-1.704 -1,-3.922 -0.094,-5.454 z"
                 inkscape:connector-curvature="0" />
              <path
                 style="fill:none;stroke:#2c2c2b;stroke-width:0.50003099"
                 id="path3161"
                 d="m 224.461,323.854 c 0.281,-0.219 0.781,-0.344 1.016,-0.14 0.234,0.203 0.203,0.734 0.031,1.093 -0.172,0.36 -0.484,0.547 -0.75,0.5 -0.266,-0.046 -0.484,-0.328 -0.562,-0.625 -0.079,-0.297 -0.016,-0.609 0.265,-0.828 z"
                 inkscape:connector-curvature="0" />
              <path
                 style="fill:none;stroke:#2c2c2b;stroke-width:0.50003099"
                 id="path3163"
                 d="m 286.977,308.698 c 0.766,1 1.172,2.688 1.359,4.25 0.188,1.563 0.157,3 -0.234,4.578 -0.39,1.578 -1.14,3.297 -2.172,4.891 -1.031,1.594 -2.344,3.062 -3.64,4.031 -1.297,0.969 -2.579,1.438 -4.172,1.782 -1.594,0.343 -3.5,0.562 -5.281,0.593 -1.782,0.032 -3.438,-0.125 -5.282,-0.39 -1.844,-0.266 -3.875,-0.641 -5.5,-1.391 -1.625,-0.75 -2.843,-1.875 -3.593,-2.781 -0.75,-0.906 -1.032,-1.594 -0.047,-2.532 0.984,-0.937 3.234,-2.125 5.297,-3.328 2.062,-1.203 3.937,-2.422 5.703,-3.578 1.765,-1.156 3.422,-2.25 5.078,-3.359 1.656,-1.11 3.312,-2.235 4.891,-2.969 1.578,-0.734 3.078,-1.078 4.39,-1.094 1.313,-0.015 2.438,0.297 3.203,1.297 z"
                 inkscape:connector-curvature="0" />
              <path
                 style="fill:none;stroke:#2c2c2b;stroke-width:0.50003099"
                 id="path3165"
                 d="m 286.133,310.401 c 0.454,0.797 0.735,2.016 0.813,3.188 0.078,1.172 -0.047,2.297 -0.453,3.359 -0.406,1.063 -1.094,2.063 -1.954,3.344 -0.859,1.281 -1.89,2.844 -3.124,3.906 -1.235,1.063 -2.672,1.625 -4.078,2 -1.407,0.375 -2.781,0.563 -4.672,0.641 -1.891,0.078 -4.297,0.047 -5.922,-0.297 -1.625,-0.344 -2.469,-1 -3.297,-1.766 -0.828,-0.765 -1.641,-1.64 -2.078,-2.328 -0.438,-0.687 -0.5,-1.187 0.109,-1.828 0.61,-0.64 1.891,-1.422 4.125,-2.688 2.235,-1.265 5.422,-3.015 8.094,-4.343 2.672,-1.328 4.828,-2.235 6.531,-2.953 1.703,-0.719 2.953,-1.25 3.891,-1.328 0.937,-0.079 1.562,0.296 2.015,1.093 z"
                 inkscape:connector-curvature="0" />
              <path
                 style="fill:none;stroke:#2c2c2b;stroke-width:0.50003099"
                 id="path3167"
                 d="m 283.946,313.276 c 0.297,1.047 0.203,2.766 -0.281,4.391 -0.485,1.625 -1.36,3.156 -2.844,4.266 -1.484,1.109 -3.578,1.797 -5.484,2.218 -1.907,0.422 -3.625,0.579 -5.188,0.469 -1.562,-0.109 -2.969,-0.484 -4.469,-1.203 -1.5,-0.719 -3.093,-1.781 -2.797,-3.063 0.297,-1.281 2.485,-2.781 4.688,-4.046 2.203,-1.266 4.422,-2.297 6.875,-3.063 2.453,-0.766 5.14,-1.266 6.828,-1.328 1.688,-0.063 2.375,0.312 2.672,1.359 z"
                 inkscape:connector-curvature="0" />
              <path
                 style="fill:none;stroke:#2c2c2b;stroke-width:0.50003099"
                 id="path3169"
                 d="m 275.993,314.057 c 1.344,0.016 3.438,0.079 4.578,0.594 1.141,0.516 1.328,1.485 1.031,2.5 -0.297,1.016 -1.078,2.079 -2.5,3.016 -1.422,0.937 -3.484,1.75 -5.391,2.297 -1.906,0.547 -3.656,0.828 -5.265,0.734 -1.609,-0.093 -3.078,-0.562 -4,-1.265 -0.922,-0.703 -1.297,-1.641 -0.781,-2.532 0.515,-0.89 1.921,-1.734 3.703,-2.609 1.781,-0.875 3.937,-1.781 5.312,-2.25 1.376,-0.469 1.969,-0.5 3.313,-0.485 z"
                 inkscape:connector-curvature="0" />
              <path
                 style="fill:none;stroke:#2c2c2b;stroke-width:0.50003099"
                 id="path3171"
                 d="m 264.758,319.105 c 0.172,-0.313 0.735,-0.5 1.001,-0.344 0.265,0.156 0.234,0.656 0.062,0.969 -0.172,0.312 -0.485,0.437 -0.75,0.281 -0.266,-0.156 -0.484,-0.594 -0.313,-0.906 z"
                 inkscape:connector-curvature="0" />
              <path
                 style="fill:none;stroke:#2c2c2b;stroke-width:0.50003099"
                 id="path3173"
                 d="m 131.618,252.043 c -3.35,-6.073 -0.473,-9.127 2.813,-13.735"
                 inkscape:connector-curvature="0" />
            </g>
          </g>
        </g>
      </g>
    </g>
  </g>
  <defs
     id="defs220954">
    <marker
       style="overflow:visible"
       refY="-2.41063"
       refX="-8"
       orient="auto"
       id="DrawCurveMarker">
      <path
         id="path220951"
         style="fill:#000044; fill-rule:evenodd;stroke-width:0.62500000;stroke-linejoin:round;"
         d="m -6.55552,-2.41063 0,0 L -13.11104,0 c 1.0473,-1.42323 1.04126,-3.37047 0,-4.82126" />
    </marker>
  </defs>
  <defs
     id="defs220959">
    <marker
       style="overflow:visible"
       refY="-2.41063"
       refX="8"
       orient="auto"
       id="DrawCurveMarker_r">
      <path
         id="path220956"
         style="fill:#000044; fill-rule:evenodd;stroke-width:0.62500000;stroke-linejoin:round;"
         d="m 6.55552,-2.41063 0,0 L 13.11104,0 c -1.0473,-1.42323 -1.04126,-3.37047 0,-4.82126" />
    </marker>
  </defs>
</svg>
