<?xml version="1.0" encoding="UTF-8" standalone="no"?>
<!-- Created with Inkscape (http://www.inkscape.org/) -->

<svg
   xmlns:dc="http://purl.org/dc/elements/1.1/"
   xmlns:cc="http://creativecommons.org/ns#"
   xmlns:rdf="http://www.w3.org/1999/02/22-rdf-syntax-ns#"
   xmlns:svg="http://www.w3.org/2000/svg"
   xmlns="http://www.w3.org/2000/svg"
   xmlns:sodipodi="http://sodipodi.sourceforge.net/DTD/sodipodi-0.dtd"
   xmlns:inkscape="http://www.inkscape.org/namespaces/inkscape"
   version="1.0"
   width="210mm"
   height="297mm"
   viewBox="0 0 210 296.99999"
   id="svg2"
   xml:space="preserve"
   style="fill-rule:evenodd"
   sodipodi:docname="michael jackson.svg"
   inkscape:version="0.92.2 5c3e80d, 2017-08-06"><sodipodi:namedview
     pagecolor="#ffffff"
     bordercolor="#666666"
     borderopacity="1"
     objecttolerance="10"
     gridtolerance="10"
     guidetolerance="10"
     inkscape:pageopacity="0"
     inkscape:pageshadow="2"
     inkscape:window-width="1360"
     inkscape:window-height="690"
     id="namedview11"
     showgrid="false"
     units="mm"
     inkscape:document-units="mm"
     inkscape:zoom="0.30054426"
     inkscape:cx="580.34431"
     inkscape:cy="625.5814"
     inkscape:window-x="0"
     inkscape:window-y="1"
     inkscape:window-maximized="1"
     inkscape:current-layer="svg2" /><metadata
     id="metadata18"><rdf:RDF><cc:Work
         rdf:about=""><dc:format>image/svg+xml</dc:format><dc:type
           rdf:resource="http://purl.org/dc/dcmitype/StillImage" /><dc:title></dc:title></cc:Work></rdf:RDF></metadata><defs
     id="defs16" /><g
     id="图层_x0020_1"
     transform="matrix(0.10925075,0,0,0.10925075,12.613784,36.679768)"><metadata
       id="CorelCorpID_0Corel-Layer" /><path
       d="m 1492,1969 c 0,0 4,10 12,8 9,-2 10,-6 10,-6"
       id="path6"
       style="fill:none;stroke:#332c2b;stroke-width:2.40094995"
       inkscape:connector-curvature="0" /><path
       d="m 1283,1966 c 1,4 5,9 9,11"
       id="path8"
       style="fill:none;stroke:#332c2b;stroke-width:2.40094995"
       inkscape:connector-curvature="0" /><path
       d="m 595,2198 c 159,-1 80,-1 238,-2 0,0 -18,-72 -15,-107 3,-35 3,-35 3,-35 0,0 20,-36 21,-58 2,-22 3,-29 0,-49 -3,-20 3,-69 3,-69 5,23 10,46 15,70 -13,2 -26,4 -40,6 0,0 -8,-30 -6,-58 2,-28 1,-55 20,-66 19,-11 23,-6 23,-6 1,4 1,8 2,11 0,0 7,-15 43,-13 37,2 58,13 58,13 0,0 -24,39 -22,92 2,54 1,57 7,79 6,21 36,47 39,62 2,15 -3,29 -3,29 -24,32 -49,64 -74,96 41,-103 93,-203 162,-296 22,17 44,39 55,64 -64,-48 -127,-109 -153,-165 41,6 69,21 86,58 -21,-9 -45,-26 -65,-42 l 253,-410 c 0,0 67,-30 111,-27 43,4 81,28 81,28 0,0 -56,-8 -79,-8 -23,1 -80,13 -80,13 0,0 50,-31 83,-41 33,-9 55,-8 55,-8 0,0 -63,-15 -92,-9 -29,6 -61,23 -61,23 0,0 8,-30 25,-41 17,-11 62,-28 62,-28 0,0 -54,7 -65,1 -10,-7 -9,-12 -24,-15 -15,-2 -30,1 -38,-7 -7,-8 -3,-23 -14,-28 -11,-5 -59,-35 -73,-45 -14,-11 -55,-46 -79,-70 -25,-25 -74,-74 -72,-83 1,-9 37,-46 48,-30 11,15 -30,19 -55,17 -24,-3 -65,2 -58,22 7,20 39,-11 50,-33 10,-22 32,-46 43,-37 11,8 -7,26 -53,19 -46,-7 -74,-7 -67,14 8,22 49,-9 66,-27 18,-18 32,-44 45,-30 13,14 -30,22 -54,12 -23,-10 -64,-23 -68,-5 -3,19 43,10 65,-11 21,-21 46,-34 53,-20 6,14 -43,20 -53,8 -10,-13 -13,-40 -8,-66 5,-26 29,-77 45,-103 16,-26 51,-68 71,-127 21,-58 11,-105 11,-105 h -84 l 95,-29 -52,-10 49,-17 -69,-23 c 0,0 18,-28 22,-55 5,-28 4,-65 4,-65 0,0 9,41 4,76 -6,34 -21,61 -25,66 -2,2 -20,18 -37,37 -26,30 -54,69 -63,70 -24,-4 -55,24 -56,35 -1,10 19,-5 27,-10 7,-4 27,-14 42,-8 16,6 40,35 58,56 17,21 59,60 81,82 21,22 -20,33 -20,33 0,0 31,-50 45,-81 13,-31 49,-125 47,-207 -1,-82 -12,-116 -15,-145 -4,-29 -5,-87 0,-109 5,-22 23,-43 27,-50 4,-6 6,-18 1,-18 -6,0 -11,13 0,24 11,12 -9,17 -15,1 -6,-16 -4,-38 13,-40 17,-2 19,18 19,33 0,16 -1,19 3,29 4,11 1,40 1,40 0,0 10,-8 12,-27 1,-18 1,-30 1,-30 0,0 0,26 3,34 3,7 10,17 9,28 -1,11 -3,36 -3,36 0,0 2,-16 6,-25 4,-9 12,-12 11,-27 -1,-15 -1,-33 -1,-33 0,0 2,18 9,27 8,9 22,14 23,26 1,13 -12,26 -10,36 3,10 22,14 36,37 0,0 1,-15 -9,-24 -10,-9 -18,-12 -16,-24 1,-11 17,-13 10,-31 -6,-18 -15,-19 -16,-35 -1,-15 13,-10 0,-25 -13,-16 -29,-37 -51,-45 -9,-4 -31,-10 -53,-13 -28,-3 -56,-1 -56,-1 0,0 13,-8 29,-8 15,0 21,4 20,23 -2,18 -12,22 -12,33 0,11 5,13 2,23 -2,9 -9,7 -10,19 -1,4 3,11 -1,18 -7,9 -21,16 -21,16 0,0 6,-6 8,-19 3,-20 -3,-13 10,-36 0,0 -14,7 -16,17 -3,10 -5,20 -10,26 -4,7 -11,5 -15,26 0,0 -4,-15 2,-23 6,-8 7,-31 7,-31 0,0 -4,9 -8,15 -4,7 -10,11 -12,19 -3,8 -17,24 -17,24 0,0 6,-13 7,-23 1,-10 9,-12 14,-22 5,-10 -4,-34 -4,-34 0,0 0,25 -5,30 -6,6 -14,6 -17,14 -3,8 -5,14 -12,18 -7,3 -25,-1 -25,-1 0,0 12,1 19,-6 7,-7 7,-14 11,-22 5,-9 14,-10 14,-20 0,-10 0,-25 2,-31 0,0 -7,10 -9,18 -1,8 0,12 -5,16 -4,4 -10,1 -13,6 -4,5 2,17 -6,22 -8,5 -17,-3 -23,1 -6,4 -7,7 -14,18 0,0 -3,-21 18,-28 21,-8 6,-18 14,-25 8,-6 20,-5 17,-17 -2,-12 -6,-18 -3,-32 4,-14 16,-26 38,-26 0,0 -60,-24 -58,-55 3,-30 99,-23 133,-15 28,2 60,20 87,40 5,3 12,6 17,10 26,21 42,40 42,40 0,0 -8,-26 -26,-49 -19,-23 -55,-54 -79,-60 -24,-5 -56,-7 -56,-7 0,0 35,-49 42,-53 6,-4 65,0 86,2 22,1 107,63 104,77 -2,15 -34,123 -34,123 0,0 53,75 41,87 -16,0 -19,-5 -37,-6 -19,-2 -37,-3 -40,-21 0,0 -4,11 -3,21 0,10 8,24 -1,27 -9,3 -21,5 -23,10 -2,4 -20,45 -30,44 -10,-1 -67,-49 -70,-63 -3,-14 2,-39 2,-39 0,0 -11,13 -13,29 -2,16 13,68 20,102 7,34 10,147 -2,209 -13,63 -73,216 -96,242 -22,26 -77,75 -135,96 -57,21 -109,39 -162,69 -54,30 -129,105 -157,222 2,-31 16,-151 68,-205 53,-54 111,-87 152,-113 41,-26 169,-63 180,-60 -90,-1 -119,8 -147,12 -10,10 -28,28 -35,62 -6,33 -15,91 -8,123 7,32 30,99 103,169 72,69 116,86 142,101 25,15 141,64 141,64 0,0 -281,-158 -346,-221 -65,-62 -89,-117 -93,-171 -4,-54 3,-91 18,-124 15,-34 52,-94 61,-160 10,-66 -1,-113 -22,-151 -22,-37 -29,-60 -29,-79 0,-19 1,-27 1,-27 0,0 3,37 14,53 12,17 24,34 24,34 0,0 -24,-45 -26,-78 -3,-32 4,-65 4,-65 0,0 -3,28 2,49 5,22 17,37 17,37 0,0 -29,17 -46,41 -17,23 -32,34 -44,49 -12,16 -18,37 -37,40 -19,4 -57,-7 -57,-7 0,0 7,40 -10,40 -17,0 -28,-19 -20,-26 9,-7 36,21 6,40 -30,19 -76,43 -116,64 -40,22 -68,44 -94,62 -25,18 -52,50 -62,52 -10,1 -13,-3 -18,-3 -5,0 1,13 -4,12 -6,-2 -17,-20 -32,-32 -14,-13 -22,-33 -37,-25 -15,7 -14,27 -51,30 -37,3 -61,1 -78,12 -17,10 -55,31 -79,37 -24,6 -38,8 -40,16 -1,9 18,11 36,9 18,-2 56,-15 69,-20 13,-5 28,-10 21,-14 -6,-5 -29,10 -40,26 -10,16 0,21 14,35 14,14 14,21 18,20 5,-2 12,-23 14,-30 3,-7 7,-18 5,-26 -2,-8 -3,-14 -7,-13 -4,1 -4,11 -6,16 -3,6 -6,11 -6,15 1,4 4,6 8,14 5,8 9,23 19,22 9,-2 10,-26 14,-35 4,-10 5,-34 -3,-35 -9,0 -6,13 -5,22 0,8 5,34 9,38 3,5 9,6 14,5 4,0 27,2 32,-2 5,-3 12,-16 16,-20 5,-4 19,-15 21,-18 1,-2 -24,-11 -36,-10 -13,0 -21,5 -22,12 -1,8 5,17 12,16 6,-1 17,-18 26,-23 9,-5 17,-8 26,-9 8,-1 36,-4 44,-12 8,-9 16,-28 9,-52 -7,-24 -25,-31 -16,-44 9,-12 21,-25 21,-25 0,0 87,-80 113,-103 27,-23 74,-60 93,-76 19,-15 45,-44 55,-50 11,-6 26,2 26,2 0,0 0,-14 4,-21 4,-6 20,-18 28,-18 8,0 18,5 18,5 0,0 -2,-15 3,-19 5,-3 14,5 18,0 4,-5 11,-13 19,-20 8,-7 19,-10 24,-16 6,-7 22,-19 25,-25 2,-6 0,-9 4,-13 4,-4 6,0 8,-4 2,-4 -2,-19 5,-25 6,-7 31,-23 49,-31 19,-8 34,-12 45,-19 11,-8 63,-48 78,-52 15,-5 52,-8 72,-7 20,1 65,17 76,30 12,14 34,37 59,56 26,19 61,30 83,45 22,16 55,52 55,52 0,0 -21,-57 -67,-96 -47,-38 -97,-65 -152,-58 -56,6 -67,10 -79,19 -12,9 -31,37 -45,51 -14,15 -26,28 -35,41 -9,12 -22,37 -31,51 -10,14 -42,53 -54,78 -13,25 -48,103 -48,128 0,26 32,41 45,51 14,10 63,38 88,55 24,17 69,43 90,54 21,11 41,20 41,20 0,0 -11,13 -4,18 7,5 19,-2 25,4 5,5 9,14 15,16 6,1 24,-33 33,-33 9,0 26,20 26,31 1,11 -16,37 -13,51 2,13 21,17 26,30 5,14 4,44 15,43 11,-1 11,-24 5,-49 -6,-26 -21,-56 -19,-65 3,-10 8,-22 2,-33 -6,-12 -10,-18 -16,-16 -6,2 -13,23 -19,35 -6,12 -32,34 -44,40 -12,7 -41,10 -68,7 -26,-3 -46,-5 -72,4 -26,9 -97,46 -97,46 0,0 53,-44 93,-61 40,-17 83,-14 103,-11 20,2 45,-2 45,-2 0,0 2,30 21,54 19,23 28,37 44,58 16,21 52,59 72,82 20,22 62,58 78,73 16,15 36,40 57,58 20,18 65,67 89,92 24,25 62,58 70,84 9,26 6,43 1,57 -5,14 -26,59 -36,74 -10,16 -59,55 -78,77 -19,22 -69,78 -95,98 -25,20 -61,54 -78,70 -17,16 -29,20 -41,33 -11,13 -67,64 -67,64 0,0 86,-96 123,-132 36,-36 64,-90 91,-121 27,-31 65,-74 92,-95 26,-21 54,-57 54,-57 0,0 -97,159 -129,209 -31,50 -79,118 -88,138 -9,19 -32,61 -53,89 -21,28 -36,83 -53,95 -18,13 -78,0 -78,0 0,0 -20,56 -33,81 -13,25 -31,73 -6,93 24,19 77,-32 90,-51 13,-18 44,-100 44,-100 0,0 35,6 43,-2 8,-8 32,-58 32,-58 0,0 -7,29 6,30 12,1 33,-26 33,-26 0,0 -22,54 -13,56 8,3 31,-25 31,-25 0,0 -16,23 -10,27 6,3 43,-28 43,-28 0,0 -26,24 -18,29 9,6 81,-54 75,-63 -5,-9 -41,66 -41,66 11,-10 27,-27 32,-32 6,-5 -19,22 -8,27 11,4 37,-20 36,-23 -1,-3 -22,14 -14,23 9,8 21,-23 21,-23 0,0 -10,20 -2,23 8,2 16,-3 23,-9 7,-6 15,-17 2,-17 -13,1 -17,26 -9,29 8,2 26,-10 42,-26 16,-17 27,-31 25,-33 -3,-3 -21,12 -27,28 -6,17 -7,29 -1,32 7,3 38,-10 44,-15 6,-6 10,-11 5,-13 -3,0 -79,144 -135,100 -14,-11 83,-26 108,-52 24,-24 48,-42 48,-42 0,0 -13,8 -16,15 -2,7 -1,10 5,9 5,-2 20,-22 20,-22 0,0 -11,11 -6,18 6,7 12,-3 20,-9 8,-6 14,-11 14,-11 0,0 -26,13 -19,23 8,11 18,-7 33,-22 20,-20 26,-46 26,-46 -3,-4 -38,71 -28,78 4,0 9,-14 15,-18 6,-4 9,-8 6,-9 -2,-2 -17,-4 -16,2 2,5 13,18 17,19 0,0 26,2 26,-4 0,-6 -21,-11 -17,-18 5,-7 36,-5 42,-4 -9,1 -17,13 -17,19 1,6 9,15 18,3 10,-12 5,-22 5,-22 h 15 c 0,0 6,1 5,7 -2,5 -15,21 -15,21 0,0 19,-29 29,-29 9,1 -15,24 -6,27 10,3 23,-8 23,-8"
       id="path10"
       style="fill:none;stroke:#332c2b;stroke-width:2.40094995"
       inkscape:connector-curvature="0" /><path
       d="m 127,2240 c 0,0 10,-5 15,-11 4,-6 7,-18 7,-18 l -20,44 c 0,0 15,-19 22,-25 7,-5 18,-16 21,-15 2,0 -19,38 -16,38 2,0 37,-41 40,-38 2,2 -20,36 -16,39 3,2 31,-20 46,-32 15,-13 58,-45 58,-45 0,0 -8,13 -14,26 -6,12 -16,48 -30,50 -14,3 -25,0 -25,0 0,0 12,0 27,0 19,1 43,0 48,-12 9,-22 -32,-81 -59,-68 -10,5 12,20 29,35 20,17 40,33 44,32 8,-3 26,-29 23,-31 -3,-2 -5,3 -2,5 2,1 12,0 14,3 1,4 -15,33 -14,36 2,3 21,-13 31,-21 10,-7 29,-16 46,-16 0,0 -16,-4 -25,2 -9,5 -26,18 -18,34 9,15 36,-30 36,-30 0,0 -15,29 -13,31 3,2 18,-6 30,-17 12,-11 20,-23 20,-23 0,0 -20,36 -16,41 4,4 35,-36 36,-36 2,1 -16,32 -9,37 11,7 37,-39 32,-42 -4,-4 -14,21 -7,27 7,6 27,-3 34,-12 7,-9 27,-60 27,-60 0,0 -36,76 -32,84 4,8 20,-2 26,-14 7,-12 11,-25 5,-25 -5,-1 -17,23 -8,29 10,7 18,-5 27,-12 10,-8 22,-19 22,-19 0,0 -19,7 -24,25 -5,18 10,29 25,5 15,-23 5,-23 3,-23 -2,0 -12,14 -4,24 8,9 31,-12 37,-19 5,-8 20,-47 20,-47 0,0 -35,73 -31,77 5,4 34,-20 34,-20"
       id="path12"
       style="fill:none;stroke:#332c2b;stroke-width:2.40094995"
       inkscape:connector-curvature="0" /></g></svg>