<?xml version="1.0" encoding="UTF-8" standalone="no"?>
<!-- Created with Inkscape (http://www.inkscape.org/) -->

<svg
   xmlns:dc="http://purl.org/dc/elements/1.1/"
   xmlns:cc="http://creativecommons.org/ns#"
   xmlns:rdf="http://www.w3.org/1999/02/22-rdf-syntax-ns#"
   xmlns:svg="http://www.w3.org/2000/svg"
   xmlns="http://www.w3.org/2000/svg"
   xmlns:sodipodi="http://sodipodi.sourceforge.net/DTD/sodipodi-0.dtd"
   xmlns:inkscape="http://www.inkscape.org/namespaces/inkscape"
   id="svg230965"
   version="1.1"
   viewBox="0 0 210 297"
   height="297mm"
   width="210mm"
   inkscape:version="0.92.2 5c3e80d, 2017-08-06"
   sodipodi:docname="SpiderMan.svg">
  <sodipodi:namedview
     inkscape:window-maximized="1"
     inkscape:window-y="1"
     inkscape:window-x="0"
     inkscape:window-height="690"
     inkscape:window-width="1360"
     showgrid="false"
     inkscape:current-layer="svg230965"
     inkscape:document-units="mm"
     inkscape:cy="561.25984"
     inkscape:cx="396.85039"
     inkscape:zoom="0.45255331"
     inkscape:pageshadow="2"
     inkscape:pageopacity="0.0"
     borderopacity="1.0"
     bordercolor="#666666"
     pagecolor="#ffffff"
     id="base" />
  <defs
     id="defs230959" />
  <metadata
     id="metadata230962">
    <rdf:RDF>
      <cc:Work
         rdf:about="">
        <dc:format>image/svg+xml</dc:format>
        <dc:type
           rdf:resource="http://purl.org/dc/dcmitype/StillImage" />
        <dc:title />
      </cc:Work>
    </rdf:RDF>
  </metadata>
  <g
     id="layer1"
     inkscape:groupmode="layer"
     inkscape:label="Layer 1">
    <path
       style="fill:#000000;stroke-width:0.30685461"
       d="m 125.65421,284.07929 c -0.37973,-0.15263 -0.69384,-0.38553 -0.69801,-0.51755 -0.004,-0.13201 -0.69459,-0.99626 -1.53427,-1.92056 -0.83968,-0.92429 -1.52669,-1.77466 -1.52669,-1.88971 0,-0.11505 -0.59735,-0.94678 -1.32745,-1.84829 -0.7301,-0.90152 -1.82111,-2.48622 -2.42446,-3.52157 l -1.097,-1.88244 -0.12425,-5.17521 c -0.10033,-4.1789 -0.23251,-5.41151 -0.68662,-6.40263 -0.30931,-0.67508 -0.66849,-1.50359 -0.79818,-1.84113 -0.1297,-0.33754 -0.71897,-1.64934 -1.3095,-2.91512 -2.14709,-4.60218 -2.50891,-6.60936 -1.43818,-7.97822 0.65624,-0.83895 0.79233,-1.53427 0.30028,-1.53427 -0.17239,0 -0.47952,-0.37973 -0.68251,-0.84385 -0.203,-0.46412 -0.99444,-1.50407 -1.75877,-2.311 l -1.38968,-1.46715 -2.76076,-0.18573 c -1.51842,-0.10216 -2.98766,-0.30193 -3.26497,-0.44395 -0.27731,-0.14201 -2.99633,-0.27429 -6.04227,-0.29396 -6.171745,-0.0399 -5.566628,-0.22265 -8.350891,2.52263 -1.731857,1.70762 -1.755463,1.75443 -1.59635,3.16606 0.167303,1.48432 -0.335714,3.62932 -1.05152,4.48393 -0.223166,0.26645 -0.405757,0.64618 -0.405757,0.84385 0,0.19767 -0.138085,0.35941 -0.306855,0.35941 -0.16877,0 -0.306854,0.13116 -0.306854,0.29147 0,0.16031 -0.397257,0.88525 -0.882793,1.61099 -2.034741,3.04134 -4.035028,7.50062 -4.805454,10.71289 -0.852061,3.55267 -2.038665,5.62909 -5.001223,8.7516 -3.941158,4.15395 -6.571408,6.24996 -7.842955,6.24996 -1.180393,0 -2.92279,-1.51304 -2.982384,-2.5898 -0.01924,-0.3477 -0.07771,-0.97738 -0.129916,-1.39931 -0.05221,-0.42192 -0.149813,-1.35227 -0.216891,-2.06743 -0.06708,-0.71517 -0.215744,-1.39408 -0.330366,-1.5087 -0.114623,-0.11463 -0.208404,-0.73773 -0.208404,-1.38468 0,-0.64696 -0.03452,-1.17621 -0.07671,-1.17613 -0.04219,9e-5 -0.810388,0.27901 -1.7071,0.61983 -0.896714,0.34082 -1.747944,0.54702 -1.891634,0.45822 -0.14368,-0.0888 -0.30756,-0.0267 -0.36417,0.1381 -0.0566,0.16477 -1.06951,0.37636 -2.2509,0.47022 -4.72483,0.37537 -5.1632,0.4758 -6.60843,1.5141 -2.09053,1.5019 -2.55435,1.70107 -5.09214,2.18663 -2.06207,0.39454 -2.51018,0.39036 -4.05423,-0.0378 -2.59151,-0.71863 -4.65007,-1.87631 -6.10859,-3.43533 -1.06969,-1.14339 -1.31042,-1.62001 -1.33912,-2.65133 -0.0192,-0.69153 -0.0809,-1.64892 -0.13707,-2.12752 -0.0994,-0.8472 0.2283,-4.30378 0.7611,-8.0286 0.44757,-3.12891 2.68711,-8.44199 5.30309,-12.58104 0.53333,-0.84385 1.86598,-2.98416 2.96143,-4.75624 2.6033,-4.21131 5.39782,-7.91046 8.04493,-10.64921 1.99831,-2.06749 5.50075,-5.00038 5.97142,-5.00038 0.11511,0 0.71246,-0.38982 1.32744,-0.86626 0.61498,-0.47645 2.77516,-1.6657 4.800406,-2.64278 2.02524,-0.97709 3.922028,-1.89907 4.215086,-2.04886 0.293059,-0.14979 0.776355,-0.27319 1.073991,-0.27423 0.297637,-9.2e-4 0.900588,-0.18944 1.339887,-0.41867 0.439299,-0.22923 1.424431,-0.51062 2.189184,-0.6253 1.804802,-0.27065 4.259467,-1.17453 5.405197,-1.99036 0.498998,-0.35532 1.058556,-0.64603 1.243467,-0.64603 0.184911,0 0.336199,-0.11592 0.336199,-0.2576 0,-0.14168 0.339154,-0.41213 0.753678,-0.601 0.707297,-0.32227 2.011235,-2.59618 2.005436,-3.49725 -0.0015,-0.22022 0.228386,-1.30177 0.51067,-2.40344 0.639292,-2.49495 0.426651,-3.42494 -1.141704,-4.99329 -0.664135,-0.66414 -1.207516,-1.23547 -1.207516,-1.26962 0,-0.0342 -0.972597,-1.08806 -2.161324,-2.34202 -2.221161,-2.34304 -4.518996,-5.56243 -5.131576,-7.1896 -0.190609,-0.50631 -0.632789,-1.9562 -0.982625,-3.22197 -0.349832,-1.26578 -0.831352,-2.99183 -1.070039,-3.83568 -0.485925,-1.71793 -1.295239,-5.49795 -1.576766,-7.36451 -0.10182,-0.67508 -0.272576,-1.36551 -0.379456,-1.53428 -0.106881,-0.16877 -0.265831,-0.99727 -0.353224,-1.84113 l -0.158892,-1.53427 -2.00778,-0.50184 c -2.244123,-0.56092 -5.644539,-1.82194 -7.504709,-2.78308 -1.77295,-0.91607 -4.7756,-4.10911 -5.74005,-6.10402 -0.73543,-1.52119 -0.99858,-1.77888 -2.30141,-2.25365 -3.88017,-1.41398 -6.78651,-2.91566 -8.68212,-4.48595 -1.26696,-1.04954 -3.98911,-5.04641 -3.98911,-5.85713 0,-0.32257 -0.66497,-1.02743 -1.98345,-2.10242 -0.36315,-0.29608 -1.54402,-0.52078 -3.31029,-0.62988 -2.20647,-0.13629 -2.80616,-0.27754 -3.05331,-0.71918 -0.36567,-0.65341 -2.05931,-1.41263 -3.15125,-1.41263 -1.18501,0 -2.84693,-1.0247 -4.58014,-2.824 -1.02289,-1.06189 -2.04182,-1.78496 -2.93905,-2.08567 -0.85723,-0.2873 -1.52559,-0.74858 -1.77843,-1.22742 -0.46416,-0.87903 -0.29588,-3.50086 0.26833,-4.18069 0.45853,-0.5525 1.96471,-1.23516 3.33923,-1.51348 1.96247,-0.39736 3.19864,-1.45758 4.51111,-3.86903 0.79746,-1.4652 1.90035,-2.16443 3.06546,-1.94349 0.30777,0.0584 0.71202,0.11668 0.89834,0.12959 0.18632,0.0129 0.71125,0.36869 1.16652,0.79062 0.48918,0.45336 1.19345,0.76713 1.72183,0.76713 0.99187,0 3.06341,1.59875 3.06341,2.36424 0,0.68025 2.73248,3.42628 4.12064,4.14108 1.06991,0.55091 1.53593,0.59625 4.14254,0.40295 6.02917,-0.44709 9.88891,-0.22613 11.28801,0.6462 0.37379,0.23307 0.82552,0.42375 1.00385,0.42375 0.38043,0 2.87214,1.58151 3.02162,1.91784 0.0563,0.12658 0.22886,0.23015 0.38357,0.23015 0.15471,0 0.53642,0.24164 0.84825,0.53699 0.31184,0.29535 0.94033,0.80332 1.396642,1.12883 0.456314,0.32551 1.47057,1.46471 2.253902,2.53155 1.227339,1.67155 1.558201,1.93972 2.393257,1.93972 1.835448,0 3.411554,0.77032 6.07446,2.9689 0.905884,0.74793 1.690502,1.05977 3.376373,1.34189 3.365732,0.56325 5.731461,1.87577 8.82261,4.89485 1.46879,1.43454 2.719038,2.76855 2.778329,2.96447 0.05929,0.19591 0.655272,0.40213 1.324402,0.45826 l 1.216602,0.10206 0.525697,-2.29939 c 0.289134,-1.26467 0.607686,-3.10005 0.707899,-4.07863 0.100209,-0.97859 0.303114,-2.01422 0.450895,-2.30141 0.147784,-0.2872 0.516734,-1.12182 0.819894,-1.85472 0.591419,-1.42978 3.062307,-3.84932 4.784249,-4.68481 2.042431,-0.991 2.564105,-1.18848 3.166056,-1.19848 0.33754,-0.006 1.31193,-0.0874 2.16531,-0.18176 2.75696,-0.30484 8.35957,1.36001 10.57843,3.14345 1.86047,1.49539 4.59354,5.28388 4.59354,6.36743 0,0.21598 0.0949,0.48756 0.21082,0.60351 0.28994,0.28995 0.3933,1.12846 0.53509,4.34086 0.067,1.51893 0.13377,2.9343 0.14827,3.14526 0.0179,0.25991 0.60231,0.38357 1.81285,0.38357 0.98255,0 2.44029,0.22278 3.23942,0.49507 1.37895,0.46986 1.47539,0.46595 1.89358,-0.0767 0.24235,-0.31448 0.53276,-0.917 0.64536,-1.33892 0.38468,-1.44152 1.63825,-3.05294 3.69421,-4.74879 1.13032,-0.93234 2.20086,-1.69601 2.37898,-1.69705 0.17813,-9.2e-4 0.73812,-0.22219 1.24443,-0.49146 0.51464,-0.27368 2.03144,-0.5622 3.43982,-0.6543 2.48488,-0.16249 2.5299,-0.18009 3.29869,-1.28945 0.42869,-0.6186 0.77943,-1.35079 0.77943,-1.62711 0,-0.27631 0.12243,-0.57806 0.27207,-0.67054 0.14963,-0.0925 0.36302,-0.65297 0.47418,-1.24553 0.11117,-0.59256 0.33395,-1.07738 0.49507,-1.07738 0.16112,0 0.29295,-0.1888 0.29295,-0.41956 0,-0.67452 4.74211,-5.01288 6.19203,-5.66484 0.72925,-0.32791 2.05541,-0.7496 2.94703,-0.93709 2.97585,-0.62576 4.76186,-1.888 7.64943,-5.40612 1.18999,-1.44984 1.58802,-2.226 1.87288,-3.65206 0.20567,-1.02962 0.71073,-2.26849 1.17062,-2.87143 0.74089,-0.97136 3.40098,-2.51855 4.34249,-2.52572 0.96315,-0.007 4.27477,-1.359 6.00156,-2.44956 2.54348,-1.60635 4.51468,-1.88657 6.50239,-0.92434 1.16,0.56155 1.55429,0.97348 2.09098,2.1845 0.62567,1.41182 0.72515,1.49247 1.84148,1.49285 2.41894,8.3e-4 3.98402,1.66342 4.02653,4.27739 0.0245,1.50641 0.11816,1.75003 0.79823,2.0761 1.18914,0.57015 2.21197,2.63553 2.06555,4.17091 -0.10467,1.09755 -0.002,1.38104 0.71989,1.98851 0.95501,0.80358 1.38873,2.70873 1.03993,4.56797 -0.23017,1.22693 -3.099,4.37948 -5.08968,5.59304 -1.30533,0.79575 -3.46433,0.848 -4.74053,0.11471 -0.74956,-0.43069 -1.71858,-0.53009 -5.21652,-0.53511 -3.2393,-0.005 -4.46157,-0.11602 -4.96923,-0.45282 -0.60018,-0.39818 -0.73869,-0.38744 -1.27609,0.0989 -0.33156,0.30006 -0.74984,0.91531 -0.92951,1.36723 -0.90339,2.27223 -1.04907,2.74386 -1.15423,3.73678 -0.19988,1.88723 -1.34644,7.00649 -1.73239,7.73493 -0.96679,1.82469 -2.85871,4.34466 -4.00949,5.34047 -1.35954,1.17646 -5.95965,3.49475 -6.93453,3.49475 -1.50415,0 -2.02305,0.53021 -3.19649,3.26617 -1.49721,3.49082 -2.89687,5.83063 -3.87059,6.47045 -1.43836,0.94513 -4.75124,2.6006 -6.90888,3.45243 -2.36986,0.93561 -2.32275,0.86688 -3.36939,4.91537 -0.66697,2.5799 -2.2918,7.60704 -2.777,8.59193 -0.20786,0.42193 -0.6972,1.49861 -1.08742,2.39264 -0.83748,1.91875 -4.80422,6.11425 -7.4266,7.85489 -2.07968,1.38041 -2.45321,2.28201 -2.4945,6.02108 -0.0531,4.81072 1.82695,7.29088 8.1027,10.68899 0.75947,0.41123 2.10847,1.2111 2.99779,1.77749 0.88932,0.5664 1.71783,1.02999 1.84113,1.03021 0.1233,2.2e-4 1.01962,0.55256 1.99183,1.22742 0.97221,0.67486 1.84573,1.22702 1.94115,1.22702 0.45448,0 3.92967,2.97542 6.32335,5.41398 2.69489,2.74543 5.94319,7.26274 7.24987,10.08217 0.39108,0.84385 0.89507,1.87949 1.11996,2.30141 0.85234,1.5991 4.2304,9.7313 4.65248,11.2002 1.66209,5.78441 1.71199,6.17391 1.53301,11.96733 -0.0939,3.03786 -0.16957,6.48997 -0.16826,7.67136 0.002,1.94568 -0.0858,2.25408 -0.93388,3.27446 -1.32569,1.59505 -4.1409,2.50249 -7.8581,2.53296 -2.51756,0.0207 -2.95431,-0.0653 -4.56272,-0.89774 -0.97826,-0.50631 -2.21828,-1.43146 -2.75559,-2.05588 -1.11705,-1.29815 -2.16198,-1.77981 -3.86121,-1.77981 -2.01593,0 -6.21577,-1.68956 -7.89861,-3.17755 -0.37907,-0.33517 -0.73288,-0.55133 -0.78625,-0.48034 -0.0534,0.071 -0.33847,1.42749 -0.63356,3.01445 -0.56376,3.03187 -1.66195,5.65173 -2.50466,5.97511 -0.70937,0.27221 -2.62664,0.20273 -3.44125,-0.1247 z m 2.97781,-1.66125 c 0.20239,-0.24386 0.32286,-0.76168 0.26772,-1.1507 -0.0908,-0.64059 -0.2812,-0.71594 -2.01811,-0.79867 -2.19204,-0.10442 -2.39232,0.17624 -1.0933,1.53212 0.90709,0.9468 2.24169,1.14262 2.84369,0.41725 z m 28.89911,-1.77557 c 0.78189,-0.45832 1.50674,-1.05515 1.61079,-1.32629 0.27275,-0.71079 -0.13,-3.82886 -0.62017,-4.8013 -0.22972,-0.45573 -0.41767,-1.04259 -0.41767,-1.30413 0,-0.65974 0.91231,-0.60106 0.95585,0.0615 0.0194,0.29534 0.14954,-0.0154 0.28917,-0.69043 0.58461,-2.82635 0.17429,-8.89187 -0.84071,-12.42761 -1.04444,-3.63829 -3.59197,-9.82869 -5.30373,-12.88789 -0.14165,-0.25316 -0.58164,-1.09475 -0.97775,-1.8702 -0.82898,-1.62288 -3.4983,-5.62294 -5.09985,-7.64229 -2.00051,-2.52239 -6.47304,-6.75081 -7.14054,-6.75081 -0.17214,0 -0.39246,-0.20712 -0.4896,-0.46028 -0.0971,-0.25315 -0.30729,-0.46028 -0.46698,-0.46028 -0.1597,0 -1.21508,-0.59901 -2.3453,-1.33113 -3.36267,-2.17824 -6.61107,-4.08888 -7.34818,-4.32206 -0.37973,-0.12012 -0.69042,-0.35152 -0.69042,-0.51421 0,-0.16269 -0.24165,-0.38687 -0.53699,-0.49817 -0.79875,-0.301 -2.9556,-1.90587 -3.23723,-2.40875 -0.36653,-0.65449 -1.03532,-0.53573 -2.46101,0.43702 -3.17094,2.16353 -9.46917,4.41149 -16.11917,5.75325 -0.39663,0.08 -1.87823,0.69264 -3.29243,1.36135 -1.4142,0.66871 -2.75982,1.21585 -2.99026,1.21585 -0.230435,0 -0.682024,-0.29225 -1.003528,-0.64943 -1.511608,-1.67936 -6.486007,-4.44328 -8.450806,-4.69551 -0.10719,-0.0137 -1.538289,-0.71544 -3.180225,-1.55929 -2.80849,-1.44339 -5.76068,-3.85819 -6.796142,-5.55905 -0.295406,-0.48524 -0.443203,-0.51685 -0.920564,-0.19687 -1.426582,0.95626 -4.092452,2.14711 -5.631758,2.51572 -0.928235,0.22228 -1.825784,0.50644 -1.994554,0.63146 -0.16877,0.12502 -0.818839,0.31952 -1.444598,0.43222 -0.62576,0.1127 -1.523309,0.40602 -1.994555,0.65183 -0.471246,0.2458 -1.035929,0.44776 -1.254848,0.44881 -0.746215,0.004 -8.493739,4.09182 -10.802159,5.70016 -2.31791,1.61497 -4.70712,3.94645 -7.52485,7.34305 -0.84005,1.01262 -1.67469,1.97921 -1.85475,2.14798 -2.13213,1.99837 -6.77386,9.55522 -9.14141,14.88245 -1.24505,2.80147 -2.29557,6.43407 -2.08047,7.19407 0.0451,0.15941 -0.0548,0.57367 -0.22196,0.92056 -0.51152,1.06134 -1.07357,9.21026 -0.68529,9.93577 0.48472,0.90572 2.76086,2.69372 4.34251,3.41123 1.6033,0.72734 2.56701,0.76228 4.99927,0.18127 2.51998,-0.60196 5.32554,-2.61792 3.6433,-2.61792 -0.29999,0 -0.83419,-0.20225 -1.18711,-0.44944 -0.35292,-0.2472 -0.71603,-0.37511 -0.8069,-0.28423 -0.0909,0.0909 -0.5923,-0.0556 -1.1143,-0.32557 -1.1101,-0.57406 -1.30367,-1.27511 -0.25865,-0.9368 0.37973,0.12294 1.66687,0.29098 2.86032,0.37342 2.14667,0.14829 3.99909,-0.24332 5.72795,-1.2109 0.60572,-0.339 3.79973,-2.72995 5.13757,-3.84584 0.2564,-0.21386 0.99397,-0.82379 1.63905,-1.35538 0.645086,-0.5316 2.020948,-2.01364 3.057482,-3.29341 1.036533,-1.27978 1.975054,-2.39592 2.085604,-2.4803 0.110551,-0.0844 0.660944,-0.9129 1.223095,-1.84113 0.562155,-0.92824 1.101372,-1.75674 1.198267,-1.84113 0.311949,-0.27168 3.223674,-5.30686 4.258719,-7.36451 1.235942,-2.45703 1.809991,-3.25219 2.113384,-2.92742 0.12832,0.13736 0.05985,0.31168 -0.152169,0.38737 -0.212015,0.0757 -0.309334,0.26084 -0.216268,0.41142 0.212601,0.34399 -4.599465,9.78399 -5.66132,11.10601 -0.565635,0.70422 -0.209582,1.03328 0.663435,0.61312 0.379478,-0.18262 2.174792,-1.03931 3.989585,-1.90374 3.932971,-1.87338 8.257316,-4.70126 10.295487,-6.73268 0.286108,-0.28516 1.348706,-1.22905 2.361326,-2.09752 1.01262,-0.86847 2.695454,-2.38743 3.739631,-3.37547 l 1.8985,-1.79642 7.758754,0.0973 c 8.330355,0.10449 10.475215,0.40333 11.795215,1.6434 0.39893,0.37478 1.65088,1.98712 2.78211,3.58299 1.13122,1.59587 2.2088,3.05869 2.39462,3.25073 0.18582,0.19204 1.11527,1.38479 2.06545,2.65056 0.95018,1.26578 2.38396,2.90632 3.18619,3.64565 1.29372,1.19228 6.99152,5.25314 7.3707,5.25314 0.0807,0 0.55371,0.30088 1.05111,0.66862 0.99956,0.73901 1.43642,0.62038 0.93967,-0.25517 -0.58663,-1.03397 -1.86888,-4.49953 -1.86888,-5.05107 0,-0.29848 -0.12025,-0.61701 -0.26723,-0.70784 -0.14697,-0.0908 -0.35284,-0.59331 -0.45751,-1.1166 -0.10466,-0.5233 -0.38181,-1.3892 -0.6159,-1.92423 -0.23409,-0.53503 -0.68877,-1.59416 -1.01041,-2.35362 -0.50126,-1.18358 -1.4814,-3.08065 -3.10145,-6.00287 -0.21417,-0.38631 -1.26811,-1.32942 -2.34209,-2.0958 -2.47357,-1.7651 -5.94736,-6.06276 -5.6417,-6.97973 0.0578,-0.17345 0.84051,0.53013 1.73931,1.56351 1.62766,1.87136 5.56525,5.22981 6.13164,5.22981 0.16372,0 0.34369,0.10356 0.39995,0.23014 0.0563,0.12658 1.20696,0.97845 2.55712,1.89303 4.32499,2.92972 7.20754,5.5482 6.10775,5.5482 -0.25254,0 -1.96284,-1.2209 -2.86027,-2.04181 -0.40789,-0.37312 -1.2364,-0.92938 -1.84113,-1.23614 -0.60472,-0.30675 -1.43126,-0.80132 -1.83676,-1.09903 -0.99837,-0.73299 -1.15515,-0.45465 -0.36721,0.65191 0.93946,1.31935 4.0196,7.89743 4.0196,8.58444 0,0.62682 1.16582,3.69791 1.58583,4.1775 0.14041,0.16033 0.25529,0.54911 0.25529,0.86396 0,0.76891 1.88867,4.81523 3.05243,6.5396 0.51517,0.76335 0.93668,1.49244 0.93668,1.62022 0,0.12777 0.33308,0.63867 0.74018,1.13532 0.40709,0.49665 1.47969,1.86501 2.38354,3.0408 0.90385,1.17579 2.60353,2.94421 3.77706,3.92983 l 2.1337,1.79203 3.38427,-0.11629 c 1.86134,-0.064 3.69495,-0.226 4.07469,-0.36008 0.46192,-0.1631 0.69042,-0.12476 0.69042,0.11584 0,0.43703 -2.68052,1.68845 -4.67953,2.18468 -0.80166,0.19901 -1.45756,0.45945 -1.45756,0.57876 0,0.38733 1.38609,1.53177 2.62574,2.16796 1.02832,0.52773 1.69357,0.6083 4.43191,0.53676 2.8671,-0.0749 3.37856,-0.17597 4.64358,-0.91751 z M 70.106934,240.76543 c 0.06669,-0.20008 0.966049,-0.64885 1.998572,-0.99728 1.032522,-0.34842 1.979067,-0.73706 2.103436,-0.86364 0.124368,-0.12658 0.457185,-0.23014 0.739593,-0.23014 0.282407,0 1.743802,-0.69011 3.247546,-1.53357 1.503741,-0.84347 2.831507,-1.53389 2.950588,-1.53428 0.304081,-9.2e-4 2.017965,-1.18759 3.667014,-2.53886 1.364714,-1.11829 2.100137,-1.42225 2.100137,-0.86803 0,0.4897 -3.325076,3.33236 -5.05685,4.32318 -0.924541,0.52897 -1.761091,1.09138 -1.859005,1.24981 -0.09791,0.15842 -0.436175,0.28804 -0.751701,0.28804 -0.315524,0 -0.756152,0.18216 -0.979167,0.4048 -0.223019,0.22264 -0.681656,0.48529 -1.019196,0.58367 -0.33754,0.0984 -2.024704,0.60665 -3.749254,1.12948 -3.563199,1.08025 -3.555761,1.07896 -3.391713,0.58682 z m 59.591876,37.46275 c -0.0117,-0.74273 -0.12149,-1.86823 -0.24404,-2.50112 l -0.22283,-1.1507 h -1.96325 c -2.43748,0 -2.91861,0.50981 -2.91861,3.09257 v 1.72859 l 2.01371,-0.0387 c 1.10754,-0.0213 2.17769,0.0654 2.37812,0.1927 0.68414,0.43446 0.97813,0.0279 0.9569,-1.32331 z m -61.631575,-0.4697 c 1.475679,-1.12555 0.96947,-1.70899 -1.375188,-1.58498 -1.91263,0.10115 -2.380691,0.70729 -1.390815,1.80109 0.727144,0.80348 1.509378,0.74237 2.766003,-0.21611 z m 55.632825,-1.89323 c 0.0434,-1.20905 -0.49188,-2.32081 -1.86275,-3.86923 -1.01792,-1.14977 -2.65926,-2.32933 -3.24121,-2.32933 -0.17136,0 -0.37399,0.32651 -0.45028,0.72559 -0.22868,1.19626 1.30395,3.81907 4.2097,7.20413 l 0.92057,1.07242 0.19383,-0.89553 c 0.10661,-0.49254 0.21017,-1.35116 0.23014,-1.90805 z m 15.58142,-0.44504 c -0.60747,-0.71727 -2.10976,-2.89106 -3.33842,-4.83063 -2.33248,-3.6821 -5.1899,-6.84824 -6.03585,-6.68801 -0.68039,0.12888 -1.37351,2.46184 -1.12498,3.78658 0.11591,0.61788 1.00461,2.12471 2.10353,3.56663 1.62965,2.1383 2.2332,2.67352 4.20423,3.72821 2.20926,1.18217 3.47952,1.64242 4.71926,1.70994 0.47289,0.0257 0.37786,-0.20341 -0.52777,-1.27272 z m -69.551517,-0.80102 c 0,-0.65153 0.08591,-1.81136 0.190907,-2.57741 0.168828,-1.23174 0.111296,-1.43543 -0.497488,-1.76124 -0.443132,-0.23716 -1.26163,-0.29679 -2.297329,-0.16739 -1.860999,0.23251 -2.122393,0.58732 -2.467479,3.34928 l -0.217587,1.74151 1.693546,-0.19904 c 1.308096,-0.15374 1.855681,-0.0855 2.405911,0.29992 1.033192,0.72367 1.189519,0.63357 1.189519,-0.68563 z m 3.440033,-1.24283 c 0.639531,-0.57561 1.162786,-1.23151 1.162786,-1.45756 0,-0.22604 0.13176,-0.41099 0.292798,-0.41099 0.473884,0 2.468893,-2.79487 2.468893,-3.45874 0,-0.54348 -0.139938,-0.58705 -1.304132,-0.40604 -1.087971,0.16917 -4.245671,1.93536 -4.660682,2.60686 -0.06447,0.10432 -0.217511,1.36209 -0.34009,2.79506 l -0.222872,2.6054 0.720259,-0.61371 c 0.39614,-0.33754 1.243509,-1.08466 1.88304,-1.66028 z m 57.526784,1.44932 c -0.098,-0.24479 -0.17066,-0.17208 -0.18539,0.18539 -0.0133,0.32347 0.0592,0.50471 0.16117,0.40275 0.10197,-0.10197 0.11286,-0.36663 0.0242,-0.58814 z m -1.9539,-2.70416 c -0.35583,-2.82631 -1.75747,-4.33199 -3.60174,-3.8691 -0.73511,0.1845 -0.75086,0.24848 -0.59413,2.41288 0.0885,1.22285 0.20361,2.36834 0.2557,2.54553 0.0543,0.18465 0.95246,0.31563 2.10436,0.30685 l 2.00966,-0.0153 z m -5.07885,-1.91784 c -0.19099,-2.7761 -0.58215,-3.61727 -2.2336,-4.80326 -1.44486,-1.03762 -1.78263,-0.91765 -2.07622,0.73744 -0.0898,0.50631 -0.26091,1.22957 -0.38021,1.60726 -0.16011,0.50682 -0.0733,0.74181 0.33144,0.89712 0.69784,0.26779 1.3975,0.85177 2.97367,2.482 0.69349,0.71728 1.32323,1.30414 1.39942,1.30414 0.0762,0 0.0697,-1.00112 -0.0145,-2.2247 z m -63.737767,-1.15687 c 2.615944,-1.03111 5.412279,-3.11936 6.480585,-4.83957 0.748314,-1.20496 0.579218,-3.28542 -0.359524,-4.42339 l -0.580455,-0.70365 -0.986553,1.22742 c -1.792399,2.23001 -7.014213,7.1559 -8.953433,8.44603 l -1.90679,1.26854 2.38382,-0.18447 c 1.31111,-0.10146 3.07616,-0.45737 3.92235,-0.79091 z m 10.263123,-0.45412 c 0.06928,-0.33754 0.339458,-1.60755 0.600404,-2.82226 0.260946,-1.21471 0.474446,-2.28486 0.474446,-2.37813 0,-0.0933 -0.400194,-0.16956 -0.88932,-0.16956 -0.698711,0 -1.207246,0.36828 -2.37267,1.71828 -1.402979,1.62519 -2.261393,3.11862 -2.261393,3.93427 0,0.24987 0.683973,0.36011 2.161288,0.34834 1.907399,-0.0152 2.176084,-0.0893 2.287245,-0.63094 z m 1.688559,-0.0785 c 0,-0.30637 2.755512,-1.56193 3.953898,-1.80161 l 0.943808,-0.18876 -0.1902,-2.80125 c -0.104613,-1.54068 -0.23274,-2.85151 -0.284731,-2.91296 -0.182394,-0.21555 -2.130988,1.1555 -3.073768,2.16274 -1.254468,1.34025 -2.525963,5.77377 -1.655861,5.77377 0.16877,0 0.306854,-0.10437 0.306854,-0.23193 z m 54.749505,-1.68493 c -0.32957,-1.0384 -1.96129,-4.00388 -2.49097,-4.52709 -0.41508,-0.41 -0.4473,-0.39324 -0.29501,0.15343 0.094,0.33754 0.26478,1.61482 0.37944,2.83841 l 0.20846,2.22469 h 1.20845 c 1.11306,0 1.19118,-0.0544 0.98963,-0.68944 z m -7.66089,-4.43007 c 0.0131,-2.71768 -0.0191,-2.85216 -0.90161,-3.7735 -0.70702,-0.73808 -0.8217,-1.01315 -0.5042,-1.20938 0.56245,-0.34761 0.21732,-1.7732 -0.81453,-3.36455 -0.84455,-1.30249 -1.755,-1.84531 -2.25554,-1.34477 -0.23982,0.23982 0.85256,2.92613 2.159,5.30929 0.14182,0.2587 0.36039,0.94912 0.48573,1.53427 0.12533,0.58516 0.3733,1.24421 0.55103,1.46455 0.17774,0.22035 0.38772,1.51592 0.46663,2.87904 0.19851,3.42911 0.79507,2.3328 0.81349,-1.49495 z m 9.18811,-0.0203 c -0.42365,-0.37973 -0.90065,-0.69042 -1.06001,-0.69042 -0.38917,0 -0.36353,1.40959 0.0529,2.9097 l 0.33925,1.22199 0.71905,-1.37542 0.71905,-1.37542 z m -5.32088,0.4841 c -0.31495,-2.06145 -0.82125,-3.01566 -1.60011,-3.01566 -0.37832,0 -0.77649,0.97236 -0.94624,2.31077 -0.15104,1.19084 -0.10415,1.27203 1.26247,2.18619 0.78062,0.52218 1.46614,0.90842 1.52336,0.85831 0.0572,-0.0501 -0.0505,-1.10295 -0.23948,-2.33962 z m -44.090722,-0.67431 c 0.843577,-2.64824 2.681053,-6.41986 4.243934,-8.71115 0.490216,-0.71869 0.806681,-1.44364 0.703252,-1.61098 -0.385344,-0.62351 -1.640239,-0.29396 -2.422997,0.6363 -1.15524,1.37292 -2.951045,4.53449 -3.155064,5.55458 -0.09703,0.48516 -0.296673,0.95644 -0.443644,1.04727 -0.345644,0.21361 -0.350851,5.6523 -0.0054,5.6523 0.143995,0 0.629964,-1.15575 1.079932,-2.56833 z m -6.730389,-0.73037 c 0.110695,-0.46411 0.27056,-1.12001 0.355255,-1.45756 0.103247,-0.41147 -0.203396,-0.20925 -0.930571,0.61371 -1.284471,1.45367 -1.334369,1.6877 -0.35982,1.6877 0.547226,0 0.78506,-0.21461 0.935136,-0.84385 z m -1.948573,-2.9522 -0.88039,-0.88093 -1.230367,0.54284 -1.230368,0.54283 0.561176,0.99913 c 0.308647,0.54952 0.482247,1.07806 0.385775,1.17453 -0.09647,0.0965 0.0018,0.38902 0.218563,0.65011 0.345527,0.41633 0.557616,0.31349 1.724983,-0.83644 l 1.331019,-1.31113 z m 55.820244,2.87098 c 0,-0.55465 -1.56066,-1.83231 -2.24202,-1.83547 -0.30986,-0.002 1.69698,2.44059 2.01188,2.44816 0.12658,0.003 0.23014,-0.27267 0.23014,-0.61269 z m -49.561168,-2.08986 c 0.275605,-0.71822 -0.189286,-1.89474 -0.748688,-1.89474 -0.775643,0 -1.530898,0.96914 -2.018892,2.59062 l -0.427731,1.42124 1.519136,-0.85395 c 0.835525,-0.46967 1.589805,-1.0381 1.676175,-1.26317 z m 45.711168,-1.29598 c -0.49296,-0.51453 -0.94759,-0.78157 -1.01031,-0.59343 -0.14391,0.43174 0.87932,1.48646 1.4656,1.51071 0.27545,0.0114 0.10454,-0.33294 -0.45529,-0.91728 z m -49.251061,-0.21788 c 0.929527,-0.75268 0.56684,-1.67712 -0.553768,-1.41148 -0.844777,0.20027 -1.885849,0.95243 -1.885849,1.36251 0,0.22333 0.644551,0.47373 1.423566,0.55306 0.192263,0.0196 0.649489,-0.20726 1.016051,-0.50409 z m 47.270821,-0.25682 c 0,-0.52364 -0.73395,-1.96208 -1.61098,-3.15727 -0.7044,-0.95994 -0.6838,-0.35758 0.0435,1.27214 0.31928,0.71543 0.66016,1.54244 0.7575,1.83778 0.22141,0.67172 0.80997,0.70612 0.80997,0.0473 z m -43.8802,-2.30781 c 0,-1.06859 -0.262711,-1.10438 -1.336116,-0.18203 -0.943513,0.81074 -0.637527,1.4441 0.584779,1.21045 0.59029,-0.11285 0.751337,-0.33328 0.751337,-1.02842 z m 2.165301,-0.041 c 0.316784,-0.37973 0.586178,-0.8285 0.598651,-0.99727 0.01246,-0.16877 0.425598,-0.77808 0.918051,-1.35402 1.515865,-1.77284 0.262821,-1.99707 -1.504471,-0.26921 -0.739504,0.723 -0.950114,1.19292 -0.950114,2.11992 0,1.3752 0.14409,1.45211 0.937883,0.50058 z m 37.170339,-3.80809 c 0.2343,-0.13028 -0.5418,-2.16755 -1.07458,-2.82078 -0.2772,-0.33988 -0.43787,-0.2924 -0.88688,0.2621 -0.30159,0.37245 -0.46029,0.81966 -0.35266,0.9938 0.10762,0.17414 0.22734,0.60853 0.26605,0.96531 0.0387,0.35678 0.088,0.75489 0.10952,0.88468 0.0352,0.21201 1.4075,0.0102 1.93855,-0.28511 z m -30.12664,-1.40843 c 0.641339,-1.05187 0.816899,-2.82796 0.310473,-3.14095 -0.334788,-0.20691 -2.3493,1.51374 -2.835318,2.42172 -0.251213,0.46932 -0.169442,0.69537 0.413778,1.14388 1.027748,0.79037 1.418134,0.71184 2.111067,-0.42465 z m 18.25448,-22.75966 c 1.35016,-0.59994 2.6999,-1.09248 2.99943,-1.09454 0.91541,-0.006 1.62316,-3.04624 0.82418,-3.54004 -0.91883,-0.56787 -5.57415,0.35235 -6.40943,1.26696 -0.13802,0.15112 -0.34004,1.29159 -0.44893,2.53437 -0.15465,1.765 -0.11285,2.22287 0.19097,2.09182 0.21392,-0.0923 1.49363,-0.65863 2.84378,-1.25857 z m -4.142532,-1.33687 c 0,-2.40688 -0.371036,-3.11298 -2.055898,-3.9125 -2.951404,-1.40053 -4.694903,-1.06875 -4.694903,0.89343 0,0.93097 0.160544,1.11148 1.764414,1.9838 0.970428,0.5278 2.385795,1.44113 3.14526,2.02962 0.759465,0.5885 1.484409,1.07345 1.610987,1.07767 0.126577,0.004 0.23014,-0.92818 0.23014,-2.07202 z m 11.967322,-1.00223 c 0.92824,-0.20561 1.86031,-0.51074 2.07127,-0.67807 0.53366,-0.4233 0.48056,-2.22144 -0.0793,-2.68609 -0.55065,-0.457 -2.11841,-0.25786 -3.63476,0.46169 -0.94378,0.44786 -1.07253,0.65519 -1.17031,1.88461 -0.12255,1.54083 -0.0516,1.70884 0.64294,1.5217 0.26536,-0.0715 1.24194,-0.29823 2.17017,-0.50384 z m 4.73819,-1.37721 c 0.3276,-0.24779 0.8109,-0.45121 1.07399,-0.45205 0.26309,-9.2e-4 0.86553,-0.31153 1.33877,-0.69042 0.85166,-0.68188 0.85553,-0.70063 0.37945,-1.83961 -0.64261,-1.53739 -1.74205,-1.54753 -3.6371,-0.0335 -0.74436,0.59468 -0.80385,0.79079 -0.62834,2.07127 0.2044,1.4913 0.49978,1.68063 1.47323,0.94436 z m -24.217481,-1.09957 c 0.267728,-1.58466 -0.248672,-2.62981 -1.427266,-2.88867 -0.480191,-0.10547 -0.951848,-0.31922 -1.04813,-0.47501 -0.09628,-0.15578 -0.635232,-0.28324 -1.197672,-0.28324 -0.824352,0 -1.058556,0.14321 -1.208,0.73863 -0.101962,0.40624 -0.266371,0.94968 -0.36536,1.20763 -0.199019,0.51865 1.689965,1.87321 3.55276,2.54764 1.492672,0.54042 1.456187,0.55867 1.693668,-0.84698 z m 11.192791,-0.55564 c 0.96524,-0.31504 2.30061,-0.50733 3.12301,-0.4497 1.37844,0.0966 1.44498,0.0632 1.63956,-0.82274 0.1162,-0.52903 0.0587,-1.09703 -0.13455,-1.32991 -0.49922,-0.60153 -3.78265,-1.21399 -5.14412,-0.95955 -1.68511,0.31492 -1.9373,0.64072 -1.9373,2.50275 0,1.87096 -0.0146,1.86467 2.4534,1.05915 z m -3.373967,-1.34493 c 0,-2.00649 -0.336914,-2.4471 -2.359067,-3.08517 -3.138187,-0.99021 -4.502217,-0.51708 -4.337387,1.50448 l 0.09908,1.21518 1.841128,0.15981 c 1.293291,0.11225 2.206352,0.40362 3.068546,0.97922 0.67508,0.45068 1.330982,0.82755 1.457559,0.83748 0.126578,0.01 0.230141,-0.71502 0.230141,-1.611 z m 22.229417,0.0645 c 1.17554,-0.69359 1.28868,-1.04239 0.73341,-2.26107 -0.27392,-0.60119 -0.50839,-0.74034 -0.99728,-0.59185 -1.45481,0.44186 -2.05712,1.62981 -1.52689,3.01156 0.24346,0.63445 0.48245,0.61328 1.79076,-0.15864 z m -10.03195,-0.16544 c 1.24761,-0.18265 1.30413,-0.23716 1.30413,-1.25784 0,-0.90237 -0.0828,-1.03014 -0.53699,-0.82846 -0.29535,0.13115 -1.15838,0.29883 -1.91785,0.37261 -1.65989,0.16128 -2.14798,0.50702 -2.14798,1.52155 0,0.69694 0.088,0.74757 0.99728,0.57372 0.5485,-0.10487 1.58414,-0.27658 2.30141,-0.38158 z m -25.836837,-0.86839 c 0.699895,-1.67508 0.576619,-2.2886 -0.552655,-2.75045 -2.173018,-0.88871 -2.286665,-0.88146 -2.816035,0.17969 l -0.494527,0.9913 1.297246,1.3218 c 0.713483,0.72699 1.482666,1.3218 1.709294,1.3218 0.226627,0 0.612132,-0.47887 0.856677,-1.06414 z m 31.475717,-1.19229 c 0.35201,-0.10583 0.454,-0.38581 0.34612,-0.95015 -0.16481,-0.86213 -0.30921,-0.86063 -2.42945,0.0252 -0.83526,0.349 -1.024,0.59604 -1.024,1.34032 v 0.91246 l 1.30413,-0.58893 c 0.71727,-0.3239 1.52871,-0.65643 1.8032,-0.73896 z m -25.507712,-0.31591 c 0,-0.95746 -0.131708,-1.10043 -1.696089,-1.84113 -0.932848,-0.44168 -1.82414,-0.80306 -1.980649,-0.80306 -0.271956,0 -0.814919,2.10359 -0.579347,2.24454 0.179479,0.10739 3.770252,1.35457 4.025944,1.39833 0.126578,0.0217 0.230141,-0.42775 0.230141,-0.99868 z m 29.764892,-2.4804 c 0,-1.38218 -0.26233,-1.49801 -1.41005,-0.62261 -0.55211,0.42112 -1.16211,0.76567 -1.35555,0.76567 -0.2361,0 -0.28141,0.3278 -0.13782,0.99728 0.31958,1.49004 0.37865,1.51255 1.69076,0.64423 0.99254,-0.65683 1.21266,-0.98076 1.21266,-1.78457 z m -13.79114,-0.0104 c 0.0939,-1.18139 0.13336,-2.20059 0.0877,-2.26489 -0.23321,-0.32816 -4.44581,-0.37617 -5.39917,-0.0615 -1.1886,0.39227 -1.44568,0.92414 -1.45242,3.00489 l -0.004,1.29219 2.68497,0.10733 c 4.28289,0.17121 3.88839,0.37199 4.08313,-2.07799 z m 6.18914,1.35042 c 3.16233,-1.11042 6.64119,-3.28422 7.24768,-4.52878 0.13505,-0.27715 0.16646,-0.89499 0.0698,-1.37298 l -0.17575,-0.86908 -1.74164,0.91742 c -0.95791,0.50459 -1.82093,0.83814 -1.91785,0.74123 -0.36557,-0.36558 -0.15003,-0.71276 0.62556,-1.00764 3.1693,-1.20497 11.56453,-8.8913 13.07254,-11.9687 1.2587,-2.56861 1.67464,-3.61862 2.86452,-7.23124 0.60517,-1.83739 1.28083,-3.75497 1.50147,-4.26128 0.22064,-0.50631 0.49009,-1.3003 0.59877,-1.76441 0.20382,-0.8703 0.20364,-0.87041 -1.41911,-0.966 -0.29208,-0.0172 -0.5527,-0.16936 -0.57915,-0.33814 -0.055,-0.35123 2.38596,-1.64233 3.1566,-1.66958 0.28167,-0.01 0.97209,-0.24861 1.53427,-0.53032 1.80553,-0.90475 2.08187,-1.02207 2.40756,-1.02207 0.90838,0 4.96822,-2.27228 5.63796,-3.15555 0.9043,-1.19262 2.81958,-4.96573 3.11192,-6.13048 0.19372,-0.77185 0.13807,-0.84017 -0.68431,-0.84017 -0.71835,0 -2.49647,-0.84732 -1.93304,-0.92115 0.0844,-0.011 0.94535,-0.0731 1.91327,-0.13788 1.80687,-0.12093 3.33881,-0.5068 5.03733,-1.26884 0.53181,-0.2386 1.06609,-0.43382 1.18728,-0.43382 0.4059,0 3.82944,-2.18911 3.82944,-2.44866 0,-0.14093 -0.72494,-0.32077 -1.61098,-0.39964 -5.5647,-0.49533 -11.66448,-5.55956 -12.92414,-10.73002 -0.27294,-1.12031 -0.68059,-1.06436 -1.93483,0.26552 -2.19928,2.33191 -3.0572,5.13193 -2.12178,6.92489 0.5194,0.99555 0.92239,2.70565 0.6376,2.70565 -0.30591,0 -1.35573,-1.3276 -1.3675,-1.72934 -0.006,-0.19167 -0.21648,-0.744 -0.4686,-1.22741 -0.25211,-0.48341 -0.45924,-1.1486 -0.46028,-1.4782 -0.002,-0.49937 -0.19826,-0.40752 -1.17983,0.55096 -1.81148,1.76886 -2.5836,3.41279 -2.6861,5.719 -0.0486,1.09365 -0.23471,2.03722 -0.41358,2.09684 -0.17886,0.0596 -0.3252,-0.17112 -0.3252,-0.51277 0,-0.34164 -0.12163,-0.69634 -0.2703,-0.78822 -0.41389,-0.2558 -2.4039,1.45551 -3.98842,3.42986 -1.22288,1.52374 -1.80856,2.61696 -3.41101,6.36689 -0.3553,0.83144 -0.57431,2.30168 -0.34265,2.30027 1.01456,-0.006 4.52735,-3.28562 6.07956,-5.67567 0.78749,-1.21254 1.25418,-1.67384 1.70268,-1.683 0.46377,-0.009 0.1608,1.10201 -0.63783,2.33996 -1.86007,2.88332 -2.57413,4.13487 -2.43722,4.27179 0.0796,0.0796 1.30464,0.15141 2.72226,0.15952 3.86664,0.0221 5.22005,-0.82956 7.07976,-4.45523 0.8904,-1.73591 0.92874,-1.96392 0.81336,-4.83662 -0.12586,-3.13345 0.15133,-3.70541 0.85369,-1.76156 0.45141,1.24933 0.54591,4.67368 0.14992,5.43231 -0.15297,0.29306 -0.42871,1.09977 -0.61276,1.79269 -0.51351,1.93334 -2.43,3.90013 -4.58606,4.70644 -1.53393,0.57366 -2.18915,0.64986 -4.22946,0.49189 -2.96206,-0.22934 -4.16113,-0.22573 -5.94317,0.0178 -1.23295,0.16852 -1.55436,0.39763 -3.00089,2.13908 -2.32185,2.79525 -4.20619,5.67909 -5.9292,9.0742 -1.46948,2.89555 -3.64221,9.00024 -3.64802,10.2498 -0.002,0.34598 -0.17554,0.81028 -0.3865,1.03177 -0.31357,0.32922 -0.24358,0.36212 0.38357,0.18025 2.2478,-0.65182 4.62988,-2.06281 6.33583,-3.75295 1.72301,-1.70704 3.06051,-3.95103 4.89601,-8.21432 0.21799,-0.50631 0.81786,-1.85301 1.33305,-2.99266 0.51519,-1.13964 0.93671,-2.1496 0.93671,-2.24435 0,-0.42352 1.53474,-3.47242 1.8442,-3.66367 0.73199,-0.4524 0.66427,0.22551 -0.23707,2.37326 -1.45827,3.4748 -2.45852,6.30119 -3.39597,9.59596 -0.4334,1.52322 -2.30367,4.61076 -3.74486,6.1822 -1.31103,1.42952 -4.03508,2.88798 -6.755,3.61663 -1.74326,0.46701 -2.06338,0.66636 -2.41958,1.50679 -0.22578,0.53271 -0.73707,1.63581 -1.13619,2.45134 -0.39912,0.81552 -0.72568,1.57811 -0.72568,1.69463 0,0.35131 1.91737,1.23341 3.14526,1.44699 1.19129,0.20721 1.46588,0.7157 0.72053,1.33429 -0.23659,0.19635 -0.51786,0.70637 -0.62503,1.13336 -0.24814,0.98868 -0.89259,0.79164 -1.09278,-0.33412 -0.15495,-0.87142 -1.17313,-1.80939 -2.3014,-2.12012 -1.27913,-0.35226 -2.78612,2.97942 -2.69071,5.94868 0.019,0.5907 0.0453,1.11411 0.0585,1.16314 0.0883,0.32863 3.02323,-0.19154 5.003,-0.88671 z m -14.369742,-2.45938 c -0.319341,-0.35287 -0.926155,-0.81697 -1.348479,-1.03135 -0.996124,-0.50565 -3.982411,-0.86538 -5.020641,-0.60481 -0.680389,0.17077 -0.810321,0.37349 -0.810321,1.26428 0,1.89437 0.394597,2.24587 2.542346,2.26466 1.048875,0.009 2.528427,0.25763 3.287892,0.55211 l 1.380845,0.53543 0.27449,-1.16937 c 0.22695,-0.96688 0.17394,-1.28047 -0.306132,-1.81095 z m -17.919351,1.91935 c 0,-0.29382 0.156419,-0.69064 0.347599,-0.88182 0.357378,-0.35738 0.166704,-1.3113 -0.261256,-1.30703 -0.583724,0.006 -1.263959,2.39996 -0.81068,2.85325 0.307275,0.30727 0.724337,-0.0753 0.724337,-0.6644 z m 5.24636,-0.71271 c 0.320826,-0.59947 0.217704,-0.79098 -0.986482,-1.83197 -0.739618,-0.63939 -1.488837,-1.16664 -1.664935,-1.17168 -0.345085,-0.01 -1.076832,2.32724 -0.811676,2.59239 0.08808,0.0881 0.455949,0.16015 0.817491,0.16015 0.361539,0 0.925385,0.20273 1.252989,0.45052 0.802578,0.60704 0.974165,0.58247 1.392613,-0.19941 z m 4.50797,-1.95154 c -0.159291,-1.92084 -0.990275,-3.30555 -2.080228,-3.46639 -0.55159,-0.0814 -0.660238,0.007 -0.504902,0.41208 0.930721,2.42542 0.153188,2.73694 -1.129789,0.45265 -1.067953,-1.90144 -3.130098,-4.19422 -2.82337,-3.13914 0.263782,0.90736 -0.173044,0.87599 -1.068059,-0.0767 -0.969081,-1.03154 -1.227418,-0.96714 -1.227418,0.30597 0,1.25648 1.276269,2.8272 3.976378,4.89376 2.062121,1.57827 3.302906,2.24244 4.26998,2.28566 0.698895,0.0312 0.722704,-0.0364 0.587408,-1.66788 z m -8.537989,-1.19399 c 0.219714,-0.41054 0.302227,-0.9974 0.183364,-1.30413 -0.20613,-0.53192 -0.23638,-0.53017 -0.654484,0.0379 -0.473977,0.64403 -0.598667,2.01262 -0.183364,2.01262 0.140251,0 0.43477,-0.3359 0.654484,-0.74644 z m 17.194932,-1.4172 c 0,-1.84971 -0.004,-1.85875 -1.150702,-2.37059 -0.809145,-0.3613 -2.015989,-0.51605 -4.065824,-0.52134 l -2.915118,-0.008 0.04662,1.00991 c 0.109943,2.38175 0.235324,2.51758 2.337348,2.53235 1.051597,0.007 2.602419,0.2651 3.446269,0.57269 2.332587,0.85025 2.301407,0.86672 2.301407,-1.21549 z m 5.29324,1.12279 2.68498,0.0332 v -1.74899 -1.74899 l -1.18631,-0.35543 c -1.52103,-0.45571 -3.78195,-0.45539 -4.78291,6.2e-4 -0.67812,0.30897 -0.78158,0.54936 -0.78158,1.81603 0,0.80295 -0.0918,1.69901 -0.20388,1.99123 -0.17768,0.46302 -0.0889,0.49582 0.69042,0.25524 0.49187,-0.15185 2.10254,-0.26116 3.57928,-0.24293 z m 5.47693,-3.63869 c 0.65113,-1.25731 0.60628,-1.33963 -0.41799,-0.76713 -0.96822,0.54116 -1.13783,0.85148 -1.13209,2.07127 0.005,1.02927 0.0248,1.04843 0.47961,0.46028 0.261,-0.33754 0.74271,-1.13153 1.07047,-1.76442 z m -21.816933,-0.15656 c 0,-0.1283 -0.345211,-0.60557 -0.767137,-1.0606 -0.421925,-0.45503 -0.767136,-0.95003 -0.767136,-1.10001 0,-0.14998 -0.276169,-0.52262 -0.613709,-0.82809 -0.33754,-0.30547 -0.613709,-0.66774 -0.613709,-0.80506 0,-0.4086 -2.568683,-4.08101 -3.068052,-4.38636 -1.379223,-0.84334 -6.432581,-6.65357 -6.451265,-7.4175 -0.0038,-0.15343 -0.27685,-0.62418 -0.606885,-1.04611 -0.330034,-0.42192 -0.603132,-1.05021 -0.606885,-1.39619 -0.0037,-0.34597 -0.134024,-0.76023 -0.289492,-0.92056 -0.155468,-0.16033 -0.991764,-2.43182 -1.858438,-5.04776 -0.86667,-2.61593 -1.798803,-5.10146 -2.0714,-5.52338 -0.798764,-1.23632 -2.363925,-3.05702 -2.633119,-3.06301 -0.136538,-0.003 -0.181833,0.10193 -0.100661,0.23327 0.08117,0.13134 0.306275,1.40862 0.500222,2.8384 0.193948,1.42978 0.48089,2.73078 0.637656,2.89112 0.156763,0.16033 0.285025,0.56105 0.285025,0.8905 0,0.64667 2.00377,8.24127 2.440805,9.25104 1.034934,2.39122 1.716394,3.66046 2.999138,5.58597 1.861119,2.79371 8.347841,9.51957 8.67327,8.99302 0.175217,-0.28351 0.447019,-0.23782 1.114204,0.18729 0.485346,0.30925 0.951492,0.63451 1.035877,0.72279 0.302785,0.31678 2.002312,1.17897 2.378123,1.20645 0.210962,0.0154 0.383568,-0.0769 0.383568,-0.20522 z m 1.841128,0.098 c 0,-0.0744 -0.138085,-0.22066 -0.306855,-0.32497 -0.16877,-0.1043 -0.306855,-0.0434 -0.306855,0.13532 0,0.17873 0.138085,0.32497 0.306855,0.32497 0.16877,0 0.306855,-0.0609 0.306855,-0.13532 z m 8.959325,-2.85652 c -0.0671,-1.13919 -0.292969,-2.25115 -0.501971,-2.47102 -0.208999,-0.21986 -1.156339,-0.60248 -2.105197,-0.85027 -1.541847,-0.40263 -1.957205,-0.39774 -3.908217,0.046 l -2.183019,0.49652 0.09968,2.19488 0.09968,2.19487 2.608264,-0.10015 c 1.434546,-0.0551 2.953476,0.0397 3.375401,0.21069 0.421925,0.17096 1.187935,0.31959 1.702242,0.33029 l 0.935107,0.0195 -0.12197,-2.07127 z m 4.29749,1.55305 c 0.79361,-0.084 1.94206,0.012 2.55211,0.21332 0.61006,0.20134 1.18316,0.2921 1.27356,0.2017 0.31843,-0.31843 -0.26985,-3.28352 -0.77154,-3.88867 -0.62221,-0.75054 -3.55889,-1.38261 -5.08961,-1.09544 l -1.09513,0.20545 v 2.4767 2.47671 l 0.84385,-0.21851 c 0.46411,-0.12018 1.49316,-0.28725 2.28676,-0.37126 z m -13.837562,-2.10559 c -0.04631,-0.99969 -0.308248,-2.19691 -0.582091,-2.66049 -0.585368,-0.99095 -2.102313,-1.77813 -3.867034,-2.0067 -1.236096,-0.1601 -1.25019,-0.15148 -0.723652,0.44276 0.295347,0.33333 0.536995,0.71339 0.536995,0.84458 0,0.1312 0.393977,0.7417 0.875503,1.35669 0.481528,0.61498 1.206472,1.70115 1.610986,2.4137 0.684176,1.20518 1.239337,1.62933 1.944768,1.48582 0.158797,-0.0323 0.250832,-0.87667 0.204525,-1.87636 z m 20.940632,1.41386 c 0.77444,-0.29444 1.73364,-1.84818 1.73364,-2.80819 0,-0.30165 0.13809,-0.6338 0.30686,-0.7381 0.16877,-0.10431 0.30685,-0.45767 0.30685,-0.78525 0,-0.84877 -1.4025,-0.78184 -3.55388,0.1696 -1.90642,0.84311 -1.82549,0.58324 -1.17863,3.78456 0.21915,1.08457 0.43521,1.11875 2.38516,0.37738 z m -3.94286,-6.23127 c 0.11932,-1.12951 0.0694,-2.26471 -0.12141,-2.76169 -0.27917,-0.72712 -0.49483,-0.84385 -1.559,-0.84385 -1.149,0 -1.23502,0.06 -1.23502,0.86191 0,0.47406 -0.19726,1.12996 -0.43836,1.45756 -0.4104,0.55764 -0.45175,0.56113 -0.64804,0.0547 -0.11532,-0.29749 -0.0407,-0.74451 0.16584,-0.99337 0.44709,-0.53871 0.19617,-1.38084 -0.41143,-1.38084 -0.26703,0 -0.50723,0.47866 -0.63212,1.25963 -0.27647,1.72899 -1.03674,3.12796 -1.58545,2.91741 -0.25825,-0.0991 -0.43954,0.0168 -0.43954,0.28097 0,0.3518 0.45063,0.44682 2.07127,0.43672 1.13919,-0.007 2.48551,0.11957 2.99182,0.2815 1.56591,0.50079 1.62824,0.44762 1.84144,-1.57069 z m -13.628352,0.99346 c 1.744152,-0.24653 4.076339,-0.0443 5.264814,0.45642 0.48152,0.20289 0.514994,0.0754 0.331821,-1.26418 -0.238543,-1.74442 -1.210091,-4.0981 -1.69161,-4.0981 -0.415978,0 -0.107402,3.02679 0.355801,3.48999 0.465787,0.46579 0.382236,1.11283 -0.1437,1.11283 -0.594077,0 -1.636253,-2.26717 -1.752284,-3.81196 -0.05156,-0.6864 -0.272751,-1.26368 -0.514693,-1.34328 -0.341097,-0.11221 -0.381899,0.15387 -0.208121,1.35713 0.118887,0.82319 0.290263,1.80739 0.380831,2.18712 0.113033,0.47392 0.02535,0.69043 -0.279622,0.69043 -0.569813,0 -1.155172,-1.28342 -1.161208,-2.54599 -0.007,-1.46574 -0.351327,-1.8061 -1.714237,-1.6945 l -1.196184,0.0979 -0.08813,3.017 c -0.06103,2.08942 0.01307,2.95445 0.241043,2.81355 0.181044,-0.11189 1.160009,-0.32087 2.175477,-0.46441 z m 16.168092,0.14528 c 0.52064,-0.25973 1.63237,-0.55346 2.4705,-0.65272 1.22074,-0.14458 1.59117,-0.32819 1.8622,-0.92304 0.74955,-1.64508 0.0326,-4.77316 -1.18241,-5.15878 -0.72018,-0.22858 -3.22566,0.80934 -4.22896,1.75188 -0.60638,0.56967 -0.69424,0.95611 -0.69424,3.05356 0,2.64007 0.10931,2.75902 1.77291,1.9291 z m -19.570475,-3.18647 c 0,-2.50254 -0.06879,-2.8199 -0.799479,-3.68827 -0.960396,-1.14137 -3.115503,-2.45107 -4.574797,-2.78019 -0.983373,-0.22179 -1.108147,-0.16264 -1.709572,0.81049 -0.887599,1.43616 -0.849319,2.69145 0.149646,4.90741 0.844535,1.87339 0.854167,1.88184 2.305061,2.02125 0.801342,0.077 1.998115,0.42066 2.659494,0.76368 1.958852,1.01597 1.969647,1.00482 1.969647,-2.03437 z m 10.899025,-0.10025 c 0.24313,-1.62992 0.0853,-1.80898 -0.63099,-0.7158 -0.34754,0.53042 -0.42508,1.06656 -0.27215,1.88176 0.2575,1.37259 0.58813,0.94573 0.90314,-1.16596 z m -19.591997,-2.30141 c -0.09494,-0.29535 -0.394508,-1.22742 -0.665697,-2.07127 -0.271189,-0.84385 -0.692911,-1.9252 -0.937155,-2.40299 -0.244247,-0.4778 -0.444086,-1.06757 -0.444086,-1.3106 0,-0.49837 -1.173719,-4.85752 -1.561378,-5.79891 -0.138996,-0.33754 -0.389168,-1.44221 -0.555934,-2.45483 -0.480004,-2.91464 -2.01014,-9.01679 -2.497336,-9.95932 -0.134682,-0.26056 -0.53521,-1.09512 -0.89006,-1.85458 -0.890025,-1.90488 -1.703749,-3.22921 -3.253337,-5.29482 -2.01886,-2.69116 -2.972285,-3.37698 -7.351821,-5.28835 -1.012621,-0.44194 -2.192458,-1.17582 -2.621864,-1.63084 -0.429403,-0.45502 -1.188872,-1.11295 -1.687702,-1.46205 -1.1245,-0.78697 -4.72185,-2.58661 -5.17522,-2.589 -0.18401,-9.2e-4 -1.07573,-0.75217 -1.98159,-1.66933 -1.56917,-1.58872 -3.84019,-2.96309 -5.61597,-3.39863 -1.11331,-0.27306 -1.65583,0.61153 -2.12736,3.46871 -0.78069,4.73051 0.99859,7.6729 5.50469,9.10308 0.63395,0.20121 0.66369,0.12115 0.66369,-1.78647 0,-1.09842 0.14479,-2.08661 0.32176,-2.19598 0.19823,-0.12252 0.21432,-0.33562 0.0419,-0.55511 -0.15392,-0.19593 -0.37003,-0.9471 -0.48023,-1.66925 -0.1102,-0.72216 -0.57741,-1.98835 -1.03826,-2.81375 -0.95527,-1.71098 -0.68653,-2.46348 0.39599,-1.10884 0.39623,0.49583 0.69455,0.9866 0.66292,1.0906 -0.12102,0.39803 1.17503,2.45729 1.54656,2.45729 0.42565,0 0.54331,1.09676 0.14412,1.34348 -0.48766,0.30139 -0.40413,4.72599 0.12349,6.54093 0.68564,2.35854 1.55412,3.67182 3.70596,5.60406 1.88572,1.69326 2.73878,2.088 6.69656,3.09867 1.35016,0.34479 2.715289,0.70441 3.033616,0.79917 0.497381,0.14806 0.549605,0.056 0.371322,-0.65428 -0.114101,-0.45462 -0.546572,-1.36377 -0.961047,-2.02034 -1.118832,-1.77234 -2.578183,-6.12404 -2.592525,-7.73074 -0.0074,-0.82944 0.587654,-0.63486 0.938416,0.30685 1.392739,3.73918 3.743933,8.14377 5.724406,10.72377 2.678126,3.48885 3.151731,4.18225 3.151731,4.61447 0,0.21801 0.129152,0.63616 0.287008,0.92922 0.157855,0.29306 0.650163,1.63751 1.094019,2.98767 0.443856,1.35016 0.916952,2.731 1.051321,3.06855 0.134368,0.33754 0.418559,1.16604 0.631531,1.84112 0.890667,2.8232 2.986705,6.67172 4.888366,8.9755 1.119927,1.35674 1.756282,1.69129 1.459204,0.76714 z m 33.865977,-0.15343 c 0.006,-0.21096 0.33593,-1.07399 0.73314,-1.91784 0.39722,-0.84385 0.65742,-1.60285 0.57824,-1.68666 -0.29345,-0.31064 -2.28967,2.19609 -2.11381,2.65439 0.0978,0.25482 0.17779,0.65914 0.17779,0.89849 0,0.53559 0.60941,0.58595 0.62464,0.0516 z m -8.60286,-0.95149 c 0,-1.48357 -0.5526,-2.85028 -1.36863,-3.38497 -0.77503,-0.50781 -1.08621,-0.37849 -1.08621,0.45141 0,0.34324 -0.38821,0.66689 -1.06971,0.89181 -1.4797,0.48834 -1.57021,0.81056 -0.39788,1.41634 0.55402,0.28628 1.1454,0.69664 1.31417,0.91192 0.27048,0.34503 0.96082,0.56221 2.22469,0.69991 0.23886,0.026 0.38357,-0.34614 0.38357,-0.98642 z m 3.11748,-0.14425 c 0.90504,-0.47608 1.95286,-0.94597 2.32849,-1.0442 l 0.68297,-0.1786 -0.65149,-1.48735 c -1.10167,-2.51516 -1.71438,-3.2039 -2.6603,-2.99046 -1.47807,0.33353 -2.51435,0.87904 -2.68375,1.41277 -0.20771,0.65446 0.14957,2.64762 0.51509,2.87353 0.14964,0.0925 0.27207,0.55124 0.27207,1.01946 0,0.72238 0.20502,1.26045 0.48027,1.26045 0.0391,0 0.81161,-0.38952 1.71665,-0.8656 z m -14.798569,-0.5569 c 1.42804,-0.81581 1.497085,-1.26466 0.231071,-1.50217 -1.090257,-0.20453 -2.004816,-1.31592 -1.609382,-1.95575 0.238853,-0.38646 -0.411845,-0.44344 -0.975558,-0.0854 -0.419602,0.2665 -1.299219,2.90978 -1.304448,3.9199 -0.0031,0.58343 0.115245,0.62284 1.300812,0.43349 0.717272,-0.11456 1.778148,-0.47908 2.357505,-0.81006 z m -4.133807,-1.70171 c 0.722063,-2.43145 0.623342,-3.05335 -0.678535,-4.27456 -0.632888,-0.59367 -1.513637,-1.23246 -1.957223,-1.41953 -0.721213,-0.30416 -0.902739,-0.23715 -1.716225,0.63356 -0.500336,0.53552 -1.213917,1.48357 -1.58573,2.10675 l -0.676028,1.13307 1.55567,0.55253 c 0.855618,0.30388 2.139255,1.0654 2.852532,1.69225 0.713275,0.62685 1.395078,1.14562 1.515116,1.15281 0.120039,0.007 0.430729,-0.7024 0.690423,-1.57688 z m -8.353745,-0.628 c 0.583012,-1.02015 0.608257,-1.25665 0.258673,-2.42346 -0.364605,-1.21695 -3.15604,-4.60369 -3.506014,-4.25372 -0.147308,0.14731 0.18369,1.51148 1.190388,4.90604 0.275279,0.92823 0.575343,2.00416 0.66681,2.39095 0.219358,0.92759 0.603758,0.7562 1.390143,-0.61981 z m 32.536881,0.22341 c 0.69009,-0.59069 1.50371,-1.07399 1.80802,-1.07399 0.35525,0 0.82977,-0.54557 1.32562,-1.52407 0.42477,-0.83824 0.7723,-1.60079 0.7723,-1.69456 0,-0.0938 -0.56992,-0.78878 -1.2665,-1.54447 -1.70032,-1.84464 -2.29245,-1.79792 -4.40383,0.34747 -0.9318,0.94681 -1.69418,1.87593 -1.69418,2.06471 0,0.37055 1.92625,4.49871 2.09921,4.49883 0.0575,4e-5 0.66927,-0.48322 1.35936,-1.07392 z m -12.95582,-0.008 c 0.49793,-0.25748 0.90533,-0.62409 0.90533,-0.81469 0,-0.21238 -0.20788,-0.16657 -0.537,0.11836 -0.29534,0.25568 -0.81316,0.6181 -1.1507,0.80536 -0.93699,0.51983 -0.24804,0.42382 0.78237,-0.10902 z m -6.523796,-0.88173 c -0.217619,-0.23613 -0.444016,-0.38341 -0.50311,-0.32727 -0.182008,0.1729 0.279281,0.7566 0.597931,0.7566 0.165465,0 0.122794,-0.1932 -0.09482,-0.42933 z m -10.27638,-3.61142 c 0.624446,-0.78786 1.135356,-1.64274 1.135356,-1.89973 0,-0.25698 0.130447,-0.54786 0.289883,-0.6464 0.436261,-0.26962 -0.443203,-2.87549 -1.268187,-3.75766 -1.564446,-1.67289 -2.061244,-1.55051 -5.437586,1.33951 l -1.26742,1.08487 1.16768,0.84586 c 1.41135,1.02238 2.738575,2.55873 3.389325,3.92336 0.264665,0.55501 0.565447,0.90417 0.668403,0.7759 0.102956,-0.12827 0.6981,-0.87783 1.322546,-1.66571 z m 22.070766,1.28021 c 0.55258,-0.33691 1.31538,-0.61308 1.69511,-0.6137 0.45645,-6.2e-4 0.68697,-0.18314 0.68022,-0.53815 -0.0113,-0.59645 -1.01682,-1.93414 -1.41983,-1.88894 -0.56559,0.0634 -2.62228,2.7392 -2.45017,3.18768 0.22798,0.59412 0.28916,0.58811 1.49467,-0.14689 z m -13.547885,-0.0855 c -0.03795,-0.3669 -0.458837,-0.29585 -0.590696,0.0997 -0.06751,0.20252 0.04296,0.31299 0.245484,0.24548 0.202524,-0.0675 0.357869,-0.22285 0.345212,-0.34521 z m -1.133242,-0.97737 c 0.466038,-0.71126 0.45323,-0.8159 -0.221537,-1.81023 -0.393894,-0.58043 -0.893517,-1.48349 -1.110276,-2.00679 -0.216759,-0.5233 -0.570176,-0.95146 -0.785373,-0.95146 -0.404542,0 -2.295969,1.98455 -2.295969,2.40901 0,0.13182 0.552715,0.55032 1.228259,0.92999 0.675543,0.37968 1.46953,1.02215 1.764414,1.42771 0.675715,0.92933 0.812612,0.9295 1.420482,0.002 z m 8.756027,0.64142 c -0.0703,-0.0624 -1.1635,-0.19693 -2.429272,-0.29894 -1.471235,-0.11856 -2.080029,-0.0854 -1.6877,0.0919 0.576218,0.26043 4.393402,0.45239 4.116972,0.20703 z m 3.03163,-0.76197 c 0.58175,-0.36905 -0.72906,-4.24728 -1.59658,-4.72371 -0.36892,-0.2026 -1.85987,-0.33871 -3.502549,-0.31976 -2.258254,0.0261 -2.984775,0.14575 -3.452114,0.56869 -0.325552,0.29462 -0.591914,0.70019 -0.591914,0.90125 0,0.20107 -0.224912,0.81643 -0.499804,1.36747 -0.639829,1.28256 -0.283997,1.55396 2.034077,1.55145 1.906776,-0.002 6.122264,0.49239 6.377994,0.74811 0.24007,0.24008 0.76829,0.19995 1.23089,-0.0935 z m 8.81625,-2.12405 2.09165,-1.92552 -1.03351,-1.06632 c -0.56844,-0.58647 -1.25507,-1.06631 -1.52586,-1.06631 -0.83706,0 -1.95619,0.68126 -2.87423,1.74966 l -0.8787,1.02261 0.8787,1.68162 c 0.48328,0.92488 0.96231,1.64745 1.0645,1.60569 0.10219,-0.0418 1.12704,-0.9424 2.27745,-2.00143 z m 7.83245,-0.75947 c 0.73282,-1.05481 1.40952,-1.98688 1.50376,-2.07127 0.68481,-0.61316 1.85557,-2.52489 1.85557,-3.02996 0,-0.33884 0.14537,-0.70592 0.32305,-0.81573 0.80643,-0.4984 -0.0616,-0.87054 -2.18225,-0.93553 l -2.28334,-0.07 -1.29673,1.38626 c -0.76666,0.81959 -1.37669,1.81249 -1.49235,2.42898 -0.10759,0.57351 -0.31804,1.1184 -0.46768,1.21088 -0.14964,0.0925 -0.27207,0.33938 -0.27207,0.54867 0,0.39246 2.45585,3.26551 2.79132,3.26551 0.10357,0 0.78789,-0.86302 1.52072,-1.91784 z m -13.71637,-0.51108 c 2.23427,-2.84387 1.89719,-3.32073 -1.25887,-1.78085 -0.96127,0.46902 -1.30413,0.81843 -1.30413,1.32907 0,0.90023 0.52314,2.267 0.8677,2.267 0.14805,0 0.91094,-0.81685 1.6953,-1.81522 z m -12.893595,-0.5089 c 0.440229,-0.92317 0.461359,-1.22246 0.133546,-1.89154 -0.406797,-0.8303 -3.611402,-2.77534 -3.611402,-2.19195 0,0.29557 0.43226,1.2051 2.060882,4.33634 0.574008,1.1036 0.788367,1.06535 1.416974,-0.25285 z m -5.455687,-0.89823 c 0.806128,-0.98377 1.044287,-1.49148 0.82767,-1.76441 -0.167273,-0.21076 -0.464483,-0.8665 -0.660468,-1.45719 -0.195988,-0.5907 -0.552403,-1.33274 -0.792032,-1.64899 -0.421038,-0.55566 -0.485235,-0.54641 -1.90835,0.27504 -0.809958,0.46753 -1.52419,0.89289 -1.587181,0.94524 -0.06299,0.0524 0.451512,0.73824 1.143334,1.5242 0.696198,0.79092 1.34491,1.89301 1.452809,2.46816 0.107222,0.57155 0.239378,1.03917 0.293682,1.03917 0.0543,0 0.608044,-0.62155 1.230536,-1.38122 z m 27.823372,-1.61902 c 0.28637,-0.80628 0.94016,-1.93583 1.45287,-2.51011 0.51272,-0.57427 0.93221,-1.12765 0.93221,-1.22973 0,-0.10208 -0.79202,-0.33069 -1.76004,-0.50802 -1.94754,-0.35677 -2.11865,-0.27916 -2.95642,1.34091 -0.72886,1.40948 -0.62628,2.5199 0.32448,3.51227 0.4535,0.47336 0.97342,0.86064 1.15539,0.86064 0.18197,0 0.56515,-0.65968 0.85151,-1.46596 z m -37.4467,0.60809 c 0.22053,-0.30306 0.904496,-0.85784 1.519921,-1.23282 2.034424,-1.23962 2.521461,-2.73198 1.741348,-5.33578 -0.543943,-1.81551 -1.381325,-2.31504 -3.920872,-2.33893 -1.180322,-0.0111 -2.217046,0.0947 -2.303833,0.23512 -0.198434,0.32107 0.39591,3.67154 0.778091,4.38631 0.156695,0.29305 0.284902,0.78581 0.284902,1.09501 0,0.91927 0.921739,3.74211 1.221907,3.74211 0.15266,0 0.458002,-0.24796 0.678536,-0.55102 z m 26.02047,-0.0607 c 0.47247,-0.33643 1.55787,-0.773 2.41201,-0.97016 l 1.55297,-0.35846 -0.97937,-1.25455 c -0.53866,-0.69 -1.1441,-1.42715 -1.34544,-1.63811 -0.48356,-0.50669 -1.71852,-0.48609 -3.00171,0.0501 -1.01227,0.42295 -1.03068,0.46263 -0.74747,1.61098 0.15971,0.64755 0.3622,1.51289 0.44999,1.92299 0.30835,1.44038 0.45305,1.49597 1.65902,0.63724 z m -2.55782,-0.28682 c 0.24115,-0.11183 -0.97348,-3.64213 -1.3537,-3.93446 -1.08702,-0.83575 -4.063844,-0.0371 -4.063844,1.09031 0,0.29565 -0.188529,0.80992 -0.418949,1.14282 -0.230423,0.3329 -0.504972,0.88144 -0.610116,1.21898 -0.183683,0.58969 -0.06219,0.61157 3.103929,0.55907 1.8123,-0.03 3.3165,-0.0646 3.34268,-0.0767 z m -5.96791,-4.55952 c -0.1547,-0.44363 -1.661445,-1.2963 -2.272801,-1.28618 -0.219343,0.004 -1.129915,0.61875 -2.023494,1.36693 l -1.624688,1.36034 1.379729,0.62854 c 0.758851,0.34569 1.754521,0.97588 2.212599,1.40042 l 0.832874,0.77188 0.816749,-1.92351 c 0.449211,-1.05793 0.754776,-2.10121 0.679032,-2.31842 z m 14.65944,1.54562 c 0.85206,-1.35661 1.48332,-3.30473 1.1718,-3.61625 -0.0745,-0.0745 -0.59143,0.20084 -1.14866,0.61195 -0.55722,0.4111 -1.40082,0.83261 -1.87466,0.93669 -1.55808,0.34221 -1.69253,0.90175 -0.54788,2.2801 0.56363,0.67871 1.1281,1.2365 1.25436,1.23954 0.12627,0.003 0.64154,-0.65037 1.14504,-1.45203 z m 1.66833,0.64651 c 0.29235,-0.76185 -0.0299,-0.86588 -0.42061,-0.13579 -0.1885,0.35222 -0.21444,0.63999 -0.0577,0.63999 0.15664,0 0.37188,-0.22689 0.4783,-0.5042 z m -28.665297,-0.70254 c 0,-0.1574 0.31069,-0.38055 0.690423,-0.4959 1.312671,-0.39873 2.684977,-1.66407 2.684977,-2.47569 0,-1.71403 -0.541301,-2.06023 -3.758969,-2.40414 -1.542327,-0.16485 -1.950162,0.26826 -0.997277,1.05909 0.253155,0.2101 0.461801,0.81386 0.46366,1.3417 0.0053,1.49993 0.356575,3.26111 0.65048,3.26111 0.146689,0 0.266706,-0.12878 0.266706,-0.28617 z m 7.160525,-1.73872 c 0.787272,-0.77615 1.431403,-1.46377 1.431403,-1.52803 0,-0.0643 -0.571713,-0.40853 -1.270476,-0.765 -0.69876,-0.35649 -1.665352,-1.08049 -2.147982,-1.6089 l -0.877506,-0.96075 v 1.35073 c 0,1.23806 0.263662,2.40882 0.953228,4.23271 0.143568,0.37974 0.310286,0.69043 0.370481,0.69043 0.0602,0 0.75358,-0.63504 1.540852,-1.41119 z m 13.379522,-0.66644 c 0.16949,-0.10491 -1.8946,-1.88217 -2.20548,-1.89901 -0.27508,-0.0149 -0.30796,1.88252 -0.0445,2.56903 0.18112,0.472 0.61242,0.34357 2.25001,-0.67002 z m 19.01546,0.87446 c 0.36337,-0.23005 0.36923,-0.49583 0.0371,-1.68216 -0.24252,-0.8662 -0.31603,-2.00032 -0.19084,-2.94407 0.21503,-1.621 0.0817,-1.78771 -0.85982,-1.07502 -0.50942,0.38561 -0.56039,0.71937 -0.40852,2.67522 0.24352,3.13616 0.47388,3.62633 1.42211,3.02603 z m -2.11925,-0.46642 c 0,-0.2432 -0.13809,-0.52752 -0.30686,-0.63182 -0.16877,-0.10431 -0.30685,0.0947 -0.30685,0.44217 0,0.3475 0.13808,0.63182 0.30685,0.63182 0.16877,0 0.30686,-0.19898 0.30686,-0.44217 z m -1.53427,-0.51393 c 0,-0.35708 0.23106,-1.2998 0.51346,-2.09493 0.74943,-2.11007 0.45959,-2.58497 -1.4648,-2.40006 -2.03895,0.19592 -2.8363,0.97273 -2.91446,2.83937 -0.032,0.7636 0.0513,1.456 0.18508,1.53867 0.13376,0.0827 0.83769,0.22501 1.56429,0.3163 0.72661,0.0913 1.38498,0.22987 1.46305,0.30794 0.33777,0.33777 0.65338,0.0927 0.65338,-0.50729 z M 99.292034,173.2358 c -0.10782,-0.1756 -2.259539,0.85359 -3.130469,1.49734 -0.06123,0.0452 0.340544,0.35707 0.892821,0.69293 l 1.004141,0.61066 0.687932,-1.28454 c 0.37836,-0.7065 0.623869,-1.38888 0.545575,-1.51639 z m 2.964516,2.09489 c 0,-0.94402 -0.73971,-1.69946 -1.47563,-1.50701 -0.49375,0.12912 -1.592916,1.55709 -1.592916,2.06943 0,0.10054 0.690423,0.1828 1.534276,0.1828 1.41995,0 1.53427,-0.0555 1.53427,-0.74522 z m 24.97944,-1.40276 c 0.36338,-0.75947 1.03642,-1.96497 1.49565,-2.67889 0.45923,-0.71391 0.83496,-1.36982 0.83496,-1.45755 0,-0.32542 -2.62543,-0.12662 -3.08756,0.2338 -1.12036,0.87378 -1.49089,3.45484 -0.72699,5.06411 0.35369,0.74511 0.58998,0.98051 0.68219,0.67965 0.0776,-0.25315 0.43838,-1.08166 0.80175,-1.84112 z m -11.17099,0.2217 c 0,-0.72191 0.21496,-1.61946 0.47768,-1.99455 0.4333,-0.61863 0.4326,-0.68199 -0.008,-0.68199 -0.54194,0 -0.98589,0.96735 -1.27569,2.77971 -0.15862,0.99186 -0.10356,1.2094 0.30609,1.2094 0.38358,0 0.4995,-0.30461 0.4995,-1.31257 z m -5.8103,-0.30296 c 2.03782,-1.37328 3.24097,-3.74732 3.5745,-7.05311 0.15074,-1.49416 -0.13569,-1.83718 -0.83274,-0.99728 -0.2101,0.25315 -0.4849,0.46028 -0.61065,0.46028 -0.87251,0 -7.36757,5.08752 -7.36757,5.77094 0,0.31069 1.2922,1.35387 2.6019,2.10048 0.94448,0.53842 1.50735,0.47832 2.63456,-0.28131 z m -8.09814,-1.26329 c 0.0294,-0.0225 0.0984,-0.43545 0.15342,-0.9177 0.1341,-1.17584 -0.62113,-1.6793 -1.74853,-1.16562 -0.684843,0.31204 -0.758408,0.45146 -0.44038,0.83466 0.20999,0.25303 0.29429,0.54757 0.18732,0.65455 -0.387838,0.38783 0.49951,1.03226 1.14763,0.83347 0.35591,-0.10916 0.67115,-0.21687 0.70054,-0.23936 z m -5.214563,-1.16651 0.669109,-0.62442 -1.087668,-1.57753 c -0.598216,-0.86763 -1.25274,-1.7156 -1.454497,-1.88437 -0.201757,-0.16877 -1.019822,-1.32047 -1.817926,-2.55934 -1.944221,-3.01795 -2.238918,-2.75904 -2.300256,2.02086 -0.04152,3.2358 0.01887,3.68413 0.586694,4.3562 1.119099,1.32451 4.113601,1.47334 5.404544,0.2686 z m -9.017447,-1.10879 c -0.03479,-0.96256 -0.06931,-1.86072 -0.07671,-1.99591 -0.01479,-0.27005 -1.539367,-0.94241 -2.82974,-1.24793 -0.801569,-0.18979 -0.827126,-0.15125 -1.041492,1.57015 -0.120867,0.97059 -0.407475,2.0519 -0.636904,2.40291 -0.229429,0.35101 -0.358339,0.69623 -0.286464,0.76714 0.07187,0.0709 1.211554,0.15701 2.532627,0.19134 l 2.401947,0.0624 z m -5.342038,0.47459 c 0.175509,-0.54851 0.409323,-1.70857 0.519588,-2.57793 0.182152,-1.43614 0.134114,-1.62393 -0.525452,-2.0541 -0.39926,-0.2604 -1.278267,-0.60988 -1.953347,-0.77663 -0.67508,-0.16675 -1.538109,-0.39771 -1.917841,-0.51324 -0.653054,-0.19869 -0.690423,-0.12556 -0.690423,1.35125 0,1.36513 -0.479282,2.80685 -1.774494,5.33778 -0.06478,0.12658 1.263867,0.23014 2.952543,0.23014 h 3.070322 z m -5.985634,-1.88255 c 0.273677,-0.57674 0.497595,-1.80101 0.497595,-2.72061 0,-1.34975 -0.167561,-1.90265 -0.869405,-2.86874 -0.478171,-0.65821 -1.106539,-1.39206 -1.396375,-1.63078 -0.466744,-0.38442 -0.546824,-0.35812 -0.70066,0.23014 -0.09553,0.3653 -0.295663,0.66417 -0.444749,0.66417 -0.149085,0 -0.271066,0.21146 -0.271066,0.46992 0,0.25845 -0.207127,0.54939 -0.460282,0.64654 -0.708717,0.27196 -0.568304,0.79723 0.863667,3.23087 0.728172,1.23753 1.417619,2.50045 1.532107,2.80649 0.268292,0.7172 0.629552,0.47774 1.249168,-0.828 z m 41.147882,0.34827 c -0.25258,-1.19867 -0.65072,-1.69905 -1.02547,-1.28879 -0.14645,0.16033 -0.35013,0.74029 -0.45261,1.28879 -0.17715,0.94814 -0.14015,0.99728 0.75094,0.99728 0.89597,0 0.92801,-0.0439 0.72714,-0.99728 z m 5.06388,-0.28777 c 0.34148,-0.70679 0.62087,-1.5498 0.62087,-1.87336 0,-0.62749 0.22791,-0.62542 -3.66101,-0.0334 -1.41831,0.21593 -1.63438,0.59965 -1.17694,2.09014 0.33253,1.08348 0.36495,1.10163 1.96716,1.10163 1.60933,0 1.63657,-0.0156 2.24992,-1.28505 z m -21.8426,-1.05152 c 0.11847,-1.56355 -0.43267,-2.28291 -1.573103,-2.05324 -0.477982,0.0963 -0.945468,0.37415 -1.038863,0.61753 -0.20179,0.52587 0.518207,2.91157 0.972683,3.22298 0.633861,0.43431 1.546333,-0.56053 1.639283,-1.78727 z m 3.63541,0.35265 c 0.21281,-0.838 0.35911,-1.54294 0.32514,-1.56654 -0.034,-0.0236 -0.70746,-0.25816 -1.49662,-0.52126 -1.65978,-0.55336 -1.78713,-0.4333 -1.78713,1.68486 0,1.41593 0.64064,2.11928 1.82285,2.00131 0.62184,-0.0621 0.81449,-0.33317 1.13576,-1.59837 z m 20.7459,0.83933 c 0.7877,-0.22649 0.7124,-1.29866 -0.0767,-1.0923 -0.44746,0.11701 -0.62003,0.005 -0.63705,-0.4123 -0.014,-0.3441 -0.18847,-0.14399 -0.43694,0.50121 -0.55969,1.45337 -0.54949,1.63666 0.0767,1.37886 0.29535,-0.12159 0.77865,-0.29055 1.07399,-0.37547 z m 5.24763,-3.85596 c 0.0446,-2.93971 0.031,-3.00231 -0.61913,-2.839 -0.36561,0.0918 -1.22864,0.67321 -1.91784,1.29191 -1.15954,1.04094 -1.2531,1.24336 -1.2531,2.71115 0,0.87242 0.0981,1.6843 0.21796,1.80418 0.11988,0.11988 0.96238,0.17741 1.87222,0.12786 l 1.65427,-0.0901 z m -24.22873,2.36719 c 0.28806,-0.75065 0.2256,-0.84984 -0.27402,-0.43519 -0.51011,0.42336 -0.61071,0.92057 -0.18626,0.92057 0.15072,0 0.35784,-0.21842 0.46028,-0.48538 z m 27.62836,-2.09273 c 0.38891,-0.38315 0.63906,-1.14716 0.72842,-2.2247 l 0.1361,-1.64114 h -1.27301 c -1.08362,0 -1.31746,0.11692 -1.57179,0.78585 -0.42236,1.11087 -0.72494,3.98655 -0.4852,4.61128 0.21066,0.54899 0.59833,0.30821 2.46548,-1.53129 z m -45.605246,0.50275 c 0.129214,-1.30185 -0.660062,-2.71714 -1.654468,-2.96672 -0.877088,-0.22014 -1.049025,-0.14892 -1.177797,0.48786 -0.04579,0.22642 -0.243541,0.803 -0.439452,1.28128 -0.403216,0.98439 -0.246766,1.42682 0.510152,1.44268 0.285387,0.006 0.864096,0.20793 1.286021,0.44876 1.035337,0.59098 1.363328,0.43674 1.475544,-0.69386 z m 29.516766,-0.21175 c 0,-0.77192 -0.36597,-1.39515 -0.81926,-1.39515 -0.25455,0 -0.40873,0.23102 -0.35839,0.537 0.0486,0.29535 -0.0199,0.7096 -0.15225,0.92056 -0.13233,0.21096 -0.15502,0.52203 -0.0504,0.69125 0.25837,0.41806 1.38033,-0.19454 1.38033,-0.75366 z m -8.0981,-0.60588 c 1.49707,-1.1431 2.6836,-2.49548 2.52259,-2.87519 -0.0557,-0.13139 -0.75505,-0.83609 -1.55407,-1.56599 -1.47608,-1.34839 -2.38291,-1.50636 -2.38291,-0.41511 0,0.30529 -0.18196,0.82744 -0.40436,1.16034 -0.59028,0.88358 -1.43677,3.28008 -1.43677,4.06765 0,1.08476 1.58507,0.90379 3.25552,-0.3717 z m 13.30984,0.28768 c 0.66188,-0.40906 0.24957,-0.7386 -1.29934,-1.03846 -1.95269,-0.37803 -3.29869,-0.36986 -3.29869,0.02 0,0.15877 0.14994,0.56883 0.33319,0.91125 0.29391,0.54916 0.54664,0.60355 2.1432,0.46118 0.99549,-0.0888 1.95023,-0.24808 2.12164,-0.35401 z m -38.976536,-0.74992 c 0.582582,-1.08857 0.379352,-2.04072 -0.526201,-2.46529 -1.637778,-0.76787 -2.857414,-0.65994 -4.154884,0.36767 l -1.198835,0.9495 0.720663,0.39967 c 0.396364,0.21982 1.134914,0.40896 1.641224,0.42031 0.50631,0.0114 1.188604,0.22337 1.516209,0.47115 0.821195,0.62112 1.623549,0.5638 2.001824,-0.14301 z m 22.109206,-1.09416 c 0.28599,-0.84385 0.89013,-2.2644 1.34254,-3.15677 0.4524,-0.89237 0.74732,-1.74422 0.65537,-1.89301 -0.0919,-0.14878 -0.87324,-0.42193 -1.7362,-0.607 -1.59966,-0.34307 -3.33514,-1.1863 -3.33514,-1.62047 0,-0.13238 -0.11388,-0.24069 -0.25307,-0.24069 -0.13918,0 -0.43656,1.74946 -0.66084,3.8877 l -0.40777,3.88769 0.85041,0.73149 c 0.62138,0.53448 1.1432,0.70642 1.93756,0.63841 1.00539,-0.0861 1.12627,-0.20848 1.60714,-1.62735 z m -9.86661,-2.11015 c -0.39587,-2.94973 -0.696164,-3.45147 -1.49189,-2.49267 -0.210101,0.25315 -0.641262,0.46028 -0.958135,0.46028 -0.316877,0 -0.576138,0.12122 -0.576138,0.26938 0,0.48969 0.905475,2.44677 1.222769,2.64287 0.171326,0.10588 0.311504,0.41711 0.311504,0.69162 0,0.68992 1.274315,1.99536 1.615113,1.65456 0.15954,-0.15954 0.108308,-1.50087 -0.123223,-3.22604 z m 3.583942,3.13775 0.976868,-0.35324 0.20967,-3.2523 c 0.11531,-1.78876 0.29305,-3.5857 0.39498,-3.99318 0.15958,-0.638 0.10436,-0.70651 -0.39761,-0.4934 -0.32062,0.13612 -0.95245,0.28245 -1.404083,0.32518 -0.451631,0.0427 -0.966595,0.16757 -1.144362,0.27744 -0.177767,0.10987 -0.604282,0.0493 -0.947815,-0.13452 -0.916412,-0.49045 -1.025938,0.11824 -0.501364,2.78636 0.246092,1.25168 0.540749,2.82707 0.654791,3.50086 0.319712,1.88892 0.434871,1.96023 2.158925,1.3368 z m 26.629728,-1.4798 c 0.48995,-0.58228 0.7085,-1.13922 0.60394,-1.53906 -0.27659,-1.05767 -0.61476,-0.9752 -1.28662,0.31379 -1.11408,2.13741 -0.70406,2.87331 0.68268,1.22527 z m 35.87916,-0.36263 c 1.09384,-1.3003 1.06389,-1.70105 -0.15343,-2.05259 -0.5485,-0.1584 -1.22354,-0.38089 -1.50008,-0.49442 -0.3806,-0.15624 -0.77214,0.23696 -1.61099,1.61785 -0.6095,1.00335 -1.10818,1.92908 -1.10818,2.0572 0,0.12811 0.79399,0.15241 1.76442,0.054 1.5075,-0.15287 1.88728,-0.32499 2.60826,-1.18205 z m -4.54251,-0.6745 c 0.59972,-0.90351 1.0904,-1.7946 1.0904,-1.98019 0,-0.1856 -0.65591,-0.62669 -1.45756,-0.9802 -0.80166,-0.35351 -2.0099,-1.17097 -2.68498,-1.81658 l -1.22742,-1.17383 -1.79767,1.95452 c -1.12614,1.2244 -1.73198,2.12573 -1.62182,2.41282 0.37119,0.96731 4.42533,3.09483 6.08807,3.19489 0.30825,0.0186 0.96534,-0.63872 1.61098,-1.61143 z m -85.324131,0.29225 c 0.816972,-1.72165 0.649261,-2.47511 -0.808887,-3.634 -1.476336,-1.17334 -3.01319,-2.17211 -3.109751,-2.02096 -0.03557,0.0557 -0.229714,0.44645 -0.431431,0.86837 -0.201717,0.42193 -0.540368,1.02071 -0.752555,1.33062 -0.33704,0.49228 -0.250065,0.66636 0.688195,1.37748 0.590695,0.4477 1.557287,1.32853 2.147982,1.95741 0.590695,0.62888 1.230865,1.14821 1.422597,1.15407 0.191732,0.006 0.571464,-0.45899 0.84385,-1.03299 z m 5.900863,-0.3436 c 0.557788,-0.42544 0.948659,-0.94422 0.868604,-1.15284 -0.08006,-0.20861 0.16703,-0.51643 0.549079,-0.68402 1.007959,-0.44217 0.869841,-0.85864 -0.760745,-2.29394 l -1.455377,-1.28107 -1.027497,1.02144 c -0.565121,0.56179 -1.36009,1.24827 -1.766592,1.52552 l -0.739099,0.50408 1.534273,1.56673 c 0.84385,0.86171 1.59028,1.56694 1.658736,1.56719 0.06845,2.5e-4 0.580833,-0.34764 1.138618,-0.77309 z m 51.690348,-0.94202 c 1.9651,-0.57554 2.39622,-0.89962 1.88148,-1.41436 -0.20252,-0.20252 -0.36822,-0.68582 -0.36822,-1.07399 0,-0.84244 -0.45602,-0.88667 -2.15073,-0.20858 -1.50025,0.60028 -1.9539,1.30701 -1.53917,2.39784 0.16462,0.43298 0.3467,0.78723 0.40463,0.78723 0.0579,0 0.85534,-0.21966 1.77201,-0.48814 z m -16.65874,-0.20228 c 0.17293,-0.21096 0.47727,-0.99247 0.6763,-1.73668 0.19903,-0.7442 0.571,-1.67227 0.8266,-2.06238 0.44503,-0.6792 0.40356,-0.76495 -0.97801,-2.02229 -0.79351,-0.72216 -1.59765,-1.31302 -1.78696,-1.31302 -0.18932,0 -0.86141,0.94617 -1.49352,2.10259 -1.09339,2.00029 -1.12715,2.14543 -0.69401,2.98303 0.40121,0.77586 2.40146,2.43232 2.93713,2.43232 0.10892,0 0.33954,-0.17261 0.51247,-0.38357 z m -30.012732,-1.0076 c -0.205393,-0.24748 -0.587727,-0.44996 -0.849637,-0.44996 -0.362214,0 -0.299588,0.18799 0.26163,0.78538 0.747274,0.79544 1.27615,0.49375 0.588007,-0.33542 z m 54.722172,-0.93859 c 0.72304,-0.85262 0.82797,-1.18907 0.65628,-2.10426 -0.1124,-0.59915 -0.29256,-1.08904 -0.40036,-1.08864 -0.27693,9.2e-4 -1.78585,3.05066 -2.01503,4.07251 -0.17088,0.7619 -0.13375,0.81368 0.35377,0.49327 0.29959,-0.19689 0.93199,-0.81469 1.40534,-1.37288 z m -2.73633,0.67056 c 0.10196,-0.40624 0.26978,-0.95858 0.37294,-1.22742 0.1565,-0.40782 -0.072,-0.48878 -1.37953,-0.48878 -1.45288,0 -1.56711,0.0541 -1.56711,0.74203 0,1.3207 0.31602,1.7128 1.38041,1.7128 0.80881,0 1.04452,-0.1459 1.19329,-0.73863 z m 28.47154,0.0482 c 0.68134,-0.54779 1.61378,-5.47979 1.09793,-5.80734 -0.94771,-0.60175 -1.44606,-0.2047 -2.66664,2.12464 -0.68525,1.30773 -1.2459,2.52544 -1.2459,2.70602 0,0.18059 0.44877,0.55169 0.99727,0.82467 1.24114,0.61769 1.23841,0.61746 1.81734,0.15201 z m -97.05646,-1.61316 c 0.24414,-0.50511 0.553391,-1.14826 0.687229,-1.42922 0.268525,-0.56369 0.01734,-0.83959 -1.435518,-1.57665 l -0.939208,-0.47649 -1.3183,1.53045 c -0.725067,0.84176 -1.269016,1.57456 -1.208774,1.62845 0.407282,0.36439 2.95447,1.37183 3.320952,1.31347 0.247353,-0.0394 0.649483,-0.48489 0.893619,-0.99001 z m 83.74024,-0.16186 c 2.4284,-2.13756 2.46991,-2.288 0.99528,-3.60701 -1.29268,-1.15626 -2.02111,-2.96472 -1.66371,-4.13046 0.22709,-0.74075 -0.56131,-0.69266 -1.25757,0.0767 -0.30547,0.33754 -0.74113,0.61371 -0.96813,0.61371 -0.22699,0 -0.41272,0.11475 -0.41272,0.255 0,0.14025 -0.34521,0.43976 -0.76714,0.66556 -0.52844,0.28282 -0.76713,0.6692 -0.76713,1.2418 0,1.77849 2.23198,6.12271 3.14573,6.12271 0.15891,0 0.92183,-0.55711 1.69539,-1.23802 z m -106.605277,-0.0661 c -0.3011,-0.57978 -0.53126,-1.76804 -0.54979,-2.8384 -0.0175,-1.01262 -0.14261,-2.01571 -0.27793,-2.22908 -0.26929,-0.4246 -2.4425,-1.60661 -2.95388,-1.60661 -0.19017,0 -0.31574,0.8368 -0.31082,2.07127 0.007,1.80096 0.1173,2.20055 0.84385,3.06187 0.63614,0.75416 2.90944,2.30725 3.68188,2.51543 0.0465,0.0126 -0.14847,-0.42598 -0.43331,-0.97448 z m 31.276769,-0.0739 c 0.319435,-0.22374 0.790282,-0.7059 1.046325,-1.07145 0.422965,-0.60386 0.413376,-0.71317 -0.104837,-1.19529 -0.823135,-0.7658 -2.546129,-1.57171 -3.360245,-1.57171 -0.649762,0 -3.47901,1.49553 -3.483036,1.84112 -9.21e-4,0.0844 0.685077,0.61936 1.524576,1.18882 0.839496,0.56946 1.526359,1.17169 1.526359,1.33828 0,0.39552 2.082251,0.009 2.850858,-0.52977 z m 85.427198,-0.76991 c 0.41772,-0.75946 1.10386,-1.91133 1.52475,-2.55971 0.4209,-0.64837 0.7204,-1.21502 0.66557,-1.25922 -0.0548,-0.0442 -0.73184,-0.44498 -1.50445,-0.89062 -0.77261,-0.44564 -1.58993,-1.15627 -1.81627,-1.57918 -0.22633,-0.42291 -0.56079,-0.76307 -0.74323,-0.75592 -0.38187,0.015 -4.1674,4.93371 -4.1674,5.41493 0,0.65594 1.37423,2.03281 2.58415,2.58911 1.85885,0.85467 2.56724,0.65808 3.45688,-0.95939 z m -79.072418,1.0567 c 0,-0.22275 -1.921302,-1.97726 -2.165224,-1.97726 -0.65724,0 -0.489495,0.56534 0.382378,1.28873 0.934154,0.77507 1.782846,1.10283 1.782846,0.68853 z m 13.178954,-0.5796 c 0.663432,-0.7062 0.692031,-0.90472 0.486223,-3.3754 -0.120265,-1.4438 -0.324192,-2.62508 -0.453169,-2.62508 -0.128974,0 -0.573456,0.31069 -0.987734,0.69042 -0.414278,0.37973 -1.189105,1.03564 -1.721835,1.45756 -0.53273,0.42193 -1.06535,1.18139 -1.183599,1.6877 -0.192377,0.8237 -0.162627,0.87743 0.282739,0.51058 0.694672,-0.5722 1.025814,-0.26342 1.255081,1.17032 0.164477,1.02859 0.315652,1.23422 0.907378,1.23422 0.390512,0 1.027223,-0.33764 1.414916,-0.75032 z m 14.661714,-1.01409 c 0.19707,-0.46412 0.71759,-1.44678 1.1567,-2.1837 0.43911,-0.73691 0.75692,-1.37307 0.70624,-1.41368 -0.0507,-0.0406 -0.94109,-0.35594 -1.97869,-0.70074 -1.03761,-0.34479 -2.74687,-1.19833 -3.79836,-1.89675 -1.0515,-0.69843 -1.94761,-1.23005 -1.99137,-1.1814 -0.0438,0.0487 -0.24064,1.31436 -0.43753,2.81266 -0.34966,2.66085 -0.34154,2.74178 0.34908,3.48029 1.1478,1.22739 2.63307,1.82576 4.70562,1.89576 0.73793,0.0249 1.004,-0.14287 1.28831,-0.81244 z m -46.425915,-0.79874 c 0.601994,-0.73466 1.093283,-1.4596 1.091752,-1.61099 -0.0015,-0.15139 -0.391721,-0.58232 -0.867085,-0.95764 -0.475364,-0.37531 -1.24069,-1.03121 -1.700723,-1.45756 -0.881164,-0.81663 -1.418518,-0.98923 -1.418518,-0.45564 0,0.17574 -0.690428,0.74872 -1.534278,1.27328 -0.84385,0.52457 -1.53427,1.05547 -1.53427,1.17978 0,0.12432 0.44891,0.43905 0.99757,0.6994 0.54866,0.26036 1.54978,0.96077 2.224697,1.55647 0.67492,0.5957 1.321444,1.08883 1.436723,1.09586 0.11528,0.007 0.702139,-0.58831 1.304132,-1.32296 z m 69.523105,1.02888 c 0,-0.16877 0.20713,-0.30686 0.46028,-0.30686 0.25316,0 0.46028,-0.13808 0.46028,-0.30685 0,-0.50576 -1.14536,-0.34784 -2.21727,0.3057 l -1.0047,0.61257 1.15071,0.001 c 0.63288,5.6e-4 1.1507,-0.13701 1.1507,-0.30578 z m 3.93837,-0.57239 c 0.13015,-0.91981 -0.32595,-1.38532 -1.11266,-1.13563 -0.61752,0.19599 -1.09665,1.27844 -0.78738,1.77885 0.0922,0.14916 0.5343,0.22876 0.98248,0.17689 0.58858,-0.0681 0.84339,-0.29586 0.91756,-0.82011 z m 4.04795,0.0908 c 0.35758,-0.94053 0.06,-2.57395 -0.35084,-1.9257 -0.28271,0.44608 -0.37459,2.71413 -0.10995,2.71413 0.0886,0 0.29592,-0.35479 0.46079,-0.78843 z m -39.39118,-0.92061 c 0.66957,-0.42021 0.79534,-0.89788 1.18612,-4.50476 0.18458,-1.70374 9.2e-4,-2.10931 -0.65719,-1.4512 -0.17228,0.17228 -1.52797,0.47576 -3.012651,0.67441 l -2.699424,0.36118 0.204527,2.01057 c 0.279342,2.74601 0.455796,3.33485 1.047513,3.49562 0.817227,0.22203 3.212645,-0.13493 3.931105,-0.58582 z m -30.943637,-1.13266 c 0.352735,-0.29274 0.328813,-0.38858 -0.143372,-0.57439 -0.821496,-0.32328 -3.252462,-0.30481 -3.779832,0.0287 -0.5476,0.34631 -0.460687,0.44267 0.911677,1.01081 1.093587,0.45273 2.091236,0.29864 3.011527,-0.46513 z m 44.661877,-0.15013 c -0.78451,-2.38482 -1.67519,-3.16846 -1.8961,-1.66824 -0.0609,0.4136 0.21485,0.95125 0.73523,1.43353 0.97348,0.90219 1.40944,0.99034 1.16087,0.23471 z m 29.42849,-2.1215 c -0.0396,-0.30992 -0.0997,-1.56459 -0.13358,-2.78817 -0.0339,-1.22359 -0.16177,-2.2247 -0.28426,-2.2247 -0.39626,0 -1.69236,1.7306 -2.09525,2.79764 -0.21556,0.57092 -0.54091,1.35152 -0.72299,1.73467 -0.24306,0.51146 -0.23483,0.79284 0.031,1.05864 0.19911,0.19912 0.36202,0.65661 0.36202,1.01665 0,0.36005 0.0915,0.74607 0.20321,0.85783 0.3522,0.3522 2.71751,-1.84528 2.63988,-2.45256 z m 12.81569,-1.62685 0.87031,-1.37022 -1.20689,-1.11419 c -0.80822,-0.74615 -1.20689,-1.37718 -1.20689,-1.91036 0,-0.43789 -0.10933,-0.86373 -0.24295,-0.94632 -0.43333,-0.26781 -4.05301,3.32959 -4.05301,4.02806 0,0.35887 -0.13808,0.73782 -0.30685,0.84213 -0.87162,0.53868 0.26223,3.34487 1.6877,4.17691 l 0.92056,0.53733 1.33386,-1.43656 c 0.73362,-0.7901 1.72549,-2.05315 2.20416,-2.80678 z m -118.152907,1.90722 c -0.006,-1.4163 -0.22969,-1.78881 -1.32565,-2.2055 -1.43977,-0.54739 -1.5952,-0.37122 -0.5922,0.67123 0.52774,0.5485 1.0531,1.37701 1.16745,1.84113 0.30099,1.22155 0.75588,1.03553 0.7504,-0.30686 z m 27.541381,0.39539 c 0.546569,-0.11685 1.065043,-0.3278 1.152165,-0.46877 0.179464,-0.29038 -2.050402,-2.15131 -2.577812,-2.15131 -0.188967,0 -0.589277,-0.15345 -0.88958,-0.34099 -0.427142,-0.26675 -0.763994,-0.20842 -1.547354,0.26797 l -1.001353,0.60896 1.610223,1.40858 c 0.98844,0.86467 1.735668,1.30808 1.935086,1.14831 0.178679,-0.14315 0.772059,-0.35589 1.318625,-0.47275 z m -8.745461,-0.62476 c 1.84942,-1.17009 2.00049,-1.59056 0.8054,-2.24169 -0.52571,-0.28642 -1.3381,-0.83146 -1.80531,-1.21119 -1.07773,-0.87595 -1.25893,-0.86622 -2.16495,0.11626 -0.40915,0.44367 -1.21179,1.00584 -1.78363,1.24927 l -1.03972,0.44258 1.34657,1.37215 c 1.60549,1.63597 2.4119,1.68333 4.64164,0.27262 z m 107.939727,0.41106 c 0,-0.17549 0.18772,-0.7542 0.41716,-1.28602 1.35474,-3.14018 1.47655,-3.87477 0.4007,-2.41653 -1.0466,1.41858 -1.84515,3.33715 -1.62633,3.90738 0.19701,0.51339 0.80847,0.35848 0.80847,-0.20483 z m -72.682204,-0.64197 c 0.515927,-0.37973 1.131716,-1.0633 1.368421,-1.51904 0.479626,-0.92344 0.577856,-2.39336 0.159939,-2.39336 -0.289524,0 -1.819875,1.89301 -2.354305,2.91221 -0.969231,1.84843 -0.726264,2.14265 0.825945,1.00019 z m -24.459644,-0.87346 c -0.494008,-0.51907 -1.174363,-1.09258 -1.511903,-1.27445 -0.569105,-0.30666 -0.580256,-0.28908 -0.153427,0.24182 0.719466,0.8949 2.286831,2.25309 2.432255,2.10767 0.0722,-0.0722 -0.272919,-0.55596 -0.766925,-1.07504 z m 96.405418,-1.56526 0.7334,-1.44731 -0.80361,-0.55018 c -0.44199,-0.3026 -1.19708,-0.95663 -1.67796,-1.4534 -0.48089,-0.49678 -0.92376,-0.84199 -0.98416,-0.76714 -1.2909,1.59968 -2.36123,3.24682 -2.36033,3.63233 0.002,0.89845 1.2235,2.51569 2.22959,2.95214 0.92094,0.39951 1.0316,0.38217 1.56045,-0.24457 0.31307,-0.37101 0.89925,-1.32586 1.30262,-2.12187 z m -52.57788,1.81975 c 0.42737,-0.65225 0.38647,-0.77198 -0.65514,-1.91784 -1.10471,-1.2153 -2.06543,-1.78846 -4.56928,-2.72605 -1.82472,-0.68328 -2.72275,-0.63547 -2.92971,0.15598 -0.28727,1.09849 0.3001,2.01412 1.99686,3.11285 2.06136,1.33482 3.2163,1.77256 5.35316,2.02896 0.19155,0.023 0.5534,-0.27127 0.80411,-0.6539 z m -68.276827,-1.41509 c 0.37974,-0.98721 0.69043,-1.88615 0.69043,-1.99765 0,-0.19711 -0.65926,-0.49451 -2.07127,-0.93438 -0.48229,-0.15024 -0.69042,-0.0897 -0.69042,0.201 0,0.22884 -0.27821,0.96176 -0.61824,1.62871 -0.65072,1.27634 -0.61115,1.98567 0.11075,1.98567 0.23779,0 0.60424,0.20713 0.81434,0.46029 0.6638,0.79982 1.05431,0.50243 1.76441,-1.34364 z m 103.494537,0.22148 c 1.59827,-1.16614 2.11499,-1.71105 1.96413,-2.07127 -0.1126,-0.26886 -0.2404,-1.42142 -0.284,-2.56125 -0.0436,-1.13983 -0.17301,-2.08688 -0.28756,-2.10455 -0.49286,-0.076 -2.93325,1.45297 -3.24307,2.03189 -0.52873,0.98794 -0.95757,5.00015 -0.56066,5.24546 0.1257,0.0777 0.15076,0.34395 0.0557,0.5917 -0.27147,0.70743 0.0387,0.55835 2.35546,-1.13198 z m -107.220517,-1.3643 c 0.76871,-1.83977 0.49506,-2.60042 -1.10697,-3.07706 -0.75947,-0.22596 -1.41537,-0.41293 -1.45756,-0.41549 -0.0422,-0.003 -0.0767,0.17327 -0.0767,0.39074 0,0.21747 -0.27617,0.93709 -0.61371,1.59916 -0.33754,0.66206 -0.61371,1.25035 -0.61371,1.3073 0,0.17529 2.58352,1.28706 3.00749,1.29422 0.21957,0.004 0.6071,-0.49079 0.86118,-1.09887 z m 11.86749,0.68488 c 1.24767,-0.53163 2.43716,-1.80438 2.21861,-2.37391 -0.19465,-0.50724 -3.65371,-2.73405 -4.22136,-2.71754 -0.21188,0.006 -0.77096,0.62014 -1.24241,1.3644 -0.47145,0.74426 -1.12735,1.43894 -1.45756,1.54375 -0.74537,0.23657 -0.77816,0.72714 -0.0634,0.94836 0.29535,0.0914 0.81316,0.31869 1.1507,0.50508 2.41796,1.33514 2.26658,1.30458 3.6154,0.72986 z m 9.656062,0.22732 c 0.893947,-0.23956 0.870534,-0.44992 -0.169789,-1.52549 -1.638923,-1.69446 -1.758543,-1.74618 -2.796783,-1.20928 -0.51667,0.26718 -1.00988,0.48298 -1.09604,0.47956 -1.15344,-0.0458 -1.2131,-0.0106 -0.75641,0.44609 0.49317,0.49316 3.326852,1.96288 3.821744,1.98218 0.16877,0.007 0.617545,-0.0713 0.997278,-0.17306 z m 39.395995,-0.92544 c 1.58887,-0.57135 2.33474,-1.52493 1.9589,-2.50438 -0.26834,-0.69926 -5.62865,-0.35313 -6.706894,0.43309 -0.788607,0.57503 -1.130173,2.15213 -0.587142,2.711 0.360288,0.37079 3.607932,-0.0186 5.335136,-0.63971 z m 83.44272,-0.73307 c 0.7494,-0.40107 0.74857,-0.75474 -0.004,-1.50683 -0.48877,-0.48877 -0.77461,-0.54615 -1.57594,-0.31633 -1.31567,0.37733 -1.36564,0.46511 -0.77661,1.36409 0.53818,0.82136 1.37461,0.98433 2.35608,0.45907 z M 36.279773,146.77633 c 0.97868,-1.58353 0.74023,-2.31288 -0.91752,-2.80645 -1.8526,-0.55158 -1.82756,-0.55967 -1.78581,0.57684 0.0201,0.5485 -0.0484,1.27344 -0.15225,1.61098 -0.1459,0.47411 0.0356,0.73096 0.79788,1.12914 1.3332,0.6964 1.30791,0.70267 2.0577,-0.51051 z m 124.084897,-0.719 1.37589,-1.78808 -0.73835,-0.8969 c -0.40609,-0.4933 -0.82562,-1.40173 -0.93228,-2.01874 l -0.19393,-1.12184 -1.21215,1.12184 c -1.62416,1.50315 -2.1949,2.63598 -1.95971,3.88968 0.21773,1.1606 1.25066,2.60211 1.86456,2.60211 0.23104,0 1.03923,-0.80463 1.79597,-1.78807 z m -6.64874,-1.16372 1.93546,-1.87781 -0.46144,-1.10436 c -0.48086,-1.15086 -0.73602,-1.19115 -2.14897,-0.33929 -0.33754,0.2035 -0.95892,0.45155 -1.38084,0.55122 -0.42841,0.10121 -0.93651,0.55082 -1.15071,1.01825 -0.47006,1.02576 -0.49855,2.99501 -0.0553,3.8232 0.38694,0.72302 0.37199,0.73252 3.26181,-2.07121 z m 21.26515,2.37387 c 0,-0.14908 -0.24164,-0.35359 -0.53699,-0.45447 -0.29535,-0.10087 -1.28171,-0.60907 -2.19193,-1.12933 -1.3699,-0.783 -1.85875,-0.91148 -2.8384,-0.74597 -0.65091,0.10997 -1.1826,0.29137 -1.18154,0.40311 0.003,0.29732 1.82487,1.34863 3.06661,1.76943 1.28637,0.43592 3.68225,0.53823 3.68225,0.15723 z m 6.00607,-0.1958 c -0.32522,-0.24605 -0.66643,-0.37223 -0.75825,-0.28041 -0.19261,0.19261 0.58674,0.74034 1.0427,0.73282 0.16877,-0.003 0.0408,-0.20637 -0.28445,-0.45241 z M 47.694303,146.01861 c 0.93618,-0.93619 1.1906,-1.40897 1.1146,-2.07127 -0.073,-0.6361 -0.24383,-0.83338 -0.66016,-0.76235 -0.30892,0.0527 -0.91198,-0.1337 -1.34014,-0.41424 -0.77021,-0.50466 -0.79597,-0.49278 -2.43015,1.12111 -0.90843,0.89714 -1.65169,1.71848 -1.65169,1.82519 0,0.25549 2.72846,1.42129 3.48821,1.49042 0.14643,0.0133 0.81213,-0.52166 1.47933,-1.18886 z m -20.61713,-0.13774 c 0,-0.5509 -0.24413,-0.82223 -0.96635,-1.074 -1.55567,-0.5423 -2.1375,-0.44088 -2.02821,0.35356 0.15948,1.15926 0.52483,1.45755 1.78525,1.45755 1.07223,0 1.20931,-0.0836 1.20931,-0.73711 z m 2.45484,0.46605 c 0,-0.14909 -0.27617,-0.34329 -0.61371,-0.43156 -0.60318,-0.15773 -0.81143,0.0958 -0.40914,0.49805 0.29769,0.29769 1.02285,0.25055 1.02285,-0.0665 z m 28.93359,-0.46276 c 0.47102,-0.1126 0.77219,-0.34098 0.66928,-0.50751 -0.18543,-0.30003 -4.60124,-3.36148 -4.84857,-3.36148 -0.0708,0 -0.77685,0.36229 -1.56911,0.80509 -1.42786,0.79805 -1.43424,0.80868 -0.72907,1.21424 0.39127,0.22503 0.99324,0.53878 1.33772,0.69721 0.34448,0.15844 0.81016,0.50958 1.03485,0.78032 0.22469,0.27073 0.70231,0.49436 1.06138,0.49694 0.35907,0.003 0.85535,0.13277 1.10284,0.28931 0.2475,0.15653 0.59271,0.17345 0.76714,0.0376 0.17443,-0.13585 0.70252,-0.33912 1.17354,-0.45173 z m 108.443677,0.25204 c 0.13425,-0.40846 -0.67556,-1.32899 -1.95541,-2.22278 -0.9558,-0.66749 -0.97878,-0.66899 -1.16694,-0.0762 -0.20684,0.65167 0.51357,1.98578 1.33804,2.47791 0.61359,0.36625 1.63892,0.2634 1.78431,-0.17898 z m 21.25177,-1.1484 c 0.40744,-0.64596 0.14936,-1.74522 -0.40972,-1.74522 -0.21073,0 -0.82743,0.50184 -1.37045,1.11519 -0.92679,1.04683 -0.95626,1.14948 -0.48077,1.67489 0.47959,0.52994 0.54386,0.53183 1.20833,0.0355 0.38599,-0.2883 0.85967,-0.77447 1.05261,-1.08038 z m -155.554767,0.0821 c 0.51828,-1.25122 0.0706,-2.19141 -1.5222,-3.19691 -0.67816,-0.4281 -1.28702,-0.77837 -1.35301,-0.77837 -0.066,0 -0.21083,0.68475 -0.32185,1.52166 -0.11102,0.83692 -0.36545,1.62277 -0.56539,1.74634 -0.35085,0.21683 2.26098,1.62897 3.02907,1.63773 0.19049,0.002 0.52051,-0.41653 0.73338,-0.93045 z m 145.304567,0.12245 c 0.7702,-0.83105 0.96628,-2.05712 0.45762,-2.86142 -0.15701,-0.24827 -0.3275,-0.38344 -0.37887,-0.30037 -0.0514,0.0831 -0.77401,0.86836 -1.60587,1.7451 l -1.51247,1.59408 0.74534,0.29783 c 1.16076,0.46383 1.48651,0.39635 2.29425,-0.47522 z m -154.940627,-0.8937 c -0.0934,-0.2433 -0.54513,-0.44236 -1.00393,-0.44236 h -0.83418 l 0.90126,0.94313 c 0.71523,0.74845 0.92246,0.83976 1.00393,0.44236 0.0565,-0.27543 0.0263,-0.69983 -0.0671,-0.94313 z m 160.288017,0.75328 c 0.68112,-0.35502 1.31526,-0.76985 1.4092,-0.92185 0.23376,-0.37823 -1.08026,-2.65753 -1.6604,-2.88015 -0.25792,-0.099 -1.06459,0.13604 -1.79261,0.52226 -1.65623,0.87862 -1.76036,1.79291 -0.34784,3.05401 0.53671,0.47917 1.01575,0.87122 1.06454,0.87122 0.0488,0 0.64599,-0.29047 1.32711,-0.64549 z M 42.608663,144.4005 c 0.94716,-0.73101 1.62675,-1.48716 1.64261,-1.82766 0.0122,-0.26257 -0.67937,-0.45627 -2.44508,-0.68482 -1.31748,-0.17053 -1.42612,-0.12395 -2.36756,1.01498 l -0.98672,1.19372 0.98672,0.48651 c 1.35019,0.66572 2.12885,0.62084 3.17003,-0.18273 z m -14.28147,-1.06394 c 0.69318,-1.82321 -0.10645,-3.35413 -2.04143,-3.90841 -0.58394,-0.16727 -0.64103,-0.0495 -0.67381,1.38975 -0.0227,0.99489 -0.22365,1.78005 -0.54716,2.13753 -0.48399,0.53479 -0.46435,0.57545 0.36695,0.75979 0.48306,0.10711 1.01638,0.24082 1.18515,0.29712 0.88451,0.29505 1.42193,0.0827 1.7103,-0.67578 z m 147.078917,0.18578 c 0.44806,-0.35244 1.02321,-1.04411 1.27812,-1.53704 0.52144,-1.00836 0.34799,-1.53399 -0.88748,-2.68948 l -0.77496,-0.72479 -0.20497,1.09256 c -0.12919,0.68867 -0.70973,1.62694 -1.57038,2.53807 -1.01415,1.07364 -1.26268,1.51067 -0.96609,1.6988 0.7282,0.4619 2.29951,0.27182 3.12576,-0.37812 z m -6.86897,0.0271 c -0.25316,-0.1636 -0.87454,-0.28987 -1.38085,-0.28059 -0.79037,0.0145 -0.83376,0.0542 -0.30685,0.28059 0.33754,0.14504 0.95892,0.27131 1.38084,0.28059 0.60462,0.0133 0.66963,-0.0461 0.30686,-0.28059 z M 38.153283,142.91483 c 1.07091,-0.76255 1.12182,-1.13677 0.2008,-1.47604 -1.94633,-0.71696 -2.31223,-0.68489 -2.98628,0.26172 l -0.65067,0.91379 1.01298,0.44254 c 1.35325,0.59119 1.39711,0.58862 2.42317,-0.14201 z m -13.97067,-0.42769 c 0.66227,-1.01076 0.86481,-2.95476 0.37125,-3.56342 -0.21549,-0.26575 -0.84058,-0.6383 -1.38908,-0.82789 -0.99244,-0.34303 -0.99728,-0.33982 -0.99728,0.66132 0,0.55331 -0.32737,1.65265 -0.72748,2.44298 l -0.72748,1.43696 0.65076,0.13737 c 0.35793,0.0756 0.92694,0.19578 1.26448,0.26715 0.33754,0.0714 0.71409,0.1458 0.83678,0.16538 0.12268,0.0196 0.44581,-0.30436 0.71805,-0.71985 z m 138.211277,0.28775 c -0.21348,-0.25724 -0.45135,-0.40451 -0.52858,-0.32727 -0.2128,0.2128 0.21957,0.79496 0.59042,0.79496 0.20347,0 0.18019,-0.17606 -0.0618,-0.46769 z m 24.29889,-2.44946 c 0.28042,-0.27774 -0.88827,-2.20167 -1.4739,-2.42639 -0.62988,-0.24171 -0.90352,-0.0407 -1.45808,1.0709 -0.45493,0.91193 -0.43746,0.96715 0.82442,2.60517 l 1.2892,1.67349 0.30686,-1.36023 c 0.16877,-0.74814 0.39894,-1.45146 0.5115,-1.56294 z m -134.731037,1.9757 c 1.00698,-0.71704 1.1502,-1.20562 0.35422,-1.20842 -0.29535,-0.001 -0.93251,-0.20817 -1.41592,-0.46028 -1.28817,-0.67183 -2.10004,-0.53785 -2.90338,0.47915 -0.64837,0.8208 -0.66242,0.90458 -0.15343,0.91446 0.30818,0.006 0.90555,0.20821 1.32747,0.44941 1.06354,0.60797 1.75287,0.56491 2.79104,-0.17432 z m 119.703987,0.085 c 1.65101,-1.08882 2.12284,-1.91187 2.02508,-3.5325 -0.0866,-1.43613 -0.14122,-1.51871 -1.25628,-1.90062 -0.99361,-0.34032 -1.31072,-0.32915 -2.14798,0.0756 -1.44738,0.69977 -2.34002,1.89584 -2.34739,3.14536 -0.008,1.30487 0.17958,1.60964 1.36511,2.22149 1.22085,0.63008 1.3929,0.62939 2.36146,-0.009 z m 17.73752,-0.0442 c 0,-1.00246 -0.5733,-2.16796 -1.0664,-2.16796 -0.63878,0 -0.61189,1.48024 0.04,2.20053 0.6557,0.72455 1.02643,0.71278 1.02643,-0.0326 z M 20.614643,141.13946 c 0.1995,-0.48163 0.31982,-1.55179 0.26737,-2.37812 l -0.0954,-1.50242 -1.36652,0.0436 c -1.63992,0.0523 -2.46916,0.87501 -2.46916,2.44978 0,0.84912 0.18655,1.15825 0.99728,1.65256 1.42225,0.86717 2.23061,0.78672 2.66639,-0.26536 z m 13.95944,-0.004 c 0.51686,-0.9995 0.31836,-1.39649 -1.15538,-2.31075 -0.85292,-0.52912 -0.89255,-0.52351 -2.07127,0.29334 -0.66094,0.45803 -1.20171,0.93807 -1.20171,1.06675 0,0.3904 2.5612,1.80578 3.2908,1.81858 0.44799,0.008 0.83891,-0.2904 1.13756,-0.86792 z M 159.04382,139.5256 c 0.45364,-0.6308 0.52955,-1.07123 0.35553,-2.06271 l -0.22128,-1.26065 -1.76287,2.00422 -1.76287,2.00421 0.48386,0.93569 0.48386,0.93568 0.92348,-0.87719 c 0.50792,-0.48246 1.18305,-1.23812 1.50029,-1.67925 z m -111.600527,1.01973 c 0.0839,-0.13584 0.0373,-0.43363 -0.1037,-0.66175 -0.18409,-0.29786 -0.63246,-0.36049 -1.59074,-0.22218 -2.06323,0.29779 -3.6358,0.8134 -3.6358,1.1921 0,0.18897 0.0717,0.27189 0.1593,0.18427 0.0876,-0.0876 0.88161,0.008 1.76442,0.21204 1.3043,0.30176 1.7596,0.29369 2.4295,-0.0431 0.45341,-0.22793 0.89308,-0.52557 0.97702,-0.6614 z m 119.866427,1.08443 c 0,-0.0433 -0.11591,-0.49208 -0.25758,-0.99728 -0.3515,-1.25344 0.65649,-3.13068 2.22238,-4.13886 l 1.19407,-0.76878 -0.99399,-0.0983 c -1.14754,-0.11344 -2.96946,0.66358 -3.75258,1.60042 -1.09337,1.30798 -0.37866,4.48151 1.00928,4.48151 0.31813,0 0.57842,-0.0354 0.57842,-0.0787 z m 12.27418,-0.21 c 0,-0.15881 -0.13808,-0.37409 -0.30685,-0.4784 -0.16877,-0.1043 -0.30686,0.0256 -0.30686,0.28875 0,0.26311 0.13809,0.47839 0.30686,0.47839 0.16877,0 0.30685,-0.12993 0.30685,-0.28874 z m -17.23347,-1.16882 c -1.01025,-1.62956 -1.02135,-4.76614 -0.0214,-6.03884 1.05308,-1.34029 2.98368,-2.64312 4.02644,-2.71717 0.75099,-0.0533 0.85533,-0.14107 0.54175,-0.45552 -0.22149,-0.2221 -1.26771,-0.41552 -2.43472,-0.4501 -2.53303,-0.0751 -3.08094,0.39462 -3.61256,3.09681 -0.5265,2.67612 -0.26781,4.95538 0.73428,6.46964 1.03709,1.56714 1.73225,1.65351 0.76617,0.0952 z m 1.94305,-0.38655 c -0.24721,-2.59222 0.85896,-4.23569 3.29793,-4.89984 0.85769,-0.23355 1.55875,-0.50325 1.55791,-0.59932 -9.2e-4,-0.0961 -0.32311,-0.57657 -0.71616,-1.06778 -0.70535,-0.8815 -0.73425,-0.8882 -2.22317,-0.51512 -2.25224,0.56434 -3.81368,2.29988 -3.80695,4.2314 0.003,0.944 1.35266,4.08106 1.75541,4.08106 0.1388,0 0.19957,-0.55368 0.13503,-1.2304 z m -124.195777,0.65034 c 0.0929,-0.15027 -0.32304,-0.36549 -0.92425,-0.47828 -0.6012,-0.11278 -1.29042,-0.28078 -1.53159,-0.37333 -0.24117,-0.0925 -0.43849,-0.0194 -0.43849,0.16265 0,0.5614 2.59186,1.17836 2.89433,0.68896 z m 142.152447,-1.21664 c 0.63454,-0.94474 0.65493,-1.10033 0.24749,-1.88822 -0.38699,-0.74836 -2.52334,-2.40918 -2.70591,-2.1036 -0.24111,0.40355 -0.91662,2.39569 -1.03915,3.06448 -0.10531,0.57487 0.0569,0.99512 0.56763,1.47097 0.99217,0.92435 2.07946,0.72261 2.92994,-0.54363 z M 30.075333,138.92518 c 1.77382,-0.61836 1.4666,-1.69563 -0.82093,-2.87856 l -0.98701,-0.5104 -1.25244,1.25244 c -0.68884,0.68884 -1.19458,1.3103 -1.12386,1.38102 0.0707,0.0707 0.53913,0.34266 1.0409,0.6043 1.07635,0.56125 1.85907,0.5989 3.14334,0.1512 z m 6.20748,0.0897 c 0,-0.56499 -1.00463,-1.60255 -1.55167,-1.60255 -0.86357,0 -0.73147,0.69462 0.24754,1.3016 0.93028,0.57678 1.30413,0.66305 1.30413,0.30095 z m 141.174557,-1.50553 c 0.8109,-2.13282 -2.4614,-5.05875 -5.10332,-4.56312 -2.17164,0.4074 -2.04156,1.54479 0.29909,2.61501 0.68967,0.31534 1.80629,1.06222 2.48137,1.65974 1.4832,1.31278 1.91309,1.36615 2.32286,0.28837 z m 9.7979,-0.81065 c 0,-1.02096 -0.17802,-1.4946 -0.7712,-2.05186 -0.88917,-0.83533 -1.219,-0.6305 -1.48849,0.92438 -0.16661,0.9613 -0.082,1.14443 0.80663,1.74534 0.54603,0.36924 1.09634,0.67993 1.22292,0.69042 0.12657,0.0105 0.23014,-0.57824 0.23014,-1.30828 z M 26.391253,136.35799 c 1.24526,-1.14549 1.1937,-1.34759 -0.51629,-2.02357 -1.0432,-0.41239 -1.05504,-0.40735 -2.2254,0.9481 -1.06991,1.2391 -1.1295,1.39748 -0.65699,1.74626 0.93975,0.69367 2.18189,0.44851 3.39868,-0.67079 z m 7.11014,0.45934 c 0.3651,-0.23104 0.37181,-0.3616 0.0391,-0.76244 -0.22078,-0.26602 -0.57472,-0.48367 -0.78655,-0.48367 -0.21182,0 -0.55704,-0.20713 -0.76714,-0.46028 -0.42182,-0.50827 -1.70465,-0.6225 -1.98038,-0.17636 -0.174,0.28154 2.15821,2.09781 2.74752,2.1397 0.16877,0.012 0.5051,-0.10363 0.74741,-0.25695 z m 150.426017,-1.74549 c 0.53023,-1.07244 -1.10497,-3.01992 -2.67826,-3.18973 -1.20466,-0.13003 -1.35843,0.002 -1.35048,1.15756 0.007,1.04061 0.1253,1.20484 1.23483,1.71651 0.6748,0.31119 1.46522,0.88543 1.7565,1.27608 0.44001,0.59014 0.54523,0.62419 0.62212,0.20133 0.0509,-0.27992 0.23777,-0.80271 0.41529,-1.16175 z m -5.57093,-1.77475 c 0,-1.81087 -1.23844,-2.9424 -3.22042,-2.9424 -2.51735,0 -3.16987,0.87054 -1.11416,1.48645 0.65383,0.19589 1.79303,0.90251 2.53155,1.57026 0.73851,0.66774 1.44632,1.21975 1.57289,1.22667 0.12658,0.007 0.23014,-0.59652 0.23014,-1.34098 z m -148.550647,0.62623 c 0.27497,-0.33132 0.0876,-0.65664 -0.88388,-1.53427 -0.67806,-0.61259 -1.50861,-1.1138 -1.84566,-1.1138 -0.59268,0 -1.84025,0.98836 -1.84025,1.45789 0,0.37529 2.54064,1.5532 3.41455,1.58309 0.44345,0.0152 0.96331,-0.16164 1.15524,-0.39291 z m 2.79472,0.11363 c 0,-0.16877 -0.24164,-0.30474 -0.53699,-0.30216 -0.45892,0.004 -0.47007,0.0479 -0.0767,0.30216 0.5791,0.37424 0.61371,0.37424 0.61371,0 z m 137.978887,-2.01018 c 0.82028,-0.62566 1.02624,-0.99898 1.02624,-1.86018 0,-0.88274 -0.82801,-4.10786 -1.05465,-4.10786 -0.0349,0 -0.72678,0.22602 -1.53754,0.50227 l -1.47411,0.50228 0.16701,1.61816 c 0.13964,1.35301 1.29376,4.11759 1.72235,4.12572 0.0684,10e-4 0.58627,-0.34987 1.1507,-0.78039 z m 14.03473,-0.31633 c 0.58319,-1.51977 -0.45782,-3.31283 -2.20509,-3.7981 -1.74549,-0.48478 -1.90461,-0.42325 -1.90461,0.73654 0,0.58073 -0.13809,1.14122 -0.30686,1.24553 -0.63171,0.39042 -0.26226,0.71662 1.21222,1.07034 0.83549,0.20043 1.68091,0.55942 1.8787,0.79775 0.47655,0.5742 1.09464,0.54993 1.32564,-0.0521 z m -5.95083,-1.8202 c 0,-0.42421 0.1726,-1.05171 0.38357,-1.39443 0.59741,-0.97054 -0.68633,-1.80779 -2.7853,-1.81655 -1.40231,-0.006 -1.76205,0.12063 -2.53155,0.89013 -1.33782,1.33783 -1.20388,1.89237 0.40717,1.6857 1.01543,-0.13026 1.60983,-0.002 2.68498,0.57838 1.78895,0.96607 1.84113,0.96768 1.84113,0.0568 z m -12.02243,-1.35272 c 0.0968,-0.98757 0.0829,-0.99945 -0.92056,-0.78327 -0.56039,0.12074 -1.43315,0.43454 -1.93946,0.69735 l -0.92056,0.47783 1.53427,0.36736 c 1.99319,0.47724 2.12958,0.43114 2.24631,-0.75927 z m 5.70088,-2.95345 c -0.18271,-0.72797 -0.24747,-0.7592 -0.67916,-0.32751 -0.41288,0.41288 -0.42038,0.58337 -0.0556,1.26496 0.3434,0.64165 0.46937,0.70239 0.67916,0.32751 0.14166,-0.25314 0.16669,-0.82237 0.0556,-1.26496 z m 3.40643,0.0472 c 0.50631,-0.10697 1.36934,-0.0642 1.91784,0.0951 1.26916,0.36848 1.3684,-0.25171 0.18876,-1.17962 -0.58826,-0.46272 -1.25407,-0.63598 -2.44404,-0.63598 -1.78448,0 -2.27082,0.42454 -2.27082,1.98227 0,0.76744 0.0294,0.78014 0.84385,0.36398 0.46411,-0.23716 1.2581,-0.51873 1.76441,-0.6257 z"
       id="path323157"
       inkscape:connector-curvature="0" />
  </g>
  <defs
     id="defs243267">
    <marker
       style="overflow:visible"
       refY="-2.41063"
       refX="-8"
       orient="auto"
       id="DrawCurveMarker">
      <path
         id="path243264"
         style="fill:#000044; fill-rule:evenodd;stroke-width:0.62500000;stroke-linejoin:round;"
         d="m -6.55552,-2.41063 0,0 L -13.11104,0 c 1.0473,-1.42323 1.04126,-3.37047 0,-4.82126" />
    </marker>
  </defs>
  <defs
     id="defs243272">
    <marker
       style="overflow:visible"
       refY="-2.41063"
       refX="8"
       orient="auto"
       id="DrawCurveMarker_r">
      <path
         id="path243269"
         style="fill:#000044; fill-rule:evenodd;stroke-width:0.62500000;stroke-linejoin:round;"
         d="m 6.55552,-2.41063 0,0 L 13.11104,0 c -1.0473,-1.42323 -1.04126,-3.37047 0,-4.82126" />
    </marker>
  </defs>
  <g
     gcodetools="Gcodetools orientation group"
     id="g330359">
    <g
       gcodetools="Gcodetools orientation point (2 points)"
       id="g330351">
      <path
         d="m 0.0,297.0 2.9375,-6.343750000001 0.8125,1.90625 6.843748640396,-6.84374864039 0,0 0.6875,0.6875 -6.84375,6.84375 1.90625,0.812500000001 z z"
         gcodetools="Gcodetools orientation point arrow"
         style="stroke:none;fill:#000000;"
         id="path330347" />
      <text
         gcodetools="Gcodetools orientation point text"
         style="font-size:10px;font-style:normal;font-variant:normal;font-weight:normal;font-stretch:normal;fill:#000000;fill-opacity:1;stroke:none;"
         x="10.0"
         y="287.0"
         xml:space="preserve"
         id="text330349">(0.0; 0.0; 0.0)</text>
    </g>
    <g
       gcodetools="Gcodetools orientation point (2 points)"
       id="g330357">
      <path
         d="m 100.0,297.0 2.9375,-6.343750000001 0.8125,1.90625 6.843748640396,-6.84374864039 0,0 0.6875,0.6875 -6.84375,6.84375 1.90625,0.812500000001 z z"
         gcodetools="Gcodetools orientation point arrow"
         style="stroke:none;fill:#000000;"
         id="path330353" />
      <text
         gcodetools="Gcodetools orientation point text"
         style="font-size:10px;font-style:normal;font-variant:normal;font-weight:normal;font-stretch:normal;fill:#000000;fill-opacity:1;stroke:none;"
         x="110.0"
         y="287.0"
         xml:space="preserve"
         id="text330355">(100.0; 0.0; 0.0)</text>
    </g>
  </g>
</svg>
