<?xml version="1.0" encoding="UTF-8" standalone="no"?>
<!-- Created with Inkscape (http://www.inkscape.org/) -->

<svg
   xmlns:dc="http://purl.org/dc/elements/1.1/"
   xmlns:cc="http://creativecommons.org/ns#"
   xmlns:rdf="http://www.w3.org/1999/02/22-rdf-syntax-ns#"
   xmlns:svg="http://www.w3.org/2000/svg"
   xmlns="http://www.w3.org/2000/svg"
   xmlns:sodipodi="http://sodipodi.sourceforge.net/DTD/sodipodi-0.dtd"
   xmlns:inkscape="http://www.inkscape.org/namespaces/inkscape"
   width="210mm"
   height="297mm"
   viewBox="0 0 210 296.99999"
   id="svg2"
   version="1.1"
   inkscape:version="0.92.2 5c3e80d, 2017-08-06"
   sodipodi:docname="thankyou.svg">
  <defs
     id="defs4" />
  <sodipodi:namedview
     id="base"
     pagecolor="#ffffff"
     bordercolor="#666666"
     borderopacity="1.0"
     inkscape:pageopacity="0.0"
     inkscape:pageshadow="2"
     inkscape:zoom="0.45255331"
     inkscape:cx="396.85039"
     inkscape:cy="561.25984"
     inkscape:document-units="mm"
     inkscape:current-layer="layer1"
     showgrid="false"
     inkscape:window-width="1360"
     inkscape:window-height="690"
     inkscape:window-x="0"
     inkscape:window-y="1"
     inkscape:window-maximized="1" />
  <metadata
     id="metadata7">
    <rdf:RDF>
      <cc:Work
         rdf:about="">
        <dc:format>image/svg+xml</dc:format>
        <dc:type
           rdf:resource="http://purl.org/dc/dcmitype/StillImage" />
        <dc:title></dc:title>
      </cc:Work>
    </rdf:RDF>
  </metadata>
  <g
     inkscape:label="Layer 1"
     inkscape:groupmode="layer"
     id="layer1">
    <path
       style="fill:#000000;stroke-width:0.20251957"
       d="m 108.93975,215.74953 c -4.71737,-0.31518 -8.40353,-1.26004 -11.626727,-2.98023 -1.06241,-0.567 -3.288892,-2.03921 -4.220067,-2.79043 -4.025505,-3.24757 -6.403503,-7.91142 -6.818824,-13.37345 -0.400531,-5.26752 1.675437,-10.98813 5.911752,-16.29062 1.067213,-1.3358 3.866891,-4.15776 5.299391,-5.34157 5.203145,-4.29987 11.409485,-7.63141 17.956835,-9.6392 7.74959,-2.37645 15.90517,-3.77628 25.92328,-4.44947 2.35052,-0.15794 6.75729,-0.20319 8.73183,-0.0897 1.17778,0.0678 1.23668,0.0635 1.19105,-0.0861 -0.0264,-0.0866 -0.36237,-0.85377 -0.74658,-1.70493 -2.05474,-4.55197 -3.90112,-10.08798 -5.60211,-16.79683 -0.48039,-1.89471 -1.00351,-3.94877 -1.1625,-4.56456 -0.15898,-0.61578 -0.75943,-2.97989 -1.33436,-5.25356 -0.5749,-2.27366 -1.20113,-4.59901 -1.39159,-5.16742 -0.35701,-1.06544 -1.16627,-2.82997 -1.76936,-3.85795 -0.44447,-0.75765 -0.43782,-0.76529 -1.1937,1.37184 -0.49295,1.39369 -1.12834,2.71309 -1.61652,3.35668 -1.10159,1.4523 -3.03539,2.80104 -4.8073,3.35293 -0.59076,0.18399 -0.76291,0.1348 -0.76291,-0.21797 0,-0.18761 0.0999,-0.37133 0.3484,-0.64097 0.25324,-0.27473 0.50237,-0.7388 0.91209,-1.69902 0.56862,-1.3326 1.40936,-3.42256 1.40936,-3.50348 0,-0.0931 -0.50959,0.43639 -1.99477,2.07252 -1.59155,1.75332 -2.51577,2.63216 -3.39602,3.22927 -1.06708,0.72385 -2.22348,1.19069 -3.17854,1.28317 -0.44953,0.0435 -0.55491,0.0237 -0.81019,-0.15234 -0.78624,-0.54224 -1.02372,-1.31393 -0.92365,-3.00139 0.0897,-1.51263 0.38705,-2.52218 1.49653,-5.08131 0.40045,-0.92369 0.83634,-1.97009 0.96865,-2.32535 0.13232,-0.35526 0.65512,-1.51794 1.16178,-2.58371 0.50667,-1.06579 1.08719,-2.32535 1.29006,-2.79903 0.99624,-2.32627 1.48112,-4.43813 1.12827,-4.91413 -0.12174,-0.16425 -0.1312,-0.1634 -0.53827,0.0482 -0.91343,0.47465 -2.2432,2.11926 -3.72345,4.60503 -1.85649,3.1176 -3.12743,5.63882 -5.44511,10.80173 -0.7572,1.68675 -1.49731,3.33091 -1.6447,3.65368 -0.25075,0.54913 -0.31823,0.62153 -1.04933,1.12589 -0.42975,0.29648 -1.20767,0.84141 -1.72871,1.21098 -0.98368,0.69769 -2.34781,1.42552 -2.67178,1.42552 -0.10268,0 -0.25212,-0.0723 -0.33209,-0.16067 -0.25937,-0.2866 -0.0786,-0.81156 1.17557,-3.41347 3.63821,-7.54803 5.36971,-11.74835 7.04632,-17.09322 0.39801,-1.26876 0.42432,-1.55368 0.14319,-1.55021 -0.10658,0.002 -0.34602,0.1176 -0.53209,0.25838 -0.38547,0.29166 -0.566,0.32446 -0.566,0.10283 0,-0.32115 0.42799,-0.74231 1.59329,-1.56788 1.97972,-1.40254 3.4136,-2.05492 3.99096,-1.81578 0.14034,0.0581 0.3462,0.20264 0.45745,0.32113 0.3115,0.33174 0.27825,1.33426 -0.0836,2.5202 -0.15066,0.4938 -0.27393,0.93501 -0.27393,0.98048 0,0.0455 0.44261,-0.34612 0.98358,-0.87018 1.13263,-1.09722 2.37665,-2.10935 3.36568,-2.73829 1.63882,-1.04215 2.57405,-1.41335 3.56094,-1.41335 0.50265,0 0.56986,0.0227 0.82625,0.27991 0.64772,0.6496 0.85898,2.21141 0.49844,3.68484 -0.23685,0.96798 -1.13775,3.35646 -1.65485,4.38739 -1.58705,3.16408 -3.22175,6.99001 -4.31862,10.10748 -0.33548,0.95343 -0.41933,1.30308 -0.41933,1.74828 0,0.61861 0.17445,1.0647 0.41636,1.0647 0.26598,0 1.15535,-0.59159 1.72292,-1.14603 0.55044,-0.53773 2.41967,-2.65093 2.90959,-3.28934 0.38107,-0.49658 1.11512,-1.76957 1.51253,-2.62299 0.44631,-0.95845 1.84244,-4.4565 1.9683,-4.93164 0.32323,-1.22034 1.40694,-4.74364 2.06048,-6.69888 3.25159,-9.72812 7.09061,-16.429205 12.28563,-21.444865 5.16785,-4.98941 11.22669,-7.874112 17.89727,-8.521126 2.10589,-0.20426 5.42513,-0.06979 7.37017,0.298603 0.90785,0.171946 2.90122,0.66667 3.87265,0.961134 2.58956,0.784957 5.92998,2.592716 8.27082,4.475989 1.02045,0.820974 2.86278,2.67036 3.63693,3.65087 1.93405,2.44953 3.11045,4.80548 4.0735,8.15792 0.90607,3.154065 1.24978,5.696665 1.25208,9.262125 0.002,2.2667 -0.12896,3.86136 -0.48382,5.91531 -1.03853,6.01123 -3.79386,11.94552 -7.77762,16.7511 -1.49455,1.80286 -3.06357,3.26663 -5.3087,4.95256 -5.09765,3.82799 -10.4464,6.05344 -15.74318,6.5503 -1.38461,0.12988 -4.43416,0.0587 -5.61554,-0.13117 -1.86906,-0.3003 -3.97339,-0.89023 -4.9948,-1.40024 -1.70661,-0.85214 -3.14653,-2.10597 -3.68943,-3.21264 -0.58213,-1.18664 -0.58632,-1.9373 -0.0144,-2.57042 0.29762,-0.32944 1.04585,-0.7502 1.49308,-0.83966 0.30595,-0.0612 0.33074,-0.006 0.44351,0.9896 0.16144,1.4251 0.67965,2.54732 1.66046,3.59581 1.46572,1.56686 3.54832,2.41076 6.41443,2.59925 3.96528,0.26075 7.93661,-0.85168 12.7969,-3.58461 2.75802,-1.55082 6.33563,-4.88168 8.94366,-8.32676 0.60025,-0.7929 1.98353,-2.92327 2.46534,-3.79683 3.60047,-6.52799 5.04116,-13.63608 4.28042,-21.11889 -0.50958,-5.012335 -1.92504,-9.313655 -4.21434,-12.806555 -2.57542,-3.929455 -6.40231,-6.928055 -10.64443,-8.340547 -3.96938,-1.321674 -8.56413,-1.406237 -12.14543,-0.223507 -5.66764,1.871738 -11.12467,6.442764 -15.37436,12.878204 -1.90089,2.87856 -3.51883,6.116205 -4.68725,9.379555 -0.15264,0.42632 -0.5201,1.41459 -0.81657,2.19616 -0.29648,0.78158 -0.74122,2.04114 -0.9883,2.79903 -0.56892,1.74504 -0.54846,1.6701 -0.4057,1.48683 0.36228,-0.46501 2.04175,-2.26138 2.44784,-2.61821 1.82909,-1.60724 3.64539,-2.39588 5.01501,-2.17752 1.10637,0.1764 2.26802,1.08469 2.53591,1.98285 0.46226,1.54979 0.0832,3.57741 -0.97257,5.20163 -0.60195,0.92607 -3.00597,3.28412 -4.40542,4.32116 -1.79419,1.32954 -3.38976,2.29041 -5.84181,3.51798 l -1.40642,0.70409 0.45906,0.32813 c 1.24131,0.88726 2.29928,2.01302 3.26601,3.4753 1.56677,2.36989 2.71653,5.31714 4.22128,10.82065 2.12798,7.78296 3.38411,11.92715 4.95986,16.36355 0.77781,2.18989 2.15046,5.6481 2.93875,7.4038 0.66605,1.48344 0.38499,1.29169 2.341,1.59719 6.35607,0.99275 12.75184,3.06509 17.65647,5.72101 3.01116,1.63058 6.07612,3.71228 7.95433,5.40253 0.78851,0.7096 2.02678,2.16229 2.64281,3.10046 1.19656,1.82225 1.49455,3.72758 0.81548,5.21411 -0.33478,0.73286 -1.24693,1.57257 -2.21045,2.03494 -1.80838,0.86775 -3.84462,0.96256 -7.48077,0.34828 -3.78963,-0.6402 -9.37499,-3.09293 -13.15674,-5.77757 -2.84561,-2.02009 -5.15685,-4.29025 -7.32821,-7.19796 -1.60904,-2.15473 -2.40669,-3.37196 -3.80129,-5.80089 l -1.1439,-1.99229 -0.65565,-0.0547 c -0.36063,-0.0301 -1.76022,-0.094 -3.11021,-0.14214 -8.62277,-0.30731 -17.4694,0.82595 -25.49266,3.26563 -4.77949,1.45331 -9.96199,3.68059 -13.34921,5.73709 -9.54687,5.79619 -16.354489,13.4566 -18.676951,21.01664 -0.755809,2.46031 -0.886181,6.16344 -0.315307,8.95608 0.617041,3.01847 2.076504,5.75274 4.068214,7.6217 2.246717,2.10824 5.788044,3.79864 9.627424,4.59553 3.87663,0.8046 7.70016,0.90263 11.8851,0.3047 6.30466,-0.90079 12.39227,-3.16384 19.63624,-7.2997 3.45428,-1.97219 8.33639,-6.35837 10.98924,-9.87292 3.09722,-4.10327 4.76404,-8.16406 5.16635,-12.5865 0.36534,-4.01619 -1.18549,-7.80751 -4.06765,-9.94415 -0.32473,-0.24071 -0.5898,-0.50183 -0.58909,-0.58024 0.004,-0.41591 0.38415,-0.53832 1.673,-0.53849 1.58543,0 2.76856,0.31182 3.99365,1.05316 1.21583,0.73576 2.01811,1.63162 2.65074,2.95997 1.91003,4.01046 1.24466,9.32949 -1.85339,14.81629 -4.33891,7.68445 -10.26272,12.52777 -23.30261,19.0523 -4.93293,2.46821 -10.56283,4.0543 -16.27733,4.58577 -1.00755,0.0937 -4.59011,0.1748 -5.38274,0.12185 z m 6.28705,-0.46389 c 5.67177,-0.67007 11.04853,-2.27903 15.73658,-4.70911 6.53687,-3.38841 9.59408,-5.20512 12.81348,-7.61425 1.81169,-1.3557 2.75097,-2.17015 4.35525,-3.77644 1.70574,-1.70785 2.92919,-3.19181 4.08928,-4.95999 2.2165,-3.37835 3.37725,-5.95596 4.05286,-8.99995 0.21899,-0.98675 0.23934,-1.23101 0.24394,-2.92821 0.004,-1.51276 -0.0243,-1.97777 -0.155,-2.54066 -0.23857,-1.0273 -0.54282,-1.88289 -0.97875,-2.75241 -0.31522,-0.62875 -0.53336,-0.92108 -1.13298,-1.51834 -1.16227,-1.15769 -2.28682,-1.72845 -3.99061,-2.02545 -1.10974,-0.19343 -2.57329,-0.0758 -2.56313,0.20597 9.3e-4,0.0339 0.20259,0.19721 0.44749,0.36299 0.24489,0.1658 0.7044,0.55666 1.02112,0.86861 2.69834,2.65765 3.74064,6.56239 2.95888,11.08476 -1.14633,6.63149 -5.25988,12.71114 -12.49961,18.4739 -1.48736,1.18393 -2.32413,1.7561 -3.78683,2.58941 -8.57203,4.88354 -16.26393,7.33128 -23.62631,7.51845 -7.14759,0.18171 -13.061238,-1.49323 -17.103094,-4.84415 -2.559421,-2.1219 -4.315489,-5.51811 -4.817883,-9.3177 -0.238766,-1.80579 -0.160908,-4.71134 0.178816,-6.67319 0.236074,-1.36328 1.211805,-3.92559 2.21515,-5.81707 2.857261,-5.38644 8.076491,-10.82559 14.536851,-15.14943 3.23003,-2.16181 6.11515,-3.65989 10.20066,-5.29662 7.32885,-2.93609 15.21435,-4.63539 23.89937,-5.15021 3.24636,-0.19244 10.90455,-0.0529 11.16801,0.20346 0.0556,0.0541 0.52474,0.83473 1.04255,1.73472 1.23902,2.15353 1.83138,3.12522 2.41513,3.96171 1.12191,1.60762 2.71538,3.68073 3.47565,4.52184 4.00755,4.4336 9.50585,7.85384 15.83148,9.84799 1.175,0.37043 2.16121,0.58621 3.87557,0.84798 1.12466,0.17172 3.76745,0.14774 4.57333,-0.0415 1.54832,-0.36361 2.93158,-1.33394 3.48628,-2.44551 0.81478,-1.63281 0.22109,-3.89803 -1.58728,-6.05619 -1.41196,-1.68507 -2.26945,-2.46372 -4.41171,-4.00612 -6.48482,-4.66894 -14.43488,-7.76481 -23.33322,-9.08628 -0.85617,-0.12715 -1.2937,-0.23052 -1.39161,-0.32878 -0.17121,-0.17182 -1.21326,-2.51468 -2.06295,-4.63817 -0.87228,-2.17994 -1.36123,-3.51782 -2.38615,-6.52902 -0.55227,-1.62256 -1.92847,-6.09407 -2.50486,-8.13871 -0.83247,-2.95302 -1.11706,-3.97837 -1.72215,-6.20454 -1.7609,-6.47858 -3.32532,-9.88775 -5.64028,-12.29123 -0.47734,-0.49559 -1.18829,-1.13385 -1.57989,-1.41837 -0.39161,-0.28451 -0.712,-0.5651 -0.712,-0.62352 0,-0.0585 0.62978,-0.42101 1.39951,-0.80577 3.80774,-1.90329 6.3585,-3.63026 8.47188,-5.73585 1.73648,-1.73009 2.23128,-2.43047 2.71347,-3.84099 0.25345,-0.7414 0.27917,-0.9113 0.28005,-1.84986 8.2e-4,-0.87073 -0.0296,-1.11104 -0.19313,-1.52591 -0.31474,-0.79847 -1.20386,-1.46957 -2.25725,-1.70377 -0.40891,-0.091 -0.575,-0.0852 -1.11962,0.0386 -1.83402,0.41691 -3.30729,1.48357 -5.56738,4.03077 -0.85972,0.96895 -1.0971,1.14781 -1.1927,0.89867 -0.0503,-0.13111 0.86292,-2.92273 1.5125,-4.62353 0.24424,-0.63947 0.57946,-1.54657 0.74494,-2.01579 1.28337,-3.63901 2.85152,-6.779725 4.99219,-9.998495 3.71216,-5.58166 8.32867,-9.743142 13.25368,-11.947301 2.66197,-1.191351 4.71654,-1.617383 7.82568,-1.622709 2.45321,-0.0046 4.44171,0.307781 6.6026,1.035943 2.18193,0.73526 3.74041,1.550954 5.56714,2.913796 1.91103,1.425753 3.41227,2.940731 4.68499,4.727891 3.24324,4.55416 4.9254,10.545405 4.92825,17.552605 9.3e-4,2.81442 -0.0996,3.90022 -0.67778,7.30687 -0.11,0.64804 -0.77146,3.06725 -1.12224,4.10454 -1.20752,3.57056 -3.01839,7.01372 -5.2316,9.94731 -1.86816,2.47621 -4.38084,5.01789 -6.87207,6.95133 -2.32412,1.80376 -6.67167,3.7995 -9.82997,4.51244 -3.53598,0.7982 -7.40907,0.53532 -9.70404,-0.65865 -2.16646,-1.12712 -3.51108,-3.00486 -3.78414,-5.28446 -0.0505,-0.42151 -0.10592,-0.78051 -0.12319,-0.79778 -0.0562,-0.0561 -0.69085,0.2417 -1.06841,0.50148 -0.38537,0.26513 -0.71191,0.78334 -0.71191,1.12974 0,0.60925 0.54251,1.74632 1.13968,2.38871 1.10297,1.18651 2.6339,2.12062 4.41531,2.69406 5.9102,1.90251 12.39324,1.21223 18.81131,-2.00292 4.50529,-2.25694 8.66768,-5.52597 11.40893,-8.96027 4.3345,-5.43034 6.96346,-11.85986 7.72975,-18.90419 0.14248,-1.30975 0.14111,-5.02401 -0.003,-6.3301 -0.51093,-4.652615 -1.83197,-8.952345 -3.64805,-11.873765 -2.43629,-3.9191 -6.57577,-7.432803 -11.0031,-9.339731 -2.73255,-1.176958 -6.36887,-2.043053 -9.2506,-2.203296 -5.73714,-0.319029 -11.34865,1.093583 -16.18546,4.074449 -5.70909,3.518438 -10.10583,8.446108 -13.64661,15.294508 -2.31946,4.486155 -4.16708,9.419355 -6.30603,16.837225 -0.34576,1.19909 -1.66963,4.50398 -2.34407,5.85175 -0.59775,1.1945 -1.33013,2.31555 -1.98039,3.03137 -0.25201,0.27741 -0.80199,0.90344 -1.22218,1.39118 -0.86393,1.00278 -1.42293,1.50759 -2.165,1.95511 -0.61267,0.36948 -0.92651,0.37329 -1.19225,0.0145 -0.15508,-0.20938 -0.17923,-0.35627 -0.17,-1.03349 0.01,-0.71615 0.0527,-0.90935 0.46257,-2.08128 0.91175,-2.60711 2.2817,-5.82974 3.91745,-9.21526 0.83935,-1.73718 0.96664,-2.04657 1.64885,-4.0075 0.64613,-1.85723 0.68435,-2.95812 0.14039,-4.044 -0.19125,-0.38179 -0.30104,-0.49764 -0.56397,-0.59511 -0.29473,-0.10924 -0.39942,-0.10257 -1.07654,0.0687 -1.63609,0.41376 -3.96912,1.99542 -6.20578,4.20715 -0.5868,0.58026 -1.12048,1.05501 -1.18596,1.05501 -0.17833,0 -0.1509,-0.18858 0.22544,-1.55023 0.48057,-1.73875 0.45486,-2.27949 -0.12148,-2.55432 -0.28696,-0.13685 -0.32118,-0.13358 -0.95471,0.0913 -0.79968,0.28389 -1.7507,0.83805 -3.03622,1.76919 -0.90492,0.65546 -1.19377,0.90633 -0.8023,0.69684 0.2235,-0.11963 0.55046,-0.11278 0.67741,0.0142 0.22685,0.22684 0.13305,0.64954 -0.73199,3.29855 -1.39663,4.27687 -3.41359,9.08611 -6.37516,15.20087 -0.40149,0.82894 -0.88161,1.8209 -1.06696,2.20436 -0.3776,0.7812 -0.47067,1.34393 -0.23051,1.39368 0.2101,0.0435 1.44363,-0.59825 2.30545,-1.19945 0.40351,-0.28149 1.17916,-0.82233 1.72366,-1.20188 l 0.99001,-0.69009 1.29443,-2.90162 c 2.86945,-6.43211 4.65109,-9.95158 6.60873,-13.05492 1.48488,-2.3539 3.00173,-3.92795 3.78522,-3.92795 0.94446,0 0.4401,2.78466 -1.12676,6.22107 -0.10224,0.22424 -0.48749,1.0381 -0.8561,1.80859 -0.36862,0.7705 -0.79194,1.69157 -0.94071,2.04683 -0.14877,0.35526 -0.6558,1.55669 -1.12673,2.66984 -1.46662,3.4667 -1.59377,3.91429 -1.60248,5.64111 -0.007,1.54089 0.0355,1.7294 0.51046,2.22513 0.32546,0.33966 0.43519,0.40165 0.71101,0.40165 0.81493,0 2.30335,-0.60069 3.37825,-1.36339 1.00093,-0.71022 1.6525,-1.35706 4.2477,-4.21686 1.1695,-1.28876 1.52442,-1.5529 1.52442,-1.13456 0,0.22033 -0.60679,1.81923 -1.42808,3.76301 -0.45797,1.08393 -0.72851,1.60614 -0.98022,1.89209 -0.33846,0.38451 -0.43906,0.62909 -0.25876,0.62909 0.20714,0 1.47026,-0.54311 2.10388,-0.90463 1.70922,-0.97517 3.04473,-2.33347 3.68322,-3.74605 0.32231,-0.71305 0.62293,-1.47015 0.85495,-2.1531 0.37638,-1.10793 0.84941,-2.06698 1.01946,-2.06698 0.1976,0 1.27544,1.90283 1.8538,3.27271 0.56234,1.33193 0.69855,1.80139 1.93648,6.6746 0.38505,1.51579 0.94696,3.72486 1.24869,4.90906 0.30172,1.1842 0.90394,3.54831 1.33824,5.25356 1.5228,5.97901 3.55087,12.04746 5.39673,16.14823 0.82854,1.84071 0.92622,2.09894 0.85959,2.27258 -0.0501,0.13071 -0.18743,0.13797 -1.45656,0.077 -9.17417,-0.4407 -21.757,1.01621 -31.50147,3.64738 -4.54433,1.22705 -7.53813,2.33771 -11.10998,4.12168 -10.464037,5.22628 -17.839352,12.95649 -20.205754,21.17801 -0.643017,2.23403 -0.753103,2.98504 -0.758812,5.1768 -0.0058,2.22169 0.09524,3.06892 0.595652,4.99518 0.973508,3.74738 3.035299,7.0028 6.006458,9.48378 0.957429,0.79947 3.199621,2.29057 4.374323,2.90899 2.992503,1.57541 6.591353,2.56148 10.547933,2.89009 1.55259,0.12894 5.45967,0.039 7.19134,-0.16561 z m 64.63598,-32.61193 c -2.6962,-0.30036 -4.61802,-0.84914 -6.88992,-1.96741 -5.26903,-2.59353 -10.1629,-7.64046 -14.03181,-14.47072 -1.06352,-1.87755 -1.73904,-3.29698 -1.62386,-3.41215 0.0759,-0.0759 0.42792,-0.045 1.4616,0.1283 4.11005,0.68909 8.16464,1.94245 13.11752,4.05489 1.45716,0.62148 2.33646,1.06261 3.70333,1.85788 3.72405,2.16671 6.37448,4.407 8.40349,7.10308 1.07258,1.4252 1.51588,2.55542 1.52012,3.87558 0.004,1.01386 -0.11037,1.32951 -0.65908,1.831 -0.35043,0.32028 -0.60978,0.47009 -1.05371,0.60868 -1.07739,0.33636 -2.85615,0.51247 -3.94768,0.39087 z m 2.42335,-0.32886 c 1.42061,-0.18736 2.1394,-0.48009 2.64013,-1.07518 0.61014,-0.72511 0.41314,-2.71873 -0.4025,-4.07322 -1.22969,-2.04211 -3.64318,-4.48091 -6.25428,-6.31988 -1.89214,-1.33261 -4.23183,-2.66503 -6.06493,-3.45388 -4.65428,-2.00291 -8.45822,-3.25179 -12.15027,-3.98909 -1.04996,-0.20967 -2.39675,-0.42187 -2.4382,-0.38417 -0.0147,0.0134 0.2257,0.52809 0.53423,1.14379 1.49085,2.97514 3.31272,5.78843 5.47773,8.45859 1.01538,1.25229 3.72498,3.96082 4.90945,4.9075 2.75327,2.20058 6.26799,3.96019 9.04301,4.52732 1.85927,0.37999 3.2174,0.45452 4.70563,0.25822 z m -42.90985,-61.40089 c -0.0444,-0.1158 0.37334,-1.51413 1.27377,-4.26343 0.76537,-2.33687 1.4754,-3.75782 2.53727,-5.07765 0.56952,-0.70786 2.17439,-2.19893 2.63258,-2.4459 0.38047,-0.20508 0.75937,-0.18927 1.10928,0.0463 0.4201,0.2828 0.54049,0.5941 0.53999,1.39631 0,0.60133 -0.0551,0.84839 -0.43046,1.94201 -0.36555,1.06508 -0.52809,1.40097 -1.08354,2.23922 -1.47502,2.22603 -3.88662,4.64118 -5.98515,5.994 -0.50773,0.32731 -0.53055,0.33381 -0.59374,0.16917 z m 1.94605,-1.50561 c 1.60704,-1.26948 3.25026,-3.063 4.45594,-4.86354 0.89948,-1.34326 1.56785,-3.35477 1.44401,-4.34589 -0.10347,-0.82817 -0.74447,-1.21625 -1.34289,-0.813 -0.28015,0.18878 -1.619,1.40642 -2.08752,1.89852 -1.31303,1.37912 -2.26659,3.3085 -3.28601,6.64871 -0.26746,0.87631 -0.57507,1.85404 -0.68357,2.17273 l -0.19729,0.57945 0.43958,-0.31533 c 0.24177,-0.17343 0.80776,-0.60617 1.25775,-0.96165 z m -96.071195,89.67858 c -6.526399,-0.49666 -11.357649,-2.11149 -16.3859,-5.47695 -3.031423,-2.02897 -5.904953,-4.70266 -8.127679,-7.56247 -4.793829,-6.16784 -7.190146,-13.72968 -6.495568,-20.49749 0.632239,-6.16039 2.863944,-11.79637 6.663347,-16.82772 2.268867,-3.00453 5.478085,-5.99142 8.67285,-8.072 l 0.813551,-0.52983 -0.684109,-0.72271 c -2.203879,-2.32825 -3.486534,-4.94603 -3.880883,-7.92051 -0.130102,-0.98134 -0.06708,-3.16346 0.120546,-4.174 0.663689,-3.57454 3.059488,-6.79619 6.151389,-8.27181 0.679687,-0.32439 0.843745,-0.374 2.088574,-0.63161 3.26517,-0.67569 5.676957,-0.34284 7.163538,0.98863 0.420728,0.37683 0.447572,0.42389 0.368464,0.64603 -0.140636,0.39492 -0.340494,0.46131 -0.620463,0.20611 -0.67052,-0.61118 -1.460156,-0.88035 -2.608381,-0.88913 -0.7795,-0.006 -1.005329,0.0272 -1.636354,0.24029 -1.427455,0.48202 -2.483467,1.15929 -3.527825,2.26258 -1.863811,1.96899 -2.822479,4.2619 -3.109453,7.43708 -0.246455,2.72688 0.145355,5.08686 1.208301,7.27791 0.450969,0.92959 1.241882,2.19617 1.371394,2.19617 0.04391,0 0.655098,-0.24743 1.358192,-0.54984 1.667533,-0.71722 2.560412,-1.02813 3.608572,-1.25653 2.564761,-0.55887 5.076494,-0.57449 6.875481,-0.0428 0.545367,0.1612 0.930484,0.46086 1.302774,1.01368 0.259668,0.38558 0.300069,0.51501 0.300069,0.96133 0,0.3567 -0.07178,0.69873 -0.23276,1.10903 -0.365357,0.93123 -0.737193,0.97688 -1.565322,0.19217 -0.869022,-0.82346 -1.930988,-1.37151 -3.228533,-1.66617 -0.956346,-0.21717 -3.288073,-0.19054 -4.411713,0.0504 -0.826972,0.17731 -2.306191,0.7488 -2.882286,1.11356 l -0.267899,0.16962 0.659268,0.59389 c 1.333921,1.20162 2.782479,2.04401 4.495043,2.61401 1.692997,0.56349 2.512715,0.70185 4.466557,0.75387 2.348547,0.0625 3.779404,-0.13581 6.006018,-0.83256 2.792761,-0.87392 4.319202,-1.77576 6.336363,-3.74364 3.244444,-3.16516 5.761822,-7.65806 12.646495,-22.57086 1.968127,-4.26313 3.724627,-8.08264 3.903336,-8.48781 1.217754,-2.76087 2.734808,-5.2218 4.642656,-7.53123 2.659017,-3.21872 6.149736,-6.16073 9.3824,-7.90759 0.436103,-0.23566 0.597248,-0.36324 0.516139,-0.40863 -0.160813,-0.09 -4.009219,-0.48476 -5.757836,-0.59063 -6.359433,-0.38505 -11.531765,0.0593 -16.105166,1.3835 -5.763822,1.66891 -11.163694,5.50861 -14.179818,10.08286 -0.609523,0.92441 -0.955728,1.67049 -1.254756,2.70404 -0.167617,0.57934 -0.196067,0.87493 -0.193832,2.01392 0.0024,1.21826 0.02299,1.39571 0.235666,2.03059 0.580156,1.73183 1.961443,2.93693 3.90189,3.40418 0.715889,0.17238 0.827305,0.17753 1.629665,0.0753 1.527518,-0.19466 1.679416,-0.20032 1.679416,-0.0626 0,0.0684 -0.222846,0.3358 -0.495213,0.5942 -1.360156,1.29036 -2.860255,1.88384 -4.750591,1.87942 -0.897316,-0.002 -1.055025,-0.0265 -1.56075,-0.24241 -1.137292,-0.48537 -2.069755,-1.27786 -2.42368,-2.05984 -0.09131,-0.20174 -0.221421,-0.78308 -0.289146,-1.29186 -0.486699,-3.6564 0.647583,-7.17598 3.676721,-11.40857 1.591119,-2.22326 2.688435,-3.49255 4.249366,-4.91533 7.029522,-6.407395 16.569834,-9.319525 28.248635,-8.622765 2.249553,0.13421 3.731782,0.32831 8.281206,1.08441 l 3.199897,0.53181 0.331184,-0.27789 c 2.573292,-2.15915 4.675896,-3.58159 7.048848,-4.7686 3.42491,-1.71323 7.6448,-2.98297 10.93773,-3.2911 6.58975,-0.61662 10.54053,-0.23864 13.87019,1.32702 1.66441,0.78263 2.4316,1.36785 3.29611,2.51428 0.70688,0.93739 1.0002,2.36321 0.76428,3.71511 -0.17894,1.02534 -0.51403,1.69114 -1.24842,2.480535 -2.54081,2.73107 -6.1976,4.5885 -10.39512,5.28008 -1.9644,0.32365 -2.43264,0.35425 -5.38274,0.35171 -4.4361,-0.004 -6.56881,-0.25662 -13.43532,-1.59259 -3.264587,-0.63517 -6.117593,-1.14564 -6.156592,-1.10158 -0.101505,0.11469 -1.132281,1.72016 -1.482576,2.30917 -1.443702,2.42751 -2.957631,5.61212 -4.401304,9.25832 -0.466425,1.17801 -2.401742,6.18109 -2.748478,7.10522 -0.02666,0.0711 0.23347,-0.27775 0.578063,-0.77512 1.069368,-1.54345 1.715562,-2.33067 2.794511,-3.40439 1.41209,-1.40525 2.726123,-2.28103 4.235752,-2.82308 1.849357,-0.66404 2.844958,-0.43563 3.415484,0.78355 0.227823,0.48685 0.262448,0.65763 0.263784,1.30121 0.0019,0.88847 -0.121034,1.33687 -0.801838,2.9261 -0.276507,0.64545 -0.560132,1.36733 -0.630282,1.60416 -0.07016,0.23685 -0.977095,2.13588 -2.015441,4.22008 -2.042078,4.09892 -2.594916,5.28611 -3.449032,7.40666 -0.500738,1.24319 -0.551692,1.4257 -0.520907,1.86594 0.04618,0.66034 0.168491,0.79367 0.666769,0.72682 0.81739,-0.10966 1.421914,-0.51205 2.785854,-1.85437 0.701438,-0.69033 1.295633,-1.27445 1.32043,-1.29807 0.08986,-0.0856 0.289359,0.29754 0.288806,0.5546 -6.07e-4,0.33255 -0.110924,0.49228 -1.136699,1.64749 -1.31694,1.48311 -2.961665,2.95016 -4.245477,3.78684 -1.196832,0.77999 -1.549248,0.92545 -2.348948,0.96952 -1.263527,0.0696 -1.825063,-0.29412 -2.043126,-1.32349 -0.237777,-1.12242 -0.118924,-2.31614 0.393841,-3.95568 0.287392,-0.91891 0.702037,-1.84691 2.231912,-4.99518 3.690676,-7.59488 4.306976,-9.00429 4.306976,-9.84948 0,-0.40366 -0.313384,-0.90449 -0.590932,-0.94439 -0.62262,-0.0896 -1.830014,0.98151 -3.337027,2.96015 -2.249072,2.95294 -4.128245,6.28921 -6.862107,12.18297 -0.92889,2.00254 -1.480379,3.16448 -2.41172,5.08132 -0.528021,1.08673 -0.742847,1.4332 -1.155532,1.86354 -1.113724,1.16141 -2.485399,1.81418 -5.579519,2.65527 -1.354656,0.36824 -1.594135,0.38384 -1.594135,0.10383 0,-0.11017 0.100514,-0.29425 0.223369,-0.40909 0.741604,-0.69321 2.057382,-2.45363 3.020571,-4.04131 1.61174,-2.65672 2.574316,-4.68422 7.911895,-16.66497 4.296281,-9.64345 6.337644,-14.07359 7.375398,-16.00599 0.756393,-1.40847 1.492546,-2.65348 1.888299,-3.19357 0.136393,-0.18613 0.234261,-0.35215 0.217484,-0.36893 -0.01677,-0.0168 -0.754325,-0.14871 -1.638997,-0.29319 l -1.608494,-0.26269 -0.555993,0.48813 c -1.631465,1.43235 -4.011749,4.31858 -5.504554,6.67459 -1.973359,3.11445 -3.174854,5.52471 -6.203698,12.44491 -2.155616,4.92508 -4.617535,10.31847 -5.818314,12.74633 -2.728006,5.51577 -5.23789,9.18766 -8.36224,12.23372 -1.377595,1.34308 -1.966446,1.84579 -3.171325,2.70738 -3.666943,2.62217 -7.772432,4.35059 -11.801966,4.96866 -1.500338,0.23013 -4.334579,0.20723 -5.785484,-0.0468 -3.216583,-0.56307 -6.013237,-1.59921 -8.198861,-3.03765 l -0.678201,-0.44636 -0.310718,0.16452 c -1.430999,0.75768 -4.019378,3.36736 -6.014489,6.064 -5.531058,7.47592 -7.620434,16.04176 -6.100867,25.0118 0.736887,4.34987 2.267338,8.49796 4.721335,12.79659 1.123495,1.96801 2.17899,3.33781 3.886737,5.04415 4.131419,4.12797 9.370461,6.47083 16.370513,7.32072 1.492236,0.18117 5.582382,0.25743 7.242584,0.13502 8.340659,-0.61494 16.398431,-5.05725 23.298036,-12.84439 4.128993,-4.66012 7.879067,-10.96115 12.737323,-21.40179 0.851896,-1.83076 4.894388,-10.69833 5.476998,-12.01427 0.363204,-0.82038 1.588503,-3.90069 1.561626,-3.92582 -0.01112,-0.0104 -0.269359,0.37453 -0.573867,0.85538 -0.304509,0.48085 -1.337391,2.05633 -2.295296,3.50105 -3.739322,5.63971 -6.675418,9.33529 -9.992454,12.57721 -1.77896,1.73867 -2.294751,2.15751 -3.202793,2.6008 -0.678382,0.33117 -0.811617,0.36619 -1.395894,0.36673 -0.599265,8.2e-4 -0.680149,-0.022 -1.119611,-0.31288 -0.914127,-0.605 -1.027852,-0.83194 -1.094558,-2.18409 -0.08708,-1.76513 0.249956,-3.27135 1.52244,-6.80379 0.964266,-2.67682 2.051097,-5.11891 3.775369,-8.4832 3.708652,-7.23607 5.001106,-10.05274 6.043124,-13.16986 0.380082,-1.137 0.376148,-1.25852 -0.05356,-1.6542 -0.316902,-0.29181 -0.606427,-0.33942 -1.451243,-0.23862 -1.516386,0.18092 -6.684369,1.70303 -9.258318,2.72683 -6.204353,2.46781 -11.185864,5.62377 -15.255226,9.66472 -2.899009,2.87876 -4.90971,5.68051 -6.707063,9.34574 -2.294276,4.67857 -3.358134,9.6737 -3.358134,15.76743 0,1.85521 0.024,2.22151 0.212166,3.23867 0.320172,1.73071 0.606583,2.46203 1.250093,3.19195 0.66993,0.7599 1.648106,0.83577 2.912233,0.22588 0.552291,-0.26644 1.003774,-0.73199 1.424251,-1.46858 0.227341,-0.39825 0.522168,-0.46029 0.436537,-0.0919 -0.130631,0.56205 -0.617226,1.37577 -1.153547,1.92903 -0.692255,0.71413 -1.173155,0.88998 -2.274837,0.83188 -1.074128,-0.0567 -1.92516,-0.50964 -3.065268,-1.63156 -2.116125,-2.08235 -3.345091,-4.73285 -3.888022,-8.38529 -0.170103,-1.14434 -0.143387,-4.61782 0.04604,-5.98561 0.212321,-1.53311 0.623935,-3.42588 0.973905,-4.47844 0.357123,-1.07408 1.190189,-2.93705 1.918046,-4.28929 5.266273,-9.78395 15.58954,-16.7574 30.802006,-20.807 2.506415,-0.66721 6.490134,-1.52503 7.850313,-1.69041 1.757596,-0.2137 3.409184,0.50206 3.717092,1.6109 0.25202,0.90757 0.03714,2.2859 -0.622363,3.99202 -0.897389,2.32153 -1.618618,3.84934 -5.060403,10.71961 -3.134711,6.25733 -4.552311,9.54358 -4.992746,11.57409 -0.252209,1.16271 -0.266108,1.79331 -0.04313,1.95635 0.09049,0.0662 0.191691,0.12031 0.22488,0.12031 0.12946,0 2.209467,-2.06768 2.985838,-2.96815 1.334406,-1.54768 3.409189,-4.38611 6.501996,-8.8951 2.541411,-3.70512 5.448905,-8.83228 8.681304,-15.30883 2.155443,-4.31875 2.249263,-4.4884 2.631133,-4.7575 0.68214,-0.4807 1.35705,-0.63977 2.92438,-0.6892 1.22192,-0.0385 1.39961,-0.0266 1.52869,0.10244 0.0804,0.0804 0.14606,0.23424 0.14606,0.34201 0,0.10777 -0.28542,0.79292 -0.63426,1.52255 -1.60101,3.34864 -3.46293,7.79974 -6.301056,15.06336 -3.343289,8.55642 -4.675668,11.78225 -6.458219,15.63596 -3.692501,7.98285 -7.598026,14.19329 -12.345715,19.63177 -1.998215,2.28896 -6.82547,6.92964 -9.011736,8.66345 -5.398091,4.2809 -12.435639,7.09076 -19.940029,7.96136 -1.098014,0.12739 -5.269415,0.23497 -6.241635,0.161 z m 5.004211,-0.29495 c 5.299472,-0.41987 10.497691,-1.89399 15.14878,-4.29592 4.062375,-2.09792 6.962339,-4.34309 11.632375,-9.00591 4.090247,-4.08393 6.763969,-7.44118 9.913106,-12.44735 3.532116,-5.615 6.661668,-12.27212 10.992315,-23.38264 3.883538,-9.96345 5.552498,-13.9926 7.418048,-17.90835 0.31452,-0.66018 0.56026,-1.2609 0.54607,-1.33492 -0.0215,-0.11218 -0.21214,-0.13893 -1.14436,-0.16065 -1.29186,-0.0301 -2.0357,0.10679 -2.81433,0.51788 l -0.49005,0.25872 -2.062099,4.14624 c -2.894679,5.82027 -4.75446,9.18932 -7.447096,13.49066 -1.000839,1.5988 -1.351225,2.11954 -3.129209,4.65069 -3.735825,5.31835 -5.114336,7.03271 -7.094089,8.8224 -0.768895,0.69507 -1.066783,0.80386 -1.392935,0.50869 -0.344379,-0.31165 -0.07065,-2.31427 0.545574,-3.99141 0.959888,-2.61249 2.00833,-4.88605 5.024028,-10.89467 3.331552,-6.63794 4.431914,-9.07057 5.002157,-11.05854 0.194086,-0.67662 0.223047,-0.91951 0.194472,-1.63097 -0.03024,-0.75274 -0.05723,-0.86697 -0.271172,-1.14746 -0.765911,-1.00417 -2.192212,-1.2859 -4.365513,-0.86232 -20.691208,4.03281 -33.635195,12.53344 -38.897438,25.54489 -1.195465,2.95592 -1.765337,7.51131 -1.366344,10.92219 0.42457,3.62953 1.621654,6.30649 3.787328,8.46934 0.768003,0.767 1.082829,1.01741 1.599231,1.27199 1.51023,0.74453 2.807252,0.51628 3.706995,-0.65237 0.278978,-0.36236 0.279529,-0.36479 0.03104,-0.13721 -0.453749,0.41558 -1.369125,0.78163 -2.066586,0.82639 -0.924632,0.0593 -1.198369,-0.0183 -1.691488,-0.47952 -0.747968,-0.69963 -1.121138,-1.5548 -1.470152,-3.36903 -0.175587,-0.91273 -0.19157,-1.24062 -0.185138,-3.798 0.0075,-2.98061 0.100268,-4.17344 0.515755,-6.63154 1.156101,-6.83968 4.253316,-12.86981 9.195703,-17.90356 5.531032,-5.63329 13.033143,-9.75423 22.140933,-12.16211 2.231623,-0.58998 2.703153,-0.68056 3.543117,-0.68056 h 0.726422 l 0.331041,0.33104 c 0.501644,0.50165 0.503216,0.67835 0.01867,2.0987 -0.97855,2.86844 -1.680559,4.43277 -4.552364,10.14436 -3.466581,6.89449 -4.046083,8.14908 -5.072108,10.98078 -1.433427,3.95612 -1.610377,4.68228 -1.615964,6.63155 -0.0048,1.67359 0.03288,1.77009 0.913614,2.33983 0.57714,0.37335 0.631476,0.39074 1.112162,0.35597 0.380885,-0.0276 0.702304,-0.13482 1.304798,-0.43545 0.668727,-0.33368 0.996544,-0.5803 2.005157,-1.50849 4.204666,-3.86937 7.821595,-8.51968 13.395792,-17.22306 0.606311,-0.94667 0.945823,-1.39951 1.049275,-1.39951 0.169979,0 0.194033,0.14991 0.07192,0.44809 -0.04455,0.10882 -0.359681,0.91482 -0.700263,1.79113 -0.782774,2.01406 -1.127778,2.82147 -2.300053,5.38274 -0.520319,1.13684 -1.420049,3.11338 -1.999399,4.39232 -3.914069,8.64049 -6.322762,13.44447 -9.068235,18.08602 -2.458472,4.15634 -5.002877,7.48228 -8.067964,10.54614 -5.665759,5.66348 -12.072279,9.22973 -18.562719,10.33312 -1.70993,0.2907 -2.485031,0.3583 -4.710426,0.41081 -11.790616,0.27827 -20.685962,-4.00387 -25.655251,-12.35019 -2.885847,-4.84704 -4.607123,-9.92829 -5.260229,-15.52836 -0.174131,-1.49309 -0.149611,-5.67417 0.04192,-7.14828 0.844113,-6.49668 3.395283,-12.19542 7.877459,-17.59649 1.769632,-2.13242 4.098668,-4.19547 4.990814,-4.42082 0.141648,-0.0357 0.417584,0.0966 1.033487,0.49585 2.058492,1.33435 4.47114,2.26109 7.342598,2.82042 4.650809,0.90591 9.412136,0.0562 14.458511,-2.58024 5.248551,-2.74207 9.148877,-6.66204 12.802397,-12.86684 0.909898,-1.54529 2.721837,-5.10962 3.808978,-7.49278 1.76768,-3.87499 3.042764,-6.72205 4.455007,-9.94731 1.763538,-4.02754 2.307105,-5.21867 3.144162,-6.88991 2.29036,-4.57284 4.503996,-7.81331 7.3211,-10.71713 1.054207,-1.08665 1.188407,-1.25326 0.861239,-1.06919 -0.213156,0.11992 -0.62009,0.34705 -0.904301,0.50474 -0.750045,0.41615 -2.468859,1.56852 -3.31577,2.22305 -2.740717,2.11813 -5.610908,5.16371 -7.472587,7.92924 -0.599936,0.8912 -0.906206,1.39621 -1.677271,2.76564 -0.12002,0.21316 -0.606153,1.24019 -1.080297,2.28229 -5.183091,11.39167 -9.05871,19.53914 -10.938393,22.99507 -2.613489,4.80509 -4.72849,7.57148 -7.218501,9.44168 -1.510313,1.13437 -2.785367,1.764 -4.848768,2.39436 -5.093679,1.5561 -10.05217,1.03136 -13.773151,-1.45756 -0.844126,-0.56463 -2.167771,-1.75298 -2.167771,-1.9462 0,-0.333 2.111638,-1.2657 3.443545,-1.521 1.322888,-0.25357 3.445948,-0.25074 4.565976,0.006 1.060666,0.24322 2.204385,0.80308 2.958884,1.44837 0.824443,0.70514 0.955254,0.78091 1.116768,0.64686 0.229049,-0.1901 0.602226,-1.34788 0.5405,-1.67692 -0.08533,-0.45483 -0.678667,-1.21888 -1.105437,-1.42348 -0.813023,-0.38976 -1.532585,-0.48685 -3.553777,-0.47947 -1.714515,0.006 -2.001213,0.0292 -3.014335,0.24126 -1.400324,0.2931 -2.243636,0.57449 -4.021669,1.34192 -0.772276,0.33333 -1.481649,0.60587 -1.576384,0.60563 -0.322247,-8.1e-4 -1.447119,-1.86193 -2.003816,-3.31534 -0.53344,-1.3927 -0.876563,-3.22416 -0.87937,-4.69375 -0.0019,-0.95761 0.229791,-3.26228 0.393828,-3.91863 0.746143,-2.98554 2.298603,-5.34464 4.449748,-6.7618 1.142386,-0.75259 2.699697,-1.29079 3.734993,-1.29079 0.816283,0 2.115086,0.42187 2.69492,0.87534 0.152564,0.11932 0.233467,0.13733 0.301432,0.0671 0.246537,-0.25471 -1.340562,-1.21703 -2.490816,-1.51026 -1.579807,-0.40276 -4.953503,-0.027 -6.645251,0.74001 -2.074001,0.9404 -4.114286,3.02051 -5.185461,5.28667 -0.53969,1.14177 -0.863254,2.22716 -1.049004,3.51889 -0.11506,0.80014 -0.11647,2.67105 -0.0027,3.52955 0.371675,2.80363 1.79595,5.60999 3.966815,7.81616 0.379901,0.38608 0.690727,0.73159 0.690727,0.76781 0,0.0362 -0.418522,0.34174 -0.930051,0.67892 -4.057242,2.6744 -7.357811,5.94524 -9.965643,9.87587 -2.238578,3.37407 -3.703993,6.74122 -4.649686,10.68381 -1.104802,4.60588 -1.103613,8.49325 0.004,12.9041 1.905662,7.5893 6.967298,14.54763 13.991205,19.23398 4.585266,3.0593 9.576071,4.78621 15.243928,5.27466 1.204443,0.10381 4.545619,0.10737 5.822387,0.006 z m 22.878345,-65.84709 c 1.291248,-0.37687 2.372228,-0.84363 3.147767,-1.35921 0.704302,-0.46822 1.539386,-1.33952 1.801303,-1.87943 0.599085,-1.23494 2.127577,-4.45663 2.954681,-6.22774 2.967242,-6.3539 4.708264,-9.36674 7.261535,-12.56612 1.304393,-1.63447 2.249637,-2.37638 3.027671,-2.37638 0.380955,0 0.818946,0.67173 0.818946,1.256 0,0.4619 -0.569757,2.11372 -1.140144,3.30547 -0.284203,0.5938 -0.720734,1.50596 -0.970069,2.02701 -0.249336,0.52105 -0.781669,1.62559 -1.18296,2.45453 -0.401292,0.82894 -1.218738,2.51988 -1.816546,3.75764 -1.75455,3.6328 -2.242709,5.56869 -1.822265,7.22659 0.159278,0.62806 0.479733,0.93767 1.118497,1.08062 1.286748,0.28796 3.286551,-0.91988 5.993974,-3.62021 1.634308,-1.63003 2.14495,-2.243 2.144653,-2.57442 -1.73e-4,-0.20176 -0.126089,-0.10008 -1.055018,0.85205 -1.155267,1.18413 -1.800754,1.65984 -2.582212,1.90306 -1.012217,0.31503 -1.32722,0.13747 -1.411515,-0.79567 -0.04616,-0.51102 -0.02004,-0.62925 0.35027,-1.58568 0.729743,-1.88474 1.786472,-4.17855 3.650215,-7.92339 1.013693,-2.03683 1.918668,-3.93085 2.011053,-4.20895 0.09234,-0.27808 0.361831,-0.95631 0.598776,-1.50717 0.512867,-1.19234 0.850104,-2.30475 0.850104,-2.80416 0,-0.46654 -0.216417,-1.19175 -0.48047,-1.61004 -0.565328,-0.89553 -1.774012,-0.86627 -3.782662,0.0916 -2.339253,1.11551 -4.572853,3.37674 -6.660905,6.74331 -0.372901,0.60123 -0.626219,0.92507 -0.724218,0.92583 -0.08289,6.1e-4 -0.150717,-0.0486 -0.150717,-0.10954 0,-0.0609 0.215007,-0.64648 0.477795,-1.3013 0.262785,-0.65481 0.848159,-2.16491 1.300829,-3.35576 2.291523,-6.02839 3.81586,-9.45845 5.537132,-12.45966 0.747208,-1.30283 1.756246,-2.88007 1.898939,-2.96826 0.105394,-0.0652 2.149819,0.27311 4.940364,0.81736 3.964896,0.77331 4.396846,0.85503 5.653436,1.06957 4.56375,0.77915 9.33765,1.04581 12.57409,0.70235 4.90577,-0.52062 8.81017,-2.18099 11.58366,-4.92601 1.03701,-1.02638 1.32501,-1.416505 1.56264,-2.116755 0.39138,-1.15337 0.34228,-2.57919 -0.12461,-3.61841 -0.31213,-0.69476 -1.18237,-1.66574 -1.95166,-2.1776 -1.86476,-1.24078 -4.12459,-2.01625 -6.93609,-2.38015 -2.0454,-0.26474 -7.7163,-0.0824 -10.07649,0.32391 -1.77903,0.30629 -4.5233,1.09487 -6.50236,1.86846 -1.38493,0.54136 -4.09432,1.89833 -5.279502,2.64418 -1.209513,0.76117 -2.83368,1.95497 -3.893965,2.86215 -0.484433,0.41447 -0.948813,0.75358 -1.03197,0.75358 -0.08316,0 -1.657771,-0.25088 -3.499142,-0.5575 -5.700547,-0.94924 -7.441988,-1.12101 -11.357467,-1.12022 -3.539812,6e-4 -5.806648,0.21241 -8.87076,0.82848 -7.882899,1.58492 -14.625026,5.584725 -19.002574,11.273385 -2.593249,3.36994 -3.986494,6.01318 -4.560613,8.6523 -0.346892,1.59459 -0.297475,4.01409 0.103892,5.08684 0.273965,0.73223 1.123802,1.49445 2.253047,2.02076 1.528188,0.71223 3.921546,0.20277 5.704857,-1.21436 0.362925,-0.2884 0.644561,-0.53967 0.625862,-0.55836 -0.01869,-0.0187 -0.283639,0.007 -0.588757,0.0573 -1.996533,0.3285 -3.795136,-0.20305 -5.129816,-1.51606 -1.594845,-1.56893 -2.02183,-4.13735 -1.13834,-6.84737 0.87617,-2.68757 4.197979,-6.44058 7.790674,-8.80197 0.999898,-0.65721 3.001033,-1.76371 4.138107,-2.2881 2.294188,-1.05803 5.387004,-1.91035 8.46874,-2.33382 2.535309,-0.34838 3.472524,-0.39907 7.32053,-0.39599 3.868608,0.003 4.826006,0.057 8.466702,0.47622 0.796184,0.0917 1.493786,0.16729 1.550231,0.16803 0.05644,6e-4 0.158266,0.0366 0.226272,0.0795 0.106405,0.0674 0.106767,0.10018 0.0026,0.23552 -0.08266,0.1074 -0.05359,0.0978 0.09166,-0.0303 0.242257,-0.21356 0.215897,-0.21509 2.602643,0.15117 0.859268,0.13185 1.356451,0.24506 1.356451,0.30886 0,0.0554 -0.267941,0.50119 -0.595424,0.99064 -0.915716,1.36863 -2.224129,3.84776 -3.59436,6.81043 -0.684744,1.48054 -1.32563,2.86629 -1.424192,3.07945 -0.09856,0.21315 -0.246796,0.54257 -0.329411,0.73205 -0.08261,0.18947 -0.275295,0.61578 -0.428177,0.94736 -0.382286,0.82911 -1.180512,2.61034 -2.605161,5.81336 -1.476747,3.32016 -3.653153,8.18251 -4.028402,8.99994 -0.152212,0.33158 -0.442969,0.97105 -0.646129,1.42105 -0.203159,0.44999 -0.530476,1.16697 -0.72737,1.59329 -0.196896,0.42631 -0.500528,1.08516 -0.674735,1.4641 -0.455657,0.99117 -1.575351,3.10524 -2.280727,4.3062 -1.017213,1.73189 -1.995168,3.07716 -3.016077,4.14889 l -0.506474,0.53169 0.803975,-0.2154 c 0.442185,-0.11847 1.259329,-0.3483 1.815875,-0.51073 z m 42.523719,-40.05424 c -2.25869,-0.15647 -4.28558,-0.39133 -6.58847,-0.76341 -1.55189,-0.25075 -11.39998,-2.186555 -11.583665,-2.276965 -0.07109,-0.035 -0.140727,-0.17748 -0.154823,-0.3167 -0.07461,-0.73633 2.676238,-3.0428 5.501448,-4.61275 1.87097,-1.0397 4.29525,-2.06949 6.10913,-2.59505 1.72245,-0.49908 4.26833,-0.9803 6.45801,-1.2207 1.27667,-0.14017 4.53508,-0.1922 5.48206,-0.0875 2.65734,0.2937 4.78463,0.79535 6.09467,1.43724 1.09026,0.53419 2.25228,1.56114 2.77421,2.45175 0.62511,1.06668 0.58908,2.55834 -0.0948,3.92539 -0.43044,0.86042 -0.85609,1.386925 -1.55283,1.920785 -1.3808,1.05801 -3.21968,1.69744 -5.555,1.93161 -1.94777,0.19531 -5.50939,0.30199 -6.88991,0.20635 z m 6.12502,-0.37589 c 2.71685,-0.23046 4.60372,-0.81558 6.03155,-1.87037 1.71982,-1.270525 2.58714,-3.662185 1.89456,-5.224405 -0.44177,-0.99649 -1.66277,-2.1604 -2.89876,-2.76324 -2.10482,-1.02657 -6.32983,-1.64966 -9.7234,-1.43396 -6.50313,0.41334 -11.8301,2.15547 -16.43655,5.37538 -1.603968,1.12117 -3.078434,2.52281 -3.078434,2.92638 0,0.0923 0.116181,0.15412 0.366025,0.19482 0.201318,0.0328 1.799992,0.347625 3.552619,0.699605 7.52422,1.51113 9.97815,1.91317 13.30613,2.17998 1.18303,0.0948 5.48707,0.043 6.98626,-0.0842 z m -16.36985,62.35295 c -1.07539,-0.22482 -2.07251,-1.03227 -2.58569,-2.0938 -0.89202,-1.84524 -1.04872,-4.33867 -0.50962,-8.10893 0.25217,-1.76352 0.38532,-2.33907 0.90297,-3.90275 1.45954,-4.40894 3.51841,-7.9495 6.17477,-10.61853 0.99525,-0.99999 1.58041,-1.4431 2.54506,-1.92723 1.07246,-0.53823 1.99263,-0.66775 3.09556,-0.43574 1.23852,0.26052 2.34324,0.88056 3.11834,1.75021 0.54086,0.60683 0.72458,0.98267 0.98799,2.02103 0.61089,2.4082 0.42634,5.08991 -0.59205,8.60355 -1.18645,4.09343 -3.00909,7.57246 -5.46469,10.43095 -2.39111,2.78343 -5.78332,4.67623 -7.67264,4.28124 z m 1.8102,-0.42491 c 2.51293,-0.84191 4.98311,-2.87015 7.03096,-5.77306 2.27432,-3.22395 4.03828,-7.50601 4.77178,-11.58366 0.26702,-1.48443 0.26865,-3.69457 0.004,-4.93307 -0.10418,-0.48689 -0.26529,-1.0876 -0.35802,-1.33492 -0.39872,-1.06346 -1.6741,-2.16251 -3.03831,-2.61823 -0.58605,-0.19579 -0.85526,-0.23598 -1.56869,-0.23426 -0.73086,0.002 -0.95236,0.0377 -1.46306,0.2374 -0.95976,0.37529 -1.82898,0.968 -2.78731,1.90065 -2.83762,2.76158 -4.91158,6.32503 -6.4698,11.11637 -0.46731,1.43694 -0.58391,1.99167 -0.86773,4.12844 -0.44177,3.32587 -0.24875,5.67368 0.60556,7.36606 0.31771,0.62938 0.99613,1.3072 1.60798,1.60654 0.91667,0.44849 1.47729,0.47543 2.53302,0.12174 z m -1.07468,-1.88934 c -0.53309,-0.58905 -0.48511,-2.69762 0.1305,-5.73538 0.91002,-4.49062 2.58308,-8.91149 4.77957,-12.62951 0.75234,-1.27346 0.95677,-1.56508 1.89682,-2.70575 1.2911,-1.56661 2.21985,-2.15987 2.6453,-1.68975 0.60276,0.66605 0.29679,3.99819 -0.67944,7.39957 -0.94666,3.29835 -3.35471,8.97009 -4.95481,11.67024 -0.92664,1.56369 -2.03495,2.88755 -2.99853,3.58169 -0.43711,0.31489 -0.61195,0.33812 -0.81941,0.10889 z m 0.78154,-0.4249 c 0.95438,-0.75705 1.88233,-1.86857 2.73793,-3.27959 1.71161,-2.8227 4.30143,-8.99927 5.20877,-12.42261 0.78892,-2.97657 1.03018,-6.28922 0.47358,-6.5028 -0.53868,-0.20672 -2.37149,1.67266 -3.68156,3.7751 -2.43474,3.90737 -4.12989,8.28408 -5.1898,13.39967 -0.30821,1.48751 -0.53458,3.95517 -0.42042,4.58277 0.0642,0.35329 0.2709,0.77809 0.3785,0.77809 0.0419,0 0.26375,-0.14878 0.493,-0.33063 z m 13.98077,-1.21394 c -2.00117,-0.60873 -2.41047,-2.92211 -1.24288,-7.02475 1.05139,-3.69428 2.98707,-9.413 3.70869,-10.95682 0.15989,-0.34207 0.29072,-0.66055 0.29072,-0.70774 0,-0.0471 0.15571,-0.5618 0.34602,-1.1436 0.37168,-1.13621 0.65898,-2.54179 0.54319,-2.65751 -0.1592,-0.1591 -0.73439,0.26878 -1.82879,1.36042 -0.85153,0.84939 -1.20218,1.14522 -1.33493,1.12626 -0.30417,-0.0434 -0.27651,-0.43291 0.0675,-0.95008 0.70227,-1.05588 3.5684,-3.55734 4.92434,-4.2978 1.05837,-0.57796 2.1489,-0.65257 2.65063,-0.18134 0.37621,0.35333 0.48851,0.70178 0.48851,1.51573 0,1.20999 -0.473,2.74982 -2.75506,8.96908 -2.01628,5.49491 -2.80341,8.00668 -3.35896,10.71866 -0.28718,1.4019 -0.31234,1.67114 -0.15149,1.62074 0.17532,-0.0549 1.87059,-2.12359 2.6989,-3.29334 2.42471,-3.42421 4.63291,-7.92971 6.62852,-13.5245 1.72876,-4.84665 2.16541,-5.96817 2.44279,-6.27428 0.87894,-0.96999 2.85834,-1.85807 4.15217,-1.86294 0.53847,-0.002 0.63028,0.12421 0.56245,0.77318 -0.0781,0.74751 -0.59127,2.23625 -2.8796,8.35447 -2.67143,7.14247 -3.78229,10.57472 -4.1991,12.97406 -0.16022,0.92227 -0.13654,1.37787 0.0896,1.7229 l 0.13755,0.20993 0.3386,-0.26818 c 0.47307,-0.37468 0.9915,-1.00028 2.00685,-2.42173 0.48143,-0.674 0.92379,-1.24079 0.983,-1.25954 0.0767,-0.0242 0.10765,0.0945 0.10765,0.4126 0,0.39456 -0.0716,0.57372 -0.61419,1.53587 -0.99892,1.7715 -1.51604,2.51035 -2.30285,3.29022 -0.54445,0.53968 -0.91629,0.82394 -1.38926,1.06205 -0.59343,0.29876 -0.68583,0.32075 -1.13905,0.271 -0.69951,-0.0768 -1.30968,-0.2745 -1.59935,-0.51824 -0.31375,-0.26401 -0.67567,-1.06283 -0.84898,-1.87386 -0.16742,-0.7835 -0.11058,-2.40802 0.13626,-3.89447 0.0941,-0.56652 0.15799,-1.04311 0.14201,-1.05909 -0.016,-0.016 -0.27406,0.37003 -0.57351,0.85779 -1.94927,3.17503 -3.08957,4.71995 -4.60097,6.23357 -1.18598,1.18773 -1.29019,1.2503 -2.05571,1.23435 -0.19539,-0.004 -0.45241,-0.0369 -0.57114,-0.073 z m 1.23729,-0.25944 c 0.38244,-0.1454 2.14679,-1.99813 3.03898,-3.19117 1.02457,-1.37008 1.43287,-1.99189 3.37888,-5.14575 0.12729,-0.20631 0.29192,-0.36594 0.37748,-0.36603 0.162,-1.7e-4 0.15909,0.12722 -0.0266,1.16252 -0.48519,2.70506 -0.43905,4.42022 0.15135,5.62461 0.20313,0.41441 0.30984,0.52545 0.69025,0.71832 0.24749,0.12547 0.68691,0.25563 0.9765,0.28924 0.49127,0.0571 0.56783,0.0405 1.14332,-0.2457 0.77251,-0.38427 1.59265,-1.12367 2.22263,-2.00383 0.58861,-0.82235 1.99871,-3.25997 1.95591,-3.38114 -0.0169,-0.0477 -0.36009,0.38548 -0.76272,0.9627 -0.82373,1.18094 -2.11028,2.55731 -2.39043,2.55731 -0.2343,0 -0.52263,-0.46829 -0.5897,-0.95772 -0.12679,-0.92543 0.73458,-4.27326 2.14677,-8.34366 0.77765,-2.24146 0.92539,-2.64761 2.55298,-7.0191 2.30203,-6.18291 2.50045,-6.7744 2.50045,-7.45396 0,-0.24591 -0.0133,-0.25413 -0.41081,-0.25413 -0.95385,0 -2.52216,0.64699 -3.49318,1.44107 -0.63384,0.51833 -0.56697,0.36208 -2.75541,6.43927 -2.20418,6.1209 -4.27359,10.32655 -6.84404,13.90901 -1.18156,1.64678 -2.58559,3.2727 -2.82607,3.2727 -0.23419,0 -0.31651,-0.4264 -0.20781,-1.07654 0.19537,-1.16853 0.71458,-3.29163 1.21504,-4.96834 0.56475,-1.89208 0.91553,-2.90168 2.4182,-6.95982 2.80418,-7.57303 3.14583,-9.0865 2.25277,-9.97955 -0.29278,-0.29278 -0.29527,-0.29343 -0.91441,-0.24162 -0.84861,0.071 -1.7088,0.51296 -3.05248,1.56826 -1.6961,1.33211 -3.71911,3.43514 -3.50774,3.6465 0.0252,0.0252 0.53866,-0.44071 1.14097,-1.03541 1.35548,-1.33837 1.76485,-1.62169 2.13691,-1.47892 0.16128,0.0619 0.15897,0.93223 -0.005,1.62457 -0.14968,0.63464 -0.87452,2.91124 -0.99308,3.11914 -0.33135,0.58102 -2.23522,6.01173 -3.05686,8.71958 -0.8862,2.92058 -1.09199,3.71022 -1.2112,4.64741 -0.23606,1.85572 -0.14354,2.72065 0.37914,3.54466 0.44795,0.70618 1.63414,1.13467 2.36837,0.85552 z M 96.813789,136.97787 c -0.35732,-0.14077 -0.500256,-0.25621 -0.65959,-0.53268 -1.052471,-1.82626 -0.718871,-5.4142 0.950787,-10.22589 1.762434,-5.07902 4.362734,-9.15795 7.502334,-11.76846 2.72233,-2.26353 4.87126,-3.208 7.28976,-3.20386 0.48135,8.1e-4 1.13323,0.0562 1.44863,0.12304 0.56378,0.11949 0.58414,0.11738 1.20904,-0.12527 0.77179,-0.29968 2.33751,-0.62221 2.84338,-0.58571 0.34841,0.0251 0.37086,0.0427 0.3966,0.31052 0.0215,0.22398 -0.15371,0.62374 -0.83052,1.89472 -1.03847,1.95014 -3.42048,6.70614 -4.20421,8.39427 -1.61159,3.47132 -3.37331,7.58466 -3.78959,8.84807 -0.31567,0.95803 -0.42391,1.85334 -0.27591,2.28228 0.10121,0.29331 0.15065,0.34012 0.33278,0.31507 0.41993,-0.0577 1.18261,-0.54767 2.10874,-1.35455 0.99869,-0.87011 1.26732,-0.98019 1.31824,-0.54019 0.0222,0.1921 -0.16806,0.43131 -1.1829,1.48702 -2.27854,2.37032 -3.0035,2.85708 -4.40048,2.95453 -0.61497,0.0429 -0.66233,0.0329 -0.93384,-0.19547 -0.6034,-0.50774 -1.00084,-1.45186 -1.09712,-2.60624 l -0.058,-0.69501 -0.21338,0.31742 c -0.78031,1.16077 -2.18169,2.6314 -3.29147,3.4541 -1.20173,0.89087 -2.895957,1.6497 -3.6562,1.6376 -0.193021,-0.003 -0.556225,-0.0865 -0.807119,-0.18531 z m 1.643098,-0.24483 c 0.846541,-0.28034 1.879053,-0.8302 2.661093,-1.41713 0.88427,-0.66366 2.24708,-2.06537 3.03871,-3.12546 0.32527,-0.43559 0.64006,-0.79198 0.69953,-0.79198 0.0707,0 0.12701,0.20131 0.16268,0.58134 0.11938,1.27229 0.41586,2.15988 0.89467,2.67855 0.30332,0.32855 0.365,0.35731 0.76606,0.35731 1.22933,0 2.18427,-0.60563 4.0884,-2.59295 1.86656,-1.94808 1.90387,-2.06052 0.18901,-0.56956 -1.20736,1.04974 -2.16739,1.3618 -2.44292,0.79411 -0.17964,-0.37014 -0.145,-1.34836 0.0765,-2.15865 0.53159,-1.94511 3.4072,-8.42117 6.2026,-13.96867 1.15009,-2.28237 1.62817,-3.20478 2.50729,-4.83761 0.34404,-0.639 0.33352,-0.78136 -0.0577,-0.78136 -0.53059,0 -2.02593,0.34369 -2.67996,0.61597 l -0.62526,0.26029 -0.57753,-0.14484 c -0.87874,-0.22038 -2.27816,-0.18894 -3.30059,0.0741 -1.11632,0.28725 -1.63451,0.49346 -2.54168,1.01145 -3.06738,1.75149 -5.66164,4.46525 -7.731104,8.08723 -1.512924,2.64793 -3.149563,7.06334 -3.67146,9.90507 -0.301611,1.64225 -0.39575,2.92027 -0.279458,3.79372 0.1742,1.30842 0.495587,1.97682 1.074233,2.23411 0.475969,0.21163 0.896748,0.21025 1.546992,-0.005 z m 1.504618,-2.2987 c -0.06543,-0.15003 -0.103689,-0.72614 -0.104469,-1.57176 -9.28e-4,-1.60038 0.172394,-2.54924 0.828504,-4.52151 1.84502,-5.54615 4.39285,-9.96455 7.63752,-13.24487 1.66726,-1.68559 2.91275,-2.3289 3.71032,-1.91646 0.2752,0.14231 0.27877,0.15187 0.22081,0.59084 -0.0441,0.33402 -0.20775,0.69647 -0.65106,1.44195 -0.85364,1.43554 -2.03875,3.92479 -3.44169,7.22905 -2.55954,6.02839 -3.99869,8.52986 -6.34311,11.02541 -1.12374,1.19618 -1.63989,1.46507 -1.856825,0.96735 z m 0.762025,-0.26495 c 0.6828,-0.49484 2.28556,-2.40594 3.24018,-3.86355 1.25931,-1.92284 2.18753,-3.7956 4.02592,-8.12262 1.44698,-3.40577 2.40733,-5.42363 3.31295,-6.96103 0.86149,-1.46249 0.91568,-1.78834 0.32164,-1.9341 -0.53106,-0.13031 -1.9537,0.77189 -3.12517,1.98188 -2.79836,2.89041 -4.95616,6.34075 -6.65711,10.64472 -1.37823,3.48741 -1.996142,6.17118 -1.77549,7.71149 0.13013,0.90841 0.14089,0.9173 0.65708,0.54321 z"
       id="path3365"
       inkscape:connector-curvature="0" />
  </g>
</svg>
